<?xml version="1.0" encoding="UTF-8" standalone="no"?>
<svg xmlns:xlink="http://www.w3.org/1999/xlink" height="33.95px" width="36.9px" xmlns="http://www.w3.org/2000/svg">
  <g transform="matrix(1.0, 0.0, 0.0, 1.0, -6.9, -19.5)">
    <path d="M19.2 26.15 Q22.95 26.5 26.65 26.85 26.9 23.8 26.45 22.6 24.7 22.55 22.95 22.55 20.65 22.3 19.65 23.55 L19.2 26.15 M12.65 19.7 Q13.05 23.25 13.4 26.75 19.05 27.95 25.55 28.1 32.25 28.25 36.35 27.1 38.55 26.5 40.75 25.95 43.2 25.1 43.7 23.55 44.25 21.65 42.35 20.2 40.95 19.1 37.65 19.7 31.8 21.25 28.6 21.4 21.3 21.65 17.9 21.2 15.45 20.85 12.65 19.7 M33.55 21.7 Q34.3 23.85 35.0 26.0 41.15 25.0 41.4 23.35 41.55 22.15 40.95 21.4 40.45 20.75 39.85 20.7 L36.65 21.0 Q35.1 21.35 33.55 21.7" fill="#000000" fill-rule="evenodd" stroke="none">
      <animate attributeName="fill" dur="2s" repeatCount="indefinite" values="#000000;#000001"/>
      <animate attributeName="fill-opacity" dur="2s" repeatCount="indefinite" values="1.0;1.0"/>
      <animate attributeName="d" dur="2s" repeatCount="indefinite" values="M19.2 26.15 Q22.95 26.5 26.65 26.85 26.9 23.8 26.45 22.6 24.7 22.55 22.95 22.55 20.65 22.3 19.65 23.55 L19.2 26.15 M12.65 19.7 Q13.05 23.25 13.4 26.75 19.05 27.95 25.55 28.1 32.25 28.25 36.35 27.1 38.55 26.5 40.75 25.95 43.2 25.1 43.7 23.55 44.25 21.65 42.35 20.2 40.95 19.1 37.65 19.7 31.8 21.25 28.6 21.4 21.3 21.65 17.9 21.2 15.45 20.85 12.65 19.7 M33.55 21.7 Q34.3 23.85 35.0 26.0 41.15 25.0 41.4 23.35 41.55 22.15 40.95 21.4 40.45 20.75 39.85 20.7 L36.65 21.0 Q35.1 21.35 33.55 21.7;M8.95 30.5 Q9.05 32.65 10.25 37.85 13.2 37.3 14.3 36.55 13.8 35.2 13.45 33.15 13.05 30.85 11.6 30.2 L8.95 30.5 M6.9 25.0 Q7.15 30.8 8.75 37.1 10.3 43.6 12.5 47.3 13.65 49.25 14.75 51.2 16.15 53.35 17.8 53.45 19.8 53.5 20.75 51.25 21.4 49.65 19.95 46.6 16.95 41.35 16.0 38.3 13.85 31.3 13.45 27.9 13.1 25.5 13.55 22.45 10.2 23.75 6.9 25.0 M13.25 45.65 Q15.75 51.35 19.2 50.25 19.65 49.6 19.6 49.0 19.4 47.75 18.45 46.0 17.7 44.55 17.0 43.15 L15.95 44.2 Q14.6 45.2 13.25 45.65"/>
    </path>
    <path d="M19.2 26.15 Q22.95 26.5 26.65 26.85 26.9 23.8 26.45 22.6 24.7 22.55 22.95 22.55 20.65 22.3 19.65 23.55 L19.2 26.15" fill="#9eadb3" fill-rule="evenodd" stroke="none">
      <animate attributeName="fill" dur="2s" repeatCount="indefinite" values="#9eadb3;#9eadb4"/>
      <animate attributeName="fill-opacity" dur="2s" repeatCount="indefinite" values="1.0;1.0"/>
      <animate attributeName="d" dur="2s" repeatCount="indefinite" values="M19.2 26.15 Q22.95 26.5 26.65 26.85 26.9 23.8 26.45 22.6 24.7 22.55 22.95 22.55 20.65 22.3 19.65 23.55 L19.2 26.15;M8.95 30.5 Q9.05 32.65 10.25 37.85 13.2 37.3 14.3 36.55 13.8 35.2 13.45 33.15 13.05 30.85 11.6 30.2 L8.95 30.5"/>
    </path>
    <path d="M33.55 21.7 Q34.3 23.85 35.0 26.0 41.15 25.0 41.4 23.35 41.55 22.15 40.95 21.4 40.45 20.75 39.85 20.7 L36.65 21.0 Q35.1 21.35 33.55 21.7" fill="#ffffff" fill-rule="evenodd" stroke="none">
      <animate attributeName="fill" dur="2s" repeatCount="indefinite" values="#ffffff;#ffffff"/>
      <animate attributeName="fill-opacity" dur="2s" repeatCount="indefinite" values="1.0;1.0"/>
      <animate attributeName="d" dur="2s" repeatCount="indefinite" values="M33.55 21.7 Q34.3 23.85 35.0 26.0 41.15 25.0 41.4 23.35 41.55 22.15 40.95 21.4 40.45 20.75 39.85 20.7 L36.65 21.0 Q35.1 21.35 33.55 21.7;M13.25 45.65 Q15.75 51.35 19.2 50.25 19.65 49.6 19.6 49.0 19.4 47.75 18.45 46.0 17.7 44.55 17.0 43.15 L15.95 44.2 Q14.6 45.2 13.25 45.65"/>
    </path>
    <path d="M12.65 19.7 Q15.45 20.85 17.9 21.2 21.3 21.65 28.6 21.4 31.8 21.25 37.65 19.7 40.95 19.1 42.35 20.2 44.25 21.65 43.7 23.55 43.2 25.1 40.75 25.95 38.55 26.5 36.35 27.1 32.25 28.25 25.55 28.1 19.05 27.95 13.4 26.75 13.05 23.25 12.65 19.7 M19.2 26.15 L19.65 23.55 Q20.65 22.3 22.95 22.55 24.7 22.55 26.45 22.6 26.9 23.8 26.65 26.85 22.95 26.5 19.2 26.15 L19.65 23.55 Q20.65 22.3 22.95 22.55 24.7 22.55 26.45 22.6 26.9 23.8 26.65 26.85 22.95 26.5 19.2 26.15 M33.55 21.7 Q35.1 21.35 36.65 21.0 L39.85 20.7 Q40.45 20.75 40.95 21.4 41.55 22.15 41.4 23.35 41.15 25.0 35.0 26.0 34.3 23.85 33.55 21.7 35.1 21.35 36.65 21.0 L39.85 20.7 Q40.45 20.75 40.95 21.4 41.55 22.15 41.4 23.35 41.15 25.0 35.0 26.0 34.3 23.85 33.55 21.7" fill="none" stroke="#000000" stroke-linecap="round" stroke-linejoin="round" stroke-opacity="0.0" stroke-width="1.0">
      <animate attributeName="stroke" dur="2s" repeatCount="indefinite" values="#000000;#000001"/>
      <animate attributeName="stroke-width" dur="2s" repeatCount="indefinite" values="0.0;0.0"/>
      <animate attributeName="fill-opacity" dur="2s" repeatCount="indefinite" values="0.0;0.0"/>
      <animate attributeName="d" dur="2s" repeatCount="indefinite" values="M12.65 19.7 Q15.45 20.85 17.9 21.2 21.3 21.65 28.6 21.4 31.8 21.25 37.65 19.7 40.95 19.1 42.35 20.2 44.25 21.65 43.7 23.55 43.2 25.1 40.75 25.95 38.55 26.5 36.35 27.1 32.25 28.25 25.55 28.1 19.05 27.95 13.4 26.75 13.05 23.25 12.65 19.7 M19.2 26.15 L19.65 23.55 Q20.65 22.3 22.95 22.55 24.7 22.55 26.45 22.6 26.9 23.8 26.65 26.85 22.95 26.5 19.2 26.15 L19.65 23.55 Q20.65 22.3 22.95 22.55 24.7 22.55 26.45 22.6 26.9 23.8 26.65 26.85 22.95 26.5 19.2 26.15 M33.55 21.7 Q35.1 21.35 36.65 21.0 L39.85 20.7 Q40.45 20.75 40.95 21.4 41.55 22.15 41.4 23.35 41.15 25.0 35.0 26.0 34.3 23.85 33.55 21.7 35.1 21.35 36.65 21.0 L39.85 20.7 Q40.45 20.75 40.95 21.4 41.55 22.15 41.4 23.35 41.15 25.0 35.0 26.0 34.3 23.85 33.55 21.7;M6.9 25.0 Q10.2 23.75 13.55 22.45 13.1 25.5 13.45 27.9 13.85 31.3 16.0 38.3 16.95 41.35 19.95 46.6 21.4 49.65 20.75 51.25 19.8 53.5 17.8 53.45 16.15 53.35 14.75 51.2 13.65 49.25 12.5 47.3 10.3 43.6 8.75 37.1 7.15 30.8 6.9 25.0 M8.95 30.5 L11.6 30.2 Q13.05 30.85 13.45 33.15 13.8 35.2 14.3 36.55 13.2 37.3 10.25 37.85 9.05 32.65 8.95 30.5 L11.6 30.2 Q13.05 30.85 13.45 33.15 13.8 35.2 14.3 36.55 13.2 37.3 10.25 37.85 9.05 32.65 8.95 30.5 M13.25 45.65 Q14.6 45.2 15.95 44.2 L17.0 43.15 Q17.7 44.55 18.45 46.0 19.4 47.75 19.6 49.0 19.65 49.6 19.2 50.25 15.75 51.35 13.25 45.65 14.6 45.2 15.95 44.2 L17.0 43.15 Q17.7 44.55 18.45 46.0 19.4 47.75 19.6 49.0 19.65 49.6 19.2 50.25 15.75 51.35 13.25 45.65"/>
    </path>
  </g>
</svg>
