<?xml version="1.0" encoding="UTF-8" standalone="no"?>
<svg xmlns:xlink="http://www.w3.org/1999/xlink" height="33.95px" width="36.95px" xmlns="http://www.w3.org/2000/svg">
  <g transform="matrix(1.0, 0.0, 0.0, 1.0, -6.9, -19.5)">
    <path d="M8.95 30.5 Q9.05 32.65 10.25 37.85 13.2 37.3 14.3 36.55 13.8 35.2 13.45 33.15 13.05 30.85 11.6 30.2 L8.95 30.5 M6.9 25.0 L7.3 29.5 7.85 33.0 8.05 33.9 8.4 35.6 8.55 36.2 8.75 37.1 Q10.05 42.65 11.85 46.15 L12.5 47.3 14.75 51.2 Q15.85 52.9 17.1 53.35 L17.8 53.45 Q19.45 53.5 20.4 52.0 L20.75 51.25 Q21.15 50.25 20.75 48.75 20.35 47.65 19.95 46.6 L19.55 45.95 Q18.6 44.1 17.65 42.25 16.5 39.95 16.0 38.3 L15.0 34.95 Q13.75 30.4 13.45 27.9 13.3 26.85 13.3 25.65 L13.55 22.45 12.3 22.95 9.9 23.85 6.9 25.0 M13.25 45.65 Q15.75 51.35 19.2 50.25 19.65 49.6 19.6 49.0 19.4 47.75 18.45 46.0 17.7 44.55 17.0 43.15 L15.95 44.2 Q14.6 45.2 13.25 45.65" fill="#000000" fill-rule="evenodd" stroke="none">
      <animate attributeName="fill" dur="2s" repeatCount="indefinite" values="#000000;#000001"/>
      <animate attributeName="fill-opacity" dur="2s" repeatCount="indefinite" values="1.0;1.0"/>
      <animate attributeName="d" dur="2s" repeatCount="indefinite" values="M8.95 30.5 Q9.05 32.65 10.25 37.85 13.2 37.3 14.3 36.55 13.8 35.2 13.45 33.15 13.05 30.85 11.6 30.2 L8.95 30.5 M6.9 25.0 L7.3 29.5 7.85 33.0 8.05 33.9 8.4 35.6 8.55 36.2 8.75 37.1 Q10.05 42.65 11.85 46.15 L12.5 47.3 14.75 51.2 Q15.85 52.9 17.1 53.35 L17.8 53.45 Q19.45 53.5 20.4 52.0 L20.75 51.25 Q21.15 50.25 20.75 48.75 20.35 47.65 19.95 46.6 L19.55 45.95 Q18.6 44.1 17.65 42.25 16.5 39.95 16.0 38.3 L15.0 34.95 Q13.75 30.4 13.45 27.9 13.3 26.85 13.3 25.65 L13.55 22.45 12.3 22.95 9.9 23.85 6.9 25.0 M13.25 45.65 Q15.75 51.35 19.2 50.25 19.65 49.6 19.6 49.0 19.4 47.75 18.45 46.0 17.7 44.55 17.0 43.15 L15.95 44.2 Q14.6 45.2 13.25 45.65;M19.2 26.15 Q22.95 26.5 26.65 26.85 26.9 23.8 26.45 22.6 24.7 22.55 22.95 22.55 20.65 22.3 19.65 23.55 L19.2 26.15 M9.45 24.0 L9.45 29.05 13.6 29.05 13.45 27.9 13.3 25.95 13.4 26.75 14.5 26.95 Q20.05 27.55 25.55 28.1 L27.3 28.1 32.8 27.8 Q34.6 27.45 36.35 27.1 L37.15 26.9 Q38.95 26.4 40.75 25.95 L41.65 25.6 Q43.3 24.8 43.7 23.55 44.15 22.05 43.05 20.85 L42.35 20.2 Q40.95 19.1 37.65 19.7 35.2 20.3 32.75 20.85 L28.6 21.4 Q24.55 21.4 20.5 21.4 19.2 21.3 17.9 21.2 L14.15 20.25 12.65 19.7 12.95 22.7 9.45 24.0 M33.55 21.7 Q34.3 23.85 35.0 26.0 41.15 25.0 41.4 23.35 41.55 22.15 40.95 21.4 40.45 20.75 39.85 20.7 L36.65 21.0 Q35.1 21.35 33.55 21.7"/>
    </path>
    <path d="M8.95 30.5 Q9.05 32.65 10.25 37.85 13.2 37.3 14.3 36.55 13.8 35.2 13.45 33.15 13.05 30.85 11.6 30.2 L8.95 30.5" fill="#9eadb3" fill-rule="evenodd" stroke="none">
      <animate attributeName="fill" dur="2s" repeatCount="indefinite" values="#9eadb3;#9eadb4"/>
      <animate attributeName="fill-opacity" dur="2s" repeatCount="indefinite" values="1.0;1.0"/>
      <animate attributeName="d" dur="2s" repeatCount="indefinite" values="M8.95 30.5 Q9.05 32.65 10.25 37.85 13.2 37.3 14.3 36.55 13.8 35.2 13.45 33.15 13.05 30.85 11.6 30.2 L8.95 30.5;M19.2 26.15 Q22.95 26.5 26.65 26.85 26.9 23.8 26.45 22.6 24.7 22.55 22.95 22.55 20.65 22.3 19.65 23.55 L19.2 26.15"/>
    </path>
    <path d="M13.25 45.65 Q15.75 51.35 19.2 50.25 19.65 49.6 19.6 49.0 19.4 47.75 18.45 46.0 17.7 44.55 17.0 43.15 L15.95 44.2 Q14.6 45.2 13.25 45.65" fill="#ffffff" fill-rule="evenodd" stroke="none">
      <animate attributeName="fill" dur="2s" repeatCount="indefinite" values="#ffffff;#ffffff"/>
      <animate attributeName="fill-opacity" dur="2s" repeatCount="indefinite" values="1.0;1.0"/>
      <animate attributeName="d" dur="2s" repeatCount="indefinite" values="M13.25 45.65 Q15.75 51.35 19.2 50.25 19.65 49.6 19.6 49.0 19.4 47.75 18.45 46.0 17.7 44.55 17.0 43.15 L15.95 44.2 Q14.6 45.2 13.25 45.65;M33.55 21.7 Q34.3 23.85 35.0 26.0 41.15 25.0 41.4 23.35 41.55 22.15 40.95 21.4 40.45 20.75 39.85 20.7 L36.65 21.0 Q35.1 21.35 33.55 21.7"/>
    </path>
    <path d="M6.9 25.0 L9.9 23.85 12.3 22.95 13.55 22.45 13.3 25.65 Q13.3 26.85 13.45 27.9 13.75 30.4 15.0 34.95 L16.0 38.3 Q16.5 39.95 17.65 42.25 18.6 44.1 19.55 45.95 L19.95 46.6 Q20.35 47.65 20.75 48.75 21.15 50.25 20.75 51.25 L20.4 52.0 Q19.45 53.5 17.8 53.45 L17.1 53.35 Q15.85 52.9 14.75 51.2 L12.5 47.3 11.85 46.15 Q10.05 42.65 8.75 37.1 L8.55 36.2 8.4 35.6 8.05 33.9 7.85 33.0 7.3 29.5 6.9 25.0 M8.95 30.5 L11.6 30.2 Q13.05 30.85 13.45 33.15 13.8 35.2 14.3 36.55 13.2 37.3 10.25 37.85 9.05 32.65 8.95 30.5 L11.6 30.2 Q13.05 30.85 13.45 33.15 13.8 35.2 14.3 36.55 13.2 37.3 10.25 37.85 9.05 32.65 8.95 30.5 M13.25 45.65 Q14.6 45.2 15.95 44.2 L17.0 43.15 Q17.7 44.55 18.45 46.0 19.4 47.75 19.6 49.0 19.65 49.6 19.2 50.25 15.75 51.35 13.25 45.65 14.6 45.2 15.95 44.2 L17.0 43.15 Q17.7 44.55 18.45 46.0 19.4 47.75 19.6 49.0 19.65 49.6 19.2 50.25 15.75 51.35 13.25 45.65" fill="none" stroke="#000000" stroke-linecap="round" stroke-linejoin="round" stroke-opacity="0.0" stroke-width="1.0">
      <animate attributeName="stroke" dur="2s" repeatCount="indefinite" values="#000000;#000001"/>
      <animate attributeName="stroke-width" dur="2s" repeatCount="indefinite" values="0.0;0.0"/>
      <animate attributeName="fill-opacity" dur="2s" repeatCount="indefinite" values="0.0;0.0"/>
      <animate attributeName="d" dur="2s" repeatCount="indefinite" values="M6.9 25.0 L9.9 23.85 12.3 22.95 13.55 22.45 13.3 25.65 Q13.3 26.85 13.45 27.9 13.75 30.4 15.0 34.95 L16.0 38.3 Q16.5 39.95 17.65 42.25 18.6 44.1 19.55 45.95 L19.95 46.6 Q20.35 47.65 20.75 48.75 21.15 50.25 20.75 51.25 L20.4 52.0 Q19.45 53.5 17.8 53.45 L17.1 53.35 Q15.85 52.9 14.75 51.2 L12.5 47.3 11.85 46.15 Q10.05 42.65 8.75 37.1 L8.55 36.2 8.4 35.6 8.05 33.9 7.85 33.0 7.3 29.5 6.9 25.0 M8.95 30.5 L11.6 30.2 Q13.05 30.85 13.45 33.15 13.8 35.2 14.3 36.55 13.2 37.3 10.25 37.85 9.05 32.65 8.95 30.5 L11.6 30.2 Q13.05 30.85 13.45 33.15 13.8 35.2 14.3 36.55 13.2 37.3 10.25 37.85 9.05 32.65 8.95 30.5 M13.25 45.65 Q14.6 45.2 15.95 44.2 L17.0 43.15 Q17.7 44.55 18.45 46.0 19.4 47.75 19.6 49.0 19.65 49.6 19.2 50.25 15.75 51.35 13.25 45.65 14.6 45.2 15.95 44.2 L17.0 43.15 Q17.7 44.55 18.45 46.0 19.4 47.75 19.6 49.0 19.65 49.6 19.2 50.25 15.75 51.35 13.25 45.65;M9.45 24.0 L12.95 22.7 12.65 19.7 14.15 20.25 17.9 21.2 Q19.2 21.3 20.5 21.4 24.55 21.4 28.6 21.4 L32.75 20.85 Q35.2 20.3 37.65 19.7 40.95 19.1 42.35 20.2 L43.05 20.85 Q44.15 22.05 43.7 23.55 43.3 24.8 41.65 25.6 L40.75 25.95 Q38.95 26.4 37.15 26.9 L36.35 27.1 Q34.6 27.45 32.8 27.8 L27.3 28.1 25.55 28.1 Q20.05 27.55 14.5 26.95 L13.4 26.75 13.3 25.95 13.45 27.9 13.6 29.05 9.45 29.05 9.45 24.0 M19.2 26.15 L19.65 23.55 Q20.65 22.3 22.95 22.55 24.7 22.55 26.45 22.6 26.9 23.8 26.65 26.85 22.95 26.5 19.2 26.15 L19.65 23.55 Q20.65 22.3 22.95 22.55 24.7 22.55 26.45 22.6 26.9 23.8 26.65 26.85 22.95 26.5 19.2 26.15 M33.55 21.7 Q35.1 21.35 36.65 21.0 L39.85 20.7 Q40.45 20.75 40.95 21.4 41.55 22.15 41.4 23.35 41.15 25.0 35.0 26.0 34.3 23.85 33.55 21.7 35.1 21.35 36.65 21.0 L39.85 20.7 Q40.45 20.75 40.95 21.4 41.55 22.15 41.4 23.35 41.15 25.0 35.0 26.0 34.3 23.85 33.55 21.7"/>
    </path>
  </g>
</svg>
