<?xml version="1.0" encoding="UTF-8" standalone="no"?>
<svg xmlns:xlink="http://www.w3.org/1999/xlink" height="121.55px" width="96.0px" xmlns="http://www.w3.org/2000/svg">
  <g transform="matrix(1.0, 0.0, 0.0, 1.0, 48.0, 60.75)">
    <path d="M5.25 -3.65 L5.05 -3.5 -3.7 -3.5 -3.85 -3.65 -7.5 -10.9 -7.3 -11.05 9.05 -11.05 9.25 -10.9 5.25 -3.65 Z" fill="none" stroke="#000000" stroke-linecap="round" stroke-linejoin="round" stroke-width="3.0"/>
    <path d="M-4.2 -10.9 L-2.05 -3.65 -3.65 -3.65 -7.3 -10.9 -4.2 -10.9 Z" fill="none" stroke="#000000" stroke-linecap="round" stroke-linejoin="round" stroke-width="3.0"/>
    <path d="M5.8 -10.9 L3.65 -3.65 5.25 -3.65 8.9 -10.9 5.8 -10.9 Z" fill="none" stroke="#000000" stroke-linecap="round" stroke-linejoin="round" stroke-width="3.0"/>
    <path d="M5.25 2.55 L5.05 2.7 -3.7 2.7 -3.85 2.55 -7.5 -4.7 -7.3 -4.85 9.05 -4.85 9.25 -4.7 5.25 2.55 Z" fill="none" stroke="#000000" stroke-linecap="round" stroke-linejoin="round" stroke-width="3.0"/>
    <path d="M-4.2 -4.7 L-2.05 2.55 -3.65 2.55 -7.3 -4.7 -4.2 -4.7 Z" fill="none" stroke="#000000" stroke-linecap="round" stroke-linejoin="round" stroke-width="3.0"/>
    <path d="M5.8 -4.7 L3.65 2.55 5.25 2.55 8.9 -4.7 5.8 -4.7 Z" fill="none" stroke="#000000" stroke-linecap="round" stroke-linejoin="round" stroke-width="3.0"/>
    <path d="M5.25 8.25 L5.05 8.4 -3.7 8.4 -3.85 8.25 -7.5 1.0 Q-7.5 0.85 -7.3 0.85 L9.05 0.85 9.25 1.0 5.25 8.25 Z" fill="none" stroke="#000000" stroke-linecap="round" stroke-linejoin="round" stroke-width="3.0"/>
    <path d="M-4.2 0.95 L-2.05 8.2 -3.65 8.2 -7.3 0.95 -4.2 0.95 Z" fill="none" stroke="#000000" stroke-linecap="round" stroke-linejoin="round" stroke-width="3.0"/>
    <path d="M5.8 0.95 L3.65 8.2 5.25 8.2 8.9 0.95 5.8 0.95 Z" fill="none" stroke="#000000" stroke-linecap="round" stroke-linejoin="round" stroke-width="3.0"/>
    <path d="M5.25 13.9 L5.05 14.05 -3.7 14.05 -3.85 13.9 -7.5 6.65 Q-7.5 6.5 -7.3 6.5 L9.05 6.5 9.25 6.65 5.25 13.9 Z" fill="none" stroke="#000000" stroke-linecap="round" stroke-linejoin="round" stroke-width="3.0"/>
    <path d="M-4.2 6.65 L-2.05 13.9 -3.65 13.9 -7.3 6.65 -4.2 6.65 Z" fill="none" stroke="#000000" stroke-linecap="round" stroke-linejoin="round" stroke-width="3.0"/>
    <path d="M5.8 6.65 L3.65 13.9 5.25 13.9 8.9 6.65 5.8 6.65 Z" fill="none" stroke="#000000" stroke-linecap="round" stroke-linejoin="round" stroke-width="3.0"/>
    <path d="M5.25 19.55 L5.05 19.7 -3.7 19.7 -3.85 19.55 -7.5 12.3 Q-7.5 12.15 -7.3 12.15 L9.05 12.15 9.25 12.3 5.25 19.55 Z" fill="none" stroke="#000000" stroke-linecap="round" stroke-linejoin="round" stroke-width="3.0"/>
    <path d="M-4.2 12.3 L-2.05 19.55 -3.65 19.55 -7.3 12.3 -4.2 12.3 Z" fill="none" stroke="#000000" stroke-linecap="round" stroke-linejoin="round" stroke-width="3.0"/>
    <path d="M5.8 12.3 L3.65 19.55 5.25 19.55 8.9 12.3 5.8 12.3 Z" fill="none" stroke="#000000" stroke-linecap="round" stroke-linejoin="round" stroke-width="3.0"/>
    <path d="M5.25 25.2 L5.05 25.35 -3.7 25.35 -3.85 25.2 -7.5 17.95 Q-7.5 17.8 -7.3 17.8 L9.05 17.8 9.25 17.95 5.25 25.2 Z" fill="none" stroke="#000000" stroke-linecap="round" stroke-linejoin="round" stroke-width="3.0"/>
    <path d="M-4.2 17.95 L-2.05 25.2 -3.65 25.2 -7.3 17.95 -4.2 17.95 Z" fill="none" stroke="#000000" stroke-linecap="round" stroke-linejoin="round" stroke-width="3.0"/>
    <path d="M5.8 17.95 L3.65 25.2 5.25 25.2 8.9 17.95 5.8 17.95 Z" fill="none" stroke="#000000" stroke-linecap="round" stroke-linejoin="round" stroke-width="3.0"/>
    <path d="M5.25 30.85 L5.05 31.0 -3.7 31.0 -3.85 30.85 -7.5 23.6 Q-7.5 23.45 -7.3 23.45 L9.05 23.45 9.25 23.6 5.25 30.85 Z" fill="none" stroke="#000000" stroke-linecap="round" stroke-linejoin="round" stroke-width="3.0"/>
    <path d="M-4.2 23.6 L-2.05 30.85 -3.65 30.85 -7.3 23.6 -4.2 23.6 Z" fill="none" stroke="#000000" stroke-linecap="round" stroke-linejoin="round" stroke-width="3.0"/>
    <path d="M5.8 23.6 L3.65 30.85 5.25 30.85 8.9 23.6 5.8 23.6 Z" fill="none" stroke="#000000" stroke-linecap="round" stroke-linejoin="round" stroke-width="3.0"/>
    <path d="M5.25 36.55 L5.05 36.7 -3.7 36.7 -3.85 36.55 -7.5 29.3 Q-7.5 29.15 -7.3 29.15 L9.05 29.15 9.25 29.3 5.25 36.55 Z" fill="none" stroke="#000000" stroke-linecap="round" stroke-linejoin="round" stroke-width="3.0"/>
    <path d="M-4.2 29.25 L-2.05 36.5 -3.65 36.5 -7.3 29.25 -4.2 29.25 Z" fill="none" stroke="#000000" stroke-linecap="round" stroke-linejoin="round" stroke-width="3.0"/>
    <path d="M5.8 29.25 L3.65 36.5 5.25 36.5 8.9 29.25 5.8 29.25 Z" fill="none" stroke="#000000" stroke-linecap="round" stroke-linejoin="round" stroke-width="3.0"/>
    <path d="M5.25 42.2 L5.05 42.35 -3.7 42.35 -3.85 42.2 -7.5 34.95 Q-7.5 34.8 -7.3 34.8 L9.05 34.8 9.25 34.95 5.25 42.2 Z" fill="none" stroke="#000000" stroke-linecap="round" stroke-linejoin="round" stroke-width="3.0"/>
    <path d="M-4.2 34.95 L-2.05 42.2 -3.65 42.2 -7.3 34.95 -4.2 34.95 Z" fill="none" stroke="#000000" stroke-linecap="round" stroke-linejoin="round" stroke-width="3.0"/>
    <path d="M5.8 34.95 L3.65 42.2 5.25 42.2 8.9 34.95 5.8 34.95 Z" fill="none" stroke="#000000" stroke-linecap="round" stroke-linejoin="round" stroke-width="3.0"/>
    <path d="M5.25 47.85 L5.05 48.0 -3.7 48.0 -3.85 47.85 -7.5 40.6 Q-7.5 40.45 -7.3 40.45 L9.05 40.45 9.25 40.6 5.25 47.85 Z" fill="none" stroke="#000000" stroke-linecap="round" stroke-linejoin="round" stroke-width="3.0"/>
    <path d="M-4.2 40.6 L-2.05 47.85 -3.65 47.85 -7.3 40.6 -4.2 40.6 Z" fill="none" stroke="#000000" stroke-linecap="round" stroke-linejoin="round" stroke-width="3.0"/>
    <path d="M5.8 40.6 L3.65 47.85 5.25 47.85 8.9 40.6 5.8 40.6 Z" fill="none" stroke="#000000" stroke-linecap="round" stroke-linejoin="round" stroke-width="3.0"/>
    <path d="M5.25 53.5 L5.05 53.65 -3.7 53.65 -3.85 53.5 -7.5 46.25 Q-7.5 46.1 -7.3 46.1 L9.05 46.1 9.25 46.25 5.25 53.5 Z" fill="none" stroke="#000000" stroke-linecap="round" stroke-linejoin="round" stroke-width="3.0"/>
    <path d="M-4.2 46.25 L-2.05 53.5 -3.65 53.5 -7.3 46.25 -4.2 46.25 Z" fill="none" stroke="#000000" stroke-linecap="round" stroke-linejoin="round" stroke-width="3.0"/>
    <path d="M5.8 46.25 L3.65 53.5 5.25 53.5 8.9 46.25 5.8 46.25 Z" fill="none" stroke="#000000" stroke-linecap="round" stroke-linejoin="round" stroke-width="3.0"/>
    <path d="M5.25 59.15 L5.05 59.3 -3.7 59.3 -3.85 59.15 -7.5 51.9 Q-7.5 51.75 -7.3 51.75 L9.05 51.75 9.25 51.9 5.25 59.15 Z" fill="none" stroke="#000000" stroke-linecap="round" stroke-linejoin="round" stroke-width="3.0"/>
    <path d="M-4.2 51.9 L-2.05 59.15 -3.65 59.15 -7.3 51.9 -4.2 51.9 Z" fill="none" stroke="#000000" stroke-linecap="round" stroke-linejoin="round" stroke-width="3.0"/>
    <path d="M5.8 51.9 L3.65 59.15 5.25 59.15 8.9 51.9 5.8 51.9 Z" fill="none" stroke="#000000" stroke-linecap="round" stroke-linejoin="round" stroke-width="3.0"/>
    <path d="M5.25 -3.65 L5.05 -3.5 -3.7 -3.5 -3.85 -3.65 -7.5 -10.9 -7.3 -11.05 9.05 -11.05 9.25 -10.9 5.25 -3.65" fill="#aca233" fill-rule="evenodd" stroke="none"/>
    <path d="M-4.2 -10.9 L-2.05 -3.65 -3.65 -3.65 -7.3 -10.9 -4.2 -10.9" fill="#c2c27a" fill-rule="evenodd" stroke="none"/>
    <path d="M5.8 -10.9 L8.9 -10.9 5.25 -3.65 3.65 -3.65 5.8 -10.9" fill="#91915b" fill-rule="evenodd" stroke="none"/>
    <path d="M5.25 2.55 L5.05 2.7 -3.7 2.7 -3.85 2.55 -7.5 -4.7 -7.3 -4.85 9.05 -4.85 9.25 -4.7 5.25 2.55" fill="#aca233" fill-rule="evenodd" stroke="none"/>
    <path d="M-4.2 -4.7 L-2.05 2.55 -3.65 2.55 -7.3 -4.7 -4.2 -4.7" fill="#c2c27a" fill-rule="evenodd" stroke="none"/>
    <path d="M5.8 -4.7 L8.9 -4.7 5.25 2.55 3.65 2.55 5.8 -4.7" fill="#91915b" fill-rule="evenodd" stroke="none"/>
    <path d="M5.25 8.25 L5.05 8.4 -3.7 8.4 -3.85 8.25 -7.5 1.0 Q-7.5 0.85 -7.3 0.85 L9.05 0.85 9.25 1.0 5.25 8.25" fill="#aca233" fill-rule="evenodd" stroke="none"/>
    <path d="M-4.2 0.95 L-2.05 8.2 -3.65 8.2 -7.3 0.95 -4.2 0.95" fill="#c2c27a" fill-rule="evenodd" stroke="none"/>
    <path d="M5.8 0.95 L8.9 0.95 5.25 8.2 3.65 8.2 5.8 0.95" fill="#91915b" fill-rule="evenodd" stroke="none"/>
    <path d="M5.25 13.9 L5.05 14.05 -3.7 14.05 -3.85 13.9 -7.5 6.65 Q-7.5 6.5 -7.3 6.5 L9.05 6.5 9.25 6.65 5.25 13.9" fill="#aca233" fill-rule="evenodd" stroke="none"/>
    <path d="M-4.2 6.65 L-2.05 13.9 -3.65 13.9 -7.3 6.65 -4.2 6.65" fill="#c2c27a" fill-rule="evenodd" stroke="none"/>
    <path d="M5.8 6.65 L8.9 6.65 5.25 13.9 3.65 13.9 5.8 6.65" fill="#91915b" fill-rule="evenodd" stroke="none"/>
    <path d="M5.25 19.55 L5.05 19.7 -3.7 19.7 -3.85 19.55 -7.5 12.3 Q-7.5 12.15 -7.3 12.15 L9.05 12.15 9.25 12.3 5.25 19.55" fill="#aca233" fill-rule="evenodd" stroke="none"/>
    <path d="M-4.2 12.3 L-2.05 19.55 -3.65 19.55 -7.3 12.3 -4.2 12.3" fill="#c2c27a" fill-rule="evenodd" stroke="none"/>
    <path d="M5.8 12.3 L8.9 12.3 5.25 19.55 3.65 19.55 5.8 12.3" fill="#91915b" fill-rule="evenodd" stroke="none"/>
    <path d="M5.25 25.2 L5.05 25.35 -3.7 25.35 -3.85 25.2 -7.5 17.95 Q-7.5 17.8 -7.3 17.8 L9.05 17.8 9.25 17.95 5.25 25.2" fill="#aca233" fill-rule="evenodd" stroke="none"/>
    <path d="M-4.2 17.95 L-2.05 25.2 -3.65 25.2 -7.3 17.95 -4.2 17.95" fill="#c2c27a" fill-rule="evenodd" stroke="none"/>
    <path d="M5.8 17.95 L8.9 17.95 5.25 25.2 3.65 25.2 5.8 17.95" fill="#91915b" fill-rule="evenodd" stroke="none"/>
    <path d="M5.25 30.85 L5.05 31.0 -3.7 31.0 -3.85 30.85 -7.5 23.6 Q-7.5 23.45 -7.3 23.45 L9.05 23.45 9.25 23.6 5.25 30.85" fill="#aca233" fill-rule="evenodd" stroke="none"/>
    <path d="M-4.2 23.6 L-2.05 30.85 -3.65 30.85 -7.3 23.6 -4.2 23.6" fill="#c2c27a" fill-rule="evenodd" stroke="none"/>
    <path d="M5.8 23.6 L8.9 23.6 5.25 30.85 3.65 30.85 5.8 23.6" fill="#91915b" fill-rule="evenodd" stroke="none"/>
    <path d="M5.25 36.55 L5.05 36.7 -3.7 36.7 -3.85 36.55 -7.5 29.3 Q-7.5 29.15 -7.3 29.15 L9.05 29.15 9.25 29.3 5.25 36.55" fill="#aca233" fill-rule="evenodd" stroke="none"/>
    <path d="M-4.2 29.25 L-2.05 36.5 -3.65 36.5 -7.3 29.25 -4.2 29.25" fill="#c2c27a" fill-rule="evenodd" stroke="none"/>
    <path d="M5.8 29.25 L8.9 29.25 5.25 36.5 3.65 36.5 5.8 29.25" fill="#91915b" fill-rule="evenodd" stroke="none"/>
    <path d="M5.25 42.2 L5.05 42.35 -3.7 42.35 -3.85 42.2 -7.5 34.95 Q-7.5 34.8 -7.3 34.8 L9.05 34.8 9.25 34.95 5.25 42.2" fill="#aca233" fill-rule="evenodd" stroke="none"/>
    <path d="M-4.2 34.95 L-2.05 42.2 -3.65 42.2 -7.3 34.95 -4.2 34.95" fill="#c2c27a" fill-rule="evenodd" stroke="none"/>
    <path d="M5.8 34.95 L8.9 34.95 5.25 42.2 3.65 42.2 5.8 34.95" fill="#91915b" fill-rule="evenodd" stroke="none"/>
    <path d="M5.25 47.85 L5.05 48.0 -3.7 48.0 -3.85 47.85 -7.5 40.6 Q-7.5 40.45 -7.3 40.45 L9.05 40.45 9.25 40.6 5.25 47.85" fill="#aca233" fill-rule="evenodd" stroke="none"/>
    <path d="M-4.2 40.6 L-2.05 47.85 -3.65 47.85 -7.3 40.6 -4.2 40.6" fill="#c2c27a" fill-rule="evenodd" stroke="none"/>
    <path d="M5.8 40.6 L8.9 40.6 5.25 47.85 3.65 47.85 5.8 40.6" fill="#91915b" fill-rule="evenodd" stroke="none"/>
    <path d="M5.25 53.5 L5.05 53.65 -3.7 53.65 -3.85 53.5 -7.5 46.25 Q-7.5 46.1 -7.3 46.1 L9.05 46.1 9.25 46.25 5.25 53.5" fill="#aca233" fill-rule="evenodd" stroke="none"/>
    <path d="M-4.2 46.25 L-2.05 53.5 -3.65 53.5 -7.3 46.25 -4.2 46.25" fill="#c2c27a" fill-rule="evenodd" stroke="none"/>
    <path d="M5.8 46.25 L8.9 46.25 5.25 53.5 3.65 53.5 5.8 46.25" fill="#91915b" fill-rule="evenodd" stroke="none"/>
    <path d="M5.25 59.15 L5.05 59.3 -3.7 59.3 -3.85 59.15 -7.5 51.9 Q-7.5 51.75 -7.3 51.75 L9.05 51.75 9.25 51.9 5.25 59.15" fill="#aca233" fill-rule="evenodd" stroke="none"/>
    <path d="M-4.2 51.9 L-2.05 59.15 -3.65 59.15 -7.3 51.9 -4.2 51.9" fill="#c2c27a" fill-rule="evenodd" stroke="none"/>
    <path d="M5.8 51.9 L8.9 51.9 5.25 59.15 3.65 59.15 5.8 51.9" fill="#91915b" fill-rule="evenodd" stroke="none"/>
    <path d="M-23.7 -54.85 L3.45 -44.05 32.4 -52.6 25.15 -32.25 46.5 -16.8 14.85 -15.05 -0.9 3.1 -13.2 -16.15 -44.3 -20.4 -20.25 -34.1 -23.7 -54.85 Z" fill="none" stroke="#000000" stroke-linecap="round" stroke-linejoin="round" stroke-width="3.0"/>
    <path d="M12.6 -41.15 L44.25 -39.55 23.05 -23.95 30.5 -3.65 1.45 -12.1 -25.6 -1.15 -22.35 -22.0 -46.5 -35.55 -15.45 -39.9 -3.3 -59.25 12.6 -41.15 Z" fill="none" stroke="#000000" stroke-linecap="round" stroke-linejoin="round" stroke-width="3.0"/>
    <path d="M16.95 -37.85 L46.1 -29.6 18.45 -19.35 15.55 1.45 -7.8 -12.7 -38.8 -8.1 -25.5 -27.1 -41.75 -45.05 -10.2 -42.65 10.7 -58.35 16.95 -37.85 Z" fill="none" stroke="#000000" stroke-linecap="round" stroke-linejoin="round" stroke-width="3.0"/>
    <path d="M-23.7 -54.85 L3.45 -44.0 -0.9 3.15 -13.2 -16.15 -44.3 -20.4 -20.25 -34.05 -23.7 -54.85" fill="#99d47f" fill-rule="evenodd" stroke="none"/>
    <path d="M1.45 -12.1 L-25.6 -1.15 -22.35 -22.0 -46.5 -35.55 -15.45 -39.9 -3.3 -59.25 1.45 -12.1" fill="#99d47f" fill-rule="evenodd" stroke="none"/>
    <path d="M-7.8 -12.75 L-38.75 -8.15 -25.5 -27.15 -41.75 -45.1 -10.2 -42.65 -7.8 -12.75" fill="#99d47f" fill-rule="evenodd" stroke="none"/>
    <path d="M25.15 -32.25 L46.5 -16.75 14.85 -15.0 -0.9 3.15 3.45 -44.0 32.4 -52.6 25.15 -32.25" fill="#33a02c" fill-rule="evenodd" stroke="none"/>
    <path d="M-3.35 -59.25 L12.55 -41.15 44.25 -39.55 23.0 -23.95 30.45 -3.65 1.4 -12.1 -3.35 -59.25" fill="#33a02c" fill-rule="evenodd" stroke="none"/>
    <path d="M-10.2 -42.6 L10.75 -58.35 16.95 -37.85 46.15 -29.6 18.45 -19.35 15.55 1.45 -7.8 -12.7 -10.2 -42.6" fill="#33a02c" fill-rule="evenodd" stroke="none"/>
    <path d="M38.05 -20.25 L12.7 -18.85 0.1 -4.3 -9.7 -19.75 -34.6 -23.15 -15.35 -34.05 -18.15 -50.7 3.6 -42.05 26.75 -48.9 20.95 -32.6 38.05 -20.25" fill="#66bb50" fill-rule="evenodd" stroke="none"/>
    <path d="M25.2 -9.7 L1.95 -16.5 -19.7 -7.75 -17.05 -24.4 -36.4 -35.25 -11.55 -38.75 -1.85 -54.2 10.9 -39.7 36.2 -38.4 19.25 -25.95 25.2 -9.7" fill="#66bb50" fill-rule="evenodd" stroke="none"/>
    <path d="M13.3 -5.65 L-5.4 -17.0 -30.15 -13.3 -19.55 -28.5 -32.55 -42.85 -7.3 -40.9 9.45 -53.5 14.4 -37.1 37.75 -30.5 15.6 -22.3 13.3 -5.65" fill="#66bb50" fill-rule="evenodd" stroke="none"/>
  </g>
</svg>
