<?xml version="1.0" encoding="UTF-8" standalone="no"?>
<svg xmlns:xlink="http://www.w3.org/1999/xlink" height="120.55px" width="481.7px" xmlns="http://www.w3.org/2000/svg">
  <g transform="matrix(1.0, 0.0, 0.0, 1.0, 240.85, 60.25)">
    <path d="M142.25 -50.1 Q153.15 -44.65 175.0 -43.95 193.65 -43.4 206.25 -46.1 L216.3 -48.45 225.15 -50.1 Q234.0 -50.95 237.25 -45.1 240.4 -39.45 237.65 -22.7 236.25 -14.35 234.25 -7.1 L228.25 29.9 -240.75 29.9 -240.85 -46.65 -232.05 -48.75 -211.1 -53.15 Q-194.55 -56.2 -176.25 -57.75 -157.5 -59.3 -150.75 -58.1 -129.65 -54.25 -94.6 -50.95 -53.2 -47.1 -37.75 -49.1 -26.25 -50.6 7.0 -57.1 37.4 -62.15 50.25 -59.1 57.05 -57.5 71.25 -56.7 L98.15 -55.7 Q133.4 -54.5 142.25 -50.1" fill="#b8b29a" fill-rule="evenodd" stroke="none"/>
    <path d="M144.15 -19.7 Q155.05 -14.25 176.9 -13.55 195.55 -13.0 208.15 -15.7 L218.2 -18.05 227.05 -19.7 Q235.9 -20.55 239.15 -14.7 242.3 -9.05 239.55 7.7 238.15 16.05 236.15 23.3 L230.15 60.3 -238.85 60.3 -232.85 -16.65 -224.05 -18.75 -195.1 -24.2 Q-162.6 -30.2 -148.85 -27.7 -127.75 -23.85 -92.7 -20.55 -51.3 -16.7 -35.85 -18.7 -24.35 -20.2 8.9 -26.7 39.3 -31.75 52.15 -28.7 58.95 -27.1 73.15 -26.3 L100.05 -25.3 Q135.3 -24.1 144.15 -19.7" fill="#aba58f" fill-rule="evenodd" stroke="none"/>
  </g>
</svg>
