<?xml version="1.0" encoding="UTF-8" standalone="no"?>
<svg xmlns:xlink="http://www.w3.org/1999/xlink" height="38.2px" width="42.5px" xmlns="http://www.w3.org/2000/svg">
  <g transform="matrix(1.0, 0.0, 0.0, 1.0, 21.25, 19.1)">
    <path d="M2.55 -2.15 Q7.1 13.2 16.7 16.4 L-19.0 16.75 Q-18.3 16.2 -0.1 -16.85 L0.35 -12.4 Q1.1 -6.95 2.55 -2.15 Z" fill="none" stroke="#000000" stroke-linecap="round" stroke-linejoin="round" stroke-width="4.5"/>
    <path d="M-0.35 -16.55 L-19.0 16.75 -16.7 16.85 0.0 -14.45 -0.35 -16.55 Z" fill="none" stroke="#000000" stroke-linecap="round" stroke-linejoin="round" stroke-width="4.5"/>
    <path d="M-0.6 -13.0 L0.1 -8.85 Q1.15 -3.8 2.65 0.55 7.5 14.55 15.4 16.5 L18.25 16.6 Q15.8 16.25 12.55 13.0 5.1 5.45 0.0 -14.45 M18.25 16.6 L19.0 16.6" fill="none" stroke="#000000" stroke-linecap="round" stroke-linejoin="round" stroke-width="4.5"/>
    <path d="M2.55 -2.15 Q7.1 13.2 16.7 16.4 L-19.0 16.75 Q-18.3 16.2 -0.1 -16.85 L0.35 -12.4 Q1.1 -6.95 2.55 -2.15" fill="#ccdbe2" fill-rule="evenodd" stroke="none"/>
    <path d="M-0.35 -16.55 L0.0 -14.45 -16.7 16.85 -19.0 16.75 -0.35 -16.55" fill="#e0e0e0" fill-rule="evenodd" stroke="none"/>
    <path d="M-0.6 -13.0 L0.0 -14.45 Q5.1 5.45 12.55 13.0 15.8 16.25 18.25 16.6 L15.4 16.5 Q7.5 14.55 2.65 0.55 1.15 -3.8 0.1 -8.85 L-0.6 -13.0" fill="#b5b5b5" fill-rule="evenodd" stroke="none"/>
    <path d="M-5.65 1.2 L-5.15 0.55 1.95 5.7 -5.65 1.2" fill="#99a8af" fill-rule="evenodd" stroke="none"/>
    <path d="M-5.65 3.55 L-5.15 2.9 1.95 8.05 -5.65 3.55" fill="#99a8af" fill-rule="evenodd" stroke="none"/>
    <path d="M-5.65 5.9 L-5.15 5.3 1.95 10.45 -5.65 5.9" fill="#99a8af" fill-rule="evenodd" stroke="none"/>
  </g>
</svg>
