<?xml version="1.0" encoding="UTF-8" standalone="no"?>
<svg xmlns:xlink="http://www.w3.org/1999/xlink" height="107.15px" width="640.45px" xmlns="http://www.w3.org/2000/svg">
  <g transform="matrix(1.0, 0.0, 0.0, 1.0, 320.2, 53.55)">
    <path d="M319.8 -39.4 L319.8 53.6 -320.2 53.6 -320.2 -39.4 Q-320.15 -39.0 -313.6 -36.2 -307.1 -33.45 -294.9 -33.0 -282.7 -32.6 -265.65 -39.3 -249.2 -45.9 -242.6 -44.3 -236.05 -42.7 -233.1 -38.7 -230.15 -34.75 -224.6 -34.25 L-212.05 -33.55 Q-199.3 -33.7 -171.35 -45.4 -171.25 -45.7 -166.85 -47.35 -162.4 -49.0 -154.75 -48.15 -147.1 -47.35 -137.4 -40.3 -137.25 -39.8 -129.95 -36.55 -122.7 -33.3 -109.8 -33.8 -96.95 -34.25 -80.1 -44.9 -79.95 -45.55 -71.9 -49.6 -63.85 -53.65 -49.6 -53.5 -35.35 -53.35 -16.7 -41.35 -16.65 -40.7 -8.75 -36.9 -0.85 -33.05 14.55 -33.45 29.9 -33.85 52.25 -45.9 52.7 -46.4 60.6 -49.0 68.5 -51.6 78.5 -50.4 88.55 -49.2 95.35 -38.3 95.15 -37.7 100.65 -34.35 106.1 -30.95 119.45 -31.6 132.75 -32.3 156.15 -43.85 156.55 -44.5 164.5 -48.9 172.45 -53.25 183.15 -53.55 193.8 -53.85 202.3 -42.35 202.35 -41.95 207.4 -37.5 212.4 -33.1 222.0 -29.55 231.6 -26.0 245.3 -28.25 259.0 -30.45 276.3 -43.35 276.85 -44.1 285.55 -48.75 294.2 -53.45 304.4 -53.3 314.65 -53.15 319.8 -39.4" fill="#2eb0d0" fill-rule="evenodd" stroke="none"/>
    <path d="M52.7 -47.05 Q53.15 -47.45 61.05 -49.6 68.95 -51.75 79.0 -50.75 89.0 -49.75 95.8 -40.75 95.6 -40.3 101.05 -37.5 106.55 -34.7 119.9 -35.25 133.2 -35.8 156.6 -45.35 157.0 -45.9 164.95 -49.5 172.9 -53.1 183.6 -53.35 194.25 -53.6 202.75 -44.1 202.85 -43.3 211.7 -37.85 220.55 -32.35 237.05 -31.7 253.6 -31.1 276.75 -44.95 277.3 -45.55 286.0 -49.4 294.65 -53.3 304.85 -53.15 315.1 -53.05 320.25 -41.7 L320.25 -36.7 Q315.1 -48.05 304.85 -48.15 294.65 -48.3 286.0 -44.4 277.3 -40.55 276.75 -39.95 253.6 -26.1 237.1 -26.7 220.55 -27.35 211.7 -32.8 202.85 -38.3 202.75 -39.1 194.25 -48.6 183.6 -48.35 172.9 -48.1 164.95 -44.5 157.0 -40.9 156.6 -40.35 133.2 -30.8 119.9 -30.25 106.55 -29.7 101.1 -32.5 95.6 -35.3 95.8 -35.75 89.0 -44.8 78.95 -45.75 68.95 -46.75 61.05 -44.6 53.15 -42.45 52.7 -42.05 30.35 -32.1 15.0 -31.8 -0.4 -31.45 -8.3 -34.6 -16.2 -37.8 -16.25 -38.3 -34.9 -48.2 -49.15 -48.35 -63.4 -48.45 -71.45 -45.1 -79.5 -41.75 -79.65 -41.2 -96.5 -32.45 -109.35 -32.05 -122.25 -31.65 -129.5 -34.35 -136.8 -37.0 -136.95 -37.45 -151.7 -45.65 -161.15 -44.1 -170.6 -42.5 -170.9 -41.65 -198.85 -32.0 -211.6 -31.85 L-224.15 -32.45 Q-229.7 -32.85 -232.65 -36.1 -235.6 -39.4 -242.15 -40.75 -248.75 -42.05 -265.2 -36.6 -282.25 -31.1 -294.45 -31.4 -306.65 -31.75 -313.15 -34.05 -319.7 -36.35 -319.75 -36.7 L-319.75 -41.7 Q-319.7 -41.35 -313.15 -39.05 -306.65 -36.75 -294.45 -36.4 -282.25 -36.05 -265.2 -41.6 -248.75 -47.05 -242.15 -45.75 -235.6 -44.4 -232.65 -41.1 -229.7 -37.85 -224.15 -37.45 L-211.6 -36.85 Q-198.85 -37.0 -170.9 -46.65 -170.6 -47.5 -161.15 -49.1 -151.7 -50.65 -136.95 -42.45 -136.8 -42.0 -129.5 -39.35 -122.25 -36.65 -109.35 -37.05 -96.5 -37.45 -79.65 -46.2 -79.5 -46.75 -71.45 -50.1 -63.4 -53.45 -49.15 -53.35 -34.9 -53.2 -16.25 -43.3 -16.25 -42.75 -8.3 -39.6 -0.4 -36.45 15.0 -36.8 30.35 -37.1 52.7 -47.05" fill="#b7e4e8" fill-rule="evenodd" stroke="none"/>
    <path d="M79.0 -36.75 Q80.3 -31.7 78.55 -30.2 L73.45 -27.95 Q70.6 -26.55 48.45 -24.65 L23.7 -23.2 36.25 -25.5 Q50.4 -29.05 58.4 -35.4 75.85 -49.35 79.0 -36.75" fill="#b7e4e8" fill-rule="evenodd" stroke="none"/>
    <path d="M143.45 -25.7 Q157.6 -29.25 165.6 -35.6 183.05 -49.55 186.2 -36.95 187.5 -31.9 185.75 -30.4 L180.65 -28.15 Q177.8 -26.75 155.65 -24.85 L130.9 -23.4 143.45 -25.7" fill="#b7e4e8" fill-rule="evenodd" stroke="none"/>
    <path d="M-208.65 -22.8 L-208.65 -25.25 Q-191.0 -28.65 -180.45 -34.3 -154.6 -48.25 -149.95 -35.65 -148.05 -30.6 -150.6 -29.1 L-158.15 -26.85 Q-162.4 -25.45 -195.2 -23.55 L-208.65 -22.8" fill="#b7e4e8" fill-rule="evenodd" stroke="none"/>
    <path d="M-94.8 -28.85 Q-78.55 -32.4 -69.35 -38.75 -49.25 -52.7 -45.65 -40.1 -44.15 -35.05 -46.15 -33.55 L-52.05 -31.3 Q-55.3 -29.9 -80.8 -28.0 L-109.25 -26.55 -94.8 -28.85" fill="#b7e4e8" fill-rule="evenodd" stroke="none"/>
  </g>
</svg>
