<?xml version="1.0" encoding="UTF-8" standalone="no"?>
<svg xmlns:xlink="http://www.w3.org/1999/xlink" height="96.9px" width="146.2px" xmlns="http://www.w3.org/2000/svg">
  <g transform="matrix(1.0, 0.0, 0.0, 1.0, 73.1, 48.45)">
    <path d="M-11.65 -45.75 Q10.1 -45.75 25.5 -35.65 40.9 -25.55 40.9 -11.3 40.9 3.0 25.5 13.1 10.1 23.2 -11.65 23.2 -33.4 23.2 -48.8 13.1 -64.2 3.0 -64.2 -11.3 -64.2 -25.55 -48.8 -35.65 -33.45 -45.75 -11.65 -45.75 Z" fill="none" stroke="#000000" stroke-linecap="round" stroke-linejoin="round" stroke-width="4.0"/>
    <path d="M-37.3 -15.5 Q-23.3 -15.5 -13.45 -7.35 -3.55 0.8 -3.55 12.3 -3.55 23.8 -13.45 31.95 -23.35 40.1 -37.3 40.1 -51.3 40.1 -61.2 31.95 -71.1 23.8 -71.1 12.3 -71.1 0.8 -61.2 -7.35 -51.3 -15.5 -37.3 -15.5 Z" fill="none" stroke="#000000" stroke-linecap="round" stroke-linejoin="round" stroke-width="4.0"/>
    <path d="M23.05 -21.1 Q40.05 -21.1 52.0 -11.25 64.0 -1.35 64.0 12.65 64.0 26.65 52.0 36.5 40.0 46.45 23.05 46.45 6.1 46.45 -5.95 36.5 -17.9 26.65 -17.9 12.65 -17.9 -1.35 -5.95 -11.25 6.1 -21.1 23.05 -21.1 Z" fill="none" stroke="#000000" stroke-linecap="round" stroke-linejoin="round" stroke-width="4.0"/>
    <path d="M32.35 -36.35 Q47.75 -26.25 47.75 -11.95 47.75 2.3 32.35 12.4 17.0 22.5 -4.75 22.5 -26.5 22.5 -41.9 12.4 -57.3 2.3 -57.3 -11.95 -57.3 -26.25 -41.9 -36.35 -26.55 -46.45 -4.75 -46.45 17.0 -46.45 32.35 -36.35 Z" fill="none" stroke="#000000" stroke-linecap="round" stroke-linejoin="round" stroke-width="4.0"/>
    <path d="M-6.55 31.25 Q-16.4 39.4 -30.4 39.4 -44.4 39.4 -54.3 31.25 -64.2 23.1 -64.2 11.6 -64.2 0.1 -54.3 -8.05 -44.4 -16.2 -30.4 -16.2 -16.45 -16.2 -6.55 -8.05 3.35 0.1 3.35 11.6 3.35 23.1 -6.55 31.25 Z" fill="none" stroke="#000000" stroke-linecap="round" stroke-linejoin="round" stroke-width="4.0"/>
    <path d="M29.95 -21.85 Q46.9 -21.85 58.9 -11.95 70.9 -2.0 70.9 11.95 70.9 25.95 58.9 35.8 46.9 45.75 29.95 45.75 12.95 45.75 0.95 35.8 -11.05 25.95 -11.05 11.95 -11.05 -2.0 0.95 -11.95 12.95 -21.85 29.95 -21.85 Z" fill="none" stroke="#000000" stroke-linecap="round" stroke-linejoin="round" stroke-width="4.0"/>
    <path d="M33.9 -36.95 Q48.75 -27.55 48.75 -14.3 48.75 -7.9 47.4 -6.2 46.2 -4.65 42.35 -5.5 L32.0 -8.15 Q23.7 -9.95 14.9 -9.95 6.75 -9.95 -7.45 -8.15 L-29.4 -5.5 Q-40.7 -4.6 -46.1 -6.2 -52.75 -8.15 -52.75 -14.3 -52.75 -27.55 -37.9 -36.95 -23.05 -46.3 -2.0 -46.3 19.05 -46.3 33.9 -36.95 Z" fill="none" stroke="#000000" stroke-linecap="round" stroke-linejoin="round" stroke-width="4.0"/>
    <path d="M5.85 5.2 Q5.85 15.4 -3.7 22.55 -13.25 29.75 -26.75 29.75 -40.3 29.75 -49.8 22.55 -59.35 15.4 -59.35 5.2 -59.35 -3.2 -47.85 -9.4 -44.9 -10.95 -37.2 -14.3 -30.2 -17.4 -26.75 -19.4 -21.1 -22.7 -14.95 -21.4 -9.45 -20.2 -4.45 -15.65 0.15 -11.45 3.0 -5.65 5.85 0.1 5.85 5.2 Z" fill="none" stroke="#000000" stroke-linecap="round" stroke-linejoin="round" stroke-width="4.0"/>
    <path d="M-8.05 9.6 Q-8.05 -3.0 3.55 -11.85 15.15 -20.75 31.55 -20.75 47.95 -20.75 59.5 -11.85 71.1 -3.0 71.1 9.6 71.1 22.1 59.5 31.0 47.95 39.85 31.55 39.85 15.15 39.85 3.55 31.0 -8.05 22.1 -8.05 9.6 Z" fill="none" stroke="#000000" stroke-linecap="round" stroke-linejoin="round" stroke-width="4.0"/>
    <path d="M-11.65 -45.75 Q10.1 -45.75 25.5 -35.65 40.9 -25.55 40.9 -11.3 40.9 3.0 25.5 13.1 10.1 23.2 -11.65 23.2 -33.4 23.2 -48.8 13.1 -64.2 3.0 -64.2 -11.3 -64.2 -25.55 -48.8 -35.65 -33.45 -45.75 -11.65 -45.75" fill="#d4d4d4" fill-rule="evenodd" stroke="none"/>
    <path d="M-37.3 -15.5 Q-23.3 -15.5 -13.45 -7.35 -3.55 0.8 -3.55 12.3 -3.55 23.8 -13.45 31.95 -23.35 40.1 -37.3 40.1 -51.3 40.1 -61.2 31.95 -71.1 23.8 -71.1 12.3 -71.1 0.8 -61.2 -7.35 -51.3 -15.5 -37.3 -15.5" fill="#d4d4d4" fill-rule="evenodd" stroke="none"/>
    <path d="M23.05 -21.1 Q40.05 -21.1 52.0 -11.25 64.0 -1.35 64.0 12.65 64.0 26.65 52.0 36.5 40.0 46.45 23.05 46.45 6.1 46.45 -5.95 36.5 -17.9 26.65 -17.9 12.65 -17.9 -1.35 -5.95 -11.25 6.1 -21.1 23.05 -21.1" fill="#d4d4d4" fill-rule="evenodd" stroke="none"/>
    <path d="M32.35 -36.35 Q47.75 -26.25 47.75 -11.95 47.75 2.3 32.35 12.4 17.0 22.5 -4.75 22.5 -26.5 22.5 -41.9 12.4 -57.3 2.3 -57.3 -11.95 -57.3 -26.25 -41.9 -36.35 -26.55 -46.45 -4.75 -46.45 17.0 -46.45 32.35 -36.35" fill="#e3e3e3" fill-rule="evenodd" stroke="none"/>
    <path d="M-6.55 31.25 Q-16.4 39.4 -30.4 39.4 -44.4 39.4 -54.3 31.25 -64.2 23.1 -64.2 11.6 -64.2 0.1 -54.3 -8.05 -44.4 -16.2 -30.4 -16.2 -16.45 -16.2 -6.55 -8.05 3.35 0.1 3.35 11.6 3.35 23.1 -6.55 31.25" fill="#e3e3e3" fill-rule="evenodd" stroke="none"/>
    <path d="M29.95 -21.85 Q46.9 -21.85 58.9 -11.95 70.9 -2.0 70.9 11.95 70.9 25.95 58.9 35.8 46.9 45.75 29.95 45.75 12.95 45.75 0.95 35.8 -11.05 25.95 -11.05 11.95 -11.05 -2.0 0.95 -11.95 12.95 -21.85 29.95 -21.85" fill="#e3e3e3" fill-rule="evenodd" stroke="none"/>
    <path d="M33.9 -36.95 Q48.75 -27.55 48.75 -14.3 48.75 -7.9 47.4 -6.2 46.2 -4.65 42.35 -5.5 L32.0 -8.15 Q23.7 -9.95 14.9 -9.95 6.75 -9.95 -7.45 -8.15 L-29.4 -5.5 Q-40.7 -4.6 -46.1 -6.2 -52.75 -8.15 -52.75 -14.3 -52.75 -27.55 -37.9 -36.95 -23.05 -46.3 -2.0 -46.3 19.05 -46.3 33.9 -36.95" fill="#ffffff" fill-rule="evenodd" stroke="none"/>
    <path d="M5.85 5.2 Q5.85 15.4 -3.7 22.55 -13.25 29.75 -26.75 29.75 -40.3 29.75 -49.8 22.55 -59.35 15.4 -59.35 5.2 -59.35 -3.2 -47.85 -9.4 -44.9 -10.95 -37.2 -14.3 -30.2 -17.4 -26.75 -19.4 -21.1 -22.7 -14.95 -21.4 -9.45 -20.2 -4.45 -15.65 0.15 -11.45 3.0 -5.65 5.85 0.1 5.85 5.2" fill="#ffffff" fill-rule="evenodd" stroke="none"/>
    <path d="M-8.05 9.6 Q-8.05 -3.0 3.55 -11.85 15.15 -20.75 31.55 -20.75 47.95 -20.75 59.5 -11.85 71.1 -3.0 71.1 9.6 71.1 22.1 59.5 31.0 47.95 39.85 31.55 39.85 15.15 39.85 3.55 31.0 -8.05 22.1 -8.05 9.6" fill="#ffffff" fill-rule="evenodd" stroke="none"/>
    <path d="M-29.6 10.75 Q-23.55 10.7 -18.9 8.6 -31.0 20.95 -41.0 12.15 -46.0 7.8 -48.6 0.95 -41.7 10.95 -29.6 10.75" fill="#e3e3e3" fill-rule="evenodd" stroke="none"/>
  </g>
</svg>
