<?xml version="1.0" encoding="UTF-8" standalone="no"?>
<svg xmlns:xlink="http://www.w3.org/1999/xlink" height="86.9px" width="135.55px" xmlns="http://www.w3.org/2000/svg">
  <g transform="matrix(1.0, 0.0, 0.0, 1.0, 67.75, 43.45)">
    <path d="M-16.65 -7.1 Q-16.65 1.55 -23.8 7.65 -31.0 13.75 -41.2 13.75 -51.35 13.75 -58.55 7.65 -65.75 1.55 -65.75 -7.1 -65.75 -15.7 -58.55 -21.85 -51.35 -27.95 -41.2 -27.95 -31.0 -27.95 -23.8 -21.85 -16.65 -15.75 -16.65 -7.1 Z" fill="none" stroke="#000000" stroke-linecap="round" stroke-linejoin="round" stroke-width="4.0"/>
    <path d="M13.6 -13.85 Q13.6 -2.4 4.4 5.65 -4.85 13.75 -17.9 13.75 -30.95 13.75 -40.15 5.65 -49.4 -2.4 -49.4 -13.85 -49.4 -25.3 -40.15 -33.35 -30.95 -41.45 -17.9 -41.45 -4.85 -41.45 4.4 -33.35 13.6 -25.3 13.6 -13.85 Z" fill="none" stroke="#000000" stroke-linecap="round" stroke-linejoin="round" stroke-width="4.0"/>
    <path d="M37.95 33.4 Q21.55 41.45 -1.6 41.45 -24.75 41.45 -41.15 33.4 -57.55 25.3 -57.55 13.9 -57.55 2.45 -41.15 -5.6 -24.75 -13.7 -1.6 -13.7 21.6 -13.7 37.95 -5.6 54.35 2.45 54.35 13.9 54.35 25.3 37.95 33.4 Z" fill="none" stroke="#000000" stroke-linecap="round" stroke-linejoin="round" stroke-width="4.0"/>
    <path d="M-9.3 -7.1 Q-9.3 1.55 -16.5 7.65 -23.7 13.75 -33.85 13.75 -44.0 13.75 -51.2 7.65 -58.4 1.55 -58.4 -7.1 -58.4 -15.7 -51.2 -21.85 -44.0 -27.95 -33.85 -27.95 -23.7 -27.95 -16.5 -21.85 -9.3 -15.7 -9.3 -7.1 Z" fill="none" stroke="#000000" stroke-linecap="round" stroke-linejoin="round" stroke-width="4.0"/>
    <path d="M11.7 -33.35 Q20.95 -25.3 20.95 -13.85 20.95 -2.4 11.7 5.65 2.45 13.75 -10.55 13.75 -23.6 13.75 -32.8 5.65 -42.05 -2.4 -42.05 -13.85 -42.05 -25.3 -32.8 -33.35 -23.6 -41.45 -10.55 -41.45 2.45 -41.45 11.7 -33.35 Z" fill="none" stroke="#000000" stroke-linecap="round" stroke-linejoin="round" stroke-width="4.0"/>
    <path d="M45.3 -5.6 Q61.7 2.45 61.7 13.9 61.7 25.3 45.3 33.4 28.9 41.45 5.75 41.45 -17.4 41.45 -33.85 33.4 -50.25 25.3 -50.25 13.9 -50.25 2.45 -33.85 -5.6 -17.45 -13.7 5.75 -13.7 28.95 -13.7 45.3 -5.6 Z" fill="none" stroke="#000000" stroke-linecap="round" stroke-linejoin="round" stroke-width="4.0"/>
    <path d="M-6.15 -8.5 Q-6.15 -1.3 -12.8 3.8 -19.45 8.9 -28.85 8.9 -38.25 8.9 -44.9 3.8 -51.55 -1.3 -51.55 -8.5 -51.55 -15.7 -44.9 -20.75 -38.25 -25.85 -28.85 -25.85 -19.45 -25.85 -12.8 -20.75 -6.15 -15.7 -6.15 -8.5 Z" fill="none" stroke="#000000" stroke-linecap="round" stroke-linejoin="round" stroke-width="4.0"/>
    <path d="M24.1 -15.0 Q24.1 -4.9 15.55 2.2 7.0 9.35 -5.1 9.35 -17.2 9.35 -25.75 2.2 -34.3 -4.9 -34.3 -15.0 -34.3 -25.1 -25.75 -32.2 -17.2 -39.35 -5.1 -39.35 7.0 -39.35 15.55 -32.2 24.1 -25.1 24.1 -15.0 Z" fill="none" stroke="#000000" stroke-linecap="round" stroke-linejoin="round" stroke-width="4.0"/>
    <path d="M49.4 -7.15 Q65.8 0.15 65.8 10.4 65.8 20.7 49.4 27.95 33.0 35.2 9.8 35.2 -13.35 35.2 -29.75 27.95 -46.15 20.7 -46.15 10.4 -46.15 0.15 -29.75 -7.15 -13.35 -14.4 9.8 -14.4 33.0 -14.4 49.4 -7.15 Z" fill="none" stroke="#000000" stroke-linecap="round" stroke-linejoin="round" stroke-width="4.0"/>
    <path d="M-21.45 -15.1 L-19.2 -17.65 Q-16.35 -20.7 -13.05 -22.85 -2.55 -29.85 8.05 -26.0 L4.55 -28.0 Q0.25 -30.1 -3.75 -30.45 -16.5 -31.6 -21.45 -15.1 Z" fill="none" stroke="#000000" stroke-linecap="round" stroke-linejoin="round" stroke-width="4.0"/>
    <path d="M-16.65 -7.1 Q-16.65 1.55 -23.8 7.65 -31.0 13.75 -41.2 13.75 -51.35 13.75 -58.55 7.65 -65.75 1.55 -65.75 -7.1 -65.75 -15.7 -58.55 -21.85 -51.35 -27.95 -41.2 -27.95 -31.0 -27.95 -23.8 -21.85 -16.65 -15.75 -16.65 -7.1" fill="#d4d4d4" fill-rule="evenodd" stroke="none"/>
    <path d="M13.6 -13.85 Q13.6 -2.4 4.4 5.65 -4.85 13.75 -17.9 13.75 -30.95 13.75 -40.15 5.65 -49.4 -2.4 -49.4 -13.85 -49.4 -25.3 -40.15 -33.35 -30.95 -41.45 -17.9 -41.45 -4.85 -41.45 4.4 -33.35 13.6 -25.3 13.6 -13.85" fill="#d4d4d4" fill-rule="evenodd" stroke="none"/>
    <path d="M37.95 33.4 Q21.55 41.45 -1.6 41.45 -24.75 41.45 -41.15 33.4 -57.55 25.3 -57.55 13.9 -57.55 2.45 -41.15 -5.6 -24.75 -13.7 -1.6 -13.7 21.6 -13.7 37.95 -5.6 54.35 2.45 54.35 13.9 54.35 25.3 37.95 33.4" fill="#d4d4d4" fill-rule="evenodd" stroke="none"/>
    <path d="M-9.3 -7.1 Q-9.3 1.55 -16.5 7.65 -23.7 13.75 -33.85 13.75 -44.0 13.75 -51.2 7.65 -58.4 1.55 -58.4 -7.1 -58.4 -15.7 -51.2 -21.85 -44.0 -27.95 -33.85 -27.95 -23.7 -27.95 -16.5 -21.85 -9.3 -15.7 -9.3 -7.1" fill="#e3e3e3" fill-rule="evenodd" stroke="none"/>
    <path d="M11.7 -33.35 Q20.95 -25.3 20.95 -13.85 20.95 -2.4 11.7 5.65 2.45 13.75 -10.55 13.75 -23.6 13.75 -32.8 5.65 -42.05 -2.4 -42.05 -13.85 -42.05 -25.3 -32.8 -33.35 -23.6 -41.45 -10.55 -41.45 2.45 -41.45 11.7 -33.35" fill="#e3e3e3" fill-rule="evenodd" stroke="none"/>
    <path d="M45.3 -5.6 Q61.7 2.45 61.7 13.9 61.7 25.3 45.3 33.4 28.9 41.45 5.75 41.45 -17.4 41.45 -33.85 33.4 -50.25 25.3 -50.25 13.9 -50.25 2.45 -33.85 -5.6 -17.45 -13.7 5.75 -13.7 28.95 -13.7 45.3 -5.6" fill="#e3e3e3" fill-rule="evenodd" stroke="none"/>
    <path d="M-6.15 -8.5 Q-6.15 -1.3 -12.8 3.8 -19.45 8.9 -28.85 8.9 -38.25 8.9 -44.9 3.8 -51.55 -1.3 -51.55 -8.5 -51.55 -15.7 -44.9 -20.75 -38.25 -25.85 -28.85 -25.85 -19.45 -25.85 -12.8 -20.75 -6.15 -15.7 -6.15 -8.5" fill="#ffffff" fill-rule="evenodd" stroke="none"/>
    <path d="M24.1 -15.0 Q24.1 -4.9 15.55 2.2 7.0 9.35 -5.1 9.35 -17.2 9.35 -25.75 2.2 -34.3 -4.9 -34.3 -15.0 -34.3 -25.1 -25.75 -32.2 -17.2 -39.35 -5.1 -39.35 7.0 -39.35 15.55 -32.2 24.1 -25.1 24.1 -15.0" fill="#ffffff" fill-rule="evenodd" stroke="none"/>
    <path d="M49.4 -7.15 Q65.8 0.15 65.8 10.4 65.8 20.7 49.4 27.95 33.0 35.2 9.8 35.2 -13.35 35.2 -29.75 27.95 -46.15 20.7 -46.15 10.4 -46.15 0.15 -29.75 -7.15 -13.35 -14.4 9.8 -14.4 33.0 -14.4 49.4 -7.15" fill="#ffffff" fill-rule="evenodd" stroke="none"/>
    <path d="M-21.45 -15.1 Q-16.5 -31.6 -3.75 -30.45 0.25 -30.1 4.55 -28.0 L8.05 -26.0 Q-2.55 -29.85 -13.05 -22.85 -16.35 -20.7 -19.2 -17.65 L-21.45 -15.1" fill="#e3e3e3" fill-rule="evenodd" stroke="none"/>
  </g>
</svg>
