<?xml version="1.0" encoding="UTF-8" standalone="no"?>
<svg xmlns:xlink="http://www.w3.org/1999/xlink" height="429.6px" width="685.7px" xmlns="http://www.w3.org/2000/svg">
  <g transform="matrix(1.0, 0.0, 0.0, 1.0, 342.85, 214.8)">
    <path d="M174.25 -213.05 Q174.25 -212.35 173.7 -211.85 173.2 -211.3 172.5 -211.3 171.8 -211.3 171.25 -211.85 170.75 -212.35 170.75 -213.05 170.75 -213.75 171.25 -214.3 171.8 -214.8 172.5 -214.8 173.2 -214.8 173.7 -214.3 174.25 -213.75 174.25 -213.05 M177.75 -214.3 Q178.3 -214.8 179.0 -214.8 179.7 -214.8 180.2 -214.3 180.75 -213.75 180.75 -213.05 180.75 -212.35 180.2 -211.85 179.7 -211.3 179.0 -211.3 178.3 -211.3 177.75 -211.85 177.25 -212.35 177.25 -213.05 177.25 -213.75 177.75 -214.3 M164.75 -214.3 Q165.3 -214.8 166.0 -214.8 166.7 -214.8 167.2 -214.3 167.75 -213.75 167.75 -213.05 167.75 -212.35 167.2 -211.85 166.7 -211.3 166.0 -211.3 165.3 -211.3 164.75 -211.85 164.25 -212.35 164.25 -213.05 164.25 -213.75 164.75 -214.3 M193.75 -213.05 Q193.75 -212.35 193.2 -211.85 192.7 -211.3 192.0 -211.3 191.3 -211.3 190.75 -211.85 190.25 -212.35 190.25 -213.05 190.25 -213.75 190.75 -214.3 191.3 -214.8 192.0 -214.8 192.7 -214.8 193.2 -214.3 193.75 -213.75 193.75 -213.05 M196.75 -213.05 Q196.75 -213.75 197.25 -214.3 197.8 -214.8 198.5 -214.8 199.2 -214.8 199.7 -214.3 200.25 -213.75 200.25 -213.05 200.25 -212.35 199.7 -211.85 199.2 -211.3 198.5 -211.3 197.8 -211.3 197.25 -211.85 196.75 -212.35 196.75 -213.05 M184.25 -214.3 Q184.8 -214.8 185.5 -214.8 186.2 -214.8 186.7 -214.3 187.25 -213.75 187.25 -213.05 187.25 -212.35 186.7 -211.85 186.2 -211.3 185.5 -211.3 184.8 -211.3 184.25 -211.85 183.75 -212.35 183.75 -213.05 183.75 -213.75 184.25 -214.3 M213.25 -213.05 Q213.25 -212.35 212.7 -211.85 212.2 -211.3 211.5 -211.3 210.8 -211.3 210.25 -211.85 209.75 -212.35 209.75 -213.05 209.75 -213.75 210.25 -214.3 210.8 -214.8 211.5 -214.8 212.2 -214.8 212.7 -214.3 213.25 -213.75 213.25 -213.05 M216.75 -214.3 Q217.3 -214.8 218.0 -214.8 218.7 -214.8 219.2 -214.3 219.75 -213.75 219.75 -213.05 219.75 -212.35 219.2 -211.85 218.7 -211.3 218.0 -211.3 217.3 -211.3 216.75 -211.85 216.25 -212.35 216.25 -213.05 216.25 -213.75 216.75 -214.3 M203.75 -214.3 Q204.3 -214.8 205.0 -214.8 205.7 -214.8 206.2 -214.3 206.75 -213.75 206.75 -213.05 206.75 -212.35 206.2 -211.85 205.7 -211.3 205.0 -211.3 204.3 -211.3 203.75 -211.85 203.25 -212.35 203.25 -213.05 203.25 -213.75 203.75 -214.3 M236.25 -214.3 Q236.8 -214.8 237.5 -214.8 238.2 -214.8 238.7 -214.3 239.25 -213.75 239.25 -213.05 239.25 -212.35 238.7 -211.85 238.2 -211.3 237.5 -211.3 236.8 -211.3 236.25 -211.85 235.75 -212.35 235.75 -213.05 235.75 -213.75 236.25 -214.3 M242.25 -213.05 Q242.25 -213.75 242.75 -214.3 243.3 -214.8 244.0 -214.8 244.7 -214.8 245.2 -214.3 245.75 -213.75 245.75 -213.05 245.75 -212.35 245.2 -211.85 244.7 -211.3 244.0 -211.3 243.3 -211.3 242.75 -211.85 242.25 -212.35 242.25 -213.05 M223.25 -214.3 Q223.8 -214.8 224.5 -214.8 225.2 -214.8 225.7 -214.3 226.25 -213.75 226.25 -213.05 226.25 -212.35 225.7 -211.85 225.2 -211.3 224.5 -211.3 223.8 -211.3 223.25 -211.85 222.75 -212.35 222.75 -213.05 222.75 -213.75 223.25 -214.3 M232.2 -214.3 Q232.75 -213.75 232.75 -213.05 232.75 -212.35 232.2 -211.85 231.7 -211.3 231.0 -211.3 230.3 -211.3 229.75 -211.85 229.25 -212.35 229.25 -213.05 229.25 -213.75 229.75 -214.3 230.3 -214.8 231.0 -214.8 231.7 -214.8 232.2 -214.3 M255.75 -214.3 Q256.3 -214.8 257.0 -214.8 257.7 -214.8 258.2 -214.3 258.75 -213.75 258.75 -213.05 258.75 -212.35 258.2 -211.85 257.7 -211.3 257.0 -211.3 256.3 -211.3 255.75 -211.85 255.25 -212.35 255.25 -213.05 255.25 -213.75 255.75 -214.3 M262.25 -214.3 Q262.8 -214.8 263.5 -214.8 264.2 -214.8 264.7 -214.3 265.25 -213.75 265.25 -213.05 265.25 -212.35 264.7 -211.85 264.2 -211.3 263.5 -211.3 262.8 -211.3 262.25 -211.85 261.75 -212.35 261.75 -213.05 261.75 -213.75 262.25 -214.3 M251.7 -214.3 Q252.25 -213.75 252.25 -213.05 252.25 -212.35 251.7 -211.85 251.2 -211.3 250.5 -211.3 249.8 -211.3 249.25 -211.85 248.75 -212.35 248.75 -213.05 248.75 -213.75 249.25 -214.3 249.8 -214.8 250.5 -214.8 251.2 -214.8 251.7 -214.3 M275.25 -214.3 Q275.8 -214.8 276.5 -214.8 277.2 -214.8 277.7 -214.3 278.25 -213.75 278.25 -213.05 278.25 -212.35 277.7 -211.85 277.2 -211.3 276.5 -211.3 275.8 -211.3 275.25 -211.85 274.75 -212.35 274.75 -213.05 274.75 -213.75 275.25 -214.3 M283.0 -214.8 Q283.7 -214.8 284.2 -214.3 284.75 -213.75 284.75 -213.05 284.75 -212.35 284.2 -211.85 283.7 -211.3 283.0 -211.3 282.3 -211.3 281.75 -211.85 281.25 -212.35 281.25 -213.05 281.25 -213.75 281.75 -214.3 282.3 -214.8 283.0 -214.8 M271.2 -214.3 Q271.75 -213.75 271.75 -213.05 271.75 -212.35 271.2 -211.85 270.7 -211.3 270.0 -211.3 269.3 -211.3 268.75 -211.85 268.25 -212.35 268.25 -213.05 268.25 -213.75 268.75 -214.3 269.3 -214.8 270.0 -214.8 270.7 -214.8 271.2 -214.3 M294.75 -214.3 Q295.3 -214.8 296.0 -214.8 296.7 -214.8 297.2 -214.3 297.75 -213.75 297.75 -213.05 297.75 -212.35 297.2 -211.85 296.7 -211.3 296.0 -211.3 295.3 -211.3 294.75 -211.85 294.25 -212.35 294.25 -213.05 294.25 -213.75 294.75 -214.3 M301.25 -214.3 Q301.8 -214.8 302.5 -214.8 303.2 -214.8 303.7 -214.3 304.25 -213.75 304.25 -213.05 304.25 -212.35 303.7 -211.85 303.2 -211.3 302.5 -211.3 301.8 -211.3 301.25 -211.85 300.75 -212.35 300.75 -213.05 300.75 -213.75 301.25 -214.3 M287.75 -213.05 Q287.75 -213.75 288.25 -214.3 288.8 -214.8 289.5 -214.8 290.2 -214.8 290.7 -214.3 291.25 -213.75 291.25 -213.05 291.25 -212.35 290.7 -211.85 290.2 -211.3 289.5 -211.3 288.8 -211.3 288.25 -211.85 287.75 -212.35 287.75 -213.05 M317.25 -213.05 Q317.25 -212.35 316.7 -211.85 316.2 -211.3 315.5 -211.3 314.8 -211.3 314.25 -211.85 313.75 -212.35 313.75 -213.05 313.75 -213.75 314.25 -214.3 314.8 -214.8 315.5 -214.8 316.2 -214.8 316.7 -214.3 317.25 -213.75 317.25 -213.05 M323.2 -214.3 Q323.75 -213.75 323.75 -213.05 323.75 -212.35 323.2 -211.85 322.7 -211.3 322.0 -211.3 321.3 -211.3 320.75 -211.85 320.25 -212.35 320.25 -213.05 320.25 -213.75 320.75 -214.3 321.3 -214.8 322.0 -214.8 322.7 -214.8 323.2 -214.3 M307.75 -214.3 Q308.3 -214.8 309.0 -214.8 309.7 -214.8 310.2 -214.3 310.75 -213.75 310.75 -213.05 310.75 -212.35 310.2 -211.85 309.7 -211.3 309.0 -211.3 308.3 -211.3 307.75 -211.85 307.25 -212.35 307.25 -213.05 307.25 -213.75 307.75 -214.3 M11.75 -213.05 Q11.75 -212.35 11.2 -211.85 10.7 -211.3 10.0 -211.3 9.3 -211.3 8.75 -211.85 8.25 -212.35 8.25 -213.05 8.25 -213.75 8.75 -214.3 9.3 -214.8 10.0 -214.8 10.7 -214.8 11.2 -214.3 11.75 -213.75 11.75 -213.05 M18.25 -213.05 Q18.25 -212.35 17.7 -211.85 17.2 -211.3 16.5 -211.3 15.8 -211.3 15.25 -211.85 14.75 -212.35 14.75 -213.05 14.75 -213.75 15.25 -214.3 15.8 -214.8 16.5 -214.8 17.2 -214.8 17.7 -214.3 18.25 -213.75 18.25 -213.05 M2.25 -214.3 Q2.8 -214.8 3.5 -214.8 4.2 -214.8 4.7 -214.3 5.25 -213.75 5.25 -213.05 5.25 -212.35 4.7 -211.85 4.2 -211.3 3.5 -211.3 2.8 -211.3 2.25 -211.85 1.75 -212.35 1.75 -213.05 1.75 -213.75 2.25 -214.3 M31.25 -213.05 Q31.25 -212.35 30.7 -211.85 30.2 -211.3 29.5 -211.3 28.8 -211.3 28.25 -211.85 27.75 -212.35 27.75 -213.05 27.75 -213.75 28.25 -214.3 28.8 -214.8 29.5 -214.8 30.2 -214.8 30.7 -214.3 31.25 -213.75 31.25 -213.05 M34.25 -213.05 Q34.25 -213.75 34.75 -214.3 35.3 -214.8 36.0 -214.8 36.7 -214.8 37.2 -214.3 37.75 -213.75 37.75 -213.05 37.75 -212.35 37.2 -211.85 36.7 -211.3 36.0 -211.3 35.3 -211.3 34.75 -211.85 34.25 -212.35 34.25 -213.05 M21.75 -214.3 Q22.3 -214.8 23.0 -214.8 23.7 -214.8 24.2 -214.3 24.75 -213.75 24.75 -213.05 24.75 -212.35 24.2 -211.85 23.7 -211.3 23.0 -211.3 22.3 -211.3 21.75 -211.85 21.25 -212.35 21.25 -213.05 21.25 -213.75 21.75 -214.3 M56.7 -214.3 Q57.25 -213.75 57.25 -213.05 57.25 -212.35 56.7 -211.85 56.2 -211.3 55.5 -211.3 54.8 -211.3 54.25 -211.85 53.75 -212.35 53.75 -213.05 53.75 -213.75 54.25 -214.3 54.8 -214.8 55.5 -214.8 56.2 -214.8 56.7 -214.3 M41.25 -214.3 Q41.8 -214.8 42.5 -214.8 43.2 -214.8 43.7 -214.3 44.25 -213.75 44.25 -213.05 44.25 -212.35 43.7 -211.85 43.2 -211.3 42.5 -211.3 41.8 -211.3 41.25 -211.85 40.75 -212.35 40.75 -213.05 40.75 -213.75 41.25 -214.3 M50.2 -214.3 Q50.75 -213.75 50.75 -213.05 50.75 -212.35 50.2 -211.85 49.7 -211.3 49.0 -211.3 48.3 -211.3 47.75 -211.85 47.25 -212.35 47.25 -213.05 47.25 -213.75 47.75 -214.3 48.3 -214.8 49.0 -214.8 49.7 -214.8 50.2 -214.3 M73.75 -214.3 Q74.3 -214.8 75.0 -214.8 75.7 -214.8 76.2 -214.3 76.75 -213.75 76.75 -213.05 76.75 -212.35 76.2 -211.85 75.7 -211.3 75.0 -211.3 74.3 -211.3 73.75 -211.85 73.25 -212.35 73.25 -213.05 73.25 -213.75 73.75 -214.3 M79.75 -213.05 Q79.75 -213.75 80.25 -214.3 80.8 -214.8 81.5 -214.8 82.2 -214.8 82.7 -214.3 83.25 -213.75 83.25 -213.05 83.25 -212.35 82.7 -211.85 82.2 -211.3 81.5 -211.3 80.8 -211.3 80.25 -211.85 79.75 -212.35 79.75 -213.05 M63.75 -213.05 Q63.75 -212.35 63.2 -211.85 62.7 -211.3 62.0 -211.3 61.3 -211.3 60.75 -211.85 60.25 -212.35 60.25 -213.05 60.25 -213.75 60.75 -214.3 61.3 -214.8 62.0 -214.8 62.7 -214.8 63.2 -214.3 63.75 -213.75 63.75 -213.05 M69.7 -214.3 Q70.25 -213.75 70.25 -213.05 70.25 -212.35 69.7 -211.85 69.2 -211.3 68.5 -211.3 67.8 -211.3 67.25 -211.85 66.75 -212.35 66.75 -213.05 66.75 -213.75 67.25 -214.3 67.8 -214.8 68.5 -214.8 69.2 -214.8 69.7 -214.3 M93.25 -214.3 Q93.8 -214.8 94.5 -214.8 95.2 -214.8 95.7 -214.3 96.25 -213.75 96.25 -213.05 96.25 -212.35 95.7 -211.85 95.2 -211.3 94.5 -211.3 93.8 -211.3 93.25 -211.85 92.75 -212.35 92.75 -213.05 92.75 -213.75 93.25 -214.3 M99.75 -214.3 Q100.3 -214.8 101.0 -214.8 101.7 -214.8 102.2 -214.3 102.75 -213.75 102.75 -213.05 102.75 -212.35 102.2 -211.85 101.7 -211.3 101.0 -211.3 100.3 -211.3 99.75 -211.85 99.25 -212.35 99.25 -213.05 99.25 -213.75 99.75 -214.3 M89.2 -214.3 Q89.75 -213.75 89.75 -213.05 89.75 -212.35 89.2 -211.85 88.7 -211.3 88.0 -211.3 87.3 -211.3 86.75 -211.85 86.25 -212.35 86.25 -213.05 86.25 -213.75 86.75 -214.3 87.3 -214.8 88.0 -214.8 88.7 -214.8 89.2 -214.3 M112.75 -214.3 Q113.3 -214.8 114.0 -214.8 114.7 -214.8 115.2 -214.3 115.75 -213.75 115.75 -213.05 115.75 -212.35 115.2 -211.85 114.7 -211.3 114.0 -211.3 113.3 -211.3 112.75 -211.85 112.25 -212.35 112.25 -213.05 112.25 -213.75 112.75 -214.3 M120.5 -214.8 Q121.2 -214.8 121.7 -214.3 122.25 -213.75 122.25 -213.05 122.25 -212.35 121.7 -211.85 121.2 -211.3 120.5 -211.3 119.8 -211.3 119.25 -211.85 118.75 -212.35 118.75 -213.05 118.75 -213.75 119.25 -214.3 119.8 -214.8 120.5 -214.8 M105.75 -213.05 Q105.75 -213.75 106.25 -214.3 106.8 -214.8 107.5 -214.8 108.2 -214.8 108.7 -214.3 109.25 -213.75 109.25 -213.05 109.25 -212.35 108.7 -211.85 108.2 -211.3 107.5 -211.3 106.8 -211.3 106.25 -211.85 105.75 -212.35 105.75 -213.05 M132.25 -214.3 Q132.8 -214.8 133.5 -214.8 134.2 -214.8 134.7 -214.3 135.25 -213.75 135.25 -213.05 135.25 -212.35 134.7 -211.85 134.2 -211.3 133.5 -211.3 132.8 -211.3 132.25 -211.85 131.75 -212.35 131.75 -213.05 131.75 -213.75 132.25 -214.3 M138.75 -214.3 Q139.3 -214.8 140.0 -214.8 140.7 -214.8 141.2 -214.3 141.75 -213.75 141.75 -213.05 141.75 -212.35 141.2 -211.85 140.7 -211.3 140.0 -211.3 139.3 -211.3 138.75 -211.85 138.25 -212.35 138.25 -213.05 138.25 -213.75 138.75 -214.3 M125.25 -213.05 Q125.25 -213.75 125.75 -214.3 126.3 -214.8 127.0 -214.8 127.7 -214.8 128.2 -214.3 128.75 -213.75 128.75 -213.05 128.75 -212.35 128.2 -211.85 127.7 -211.3 127.0 -211.3 126.3 -211.3 125.75 -211.85 125.25 -212.35 125.25 -213.05 M154.75 -213.05 Q154.75 -212.35 154.2 -211.85 153.7 -211.3 153.0 -211.3 152.3 -211.3 151.75 -211.85 151.25 -212.35 151.25 -213.05 151.25 -213.75 151.75 -214.3 152.3 -214.8 153.0 -214.8 153.7 -214.8 154.2 -214.3 154.75 -213.75 154.75 -213.05 M160.7 -214.3 Q161.25 -213.75 161.25 -213.05 161.25 -212.35 160.7 -211.85 160.2 -211.3 159.5 -211.3 158.8 -211.3 158.25 -211.85 157.75 -212.35 157.75 -213.05 157.75 -213.75 158.25 -214.3 158.8 -214.8 159.5 -214.8 160.2 -214.8 160.7 -214.3 M145.25 -214.3 Q145.8 -214.8 146.5 -214.8 147.2 -214.8 147.7 -214.3 148.25 -213.75 148.25 -213.05 148.25 -212.35 147.7 -211.85 147.2 -211.3 146.5 -211.3 145.8 -211.3 145.25 -211.85 144.75 -212.35 144.75 -213.05 144.75 -213.75 145.25 -214.3 M336.75 -213.05 Q336.75 -212.35 336.2 -211.85 335.7 -211.3 335.0 -211.3 334.3 -211.3 333.75 -211.85 333.25 -212.35 333.25 -213.05 333.25 -213.75 333.75 -214.3 334.3 -214.8 335.0 -214.8 335.7 -214.8 336.2 -214.3 336.75 -213.75 336.75 -213.05 M342.3 -213.9 Q342.85 -213.35 342.85 -212.65 342.85 -211.95 342.3 -211.45 341.8 -210.9 341.1 -210.9 340.4 -210.9 339.85 -211.45 339.35 -211.95 339.35 -212.65 339.35 -213.35 339.85 -213.9 340.4 -214.4 341.1 -214.4 341.8 -214.4 342.3 -213.9 M327.25 -214.3 Q327.8 -214.8 328.5 -214.8 329.2 -214.8 329.7 -214.3 330.25 -213.75 330.25 -213.05 330.25 -212.35 329.7 -211.85 329.2 -211.3 328.5 -211.3 327.8 -211.3 327.25 -211.85 326.75 -212.35 326.75 -213.05 326.75 -213.75 327.25 -214.3 M339.85 -207.4 Q340.4 -207.9 341.1 -207.9 341.8 -207.9 342.3 -207.4 342.85 -206.85 342.85 -206.15 342.85 -205.45 342.3 -204.95 341.8 -204.4 341.1 -204.4 340.4 -204.4 339.85 -204.95 339.35 -205.45 339.35 -206.15 339.35 -206.85 339.85 -207.4 M342.3 -200.9 Q342.85 -200.35 342.85 -199.65 342.85 -198.95 342.3 -198.45 341.8 -197.9 341.1 -197.9 340.4 -197.9 339.85 -198.45 339.35 -198.95 339.35 -199.65 339.35 -200.35 339.85 -200.9 340.4 -201.4 341.1 -201.4 341.8 -201.4 342.3 -200.9 M339.85 -194.4 Q340.4 -194.9 341.1 -194.9 341.8 -194.9 342.3 -194.4 342.85 -193.85 342.85 -193.15 342.85 -192.45 342.3 -191.95 341.8 -191.4 341.1 -191.4 340.4 -191.4 339.85 -191.95 339.35 -192.45 339.35 -193.15 339.35 -193.85 339.85 -194.4 M342.3 -187.9 Q342.85 -187.35 342.85 -186.65 342.85 -185.95 342.3 -185.45 341.8 -184.9 341.1 -184.9 340.4 -184.9 339.85 -185.45 339.35 -185.95 339.35 -186.65 339.35 -187.35 339.85 -187.9 340.4 -188.4 341.1 -188.4 341.8 -188.4 342.3 -187.9 M339.85 -181.4 Q340.4 -181.9 341.1 -181.9 341.8 -181.9 342.3 -181.4 342.85 -180.85 342.85 -180.15 342.85 -179.45 342.3 -178.95 341.8 -178.4 341.1 -178.4 340.4 -178.4 339.85 -178.95 339.35 -179.45 339.35 -180.15 339.35 -180.85 339.85 -181.4 M339.85 -174.9 Q340.4 -175.4 341.1 -175.4 341.8 -175.4 342.3 -174.9 342.85 -174.35 342.85 -173.65 342.85 -172.95 342.3 -172.45 341.8 -171.9 341.1 -171.9 340.4 -171.9 339.85 -172.45 339.35 -172.95 339.35 -173.65 339.35 -174.35 339.85 -174.9 M339.85 -168.4 Q340.4 -168.9 341.1 -168.9 341.8 -168.9 342.3 -168.4 342.85 -167.85 342.85 -167.15 342.85 -166.45 342.3 -165.95 341.8 -165.4 341.1 -165.4 340.4 -165.4 339.85 -165.95 339.35 -166.45 339.35 -167.15 339.35 -167.85 339.85 -168.4 M342.3 -161.9 Q342.85 -161.35 342.85 -160.65 342.85 -159.95 342.3 -159.45 341.8 -158.9 341.1 -158.9 340.4 -158.9 339.85 -159.45 339.35 -159.95 339.35 -160.65 339.35 -161.35 339.85 -161.9 340.4 -162.4 341.1 -162.4 341.8 -162.4 342.3 -161.9 M342.3 -155.4 Q342.85 -154.85 342.85 -154.15 342.85 -153.45 342.3 -152.95 341.8 -152.4 341.1 -152.4 340.4 -152.4 339.85 -152.95 339.35 -153.45 339.35 -154.15 339.35 -154.85 339.85 -155.4 340.4 -155.9 341.1 -155.9 341.8 -155.9 342.3 -155.4 M342.3 -148.9 Q342.85 -148.35 342.85 -147.65 342.85 -146.95 342.3 -146.45 341.8 -145.9 341.1 -145.9 340.4 -145.9 339.85 -146.45 339.35 -146.95 339.35 -147.65 339.35 -148.35 339.85 -148.9 340.4 -149.4 341.1 -149.4 341.8 -149.4 342.3 -148.9 M342.3 -142.4 Q342.85 -141.85 342.85 -141.15 342.85 -140.45 342.3 -139.95 341.8 -139.4 341.1 -139.4 340.4 -139.4 339.85 -139.95 339.35 -140.45 339.35 -141.15 339.35 -141.85 339.85 -142.4 340.4 -142.9 341.1 -142.9 341.8 -142.9 342.3 -142.4 M339.85 -135.9 Q340.4 -136.4 341.1 -136.4 341.8 -136.4 342.3 -135.9 342.85 -135.35 342.85 -134.65 342.85 -133.95 342.3 -133.45 341.8 -132.9 341.1 -132.9 340.4 -132.9 339.85 -133.45 339.35 -133.95 339.35 -134.65 339.35 -135.35 339.85 -135.9 M339.85 -129.4 Q340.4 -129.9 341.1 -129.9 341.8 -129.9 342.3 -129.4 342.85 -128.85 342.85 -128.15 342.85 -127.45 342.3 -126.95 341.8 -126.4 341.1 -126.4 340.4 -126.4 339.85 -126.95 339.35 -127.45 339.35 -128.15 339.35 -128.85 339.85 -129.4 M339.85 -122.9 Q340.4 -123.4 341.1 -123.4 341.8 -123.4 342.3 -122.9 342.85 -122.35 342.85 -121.65 342.85 -120.95 342.3 -120.45 341.8 -119.9 341.1 -119.9 340.4 -119.9 339.85 -120.45 339.35 -120.95 339.35 -121.65 339.35 -122.35 339.85 -122.9 M342.3 -116.4 Q342.85 -115.85 342.85 -115.15 342.85 -114.45 342.3 -113.95 341.8 -113.4 341.1 -113.4 340.4 -113.4 339.85 -113.95 339.35 -114.45 339.35 -115.15 339.35 -115.85 339.85 -116.4 340.4 -116.9 341.1 -116.9 341.8 -116.9 342.3 -116.4 M339.85 -109.9 Q340.4 -110.4 341.1 -110.4 341.8 -110.4 342.3 -109.9 342.85 -109.35 342.85 -108.65 342.85 -107.95 342.3 -107.45 341.8 -106.9 341.1 -106.9 340.4 -106.9 339.85 -107.45 339.35 -107.95 339.35 -108.65 339.35 -109.35 339.85 -109.9 M342.3 -103.4 Q342.85 -102.85 342.85 -102.15 342.85 -101.45 342.3 -100.95 341.8 -100.4 341.1 -100.4 340.4 -100.4 339.85 -100.95 339.35 -101.45 339.35 -102.15 339.35 -102.85 339.85 -103.4 340.4 -103.9 341.1 -103.9 341.8 -103.9 342.3 -103.4 M339.85 -96.9 Q340.4 -97.4 341.1 -97.4 341.8 -97.4 342.3 -96.9 342.85 -96.35 342.85 -95.65 342.85 -94.95 342.3 -94.45 341.8 -93.9 341.1 -93.9 340.4 -93.9 339.85 -94.45 339.35 -94.95 339.35 -95.65 339.35 -96.35 339.85 -96.9 M342.3 -90.4 Q342.85 -89.85 342.85 -89.15 342.85 -88.45 342.3 -87.95 341.8 -87.4 341.1 -87.4 340.4 -87.4 339.85 -87.95 339.35 -88.45 339.35 -89.15 339.35 -89.85 339.85 -90.4 340.4 -90.9 341.1 -90.9 341.8 -90.9 342.3 -90.4 M339.85 -83.9 Q340.4 -84.4 341.1 -84.4 341.8 -84.4 342.3 -83.9 342.85 -83.35 342.85 -82.65 342.85 -81.95 342.3 -81.45 341.8 -80.9 341.1 -80.9 340.4 -80.9 339.85 -81.45 339.35 -81.95 339.35 -82.65 339.35 -83.35 339.85 -83.9 M339.85 -77.4 Q340.4 -77.9 341.1 -77.9 341.8 -77.9 342.3 -77.4 342.85 -76.85 342.85 -76.15 342.85 -75.45 342.3 -74.95 341.8 -74.4 341.1 -74.4 340.4 -74.4 339.85 -74.95 339.35 -75.45 339.35 -76.15 339.35 -76.85 339.85 -77.4 M339.85 -70.9 Q340.4 -71.4 341.1 -71.4 341.8 -71.4 342.3 -70.9 342.85 -70.35 342.85 -69.65 342.85 -68.95 342.3 -68.45 341.8 -67.9 341.1 -67.9 340.4 -67.9 339.85 -68.45 339.35 -68.95 339.35 -69.65 339.35 -70.35 339.85 -70.9 M342.3 -64.4 Q342.85 -63.85 342.85 -63.15 342.85 -62.45 342.3 -61.95 341.8 -61.4 341.1 -61.4 340.4 -61.4 339.85 -61.95 339.35 -62.45 339.35 -63.15 339.35 -63.85 339.85 -64.4 340.4 -64.9 341.1 -64.9 341.8 -64.9 342.3 -64.4 M339.85 -57.9 Q340.4 -58.4 341.1 -58.4 341.8 -58.4 342.3 -57.9 342.85 -57.35 342.85 -56.65 342.85 -55.95 342.3 -55.45 341.8 -54.9 341.1 -54.9 340.4 -54.9 339.85 -55.45 339.35 -55.95 339.35 -56.65 339.35 -57.35 339.85 -57.9 M342.3 -51.4 Q342.85 -50.85 342.85 -50.15 342.85 -49.45 342.3 -48.95 341.8 -48.4 341.1 -48.4 340.4 -48.4 339.85 -48.95 339.35 -49.45 339.35 -50.15 339.35 -50.85 339.85 -51.4 340.4 -51.9 341.1 -51.9 341.8 -51.9 342.3 -51.4 M339.85 -44.9 Q340.4 -45.4 341.1 -45.4 341.8 -45.4 342.3 -44.9 342.85 -44.35 342.85 -43.65 342.85 -42.95 342.3 -42.45 341.8 -41.9 341.1 -41.9 340.4 -41.9 339.85 -42.45 339.35 -42.95 339.35 -43.65 339.35 -44.35 339.85 -44.9 M342.3 -38.4 Q342.85 -37.85 342.85 -37.15 342.85 -36.45 342.3 -35.95 341.8 -35.4 341.1 -35.4 340.4 -35.4 339.85 -35.95 339.35 -36.45 339.35 -37.15 339.35 -37.85 339.85 -38.4 340.4 -38.9 341.1 -38.9 341.8 -38.9 342.3 -38.4 M341.1 -32.4 Q341.8 -32.4 342.3 -31.9 342.85 -31.35 342.85 -30.65 342.85 -29.95 342.3 -29.45 341.8 -28.9 341.1 -28.9 340.4 -28.9 339.85 -29.45 339.35 -29.95 339.35 -30.65 339.35 -31.35 339.85 -31.9 340.4 -32.4 341.1 -32.4 M341.1 -25.9 Q341.8 -25.9 342.3 -25.4 342.85 -24.85 342.85 -24.15 342.85 -23.45 342.3 -22.95 341.8 -22.4 341.1 -22.4 340.4 -22.4 339.85 -22.95 339.35 -23.45 339.35 -24.15 339.35 -24.85 339.85 -25.4 340.4 -25.9 341.1 -25.9 M342.3 -18.9 Q342.85 -18.35 342.85 -17.65 342.85 -16.95 342.3 -16.45 341.8 -15.9 341.1 -15.9 340.4 -15.9 339.85 -16.45 339.35 -16.95 339.35 -17.65 339.35 -18.35 339.85 -18.9 340.4 -19.4 341.1 -19.4 341.8 -19.4 342.3 -18.9 M342.3 -12.4 Q342.85 -11.85 342.85 -11.15 342.85 -10.45 342.3 -9.95 341.8 -9.4 341.1 -9.4 340.4 -9.4 339.85 -9.95 339.35 -10.45 339.35 -11.15 339.35 -11.85 339.85 -12.4 340.4 -12.9 341.1 -12.9 341.8 -12.9 342.3 -12.4 M341.1 -2.9 Q340.4 -2.9 339.85 -3.45 339.35 -3.95 339.35 -4.65 339.35 -5.35 339.85 -5.9 340.4 -6.4 341.1 -6.4 341.8 -6.4 342.3 -5.9 342.85 -5.35 342.85 -4.65 342.85 -3.95 342.3 -3.45 341.8 -2.9 341.1 -2.9 M-332.75 -213.05 Q-332.75 -212.35 -333.3 -211.85 -333.8 -211.3 -334.5 -211.3 -335.2 -211.3 -335.75 -211.85 -336.25 -212.35 -336.25 -213.05 -336.25 -213.75 -335.75 -214.3 -335.2 -214.8 -334.5 -214.8 -333.8 -214.8 -333.3 -214.3 -332.75 -213.75 -332.75 -213.05 M-329.75 -213.05 Q-329.75 -213.75 -329.25 -214.3 -328.7 -214.8 -328.0 -214.8 -327.3 -214.8 -326.8 -214.3 -326.25 -213.75 -326.25 -213.05 -326.25 -212.35 -326.8 -211.85 -327.3 -211.3 -328.0 -211.3 -328.7 -211.3 -329.25 -211.85 -329.75 -212.35 -329.75 -213.05 M-339.8 -214.3 Q-339.25 -213.75 -339.25 -213.05 -339.25 -212.35 -339.8 -211.85 -340.3 -211.3 -341.0 -211.3 L-341.1 -211.3 Q-341.8 -211.3 -342.35 -211.85 -342.85 -212.35 -342.85 -213.05 -342.85 -213.75 -342.35 -214.3 -341.8 -214.8 -341.1 -214.8 L-341.0 -214.8 Q-340.3 -214.8 -339.8 -214.3 M-339.9 -207.8 Q-339.35 -207.25 -339.35 -206.55 -339.35 -205.85 -339.9 -205.35 -340.4 -204.8 -341.1 -204.8 -341.8 -204.8 -342.35 -205.35 -342.85 -205.85 -342.85 -206.55 -342.85 -207.25 -342.35 -207.8 -341.8 -208.3 -341.1 -208.3 -340.4 -208.3 -339.9 -207.8 M-342.35 -201.3 Q-341.8 -201.8 -341.1 -201.8 -340.4 -201.8 -339.9 -201.3 -339.35 -200.75 -339.35 -200.05 -339.35 -199.35 -339.9 -198.85 -340.4 -198.3 -341.1 -198.3 -341.8 -198.3 -342.35 -198.85 -342.85 -199.35 -342.85 -200.05 -342.85 -200.75 -342.35 -201.3 M-339.9 -194.8 Q-339.35 -194.25 -339.35 -193.55 -339.35 -192.85 -339.9 -192.35 -340.4 -191.8 -341.1 -191.8 -341.8 -191.8 -342.35 -192.35 -342.85 -192.85 -342.85 -193.55 -342.85 -194.25 -342.35 -194.8 -341.8 -195.3 -341.1 -195.3 -340.4 -195.3 -339.9 -194.8 M-342.35 -188.3 Q-341.8 -188.8 -341.1 -188.8 -340.4 -188.8 -339.9 -188.3 -339.35 -187.75 -339.35 -187.05 -339.35 -186.35 -339.9 -185.85 -340.4 -185.3 -341.1 -185.3 -341.8 -185.3 -342.35 -185.85 -342.85 -186.35 -342.85 -187.05 -342.85 -187.75 -342.35 -188.3 M-339.9 -181.8 Q-339.35 -181.25 -339.35 -180.55 -339.35 -179.85 -339.9 -179.35 -340.4 -178.8 -341.1 -178.8 -341.8 -178.8 -342.35 -179.35 -342.85 -179.85 -342.85 -180.55 -342.85 -181.25 -342.35 -181.8 -341.8 -182.3 -341.1 -182.3 -340.4 -182.3 -339.9 -181.8 M-342.35 -175.3 Q-341.8 -175.8 -341.1 -175.8 -340.4 -175.8 -339.9 -175.3 -339.35 -174.75 -339.35 -174.05 -339.35 -173.35 -339.9 -172.85 -340.4 -172.3 -341.1 -172.3 -341.8 -172.3 -342.35 -172.85 -342.85 -173.35 -342.85 -174.05 -342.85 -174.75 -342.35 -175.3 M-342.35 -168.8 Q-341.8 -169.3 -341.1 -169.3 -340.4 -169.3 -339.9 -168.8 -339.35 -168.25 -339.35 -167.55 -339.35 -166.85 -339.9 -166.35 -340.4 -165.8 -341.1 -165.8 -341.8 -165.8 -342.35 -166.35 -342.85 -166.85 -342.85 -167.55 -342.85 -168.25 -342.35 -168.8 M-342.35 -162.3 Q-341.8 -162.8 -341.1 -162.8 -340.4 -162.8 -339.9 -162.3 -339.35 -161.75 -339.35 -161.05 -339.35 -160.35 -339.9 -159.85 -340.4 -159.3 -341.1 -159.3 -341.8 -159.3 -342.35 -159.85 -342.85 -160.35 -342.85 -161.05 -342.85 -161.75 -342.35 -162.3 M-339.9 -155.8 Q-339.35 -155.25 -339.35 -154.55 -339.35 -153.85 -339.9 -153.35 -340.4 -152.8 -341.1 -152.8 -341.8 -152.8 -342.35 -153.35 -342.85 -153.85 -342.85 -154.55 -342.85 -155.25 -342.35 -155.8 -341.8 -156.3 -341.1 -156.3 -340.4 -156.3 -339.9 -155.8 M-341.1 -149.8 Q-340.4 -149.8 -339.9 -149.3 -339.35 -148.75 -339.35 -148.05 -339.35 -147.35 -339.9 -146.85 -340.4 -146.3 -341.1 -146.3 -341.8 -146.3 -342.35 -146.85 -342.85 -147.35 -342.85 -148.05 -342.85 -148.75 -342.35 -149.3 -341.8 -149.8 -341.1 -149.8 M-339.9 -142.8 Q-339.35 -142.25 -339.35 -141.55 -339.35 -140.85 -339.9 -140.35 -340.4 -139.8 -341.1 -139.8 -341.8 -139.8 -342.35 -140.35 -342.85 -140.85 -342.85 -141.55 -342.85 -142.25 -342.35 -142.8 -341.8 -143.3 -341.1 -143.3 -340.4 -143.3 -339.9 -142.8 M-341.1 -136.8 Q-340.4 -136.8 -339.9 -136.3 -339.35 -135.75 -339.35 -135.05 -339.35 -134.35 -339.9 -133.85 -340.4 -133.3 -341.1 -133.3 -341.8 -133.3 -342.35 -133.85 -342.85 -134.35 -342.85 -135.05 -342.85 -135.75 -342.35 -136.3 -341.8 -136.8 -341.1 -136.8 M-342.35 -129.8 Q-341.8 -130.3 -341.1 -130.3 -340.4 -130.3 -339.9 -129.8 -339.35 -129.25 -339.35 -128.55 -339.35 -127.85 -339.9 -127.35 -340.4 -126.8 -341.1 -126.8 -341.8 -126.8 -342.35 -127.35 -342.85 -127.85 -342.85 -128.55 -342.85 -129.25 -342.35 -129.8 M-342.35 -123.3 Q-341.8 -123.8 -341.1 -123.8 -340.4 -123.8 -339.9 -123.3 -339.35 -122.75 -339.35 -122.05 -339.35 -121.35 -339.9 -120.85 -340.4 -120.3 -341.1 -120.3 -341.8 -120.3 -342.35 -120.85 -342.85 -121.35 -342.85 -122.05 -342.85 -122.75 -342.35 -123.3 M-342.35 -116.8 Q-341.8 -117.3 -341.1 -117.3 -340.4 -117.3 -339.9 -116.8 -339.35 -116.25 -339.35 -115.55 -339.35 -114.85 -339.9 -114.35 -340.4 -113.8 -341.1 -113.8 -341.8 -113.8 -342.35 -114.35 -342.85 -114.85 -342.85 -115.55 -342.85 -116.25 -342.35 -116.8 M-339.9 -110.3 Q-339.35 -109.75 -339.35 -109.05 -339.35 -108.35 -339.9 -107.85 -340.4 -107.3 -341.1 -107.3 -341.8 -107.3 -342.35 -107.85 -342.85 -108.35 -342.85 -109.05 -342.85 -109.75 -342.35 -110.3 -341.8 -110.8 -341.1 -110.8 -340.4 -110.8 -339.9 -110.3 M-342.35 -103.8 Q-341.8 -104.3 -341.1 -104.3 -340.4 -104.3 -339.9 -103.8 -339.35 -103.25 -339.35 -102.55 -339.35 -101.85 -339.9 -101.35 -340.4 -100.8 -341.1 -100.8 -341.8 -100.8 -342.35 -101.35 -342.85 -101.85 -342.85 -102.55 -342.85 -103.25 -342.35 -103.8 M-339.9 -97.3 Q-339.35 -96.75 -339.35 -96.05 -339.35 -95.35 -339.9 -94.85 -340.4 -94.3 -341.1 -94.3 -341.8 -94.3 -342.35 -94.85 -342.85 -95.35 -342.85 -96.05 -342.85 -96.75 -342.35 -97.3 -341.8 -97.8 -341.1 -97.8 -340.4 -97.8 -339.9 -97.3 M-342.35 -90.8 Q-341.8 -91.3 -341.1 -91.3 -340.4 -91.3 -339.9 -90.8 -339.35 -90.25 -339.35 -89.55 -339.35 -88.85 -339.9 -88.35 -340.4 -87.8 -341.1 -87.8 -341.8 -87.8 -342.35 -88.35 -342.85 -88.85 -342.85 -89.55 -342.85 -90.25 -342.35 -90.8 M-339.9 -84.3 Q-339.35 -83.75 -339.35 -83.05 -339.35 -82.35 -339.9 -81.85 -340.4 -81.3 -341.1 -81.3 -341.8 -81.3 -342.35 -81.85 -342.85 -82.35 -342.85 -83.05 -342.85 -83.75 -342.35 -84.3 -341.8 -84.8 -341.1 -84.8 -340.4 -84.8 -339.9 -84.3 M-342.35 -77.8 Q-341.8 -78.3 -341.1 -78.3 -340.4 -78.3 -339.9 -77.8 -339.35 -77.25 -339.35 -76.55 -339.35 -75.85 -339.9 -75.35 -340.4 -74.8 -341.1 -74.8 -341.8 -74.8 -342.35 -75.35 -342.85 -75.85 -342.85 -76.55 -342.85 -77.25 -342.35 -77.8 M-342.35 -71.3 Q-341.8 -71.8 -341.1 -71.8 -340.4 -71.8 -339.9 -71.3 -339.35 -70.75 -339.35 -70.05 -339.35 -69.35 -339.9 -68.85 -340.4 -68.3 -341.1 -68.3 -341.8 -68.3 -342.35 -68.85 -342.85 -69.35 -342.85 -70.05 -342.85 -70.75 -342.35 -71.3 M-342.35 -64.8 Q-341.8 -65.3 -341.1 -65.3 -340.4 -65.3 -339.9 -64.8 -339.35 -64.25 -339.35 -63.55 -339.35 -62.85 -339.9 -62.35 -340.4 -61.8 -341.1 -61.8 -341.8 -61.8 -342.35 -62.35 -342.85 -62.85 -342.85 -63.55 -342.85 -64.25 -342.35 -64.8 M-339.9 -58.3 Q-339.35 -57.75 -339.35 -57.05 -339.35 -56.35 -339.9 -55.85 -340.4 -55.3 -341.1 -55.3 -341.8 -55.3 -342.35 -55.85 -342.85 -56.35 -342.85 -57.05 -342.85 -57.75 -342.35 -58.3 -341.8 -58.8 -341.1 -58.8 -340.4 -58.8 -339.9 -58.3 M-342.35 -51.8 Q-341.8 -52.3 -341.1 -52.3 -340.4 -52.3 -339.9 -51.8 -339.35 -51.25 -339.35 -50.55 -339.35 -49.85 -339.9 -49.35 -340.4 -48.8 -341.1 -48.8 -341.8 -48.8 -342.35 -49.35 -342.85 -49.85 -342.85 -50.55 -342.85 -51.25 -342.35 -51.8 M-342.35 -45.3 Q-341.8 -45.8 -341.1 -45.8 -340.4 -45.8 -339.9 -45.3 -339.35 -44.75 -339.35 -44.05 -339.35 -43.35 -339.9 -42.85 -340.4 -42.3 -341.1 -42.3 -341.8 -42.3 -342.35 -42.85 -342.85 -43.35 -342.85 -44.05 -342.85 -44.75 -342.35 -45.3 M-342.35 -38.8 Q-341.8 -39.3 -341.1 -39.3 -340.4 -39.3 -339.9 -38.8 -339.35 -38.25 -339.35 -37.55 -339.35 -36.85 -339.9 -36.35 -340.4 -35.8 -341.1 -35.8 -341.8 -35.8 -342.35 -36.35 -342.85 -36.85 -342.85 -37.55 -342.85 -38.25 -342.35 -38.8 M-342.35 -32.3 Q-341.8 -32.8 -341.1 -32.8 -340.4 -32.8 -339.9 -32.3 -339.35 -31.75 -339.35 -31.05 -339.35 -30.35 -339.9 -29.85 -340.4 -29.3 -341.1 -29.3 -341.8 -29.3 -342.35 -29.85 -342.85 -30.35 -342.85 -31.05 -342.85 -31.75 -342.35 -32.3 M-341.1 -26.3 Q-340.4 -26.3 -339.9 -25.8 -339.35 -25.25 -339.35 -24.55 -339.35 -23.85 -339.9 -23.35 -340.4 -22.8 -341.1 -22.8 -341.8 -22.8 -342.35 -23.35 -342.85 -23.85 -342.85 -24.55 -342.85 -25.25 -342.35 -25.8 -341.8 -26.3 -341.1 -26.3 M-341.1 -19.8 Q-340.4 -19.8 -339.9 -19.3 -339.35 -18.75 -339.35 -18.05 -339.35 -17.35 -339.9 -16.85 -340.4 -16.3 -341.1 -16.3 -341.8 -16.3 -342.35 -16.85 -342.85 -17.35 -342.85 -18.05 -342.85 -18.75 -342.35 -19.3 -341.8 -19.8 -341.1 -19.8 M-341.1 -13.3 Q-340.4 -13.3 -339.9 -12.8 -339.35 -12.25 -339.35 -11.55 -339.35 -10.85 -339.9 -10.35 -340.4 -9.8 -341.1 -9.8 -341.8 -9.8 -342.35 -10.35 -342.85 -10.85 -342.85 -11.55 -342.85 -12.25 -342.35 -12.8 -341.8 -13.3 -341.1 -13.3 M-339.9 -6.3 Q-339.35 -5.75 -339.35 -5.05 -339.35 -4.35 -339.9 -3.85 -340.4 -3.3 -341.1 -3.3 -341.8 -3.3 -342.35 -3.85 -342.85 -4.35 -342.85 -5.05 -342.85 -5.75 -342.35 -6.3 -341.8 -6.8 -341.1 -6.8 -340.4 -6.8 -339.9 -6.3 M-150.75 -213.05 Q-150.75 -212.35 -151.3 -211.85 -151.8 -211.3 -152.5 -211.3 -153.2 -211.3 -153.75 -211.85 -154.25 -212.35 -154.25 -213.05 -154.25 -213.75 -153.75 -214.3 -153.2 -214.8 -152.5 -214.8 -151.8 -214.8 -151.3 -214.3 -150.75 -213.75 -150.75 -213.05 M-147.25 -214.3 Q-146.7 -214.8 -146.0 -214.8 -145.3 -214.8 -144.8 -214.3 -144.25 -213.75 -144.25 -213.05 -144.25 -212.35 -144.8 -211.85 -145.3 -211.3 -146.0 -211.3 -146.7 -211.3 -147.25 -211.85 -147.75 -212.35 -147.75 -213.05 -147.75 -213.75 -147.25 -214.3 M-160.25 -214.3 Q-159.7 -214.8 -159.0 -214.8 -158.3 -214.8 -157.8 -214.3 -157.25 -213.75 -157.25 -213.05 -157.25 -212.35 -157.8 -211.85 -158.3 -211.3 -159.0 -211.3 -159.7 -211.3 -160.25 -211.85 -160.75 -212.35 -160.75 -213.05 -160.75 -213.75 -160.25 -214.3 M-127.75 -214.3 Q-127.2 -214.8 -126.5 -214.8 -125.8 -214.8 -125.3 -214.3 -124.75 -213.75 -124.75 -213.05 -124.75 -212.35 -125.3 -211.85 -125.8 -211.3 -126.5 -211.3 -127.2 -211.3 -127.75 -211.85 -128.25 -212.35 -128.25 -213.05 -128.25 -213.75 -127.75 -214.3 M-140.75 -214.3 Q-140.2 -214.8 -139.5 -214.8 -138.8 -214.8 -138.3 -214.3 -137.75 -213.75 -137.75 -213.05 -137.75 -212.35 -138.3 -211.85 -138.8 -211.3 -139.5 -211.3 -140.2 -211.3 -140.75 -211.85 -141.25 -212.35 -141.25 -213.05 -141.25 -213.75 -140.75 -214.3 M-131.8 -214.3 Q-131.25 -213.75 -131.25 -213.05 -131.25 -212.35 -131.8 -211.85 -132.3 -211.3 -133.0 -211.3 -133.7 -211.3 -134.25 -211.85 -134.75 -212.35 -134.75 -213.05 -134.75 -213.75 -134.25 -214.3 -133.7 -214.8 -133.0 -214.8 -132.3 -214.8 -131.8 -214.3 M-108.25 -214.3 Q-107.7 -214.8 -107.0 -214.8 -106.3 -214.8 -105.8 -214.3 -105.25 -213.75 -105.25 -213.05 -105.25 -212.35 -105.8 -211.85 -106.3 -211.3 -107.0 -211.3 -107.7 -211.3 -108.25 -211.85 -108.75 -212.35 -108.75 -213.05 -108.75 -213.75 -108.25 -214.3 M-101.75 -214.3 Q-101.2 -214.8 -100.5 -214.8 -99.8 -214.8 -99.3 -214.3 -98.75 -213.75 -98.75 -213.05 -98.75 -212.35 -99.3 -211.85 -99.8 -211.3 -100.5 -211.3 -101.2 -211.3 -101.75 -211.85 -102.25 -212.35 -102.25 -213.05 -102.25 -213.75 -101.75 -214.3 M-118.25 -213.05 Q-118.25 -212.35 -118.8 -211.85 -119.3 -211.3 -120.0 -211.3 -120.7 -211.3 -121.25 -211.85 -121.75 -212.35 -121.75 -213.05 -121.75 -213.75 -121.25 -214.3 -120.7 -214.8 -120.0 -214.8 -119.3 -214.8 -118.8 -214.3 -118.25 -213.75 -118.25 -213.05 M-112.3 -214.3 Q-111.75 -213.75 -111.75 -213.05 -111.75 -212.35 -112.3 -211.85 -112.8 -211.3 -113.5 -211.3 -114.2 -211.3 -114.75 -211.85 -115.25 -212.35 -115.25 -213.05 -115.25 -213.75 -114.75 -214.3 -114.2 -214.8 -113.5 -214.8 -112.8 -214.8 -112.3 -214.3 M-88.75 -214.3 Q-88.2 -214.8 -87.5 -214.8 -86.8 -214.8 -86.3 -214.3 -85.75 -213.75 -85.75 -213.05 -85.75 -212.35 -86.3 -211.85 -86.8 -211.3 -87.5 -211.3 -88.2 -211.3 -88.75 -211.85 -89.25 -212.35 -89.25 -213.05 -89.25 -213.75 -88.75 -214.3 M-82.75 -213.05 Q-82.75 -213.75 -82.25 -214.3 -81.7 -214.8 -81.0 -214.8 -80.3 -214.8 -79.8 -214.3 -79.25 -213.75 -79.25 -213.05 -79.25 -212.35 -79.8 -211.85 -80.3 -211.3 -81.0 -211.3 -81.7 -211.3 -82.25 -211.85 -82.75 -212.35 -82.75 -213.05 M-92.8 -214.3 Q-92.25 -213.75 -92.25 -213.05 -92.25 -212.35 -92.8 -211.85 -93.3 -211.3 -94.0 -211.3 -94.7 -211.3 -95.25 -211.85 -95.75 -212.35 -95.75 -213.05 -95.75 -213.75 -95.25 -214.3 -94.7 -214.8 -94.0 -214.8 -93.3 -214.8 -92.8 -214.3 M-69.25 -214.3 Q-68.7 -214.8 -68.0 -214.8 -67.3 -214.8 -66.8 -214.3 -66.25 -213.75 -66.25 -213.05 -66.25 -212.35 -66.8 -211.85 -67.3 -211.3 -68.0 -211.3 -68.7 -211.3 -69.25 -211.85 -69.75 -212.35 -69.75 -213.05 -69.75 -213.75 -69.25 -214.3 M-62.75 -214.3 Q-62.2 -214.8 -61.5 -214.8 -60.8 -214.8 -60.3 -214.3 -59.75 -213.75 -59.75 -213.05 -59.75 -212.35 -60.3 -211.85 -60.8 -211.3 -61.5 -211.3 -62.2 -211.3 -62.75 -211.85 -63.25 -212.35 -63.25 -213.05 -63.25 -213.75 -62.75 -214.3 M-73.3 -214.3 Q-72.75 -213.75 -72.75 -213.05 -72.75 -212.35 -73.3 -211.85 -73.8 -211.3 -74.5 -211.3 -75.2 -211.3 -75.75 -211.85 -76.25 -212.35 -76.25 -213.05 -76.25 -213.75 -75.75 -214.3 -75.2 -214.8 -74.5 -214.8 -73.8 -214.8 -73.3 -214.3 M-49.75 -214.3 Q-49.2 -214.8 -48.5 -214.8 -47.8 -214.8 -47.3 -214.3 -46.75 -213.75 -46.75 -213.05 -46.75 -212.35 -47.3 -211.85 -47.8 -211.3 -48.5 -211.3 -49.2 -211.3 -49.75 -211.85 -50.25 -212.35 -50.25 -213.05 -50.25 -213.75 -49.75 -214.3 M-40.8 -214.3 Q-40.25 -213.75 -40.25 -213.05 -40.25 -212.35 -40.8 -211.85 -41.3 -211.3 -42.0 -211.3 -42.7 -211.3 -43.25 -211.85 -43.75 -212.35 -43.75 -213.05 -43.75 -213.75 -43.25 -214.3 -42.7 -214.8 -42.0 -214.8 -41.3 -214.8 -40.8 -214.3 M-56.75 -213.05 Q-56.75 -213.75 -56.25 -214.3 -55.7 -214.8 -55.0 -214.8 -54.3 -214.8 -53.8 -214.3 -53.25 -213.75 -53.25 -213.05 -53.25 -212.35 -53.8 -211.85 -54.3 -211.3 -55.0 -211.3 -55.7 -211.3 -56.25 -211.85 -56.75 -212.35 -56.75 -213.05 M-27.25 -213.05 Q-27.25 -212.35 -27.8 -211.85 -28.3 -211.3 -29.0 -211.3 -29.7 -211.3 -30.25 -211.85 -30.75 -212.35 -30.75 -213.05 -30.75 -213.75 -30.25 -214.3 -29.7 -214.8 -29.0 -214.8 -28.3 -214.8 -27.8 -214.3 -27.25 -213.75 -27.25 -213.05 M-23.75 -214.3 Q-23.2 -214.8 -22.5 -214.8 -21.8 -214.8 -21.3 -214.3 -20.75 -213.75 -20.75 -213.05 -20.75 -212.35 -21.3 -211.85 -21.8 -211.3 -22.5 -211.3 -23.2 -211.3 -23.75 -211.85 -24.25 -212.35 -24.25 -213.05 -24.25 -213.75 -23.75 -214.3 M-36.75 -214.3 Q-36.2 -214.8 -35.5 -214.8 -34.8 -214.8 -34.3 -214.3 -33.75 -213.75 -33.75 -213.05 -33.75 -212.35 -34.3 -211.85 -34.8 -211.3 -35.5 -211.3 -36.2 -211.3 -36.75 -211.85 -37.25 -212.35 -37.25 -213.05 -37.25 -213.75 -36.75 -214.3 M-7.75 -213.05 Q-7.75 -212.35 -8.3 -211.85 -8.8 -211.3 -9.5 -211.3 -10.2 -211.3 -10.75 -211.85 -11.25 -212.35 -11.25 -213.05 -11.25 -213.75 -10.75 -214.3 -10.2 -214.8 -9.5 -214.8 -8.8 -214.8 -8.3 -214.3 -7.75 -213.75 -7.75 -213.05 M-1.8 -214.3 Q-1.25 -213.75 -1.25 -213.05 -1.25 -212.35 -1.8 -211.85 -2.3 -211.3 -3.0 -211.3 -3.7 -211.3 -4.25 -211.85 -4.75 -212.35 -4.75 -213.05 -4.75 -213.75 -4.25 -214.3 -3.7 -214.8 -3.0 -214.8 -2.3 -214.8 -1.8 -214.3 M-17.25 -214.3 Q-16.7 -214.8 -16.0 -214.8 -15.3 -214.8 -14.8 -214.3 -14.25 -213.75 -14.25 -213.05 -14.25 -212.35 -14.8 -211.85 -15.3 -211.3 -16.0 -211.3 -16.7 -211.3 -17.25 -211.85 -17.75 -212.35 -17.75 -213.05 -17.75 -213.75 -17.25 -214.3 M-313.25 -213.05 Q-313.25 -212.35 -313.8 -211.85 -314.3 -211.3 -315.0 -211.3 -315.7 -211.3 -316.25 -211.85 -316.75 -212.35 -316.75 -213.05 -316.75 -213.75 -316.25 -214.3 -315.7 -214.8 -315.0 -214.8 -314.3 -214.8 -313.8 -214.3 -313.25 -213.75 -313.25 -213.05 M-309.75 -214.3 Q-309.2 -214.8 -308.5 -214.8 -307.8 -214.8 -307.3 -214.3 -306.75 -213.75 -306.75 -213.05 -306.75 -212.35 -307.3 -211.85 -307.8 -211.3 -308.5 -211.3 -309.2 -211.3 -309.75 -211.85 -310.25 -212.35 -310.25 -213.05 -310.25 -213.75 -309.75 -214.3 M-322.75 -214.3 Q-322.2 -214.8 -321.5 -214.8 -320.8 -214.8 -320.3 -214.3 -319.75 -213.75 -319.75 -213.05 -319.75 -212.35 -320.3 -211.85 -320.8 -211.3 -321.5 -211.3 -322.2 -211.3 -322.75 -211.85 -323.25 -212.35 -323.25 -213.05 -323.25 -213.75 -322.75 -214.3 M-290.25 -214.3 Q-289.7 -214.8 -289.0 -214.8 -288.3 -214.8 -287.8 -214.3 -287.25 -213.75 -287.25 -213.05 -287.25 -212.35 -287.8 -211.85 -288.3 -211.3 -289.0 -211.3 -289.7 -211.3 -290.25 -211.85 -290.75 -212.35 -290.75 -213.05 -290.75 -213.75 -290.25 -214.3 M-284.25 -213.05 Q-284.25 -213.75 -283.75 -214.3 -283.2 -214.8 -282.5 -214.8 -281.8 -214.8 -281.3 -214.3 -280.75 -213.75 -280.75 -213.05 -280.75 -212.35 -281.3 -211.85 -281.8 -211.3 -282.5 -211.3 -283.2 -211.3 -283.75 -211.85 -284.25 -212.35 -284.25 -213.05 M-303.25 -214.3 Q-302.7 -214.8 -302.0 -214.8 -301.3 -214.8 -300.8 -214.3 -300.25 -213.75 -300.25 -213.05 -300.25 -212.35 -300.8 -211.85 -301.3 -211.3 -302.0 -211.3 -302.7 -211.3 -303.25 -211.85 -303.75 -212.35 -303.75 -213.05 -303.75 -213.75 -303.25 -214.3 M-294.3 -214.3 Q-293.75 -213.75 -293.75 -213.05 -293.75 -212.35 -294.3 -211.85 -294.8 -211.3 -295.5 -211.3 -296.2 -211.3 -296.75 -211.85 -297.25 -212.35 -297.25 -213.05 -297.25 -213.75 -296.75 -214.3 -296.2 -214.8 -295.5 -214.8 -294.8 -214.8 -294.3 -214.3 M-270.75 -214.3 Q-270.2 -214.8 -269.5 -214.8 -268.8 -214.8 -268.3 -214.3 -267.75 -213.75 -267.75 -213.05 -267.75 -212.35 -268.3 -211.85 -268.8 -211.3 -269.5 -211.3 -270.2 -211.3 -270.75 -211.85 -271.25 -212.35 -271.25 -213.05 -271.25 -213.75 -270.75 -214.3 M-264.25 -214.3 Q-263.7 -214.8 -263.0 -214.8 -262.3 -214.8 -261.8 -214.3 -261.25 -213.75 -261.25 -213.05 -261.25 -212.35 -261.8 -211.85 -262.3 -211.3 -263.0 -211.3 -263.7 -211.3 -264.25 -211.85 -264.75 -212.35 -264.75 -213.05 -264.75 -213.75 -264.25 -214.3 M-274.8 -214.3 Q-274.25 -213.75 -274.25 -213.05 -274.25 -212.35 -274.8 -211.85 -275.3 -211.3 -276.0 -211.3 -276.7 -211.3 -277.25 -211.85 -277.75 -212.35 -277.75 -213.05 -277.75 -213.75 -277.25 -214.3 -276.7 -214.8 -276.0 -214.8 -275.3 -214.8 -274.8 -214.3 M-251.25 -214.3 Q-250.7 -214.8 -250.0 -214.8 -249.3 -214.8 -248.8 -214.3 -248.25 -213.75 -248.25 -213.05 -248.25 -212.35 -248.8 -211.85 -249.3 -211.3 -250.0 -211.3 -250.7 -211.3 -251.25 -211.85 -251.75 -212.35 -251.75 -213.05 -251.75 -213.75 -251.25 -214.3 M-243.5 -214.8 Q-242.8 -214.8 -242.3 -214.3 -241.75 -213.75 -241.75 -213.05 -241.75 -212.35 -242.3 -211.85 -242.8 -211.3 -243.5 -211.3 -244.2 -211.3 -244.75 -211.85 -245.25 -212.35 -245.25 -213.05 -245.25 -213.75 -244.75 -214.3 -244.2 -214.8 -243.5 -214.8 M-255.3 -214.3 Q-254.75 -213.75 -254.75 -213.05 -254.75 -212.35 -255.3 -211.85 -255.8 -211.3 -256.5 -211.3 -257.2 -211.3 -257.75 -211.85 -258.25 -212.35 -258.25 -213.05 -258.25 -213.75 -257.75 -214.3 -257.2 -214.8 -256.5 -214.8 -255.8 -214.8 -255.3 -214.3 M-231.75 -214.3 Q-231.2 -214.8 -230.5 -214.8 -229.8 -214.8 -229.3 -214.3 -228.75 -213.75 -228.75 -213.05 -228.75 -212.35 -229.3 -211.85 -229.8 -211.3 -230.5 -211.3 -231.2 -211.3 -231.75 -211.85 -232.25 -212.35 -232.25 -213.05 -232.25 -213.75 -231.75 -214.3 M-225.25 -214.3 Q-224.7 -214.8 -224.0 -214.8 -223.3 -214.8 -222.8 -214.3 -222.25 -213.75 -222.25 -213.05 -222.25 -212.35 -222.8 -211.85 -223.3 -211.3 -224.0 -211.3 -224.7 -211.3 -225.25 -211.85 -225.75 -212.35 -225.75 -213.05 -225.75 -213.75 -225.25 -214.3 M-238.75 -213.05 Q-238.75 -213.75 -238.25 -214.3 -237.7 -214.8 -237.0 -214.8 -236.3 -214.8 -235.8 -214.3 -235.25 -213.75 -235.25 -213.05 -235.25 -212.35 -235.8 -211.85 -236.3 -211.3 -237.0 -211.3 -237.7 -211.3 -238.25 -211.85 -238.75 -212.35 -238.75 -213.05 M-209.25 -213.05 Q-209.25 -212.35 -209.8 -211.85 -210.3 -211.3 -211.0 -211.3 -211.7 -211.3 -212.25 -211.85 -212.75 -212.35 -212.75 -213.05 -212.75 -213.75 -212.25 -214.3 -211.7 -214.8 -211.0 -214.8 -210.3 -214.8 -209.8 -214.3 -209.25 -213.75 -209.25 -213.05 M-203.3 -214.3 Q-202.75 -213.75 -202.75 -213.05 -202.75 -212.35 -203.3 -211.85 -203.8 -211.3 -204.5 -211.3 -205.2 -211.3 -205.75 -211.85 -206.25 -212.35 -206.25 -213.05 -206.25 -213.75 -205.75 -214.3 -205.2 -214.8 -204.5 -214.8 -203.8 -214.8 -203.3 -214.3 M-218.75 -214.3 Q-218.2 -214.8 -217.5 -214.8 -216.8 -214.8 -216.3 -214.3 -215.75 -213.75 -215.75 -213.05 -215.75 -212.35 -216.3 -211.85 -216.8 -211.3 -217.5 -211.3 -218.2 -211.3 -218.75 -211.85 -219.25 -212.35 -219.25 -213.05 -219.25 -213.75 -218.75 -214.3 M-189.75 -213.05 Q-189.75 -212.35 -190.3 -211.85 -190.8 -211.3 -191.5 -211.3 -192.2 -211.3 -192.75 -211.85 -193.25 -212.35 -193.25 -213.05 -193.25 -213.75 -192.75 -214.3 -192.2 -214.8 -191.5 -214.8 -190.8 -214.8 -190.3 -214.3 -189.75 -213.75 -189.75 -213.05 M-186.25 -214.3 Q-185.7 -214.8 -185.0 -214.8 -184.3 -214.8 -183.8 -214.3 -183.25 -213.75 -183.25 -213.05 -183.25 -212.35 -183.8 -211.85 -184.3 -211.3 -185.0 -211.3 -185.7 -211.3 -186.25 -211.85 -186.75 -212.35 -186.75 -213.05 -186.75 -213.75 -186.25 -214.3 M-199.25 -214.3 Q-198.7 -214.8 -198.0 -214.8 -197.3 -214.8 -196.8 -214.3 -196.25 -213.75 -196.25 -213.05 -196.25 -212.35 -196.8 -211.85 -197.3 -211.3 -198.0 -211.3 -198.7 -211.3 -199.25 -211.85 -199.75 -212.35 -199.75 -213.05 -199.75 -213.75 -199.25 -214.3 M-170.25 -213.05 Q-170.25 -212.35 -170.8 -211.85 -171.3 -211.3 -172.0 -211.3 -172.7 -211.3 -173.25 -211.85 -173.75 -212.35 -173.75 -213.05 -173.75 -213.75 -173.25 -214.3 -172.7 -214.8 -172.0 -214.8 -171.3 -214.8 -170.8 -214.3 -170.25 -213.75 -170.25 -213.05 M-164.3 -214.3 Q-163.75 -213.75 -163.75 -213.05 -163.75 -212.35 -164.3 -211.85 -164.8 -211.3 -165.5 -211.3 -166.2 -211.3 -166.75 -211.85 -167.25 -212.35 -167.25 -213.05 -167.25 -213.75 -166.75 -214.3 -166.2 -214.8 -165.5 -214.8 -164.8 -214.8 -164.3 -214.3 M-179.75 -214.3 Q-179.2 -214.8 -178.5 -214.8 -177.8 -214.8 -177.3 -214.3 -176.75 -213.75 -176.75 -213.05 -176.75 -212.35 -177.3 -211.85 -177.8 -211.3 -178.5 -211.3 -179.2 -211.3 -179.75 -211.85 -180.25 -212.35 -180.25 -213.05 -180.25 -213.75 -179.75 -214.3 M-173.95 213.05 Q-173.95 213.75 -174.5 214.25 -175.0 214.8 -175.7 214.8 -176.4 214.8 -176.95 214.25 -177.45 213.75 -177.45 213.05 -177.45 212.35 -176.95 211.8 -176.4 211.3 -175.7 211.3 -175.0 211.3 -174.5 211.8 -173.95 212.35 -173.95 213.05 M-180.45 213.05 Q-180.45 213.75 -181.0 214.25 -181.5 214.8 -182.2 214.8 -182.9 214.8 -183.45 214.25 -183.95 213.75 -183.95 213.05 -183.95 212.35 -183.45 211.8 -182.9 211.3 -182.2 211.3 -181.5 211.3 -181.0 211.8 -180.45 212.35 -180.45 213.05 M-163.95 211.8 Q-163.4 211.3 -162.7 211.3 -162.0 211.3 -161.5 211.8 -160.95 212.35 -160.95 213.05 -160.95 213.75 -161.5 214.25 -162.0 214.8 -162.7 214.8 -163.4 214.8 -163.95 214.25 -164.45 213.75 -164.45 213.05 -164.45 212.35 -163.95 211.8 M-168.0 211.8 Q-167.45 212.35 -167.45 213.05 -167.45 213.75 -168.0 214.25 -168.5 214.8 -169.2 214.8 -169.9 214.8 -170.45 214.25 -170.95 213.75 -170.95 213.05 -170.95 212.35 -170.45 211.8 -169.9 211.3 -169.2 211.3 -168.5 211.3 -168.0 211.8 M-196.45 211.8 Q-195.9 211.3 -195.2 211.3 -194.5 211.3 -194.0 211.8 -193.45 212.35 -193.45 213.05 -193.45 213.75 -194.0 214.25 -194.5 214.8 -195.2 214.8 -195.9 214.8 -196.45 214.25 -196.95 213.75 -196.95 213.05 -196.95 212.35 -196.45 211.8 M-200.5 211.8 Q-199.95 212.35 -199.95 213.05 -199.95 213.75 -200.5 214.25 -201.0 214.8 -201.7 214.8 -202.4 214.8 -202.95 214.25 -203.45 213.75 -203.45 213.05 -203.45 212.35 -202.95 211.8 -202.4 211.3 -201.7 211.3 -201.0 211.3 -200.5 211.8 M-187.5 211.8 Q-186.95 212.35 -186.95 213.05 -186.95 213.75 -187.5 214.25 -188.0 214.8 -188.7 214.8 -189.4 214.8 -189.95 214.25 -190.45 213.75 -190.45 213.05 -190.45 212.35 -189.95 211.8 -189.4 211.3 -188.7 211.3 -188.0 211.3 -187.5 211.8 M-215.95 211.8 Q-215.4 211.3 -214.7 211.3 -214.0 211.3 -213.5 211.8 -212.95 212.35 -212.95 213.05 -212.95 213.75 -213.5 214.25 -214.0 214.8 -214.7 214.8 -215.4 214.8 -215.95 214.25 -216.45 213.75 -216.45 213.05 -216.45 212.35 -215.95 211.8 M-219.45 213.05 Q-219.45 213.75 -220.0 214.25 -220.5 214.8 -221.2 214.8 -221.9 214.8 -222.45 214.25 -222.95 213.75 -222.95 213.05 -222.95 212.35 -222.45 211.8 -221.9 211.3 -221.2 211.3 -220.5 211.3 -220.0 211.8 -219.45 212.35 -219.45 213.05 M-207.0 214.25 Q-207.5 214.8 -208.2 214.8 -208.9 214.8 -209.45 214.25 -209.95 213.75 -209.95 213.05 -209.95 212.35 -209.45 211.8 -208.9 211.3 -208.2 211.3 -207.5 211.3 -207.0 211.8 -206.45 212.35 -206.45 213.05 -206.45 213.75 -207.0 214.25 M-235.45 211.8 Q-234.9 211.3 -234.2 211.3 -233.5 211.3 -233.0 211.8 -232.45 212.35 -232.45 213.05 -232.45 213.75 -233.0 214.25 -233.5 214.8 -234.2 214.8 -234.9 214.8 -235.45 214.25 -235.95 213.75 -235.95 213.05 -235.95 212.35 -235.45 211.8 M-239.5 211.8 Q-238.95 212.35 -238.95 213.05 -238.95 213.75 -239.5 214.25 -240.0 214.8 -240.7 214.8 -241.4 214.8 -241.95 214.25 -242.45 213.75 -242.45 213.05 -242.45 212.35 -241.95 211.8 -241.4 211.3 -240.7 211.3 -240.0 211.3 -239.5 211.8 M-228.95 211.8 Q-228.4 211.3 -227.7 211.3 -227.0 211.3 -226.5 211.8 -225.95 212.35 -225.95 213.05 -225.95 213.75 -226.5 214.25 -227.0 214.8 -227.7 214.8 -228.4 214.8 -228.95 214.25 -229.45 213.75 -229.45 213.05 -229.45 212.35 -228.95 211.8 M-254.95 211.8 Q-254.4 211.3 -253.7 211.3 -253.0 211.3 -252.5 211.8 -251.95 212.35 -251.95 213.05 -251.95 213.75 -252.5 214.25 -253.0 214.8 -253.7 214.8 -254.4 214.8 -254.95 214.25 -255.45 213.75 -255.45 213.05 -255.45 212.35 -254.95 211.8 M-261.45 211.8 Q-260.9 211.3 -260.2 211.3 -259.5 211.3 -259.0 211.8 -258.45 212.35 -258.45 213.05 -258.45 213.75 -259.0 214.25 -259.5 214.8 -260.2 214.8 -260.9 214.8 -261.45 214.25 -261.95 213.75 -261.95 213.05 -261.95 212.35 -261.45 211.8 M-246.0 211.8 Q-245.45 212.35 -245.45 213.05 -245.45 213.75 -246.0 214.25 -246.5 214.8 -247.2 214.8 -247.9 214.8 -248.45 214.25 -248.95 213.75 -248.95 213.05 -248.95 212.35 -248.45 211.8 -247.9 211.3 -247.2 211.3 -246.5 211.3 -246.0 211.8 M-274.45 211.8 Q-273.9 211.3 -273.2 211.3 -272.5 211.3 -272.0 211.8 -271.45 212.35 -271.45 213.05 -271.45 213.75 -272.0 214.25 -272.5 214.8 -273.2 214.8 -273.9 214.8 -274.45 214.25 -274.95 213.75 -274.95 213.05 -274.95 212.35 -274.45 211.8 M-278.5 211.8 Q-277.95 212.35 -277.95 213.05 -277.95 213.75 -278.5 214.25 -279.0 214.8 -279.7 214.8 -280.4 214.8 -280.95 214.25 -281.45 213.75 -281.45 213.05 -281.45 212.35 -280.95 211.8 -280.4 211.3 -279.7 211.3 -279.0 211.3 -278.5 211.8 M-264.95 213.05 Q-264.95 213.75 -265.5 214.25 -266.0 214.8 -266.7 214.8 -267.4 214.8 -267.95 214.25 -268.45 213.75 -268.45 213.05 -268.45 212.35 -267.95 211.8 -267.4 211.3 -266.7 211.3 -266.0 211.3 -265.5 211.8 -264.95 212.35 -264.95 213.05 M-293.95 211.8 Q-293.4 211.3 -292.7 211.3 -292.0 211.3 -291.5 211.8 -290.95 212.35 -290.95 213.05 -290.95 213.75 -291.5 214.25 -292.0 214.8 -292.7 214.8 -293.4 214.8 -293.95 214.25 -294.45 213.75 -294.45 213.05 -294.45 212.35 -293.95 211.8 M-297.45 213.05 Q-297.45 213.75 -298.0 214.25 -298.5 214.8 -299.2 214.8 -299.9 214.8 -300.45 214.25 -300.95 213.75 -300.95 213.05 -300.95 212.35 -300.45 211.8 -299.9 211.3 -299.2 211.3 -298.5 211.3 -298.0 211.8 -297.45 212.35 -297.45 213.05 M-287.45 211.8 Q-286.9 211.3 -286.2 211.3 -285.5 211.3 -285.0 211.8 -284.45 212.35 -284.45 213.05 -284.45 213.75 -285.0 214.25 -285.5 214.8 -286.2 214.8 -286.9 214.8 -287.45 214.25 -287.95 213.75 -287.95 213.05 -287.95 212.35 -287.45 211.8 M-317.5 211.8 Q-316.95 212.35 -316.95 213.05 -316.95 213.75 -317.5 214.25 -318.0 214.8 -318.7 214.8 -319.4 214.8 -319.95 214.25 -320.45 213.75 -320.45 213.05 -320.45 212.35 -319.95 211.8 -319.4 211.3 -318.7 211.3 -318.0 211.3 -317.5 211.8 M-324.0 214.25 Q-324.5 214.8 -325.2 214.8 -325.9 214.8 -326.45 214.25 -326.95 213.75 -326.95 213.05 -326.95 212.35 -326.45 211.8 -325.9 211.3 -325.2 211.3 -324.5 211.3 -324.0 211.8 -323.45 212.35 -323.45 213.05 -323.45 213.75 -324.0 214.25 M-306.95 211.8 Q-306.4 211.3 -305.7 211.3 -305.0 211.3 -304.5 211.8 -303.95 212.35 -303.95 213.05 -303.95 213.75 -304.5 214.25 -305.0 214.8 -305.7 214.8 -306.4 214.8 -306.95 214.25 -307.45 213.75 -307.45 213.05 -307.45 212.35 -306.95 211.8 M-311.0 211.8 Q-310.45 212.35 -310.45 213.05 -310.45 213.75 -311.0 214.25 -311.5 214.8 -312.2 214.8 -312.9 214.8 -313.45 214.25 -313.95 213.75 -313.95 213.05 -313.95 212.35 -313.45 211.8 -312.9 211.3 -312.2 211.3 -311.5 211.3 -311.0 211.8 M-14.45 211.8 Q-13.9 211.3 -13.2 211.3 -12.5 211.3 -12.0 211.8 -11.45 212.35 -11.45 213.05 -11.45 213.75 -12.0 214.25 -12.5 214.8 -13.2 214.8 -13.9 214.8 -14.45 214.25 -14.95 213.75 -14.95 213.05 -14.95 212.35 -14.45 211.8 M-17.95 213.05 Q-17.95 213.75 -18.5 214.25 -19.0 214.8 -19.7 214.8 -20.4 214.8 -20.95 214.25 -21.45 213.75 -21.45 213.05 -21.45 212.35 -20.95 211.8 -20.4 211.3 -19.7 211.3 -19.0 211.3 -18.5 211.8 -17.95 212.35 -17.95 213.05 M-1.45 211.8 Q-0.9 211.3 -0.2 211.3 0.5 211.3 1.0 211.8 1.55 212.35 1.55 213.05 1.55 213.75 1.0 214.25 0.5 214.8 -0.2 214.8 -0.9 214.8 -1.45 214.25 -1.95 213.75 -1.95 213.05 -1.95 212.35 -1.45 211.8 M-5.5 211.8 Q-4.95 212.35 -4.95 213.05 -4.95 213.75 -5.5 214.25 -6.0 214.8 -6.7 214.8 -7.4 214.8 -7.95 214.25 -8.45 213.75 -8.45 213.05 -8.45 212.35 -7.95 211.8 -7.4 211.3 -6.7 211.3 -6.0 211.3 -5.5 211.8 M-33.95 211.8 Q-33.4 211.3 -32.7 211.3 -32.0 211.3 -31.5 211.8 -30.95 212.35 -30.95 213.05 -30.95 213.75 -31.5 214.25 -32.0 214.8 -32.7 214.8 -33.4 214.8 -33.95 214.25 -34.45 213.75 -34.45 213.05 -34.45 212.35 -33.95 211.8 M-38.0 211.8 Q-37.45 212.35 -37.45 213.05 -37.45 213.75 -38.0 214.25 -38.5 214.8 -39.2 214.8 -39.9 214.8 -40.45 214.25 -40.95 213.75 -40.95 213.05 -40.95 212.35 -40.45 211.8 -39.9 211.3 -39.2 211.3 -38.5 211.3 -38.0 211.8 M-25.0 214.25 Q-25.5 214.8 -26.2 214.8 -26.9 214.8 -27.45 214.25 -27.95 213.75 -27.95 213.05 -27.95 212.35 -27.45 211.8 -26.9 211.3 -26.2 211.3 -25.5 211.3 -25.0 211.8 -24.45 212.35 -24.45 213.05 -24.45 213.75 -25.0 214.25 M-53.45 211.8 Q-52.9 211.3 -52.2 211.3 -51.5 211.3 -51.0 211.8 -50.45 212.35 -50.45 213.05 -50.45 213.75 -51.0 214.25 -51.5 214.8 -52.2 214.8 -52.9 214.8 -53.45 214.25 -53.95 213.75 -53.95 213.05 -53.95 212.35 -53.45 211.8 M-59.95 211.8 Q-59.4 211.3 -58.7 211.3 -58.0 211.3 -57.5 211.8 -56.95 212.35 -56.95 213.05 -56.95 213.75 -57.5 214.25 -58.0 214.8 -58.7 214.8 -59.4 214.8 -59.95 214.25 -60.45 213.75 -60.45 213.05 -60.45 212.35 -59.95 211.8 M-46.95 211.8 Q-46.4 211.3 -45.7 211.3 -45.0 211.3 -44.5 211.8 -43.95 212.35 -43.95 213.05 -43.95 213.75 -44.5 214.25 -45.0 214.8 -45.7 214.8 -46.4 214.8 -46.95 214.25 -47.45 213.75 -47.45 213.05 -47.45 212.35 -46.95 211.8 M-72.95 211.8 Q-72.4 211.3 -71.7 211.3 -71.0 211.3 -70.5 211.8 -69.95 212.35 -69.95 213.05 -69.95 213.75 -70.5 214.25 -71.0 214.8 -71.7 214.8 -72.4 214.8 -72.95 214.25 -73.45 213.75 -73.45 213.05 -73.45 212.35 -72.95 211.8 M-77.0 211.8 Q-76.45 212.35 -76.45 213.05 -76.45 213.75 -77.0 214.25 -77.5 214.8 -78.2 214.8 -78.9 214.8 -79.45 214.25 -79.95 213.75 -79.95 213.05 -79.95 212.35 -79.45 211.8 -78.9 211.3 -78.2 211.3 -77.5 211.3 -77.0 211.8 M-64.0 211.8 Q-63.45 212.35 -63.45 213.05 -63.45 213.75 -64.0 214.25 -64.5 214.8 -65.2 214.8 -65.9 214.8 -66.45 214.25 -66.95 213.75 -66.95 213.05 -66.95 212.35 -66.45 211.8 -65.9 211.3 -65.2 211.3 -64.5 211.3 -64.0 211.8 M-92.45 211.8 Q-91.9 211.3 -91.2 211.3 -90.5 211.3 -90.0 211.8 -89.45 212.35 -89.45 213.05 -89.45 213.75 -90.0 214.25 -90.5 214.8 -91.2 214.8 -91.9 214.8 -92.45 214.25 -92.95 213.75 -92.95 213.05 -92.95 212.35 -92.45 211.8 M-98.95 211.8 Q-98.4 211.3 -97.7 211.3 -97.0 211.3 -96.5 211.8 -95.95 212.35 -95.95 213.05 -95.95 213.75 -96.5 214.25 -97.0 214.8 -97.7 214.8 -98.4 214.8 -98.95 214.25 -99.45 213.75 -99.45 213.05 -99.45 212.35 -98.95 211.8 M-83.5 211.8 Q-82.95 212.35 -82.95 213.05 -82.95 213.75 -83.5 214.25 -84.0 214.8 -84.7 214.8 -85.4 214.8 -85.95 214.25 -86.45 213.75 -86.45 213.05 -86.45 212.35 -85.95 211.8 -85.4 211.3 -84.7 211.3 -84.0 211.3 -83.5 211.8 M-111.95 211.8 Q-111.4 211.3 -110.7 211.3 -110.0 211.3 -109.5 211.8 -108.95 212.35 -108.95 213.05 -108.95 213.75 -109.5 214.25 -110.0 214.8 -110.7 214.8 -111.4 214.8 -111.95 214.25 -112.45 213.75 -112.45 213.05 -112.45 212.35 -111.95 211.8 M-116.0 214.25 Q-116.5 214.8 -117.2 214.8 -117.9 214.8 -118.45 214.25 -118.95 213.75 -118.95 213.05 -118.95 212.35 -118.45 211.8 -117.9 211.3 -117.2 211.3 -116.5 211.3 -116.0 211.8 -115.45 212.35 -115.45 213.05 -115.45 213.75 -116.0 214.25 M-105.45 211.8 Q-104.9 211.3 -104.2 211.3 -103.5 211.3 -103.0 211.8 -102.45 212.35 -102.45 213.05 -102.45 213.75 -103.0 214.25 -103.5 214.8 -104.2 214.8 -104.9 214.8 -105.45 214.25 -105.95 213.75 -105.95 213.05 -105.95 212.35 -105.45 211.8 M-135.5 211.8 Q-134.95 212.35 -134.95 213.05 -134.95 213.75 -135.5 214.25 -136.0 214.8 -136.7 214.8 -137.4 214.8 -137.95 214.25 -138.45 213.75 -138.45 213.05 -138.45 212.35 -137.95 211.8 -137.4 211.3 -136.7 211.3 -136.0 211.3 -135.5 211.8 M-124.95 211.8 Q-124.4 211.3 -123.7 211.3 -123.0 211.3 -122.5 211.8 -121.95 212.35 -121.95 213.05 -121.95 213.75 -122.5 214.25 -123.0 214.8 -123.7 214.8 -124.4 214.8 -124.95 214.25 -125.45 213.75 -125.45 213.05 -125.45 212.35 -124.95 211.8 M-129.0 211.8 Q-128.45 212.35 -128.45 213.05 -128.45 213.75 -129.0 214.25 -129.5 214.8 -130.2 214.8 -130.9 214.8 -131.45 214.25 -131.95 213.75 -131.95 213.05 -131.95 212.35 -131.45 211.8 -130.9 211.3 -130.2 211.3 -129.5 211.3 -129.0 211.8 M-155.0 211.8 Q-154.45 212.35 -154.45 213.05 -154.45 213.75 -155.0 214.25 -155.5 214.8 -156.2 214.8 -156.9 214.8 -157.45 214.25 -157.95 213.75 -157.95 213.05 -157.95 212.35 -157.45 211.8 -156.9 211.3 -156.2 211.3 -155.5 211.3 -155.0 211.8 M-144.45 211.8 Q-143.9 211.3 -143.2 211.3 -142.5 211.3 -142.0 211.8 -141.45 212.35 -141.45 213.05 -141.45 213.75 -142.0 214.25 -142.5 214.8 -143.2 214.8 -143.9 214.8 -144.45 214.25 -144.95 213.75 -144.95 213.05 -144.95 212.35 -144.45 211.8 M-148.5 211.8 Q-147.95 212.35 -147.95 213.05 -147.95 213.75 -148.5 214.25 -149.0 214.8 -149.7 214.8 -150.4 214.8 -150.95 214.25 -151.45 213.75 -151.45 213.05 -151.45 212.35 -150.95 211.8 -150.4 211.3 -149.7 211.3 -149.0 211.3 -148.5 211.8 M-341.1 3.2 Q-341.8 3.2 -342.35 2.65 -342.85 2.15 -342.85 1.45 -342.85 0.75 -342.35 0.2 -341.8 -0.3 -341.1 -0.3 -340.4 -0.3 -339.9 0.2 -339.35 0.75 -339.35 1.45 -339.35 2.15 -339.9 2.65 -340.4 3.2 -341.1 3.2 M-342.35 6.7 Q-341.8 6.2 -341.1 6.2 -340.4 6.2 -339.9 6.7 -339.35 7.25 -339.35 7.95 -339.35 8.65 -339.9 9.15 -340.4 9.7 -341.1 9.7 -341.8 9.7 -342.35 9.15 -342.85 8.65 -342.85 7.95 -342.85 7.25 -342.35 6.7 M-339.9 13.2 Q-339.35 13.75 -339.35 14.45 -339.35 15.15 -339.9 15.65 -340.4 16.2 -341.1 16.2 -341.8 16.2 -342.35 15.65 -342.85 15.15 -342.85 14.45 -342.85 13.75 -342.35 13.2 -341.8 12.7 -341.1 12.7 -340.4 12.7 -339.9 13.2 M-342.35 19.7 Q-341.8 19.2 -341.1 19.2 -340.4 19.2 -339.9 19.7 -339.35 20.25 -339.35 20.95 -339.35 21.65 -339.9 22.15 -340.4 22.7 -341.1 22.7 -341.8 22.7 -342.35 22.15 -342.85 21.65 -342.85 20.95 -342.85 20.25 -342.35 19.7 M-342.35 26.2 Q-341.8 25.7 -341.1 25.7 -340.4 25.7 -339.9 26.2 -339.35 26.75 -339.35 27.45 -339.35 28.15 -339.9 28.65 -340.4 29.2 -341.1 29.2 -341.8 29.2 -342.35 28.65 -342.85 28.15 -342.85 27.45 -342.85 26.75 -342.35 26.2 M-342.35 32.7 Q-341.8 32.2 -341.1 32.2 -340.4 32.2 -339.9 32.7 -339.35 33.25 -339.35 33.95 -339.35 34.65 -339.9 35.15 -340.4 35.7 -341.1 35.7 -341.8 35.7 -342.35 35.15 -342.85 34.65 -342.85 33.95 -342.85 33.25 -342.35 32.7 M-339.9 39.2 Q-339.35 39.75 -339.35 40.45 -339.35 41.15 -339.9 41.65 -340.4 42.2 -341.1 42.2 -341.8 42.2 -342.35 41.65 -342.85 41.15 -342.85 40.45 -342.85 39.75 -342.35 39.2 -341.8 38.7 -341.1 38.7 -340.4 38.7 -339.9 39.2 M-342.35 45.7 Q-341.8 45.2 -341.1 45.2 -340.4 45.2 -339.9 45.7 -339.35 46.25 -339.35 46.95 -339.35 47.65 -339.9 48.15 -340.4 48.7 -341.1 48.7 -341.8 48.7 -342.35 48.15 -342.85 47.65 -342.85 46.95 -342.85 46.25 -342.35 45.7 M-339.9 52.2 Q-339.35 52.75 -339.35 53.45 -339.35 54.15 -339.9 54.65 -340.4 55.2 -341.1 55.2 -341.8 55.2 -342.35 54.65 -342.85 54.15 -342.85 53.45 -342.85 52.75 -342.35 52.2 -341.8 51.7 -341.1 51.7 -340.4 51.7 -339.9 52.2 M-342.35 58.7 Q-341.8 58.2 -341.1 58.2 -340.4 58.2 -339.9 58.7 -339.35 59.25 -339.35 59.95 -339.35 60.65 -339.9 61.15 -340.4 61.7 -341.1 61.7 -341.8 61.7 -342.35 61.15 -342.85 60.65 -342.85 59.95 -342.85 59.25 -342.35 58.7 M-339.9 65.2 Q-339.35 65.75 -339.35 66.45 -339.35 67.15 -339.9 67.65 -340.4 68.2 -341.1 68.2 -341.8 68.2 -342.35 67.65 -342.85 67.15 -342.85 66.45 -342.85 65.75 -342.35 65.2 -341.8 64.7 -341.1 64.7 -340.4 64.7 -339.9 65.2 M-342.35 71.7 Q-341.8 71.2 -341.1 71.2 -340.4 71.2 -339.9 71.7 -339.35 72.25 -339.35 72.95 -339.35 73.65 -339.9 74.15 -340.4 74.7 -341.1 74.7 -341.8 74.7 -342.35 74.15 -342.85 73.65 -342.85 72.95 -342.85 72.25 -342.35 71.7 M-342.35 78.2 Q-341.8 77.7 -341.1 77.7 -340.4 77.7 -339.9 78.2 -339.35 78.75 -339.35 79.45 -339.35 80.15 -339.9 80.65 -340.4 81.2 -341.1 81.2 -341.8 81.2 -342.35 80.65 -342.85 80.15 -342.85 79.45 -342.85 78.75 -342.35 78.2 M-342.35 84.7 Q-341.8 84.2 -341.1 84.2 -340.4 84.2 -339.9 84.7 -339.35 85.25 -339.35 85.95 -339.35 86.65 -339.9 87.15 -340.4 87.7 -341.1 87.7 -341.8 87.7 -342.35 87.15 -342.85 86.65 -342.85 85.95 -342.85 85.25 -342.35 84.7 M-342.35 91.2 Q-341.8 90.7 -341.1 90.7 -340.4 90.7 -339.9 91.2 -339.35 91.75 -339.35 92.45 -339.35 93.15 -339.9 93.65 -340.4 94.2 -341.1 94.2 -341.8 94.2 -342.35 93.65 -342.85 93.15 -342.85 92.45 -342.85 91.75 -342.35 91.2 M-342.35 97.7 Q-341.8 97.2 -341.1 97.2 -340.4 97.2 -339.9 97.7 -339.35 98.25 -339.35 98.95 -339.35 99.65 -339.9 100.15 -340.4 100.7 -341.1 100.7 -341.8 100.7 -342.35 100.15 -342.85 99.65 -342.85 98.95 -342.85 98.25 -342.35 97.7 M-339.9 104.2 Q-339.35 104.75 -339.35 105.45 -339.35 106.15 -339.9 106.65 -340.4 107.2 -341.1 107.2 -341.8 107.2 -342.35 106.65 -342.85 106.15 -342.85 105.45 -342.85 104.75 -342.35 104.2 -341.8 103.7 -341.1 103.7 -340.4 103.7 -339.9 104.2 M-341.1 110.2 Q-340.4 110.2 -339.9 110.7 -339.35 111.25 -339.35 111.95 -339.35 112.65 -339.9 113.15 -340.4 113.7 -341.1 113.7 -341.8 113.7 -342.35 113.15 -342.85 112.65 -342.85 111.95 -342.85 111.25 -342.35 110.7 -341.8 110.2 -341.1 110.2 M-339.9 117.2 Q-339.35 117.75 -339.35 118.45 -339.35 119.15 -339.9 119.65 -340.4 120.2 -341.1 120.2 -341.8 120.2 -342.35 119.65 -342.85 119.15 -342.85 118.45 -342.85 117.75 -342.35 117.2 -341.8 116.7 -341.1 116.7 -340.4 116.7 -339.9 117.2 M-341.1 123.2 Q-340.4 123.2 -339.9 123.7 -339.35 124.25 -339.35 124.95 -339.35 125.65 -339.9 126.15 -340.4 126.7 -341.1 126.7 -341.8 126.7 -342.35 126.15 -342.85 125.65 -342.85 124.95 -342.85 124.25 -342.35 123.7 -341.8 123.2 -341.1 123.2 M-342.35 130.2 Q-341.8 129.7 -341.1 129.7 -340.4 129.7 -339.9 130.2 -339.35 130.75 -339.35 131.45 -339.35 132.15 -339.9 132.65 -340.4 133.2 -341.1 133.2 -341.8 133.2 -342.35 132.65 -342.85 132.15 -342.85 131.45 -342.85 130.75 -342.35 130.2 M-339.9 136.7 Q-339.35 137.25 -339.35 137.95 -339.35 138.65 -339.9 139.15 -340.4 139.7 -341.1 139.7 -341.8 139.7 -342.35 139.15 -342.85 138.65 -342.85 137.95 -342.85 137.25 -342.35 136.7 -341.8 136.2 -341.1 136.2 -340.4 136.2 -339.9 136.7 M-342.35 143.2 Q-341.8 142.7 -341.1 142.7 -340.4 142.7 -339.9 143.2 -339.35 143.75 -339.35 144.45 -339.35 145.15 -339.9 145.65 -340.4 146.2 -341.1 146.2 -341.8 146.2 -342.35 145.65 -342.85 145.15 -342.85 144.45 -342.85 143.75 -342.35 143.2 M-339.9 149.7 Q-339.35 150.25 -339.35 150.95 -339.35 151.65 -339.9 152.15 -340.4 152.7 -341.1 152.7 -341.8 152.7 -342.35 152.15 -342.85 151.65 -342.85 150.95 -342.85 150.25 -342.35 149.7 -341.8 149.2 -341.1 149.2 -340.4 149.2 -339.9 149.7 M-342.35 156.2 Q-341.8 155.7 -341.1 155.7 -340.4 155.7 -339.9 156.2 -339.35 156.75 -339.35 157.45 -339.35 158.15 -339.9 158.65 -340.4 159.2 -341.1 159.2 -341.8 159.2 -342.35 158.65 -342.85 158.15 -342.85 157.45 -342.85 156.75 -342.35 156.2 M-339.9 162.7 Q-339.35 163.25 -339.35 163.95 -339.35 164.65 -339.9 165.15 -340.4 165.7 -341.1 165.7 -341.8 165.7 -342.35 165.15 -342.85 164.65 -342.85 163.95 -342.85 163.25 -342.35 162.7 -341.8 162.2 -341.1 162.2 -340.4 162.2 -339.9 162.7 M-342.35 169.2 Q-341.8 168.7 -341.1 168.7 -340.4 168.7 -339.9 169.2 -339.35 169.75 -339.35 170.45 -339.35 171.15 -339.9 171.65 -340.4 172.2 -341.1 172.2 -341.8 172.2 -342.35 171.65 -342.85 171.15 -342.85 170.45 -342.85 169.75 -342.35 169.2 M-342.35 175.7 Q-341.8 175.2 -341.1 175.2 -340.4 175.2 -339.9 175.7 -339.35 176.25 -339.35 176.95 -339.35 177.65 -339.9 178.15 -340.4 178.7 -341.1 178.7 -341.8 178.7 -342.35 178.15 -342.85 177.65 -342.85 176.95 -342.85 176.25 -342.35 175.7 M-342.35 182.2 Q-341.8 181.7 -341.1 181.7 -340.4 181.7 -339.9 182.2 -339.35 182.75 -339.35 183.45 -339.35 184.15 -339.9 184.65 -340.4 185.2 -341.1 185.2 -341.8 185.2 -342.35 184.65 -342.85 184.15 -342.85 183.45 -342.85 182.75 -342.35 182.2 M-339.9 188.7 Q-339.35 189.25 -339.35 189.95 -339.35 190.65 -339.9 191.15 -340.4 191.7 -341.1 191.7 -341.8 191.7 -342.35 191.15 -342.85 190.65 -342.85 189.95 -342.85 189.25 -342.35 188.7 -341.8 188.2 -341.1 188.2 -340.4 188.2 -339.9 188.7 M-342.35 195.2 Q-341.8 194.7 -341.1 194.7 -340.4 194.7 -339.9 195.2 -339.35 195.75 -339.35 196.45 -339.35 197.15 -339.9 197.65 -340.4 198.2 -341.1 198.2 -341.8 198.2 -342.35 197.65 -342.85 197.15 -342.85 196.45 -342.85 195.75 -342.35 195.2 M-339.9 201.7 Q-339.35 202.25 -339.35 202.95 -339.35 203.65 -339.9 204.15 -340.4 204.7 -341.1 204.7 -341.8 204.7 -342.35 204.15 -342.85 203.65 -342.85 202.95 -342.85 202.25 -342.35 201.7 -341.8 201.2 -341.1 201.2 -340.4 201.2 -339.9 201.7 M-342.35 208.2 Q-341.8 207.7 -341.1 207.7 -340.4 207.7 -339.9 208.2 -339.35 208.75 -339.35 209.45 -339.35 210.15 -339.9 210.65 -340.4 211.2 -341.1 211.2 -341.8 211.2 -342.35 210.65 -342.85 210.15 -342.85 209.45 -342.85 208.75 -342.35 208.2 M-337.0 211.8 Q-336.45 212.35 -336.45 213.05 -336.45 213.75 -337.0 214.25 -337.5 214.8 -338.2 214.8 -338.9 214.8 -339.45 214.25 -339.95 213.75 -339.95 213.05 -339.95 212.35 -339.45 211.8 -338.9 211.3 -338.2 211.3 -337.5 211.3 -337.0 211.8 M-330.5 211.8 Q-329.95 212.35 -329.95 213.05 -329.95 213.75 -330.5 214.25 -331.0 214.8 -331.7 214.8 -332.4 214.8 -332.95 214.25 -333.45 213.75 -333.45 213.05 -333.45 212.35 -332.95 211.8 -332.4 211.3 -331.7 211.3 -331.0 211.3 -330.5 211.8 M339.85 0.6 Q340.4 0.1 341.1 0.1 341.8 0.1 342.3 0.6 342.85 1.15 342.85 1.85 342.85 2.55 342.3 3.05 341.8 3.6 341.1 3.6 340.4 3.6 339.85 3.05 339.35 2.55 339.35 1.85 339.35 1.15 339.85 0.6 M342.3 7.1 Q342.85 7.65 342.85 8.35 342.85 9.05 342.3 9.55 341.8 10.1 341.1 10.1 340.4 10.1 339.85 9.55 339.35 9.05 339.35 8.35 339.35 7.65 339.85 7.1 340.4 6.6 341.1 6.6 341.8 6.6 342.3 7.1 M339.85 13.6 Q340.4 13.1 341.1 13.1 341.8 13.1 342.3 13.6 342.85 14.15 342.85 14.85 342.85 15.55 342.3 16.05 341.8 16.6 341.1 16.6 340.4 16.6 339.85 16.05 339.35 15.55 339.35 14.85 339.35 14.15 339.85 13.6 M339.85 20.1 Q340.4 19.6 341.1 19.6 341.8 19.6 342.3 20.1 342.85 20.65 342.85 21.35 342.85 22.05 342.3 22.55 341.8 23.1 341.1 23.1 340.4 23.1 339.85 22.55 339.35 22.05 339.35 21.35 339.35 20.65 339.85 20.1 M339.85 26.6 Q340.4 26.1 341.1 26.1 341.8 26.1 342.3 26.6 342.85 27.15 342.85 27.85 342.85 28.55 342.3 29.05 341.8 29.6 341.1 29.6 340.4 29.6 339.85 29.05 339.35 28.55 339.35 27.85 339.35 27.15 339.85 26.6 M342.3 33.1 Q342.85 33.65 342.85 34.35 342.85 35.05 342.3 35.55 341.8 36.1 341.1 36.1 340.4 36.1 339.85 35.55 339.35 35.05 339.35 34.35 339.35 33.65 339.85 33.1 340.4 32.6 341.1 32.6 341.8 32.6 342.3 33.1 M339.85 39.6 Q340.4 39.1 341.1 39.1 341.8 39.1 342.3 39.6 342.85 40.15 342.85 40.85 342.85 41.55 342.3 42.05 341.8 42.6 341.1 42.6 340.4 42.6 339.85 42.05 339.35 41.55 339.35 40.85 339.35 40.15 339.85 39.6 M342.3 46.1 Q342.85 46.65 342.85 47.35 342.85 48.05 342.3 48.55 341.8 49.1 341.1 49.1 340.4 49.1 339.85 48.55 339.35 48.05 339.35 47.35 339.35 46.65 339.85 46.1 340.4 45.6 341.1 45.6 341.8 45.6 342.3 46.1 M339.85 52.6 Q340.4 52.1 341.1 52.1 341.8 52.1 342.3 52.6 342.85 53.15 342.85 53.85 342.85 54.55 342.3 55.05 341.8 55.6 341.1 55.6 340.4 55.6 339.85 55.05 339.35 54.55 339.35 53.85 339.35 53.15 339.85 52.6 M342.3 59.1 Q342.85 59.65 342.85 60.35 342.85 61.05 342.3 61.55 341.8 62.1 341.1 62.1 340.4 62.1 339.85 61.55 339.35 61.05 339.35 60.35 339.35 59.65 339.85 59.1 340.4 58.6 341.1 58.6 341.8 58.6 342.3 59.1 M339.85 65.6 Q340.4 65.1 341.1 65.1 341.8 65.1 342.3 65.6 342.85 66.15 342.85 66.85 342.85 67.55 342.3 68.05 341.8 68.6 341.1 68.6 340.4 68.6 339.85 68.05 339.35 67.55 339.35 66.85 339.35 66.15 339.85 65.6 M339.85 72.1 Q340.4 71.6 341.1 71.6 341.8 71.6 342.3 72.1 342.85 72.65 342.85 73.35 342.85 74.05 342.3 74.55 341.8 75.1 341.1 75.1 340.4 75.1 339.85 74.55 339.35 74.05 339.35 73.35 339.35 72.65 339.85 72.1 M339.85 78.6 Q340.4 78.1 341.1 78.1 341.8 78.1 342.3 78.6 342.85 79.15 342.85 79.85 342.85 80.55 342.3 81.05 341.8 81.6 341.1 81.6 340.4 81.6 339.85 81.05 339.35 80.55 339.35 79.85 339.35 79.15 339.85 78.6 M342.3 85.1 Q342.85 85.65 342.85 86.35 342.85 87.05 342.3 87.55 341.8 88.1 341.1 88.1 340.4 88.1 339.85 87.55 339.35 87.05 339.35 86.35 339.35 85.65 339.85 85.1 340.4 84.6 341.1 84.6 341.8 84.6 342.3 85.1 M342.3 91.6 Q342.85 92.15 342.85 92.85 342.85 93.55 342.3 94.05 341.8 94.6 341.1 94.6 340.4 94.6 339.85 94.05 339.35 93.55 339.35 92.85 339.35 92.15 339.85 91.6 340.4 91.1 341.1 91.1 341.8 91.1 342.3 91.6 M342.3 98.1 Q342.85 98.65 342.85 99.35 342.85 100.05 342.3 100.55 341.8 101.1 341.1 101.1 340.4 101.1 339.85 100.55 339.35 100.05 339.35 99.35 339.35 98.65 339.85 98.1 340.4 97.6 341.1 97.6 341.8 97.6 342.3 98.1 M342.3 104.6 Q342.85 105.15 342.85 105.85 342.85 106.55 342.3 107.05 341.8 107.6 341.1 107.6 340.4 107.6 339.85 107.05 339.35 106.55 339.35 105.85 339.35 105.15 339.85 104.6 340.4 104.1 341.1 104.1 341.8 104.1 342.3 104.6 M342.3 111.1 Q342.85 111.65 342.85 112.35 342.85 113.05 342.3 113.55 341.8 114.1 341.1 114.1 340.4 114.1 339.85 113.55 339.35 113.05 339.35 112.35 339.35 111.65 339.85 111.1 340.4 110.6 341.1 110.6 341.8 110.6 342.3 111.1 M339.85 117.6 Q340.4 117.1 341.1 117.1 341.8 117.1 342.3 117.6 342.85 118.15 342.85 118.85 342.85 119.55 342.3 120.05 341.8 120.6 341.1 120.6 340.4 120.6 339.85 120.05 339.35 119.55 339.35 118.85 339.35 118.15 339.85 117.6 M339.85 124.1 Q340.4 123.6 341.1 123.6 341.8 123.6 342.3 124.1 342.85 124.65 342.85 125.35 342.85 126.05 342.3 126.55 341.8 127.1 341.1 127.1 340.4 127.1 339.85 126.55 339.35 126.05 339.35 125.35 339.35 124.65 339.85 124.1 M342.3 130.6 Q342.85 131.15 342.85 131.85 342.85 132.55 342.3 133.05 341.8 133.6 341.1 133.6 340.4 133.6 339.85 133.05 339.35 132.55 339.35 131.85 339.35 131.15 339.85 130.6 340.4 130.1 341.1 130.1 341.8 130.1 342.3 130.6 M339.85 137.1 Q340.4 136.6 341.1 136.6 341.8 136.6 342.3 137.1 342.85 137.65 342.85 138.35 342.85 139.05 342.3 139.55 341.8 140.1 341.1 140.1 340.4 140.1 339.85 139.55 339.35 139.05 339.35 138.35 339.35 137.65 339.85 137.1 M342.3 143.6 Q342.85 144.15 342.85 144.85 342.85 145.55 342.3 146.05 341.8 146.6 341.1 146.6 340.4 146.6 339.85 146.05 339.35 145.55 339.35 144.85 339.35 144.15 339.85 143.6 340.4 143.1 341.1 143.1 341.8 143.1 342.3 143.6 M339.85 150.1 Q340.4 149.6 341.1 149.6 341.8 149.6 342.3 150.1 342.85 150.65 342.85 151.35 342.85 152.05 342.3 152.55 341.8 153.1 341.1 153.1 340.4 153.1 339.85 152.55 339.35 152.05 339.35 151.35 339.35 150.65 339.85 150.1 M342.3 156.6 Q342.85 157.15 342.85 157.85 342.85 158.55 342.3 159.05 341.8 159.6 341.1 159.6 340.4 159.6 339.85 159.05 339.35 158.55 339.35 157.85 339.35 157.15 339.85 156.6 340.4 156.1 341.1 156.1 341.8 156.1 342.3 156.6 M339.85 163.1 Q340.4 162.6 341.1 162.6 341.8 162.6 342.3 163.1 342.85 163.65 342.85 164.35 342.85 165.05 342.3 165.55 341.8 166.1 341.1 166.1 340.4 166.1 339.85 165.55 339.35 165.05 339.35 164.35 339.35 163.65 339.85 163.1 M339.85 169.6 Q340.4 169.1 341.1 169.1 341.8 169.1 342.3 169.6 342.85 170.15 342.85 170.85 342.85 171.55 342.3 172.05 341.8 172.6 341.1 172.6 340.4 172.6 339.85 172.05 339.35 171.55 339.35 170.85 339.35 170.15 339.85 169.6 M339.85 176.1 Q340.4 175.6 341.1 175.6 341.8 175.6 342.3 176.1 342.85 176.65 342.85 177.35 342.85 178.05 342.3 178.55 341.8 179.1 341.1 179.1 340.4 179.1 339.85 178.55 339.35 178.05 339.35 177.35 339.35 176.65 339.85 176.1 M342.3 182.6 Q342.85 183.15 342.85 183.85 342.85 184.55 342.3 185.05 341.8 185.6 341.1 185.6 340.4 185.6 339.85 185.05 339.35 184.55 339.35 183.85 339.35 183.15 339.85 182.6 340.4 182.1 341.1 182.1 341.8 182.1 342.3 182.6 M339.85 189.1 Q340.4 188.6 341.1 188.6 341.8 188.6 342.3 189.1 342.85 189.65 342.85 190.35 342.85 191.05 342.3 191.55 341.8 192.1 341.1 192.1 340.4 192.1 339.85 191.55 339.35 191.05 339.35 190.35 339.35 189.65 339.85 189.1 M342.3 195.6 Q342.85 196.15 342.85 196.85 342.85 197.55 342.3 198.05 341.8 198.6 341.1 198.6 340.4 198.6 339.85 198.05 339.35 197.55 339.35 196.85 339.35 196.15 339.85 195.6 340.4 195.1 341.1 195.1 341.8 195.1 342.3 195.6 M339.85 202.1 Q340.4 201.6 341.1 201.6 341.8 201.6 342.3 202.1 342.85 202.65 342.85 203.35 342.85 204.05 342.3 204.55 341.8 205.1 341.1 205.1 340.4 205.1 339.85 204.55 339.35 204.05 339.35 203.35 339.35 202.65 339.85 202.1 M342.3 208.6 Q342.85 209.15 342.85 209.85 342.85 210.55 342.3 211.05 341.8 211.6 341.1 211.6 340.4 211.6 339.85 211.05 339.35 210.55 339.35 209.85 339.35 209.15 339.85 208.6 340.4 208.1 341.1 208.1 341.8 208.1 342.3 208.6 M330.05 211.8 Q330.6 211.3 331.3 211.3 332.0 211.3 332.5 211.8 333.05 212.35 333.05 213.05 333.05 213.75 332.5 214.25 332.0 214.8 331.3 214.8 330.6 214.8 330.05 214.25 329.55 213.75 329.55 213.05 329.55 212.35 330.05 211.8 M326.0 211.8 Q326.55 212.35 326.55 213.05 326.55 213.75 326.0 214.25 325.5 214.8 324.8 214.8 324.1 214.8 323.55 214.25 323.05 213.75 323.05 213.05 323.05 212.35 323.55 211.8 324.1 211.3 324.8 211.3 325.5 211.3 326.0 211.8 M339.0 211.8 Q339.55 212.35 339.55 213.05 339.55 213.75 339.0 214.25 338.5 214.8 337.8 214.8 337.1 214.8 336.55 214.25 336.05 213.75 336.05 213.05 336.05 212.35 336.55 211.8 337.1 211.3 337.8 211.3 338.5 211.3 339.0 211.8 M148.05 211.8 Q148.6 211.3 149.3 211.3 150.0 211.3 150.5 211.8 151.05 212.35 151.05 213.05 151.05 213.75 150.5 214.25 150.0 214.8 149.3 214.8 148.6 214.8 148.05 214.25 147.55 213.75 147.55 213.05 147.55 212.35 148.05 211.8 M144.55 213.05 Q144.55 213.75 144.0 214.25 143.5 214.8 142.8 214.8 142.1 214.8 141.55 214.25 141.05 213.75 141.05 213.05 141.05 212.35 141.55 211.8 142.1 211.3 142.8 211.3 143.5 211.3 144.0 211.8 144.55 212.35 144.55 213.05 M161.05 211.8 Q161.6 211.3 162.3 211.3 163.0 211.3 163.5 211.8 164.05 212.35 164.05 213.05 164.05 213.75 163.5 214.25 163.0 214.8 162.3 214.8 161.6 214.8 161.05 214.25 160.55 213.75 160.55 213.05 160.55 212.35 161.05 211.8 M157.0 214.25 Q156.5 214.8 155.8 214.8 155.1 214.8 154.55 214.25 154.05 213.75 154.05 213.05 154.05 212.35 154.55 211.8 155.1 211.3 155.8 211.3 156.5 211.3 157.0 211.8 157.55 212.35 157.55 213.05 157.55 213.75 157.0 214.25 M128.55 211.8 Q129.1 211.3 129.8 211.3 130.5 211.3 131.0 211.8 131.55 212.35 131.55 213.05 131.55 213.75 131.0 214.25 130.5 214.8 129.8 214.8 129.1 214.8 128.55 214.25 128.05 213.75 128.05 213.05 128.05 212.35 128.55 211.8 M124.5 211.8 Q125.05 212.35 125.05 213.05 125.05 213.75 124.5 214.25 124.0 214.8 123.3 214.8 122.6 214.8 122.05 214.25 121.55 213.75 121.55 213.05 121.55 212.35 122.05 211.8 122.6 211.3 123.3 211.3 124.0 211.3 124.5 211.8 M137.5 214.25 Q137.0 214.8 136.3 214.8 135.6 214.8 135.05 214.25 134.55 213.75 134.55 213.05 134.55 212.35 135.05 211.8 135.6 211.3 136.3 211.3 137.0 211.3 137.5 211.8 138.05 212.35 138.05 213.05 138.05 213.75 137.5 214.25 M109.05 211.8 Q109.6 211.3 110.3 211.3 111.0 211.3 111.5 211.8 112.05 212.35 112.05 213.05 112.05 213.75 111.5 214.25 111.0 214.8 110.3 214.8 109.6 214.8 109.05 214.25 108.55 213.75 108.55 213.05 108.55 212.35 109.05 211.8 M102.55 211.8 Q103.1 211.3 103.8 211.3 104.5 211.3 105.0 211.8 105.55 212.35 105.55 213.05 105.55 213.75 105.0 214.25 104.5 214.8 103.8 214.8 103.1 214.8 102.55 214.25 102.05 213.75 102.05 213.05 102.05 212.35 102.55 211.8 M118.0 211.8 Q118.55 212.35 118.55 213.05 118.55 213.75 118.0 214.25 117.5 214.8 116.8 214.8 116.1 214.8 115.55 214.25 115.05 213.75 115.05 213.05 115.05 212.35 115.55 211.8 116.1 211.3 116.8 211.3 117.5 211.3 118.0 211.8 M89.55 211.8 Q90.1 211.3 90.8 211.3 91.5 211.3 92.0 211.8 92.55 212.35 92.55 213.05 92.55 213.75 92.0 214.25 91.5 214.8 90.8 214.8 90.1 214.8 89.55 214.25 89.05 213.75 89.05 213.05 89.05 212.35 89.55 211.8 M85.5 211.8 Q86.05 212.35 86.05 213.05 86.05 213.75 85.5 214.25 85.0 214.8 84.3 214.8 83.6 214.8 83.05 214.25 82.55 213.75 82.55 213.05 82.55 212.35 83.05 211.8 83.6 211.3 84.3 211.3 85.0 211.3 85.5 211.8 M98.5 211.8 Q99.05 212.35 99.05 213.05 99.05 213.75 98.5 214.25 98.0 214.8 97.3 214.8 96.6 214.8 96.05 214.25 95.55 213.75 95.55 213.05 95.55 212.35 96.05 211.8 96.6 211.3 97.3 211.3 98.0 211.3 98.5 211.8 M70.05 211.8 Q70.6 211.3 71.3 211.3 72.0 211.3 72.5 211.8 73.05 212.35 73.05 213.05 73.05 213.75 72.5 214.25 72.0 214.8 71.3 214.8 70.6 214.8 70.05 214.25 69.55 213.75 69.55 213.05 69.55 212.35 70.05 211.8 M66.55 213.05 Q66.55 213.75 66.0 214.25 65.5 214.8 64.8 214.8 64.1 214.8 63.55 214.25 63.05 213.75 63.05 213.05 63.05 212.35 63.55 211.8 64.1 211.3 64.8 211.3 65.5 211.3 66.0 211.8 66.55 212.35 66.55 213.05 M76.55 211.8 Q77.1 211.3 77.8 211.3 78.5 211.3 79.0 211.8 79.55 212.35 79.55 213.05 79.55 213.75 79.0 214.25 78.5 214.8 77.8 214.8 77.1 214.8 76.55 214.25 76.05 213.75 76.05 213.05 76.05 212.35 76.55 211.8 M50.55 211.8 Q51.1 211.3 51.8 211.3 52.5 211.3 53.0 211.8 53.55 212.35 53.55 213.05 53.55 213.75 53.0 214.25 52.5 214.8 51.8 214.8 51.1 214.8 50.55 214.25 50.05 213.75 50.05 213.05 50.05 212.35 50.55 211.8 M46.5 214.25 Q46.0 214.8 45.3 214.8 44.6 214.8 44.05 214.25 43.55 213.75 43.55 213.05 43.55 212.35 44.05 211.8 44.6 211.3 45.3 211.3 46.0 211.3 46.5 211.8 47.05 212.35 47.05 213.05 47.05 213.75 46.5 214.25 M57.05 211.8 Q57.6 211.3 58.3 211.3 59.0 211.3 59.5 211.8 60.05 212.35 60.05 213.05 60.05 213.75 59.5 214.25 59.0 214.8 58.3 214.8 57.6 214.8 57.05 214.25 56.55 213.75 56.55 213.05 56.55 212.35 57.05 211.8 M27.55 213.05 Q27.55 213.75 27.0 214.25 26.5 214.8 25.8 214.8 25.1 214.8 24.55 214.25 24.05 213.75 24.05 213.05 24.05 212.35 24.55 211.8 25.1 211.3 25.8 211.3 26.5 211.3 27.0 211.8 27.55 212.35 27.55 213.05 M21.05 213.05 Q21.05 213.75 20.5 214.25 20.0 214.8 19.3 214.8 18.6 214.8 18.05 214.25 17.55 213.75 17.55 213.05 17.55 212.35 18.05 211.8 18.6 211.3 19.3 211.3 20.0 211.3 20.5 211.8 21.05 212.35 21.05 213.05 M37.55 211.8 Q38.1 211.3 38.8 211.3 39.5 211.3 40.0 211.8 40.55 212.35 40.55 213.05 40.55 213.75 40.0 214.25 39.5 214.8 38.8 214.8 38.1 214.8 37.55 214.25 37.05 213.75 37.05 213.05 37.05 212.35 37.55 211.8 M33.5 211.8 Q34.05 212.35 34.05 213.05 34.05 213.75 33.5 214.25 33.0 214.8 32.3 214.8 31.6 214.8 31.05 214.25 30.55 213.75 30.55 213.05 30.55 212.35 31.05 211.8 31.6 211.3 32.3 211.3 33.0 211.3 33.5 211.8 M7.5 211.8 Q8.05 212.35 8.05 213.05 8.05 213.75 7.5 214.25 7.0 214.8 6.3 214.8 5.6 214.8 5.05 214.25 4.55 213.75 4.55 213.05 4.55 212.35 5.05 211.8 5.6 211.3 6.3 211.3 7.0 211.3 7.5 211.8 M14.0 211.8 Q14.55 212.35 14.55 213.05 14.55 213.75 14.0 214.25 13.5 214.8 12.8 214.8 12.1 214.8 11.55 214.25 11.05 213.75 11.05 213.05 11.05 212.35 11.55 211.8 12.1 211.3 12.8 211.3 13.5 211.3 14.0 211.8 M310.55 211.8 Q311.1 211.3 311.8 211.3 312.5 211.3 313.0 211.8 313.55 212.35 313.55 213.05 313.55 213.75 313.0 214.25 312.5 214.8 311.8 214.8 311.1 214.8 310.55 214.25 310.05 213.75 310.05 213.05 310.05 212.35 310.55 211.8 M307.05 213.05 Q307.05 213.75 306.5 214.25 306.0 214.8 305.3 214.8 304.6 214.8 304.05 214.25 303.55 213.75 303.55 213.05 303.55 212.35 304.05 211.8 304.6 211.3 305.3 211.3 306.0 211.3 306.5 211.8 307.05 212.35 307.05 213.05 M319.5 214.25 Q319.0 214.8 318.3 214.8 317.6 214.8 317.05 214.25 316.55 213.75 316.55 213.05 316.55 212.35 317.05 211.8 317.6 211.3 318.3 211.3 319.0 211.3 319.5 211.8 320.05 212.35 320.05 213.05 320.05 213.75 319.5 214.25 M291.05 211.8 Q291.6 211.3 292.3 211.3 293.0 211.3 293.5 211.8 294.05 212.35 294.05 213.05 294.05 213.75 293.5 214.25 293.0 214.8 292.3 214.8 291.6 214.8 291.05 214.25 290.55 213.75 290.55 213.05 290.55 212.35 291.05 211.8 M287.0 211.8 Q287.55 212.35 287.55 213.05 287.55 213.75 287.0 214.25 286.5 214.8 285.8 214.8 285.1 214.8 284.55 214.25 284.05 213.75 284.05 213.05 284.05 212.35 284.55 211.8 285.1 211.3 285.8 211.3 286.5 211.3 287.0 211.8 M297.55 211.8 Q298.1 211.3 298.8 211.3 299.5 211.3 300.0 211.8 300.55 212.35 300.55 213.05 300.55 213.75 300.0 214.25 299.5 214.8 298.8 214.8 298.1 214.8 297.55 214.25 297.05 213.75 297.05 213.05 297.05 212.35 297.55 211.8 M271.55 211.8 Q272.1 211.3 272.8 211.3 273.5 211.3 274.0 211.8 274.55 212.35 274.55 213.05 274.55 213.75 274.0 214.25 273.5 214.8 272.8 214.8 272.1 214.8 271.55 214.25 271.05 213.75 271.05 213.05 271.05 212.35 271.55 211.8 M265.05 211.8 Q265.6 211.3 266.3 211.3 267.0 211.3 267.5 211.8 268.05 212.35 268.05 213.05 268.05 213.75 267.5 214.25 267.0 214.8 266.3 214.8 265.6 214.8 265.05 214.25 264.55 213.75 264.55 213.05 264.55 212.35 265.05 211.8 M280.5 211.8 Q281.05 212.35 281.05 213.05 281.05 213.75 280.5 214.25 280.0 214.8 279.3 214.8 278.6 214.8 278.05 214.25 277.55 213.75 277.55 213.05 277.55 212.35 278.05 211.8 278.6 211.3 279.3 211.3 280.0 211.3 280.5 211.8 M252.05 211.8 Q252.6 211.3 253.3 211.3 254.0 211.3 254.5 211.8 255.05 212.35 255.05 213.05 255.05 213.75 254.5 214.25 254.0 214.8 253.3 214.8 252.6 214.8 252.05 214.25 251.55 213.75 251.55 213.05 251.55 212.35 252.05 211.8 M248.0 211.8 Q248.55 212.35 248.55 213.05 248.55 213.75 248.0 214.25 247.5 214.8 246.8 214.8 246.1 214.8 245.55 214.25 245.05 213.75 245.05 213.05 245.05 212.35 245.55 211.8 246.1 211.3 246.8 211.3 247.5 211.3 248.0 211.8 M261.55 213.05 Q261.55 213.75 261.0 214.25 260.5 214.8 259.8 214.8 259.1 214.8 258.55 214.25 258.05 213.75 258.05 213.05 258.05 212.35 258.55 211.8 259.1 211.3 259.8 211.3 260.5 211.3 261.0 211.8 261.55 212.35 261.55 213.05 M232.55 211.8 Q233.1 211.3 233.8 211.3 234.5 211.3 235.0 211.8 235.55 212.35 235.55 213.05 235.55 213.75 235.0 214.25 234.5 214.8 233.8 214.8 233.1 214.8 232.55 214.25 232.05 213.75 232.05 213.05 232.05 212.35 232.55 211.8 M229.05 213.05 Q229.05 213.75 228.5 214.25 228.0 214.8 227.3 214.8 226.6 214.8 226.05 214.25 225.55 213.75 225.55 213.05 225.55 212.35 226.05 211.8 226.6 211.3 227.3 211.3 228.0 211.3 228.5 211.8 229.05 212.35 229.05 213.05 M239.05 211.8 Q239.6 211.3 240.3 211.3 241.0 211.3 241.5 211.8 242.05 212.35 242.05 213.05 242.05 213.75 241.5 214.25 241.0 214.8 240.3 214.8 239.6 214.8 239.05 214.25 238.55 213.75 238.55 213.05 238.55 212.35 239.05 211.8 M209.0 211.8 Q209.55 212.35 209.55 213.05 209.55 213.75 209.0 214.25 208.5 214.8 207.8 214.8 207.1 214.8 206.55 214.25 206.05 213.75 206.05 213.05 206.05 212.35 206.55 211.8 207.1 211.3 207.8 211.3 208.5 211.3 209.0 211.8 M202.5 214.25 Q202.0 214.8 201.3 214.8 200.6 214.8 200.05 214.25 199.55 213.75 199.55 213.05 199.55 212.35 200.05 211.8 200.6 211.3 201.3 211.3 202.0 211.3 202.5 211.8 203.05 212.35 203.05 213.05 203.05 213.75 202.5 214.25 M219.55 211.8 Q220.1 211.3 220.8 211.3 221.5 211.3 222.0 211.8 222.55 212.35 222.55 213.05 222.55 213.75 222.0 214.25 221.5 214.8 220.8 214.8 220.1 214.8 219.55 214.25 219.05 213.75 219.05 213.05 219.05 212.35 219.55 211.8 M215.5 211.8 Q216.05 212.35 216.05 213.05 216.05 213.75 215.5 214.25 215.0 214.8 214.3 214.8 213.6 214.8 213.05 214.25 212.55 213.75 212.55 213.05 212.55 212.35 213.05 211.8 213.6 211.3 214.3 211.3 215.0 211.3 215.5 211.8 M190.05 213.05 Q190.05 213.75 189.5 214.25 189.0 214.8 188.3 214.8 187.6 214.8 187.05 214.25 186.55 213.75 186.55 213.05 186.55 212.35 187.05 211.8 187.6 211.3 188.3 211.3 189.0 211.3 189.5 211.8 190.05 212.35 190.05 213.05 M183.55 213.05 Q183.55 213.75 183.0 214.25 182.5 214.8 181.8 214.8 181.1 214.8 180.55 214.25 180.05 213.75 180.05 213.05 180.05 212.35 180.55 211.8 181.1 211.3 181.8 211.3 182.5 211.3 183.0 211.8 183.55 212.35 183.55 213.05 M196.0 211.8 Q196.55 212.35 196.55 213.05 196.55 213.75 196.0 214.25 195.5 214.8 194.8 214.8 194.1 214.8 193.55 214.25 193.05 213.75 193.05 213.05 193.05 212.35 193.55 211.8 194.1 211.3 194.8 211.3 195.5 211.3 196.0 211.8 M170.55 213.05 Q170.55 213.75 170.0 214.25 169.5 214.8 168.8 214.8 168.1 214.8 167.55 214.25 167.05 213.75 167.05 213.05 167.05 212.35 167.55 211.8 168.1 211.3 168.8 211.3 169.5 211.3 170.0 211.8 170.55 212.35 170.55 213.05 M176.5 211.8 Q177.05 212.35 177.05 213.05 177.05 213.75 176.5 214.25 176.0 214.8 175.3 214.8 174.6 214.8 174.05 214.25 173.55 213.75 173.55 213.05 173.55 212.35 174.05 211.8 174.6 211.3 175.3 211.3 176.0 211.3 176.5 211.8" fill="#00ff99" fill-rule="evenodd" stroke="none"/>
  </g>
</svg>
