<?xml version="1.0" encoding="UTF-8" standalone="no"?>
<svg xmlns:xlink="http://www.w3.org/1999/xlink" height="212.0px" width="413.35px" xmlns="http://www.w3.org/2000/svg">
  <g transform="matrix(1.0, 0.0, 0.0, 1.0, 215.55, 116.4)">
    <path d="M193.0 -111.65 Q196.8 -107.9 196.8 -102.5 L196.8 81.75 Q196.8 87.1 193.0 90.85 189.3 94.6 183.95 94.6 L-201.7 94.6 Q-207.05 94.6 -210.85 90.85 -214.55 87.1 -214.55 81.75 L-214.55 -102.5 Q-214.55 -107.9 -210.85 -111.65 -207.05 -115.4 -201.7 -115.4 L183.95 -115.4 Q189.3 -115.4 193.0 -111.65" fill="#cccccc" fill-rule="evenodd" stroke="none"/>
    <path d="M193.0 -111.65 Q189.3 -115.4 183.95 -115.4 L-201.7 -115.4 Q-207.05 -115.4 -210.85 -111.65 -214.55 -107.9 -214.55 -102.5 L-214.55 81.75 Q-214.55 87.1 -210.85 90.85 -207.05 94.6 -201.7 94.6 L183.95 94.6 Q189.3 94.6 193.0 90.85 196.8 87.1 196.8 81.75 L196.8 -102.5 Q196.8 -107.9 193.0 -111.65 Z" fill="none" stroke="#000000" stroke-linecap="round" stroke-linejoin="round" stroke-width="2.0"/>
    <path d="M183.25 -109.75 Q186.85 -106.35 186.85 -101.4 L186.85 66.5 Q186.85 71.4 183.25 74.8 179.7 78.2 174.6 78.25 L-193.6 78.25 Q-198.75 78.2 -202.35 74.8 -205.9 71.4 -205.9 66.5 L-205.9 -101.4 Q-205.9 -106.35 -202.35 -109.75 -198.75 -113.15 -193.6 -113.15 L174.6 -113.15 Q179.7 -113.15 183.25 -109.75" fill="#ffffff" fill-rule="evenodd" stroke="none"/>
  </g>
</svg>
