<?xml version="1.0" encoding="UTF-8" standalone="no"?>
<svg xmlns:xlink="http://www.w3.org/1999/xlink" height="9.55px" width="34.35px" xmlns="http://www.w3.org/2000/svg">
  <g transform="matrix(1.0, 0.0, 0.0, 1.0, -9.45, -19.5)">
    <path d="M41.4 23.35 Q41.55 22.15 40.95 21.4 40.45 20.75 39.85 20.7 L36.65 21.0 33.55 21.7 34.25 23.0 Q34.9 24.5 35.0 26.0 41.15 25.0 41.4 23.35 M40.75 25.95 L36.35 27.1 Q32.25 28.25 25.55 28.1 19.05 27.95 13.4 26.75 L13.3 25.95 13.45 27.9 13.6 29.05 9.45 29.05 9.45 24.0 12.95 22.7 12.65 19.7 Q15.45 20.85 17.9 21.2 21.3 21.65 28.6 21.4 31.8 21.25 37.65 19.7 40.95 19.1 42.35 20.2 44.25 21.65 43.7 23.55 43.2 25.1 40.75 25.95 M26.45 22.6 L22.95 22.55 19.55 22.25 19.65 23.55 19.2 26.15 26.65 26.85 Q26.9 23.8 26.45 22.6" fill="#000000" fill-rule="evenodd" stroke="none"/>
    <path d="M41.4 23.35 Q41.15 25.0 35.0 26.0 34.9 24.5 34.25 23.0 L33.55 21.7 36.65 21.0 39.85 20.7 Q40.45 20.75 40.95 21.4 41.55 22.15 41.4 23.35" fill="#ffffff" fill-rule="evenodd" stroke="none"/>
    <path d="M26.45 22.6 Q26.9 23.8 26.65 26.85 L19.2 26.15 19.65 23.55 19.55 22.25 22.95 22.55 26.45 22.6" fill="#9eadb3" fill-rule="evenodd" stroke="none"/>
  </g>
</svg>
