<?xml version="1.0" encoding="UTF-8" standalone="no"?>
<svg xmlns:xlink="http://www.w3.org/1999/xlink" height="105.9px" width="76.3px" xmlns="http://www.w3.org/2000/svg">
  <g transform="matrix(1.0, 0.0, 0.0, 1.0, 38.15, 52.9)">
    <path d="M8.2 -52.35 Q8.65 -51.8 8.9 -50.7 L9.3 -48.95 Q10.1 -42.25 8.7 -36.0 L8.4 -35.0 10.05 -32.9 Q11.75 -30.2 12.0 -26.95 12.45 -20.2 2.15 -12.9 12.8 -9.35 20.1 -9.7 22.1 -10.1 24.0 -12.65 L25.5 -14.85 27.15 -16.9 30.3 -16.8 Q31.45 -16.0 31.55 -14.85 31.4 -13.3 29.85 -10.65 29.65 -10.35 29.95 -10.1 L30.4 -9.8 35.4 -9.3 Q36.6 -9.05 36.95 -7.15 37.15 -6.15 36.75 -5.25 38.1 -4.95 38.15 -3.3 38.3 -0.75 37.0 0.0 L36.25 0.25 35.55 1.45 34.6 2.2 Q28.75 3.7 24.35 1.85 20.95 0.35 14.9 2.7 11.65 3.9 8.0 3.9 8.1 5.35 9.1 9.3 L11.25 14.45 Q12.65 17.6 13.1 19.85 L13.5 20.1 13.5 21.25 13.8 21.25 13.8 28.2 13.65 28.15 Q12.65 31.85 11.8 33.45 L9.5 37.4 15.2 36.8 Q18.75 36.4 20.8 37.7 21.7 38.05 22.4 39.05 23.15 40.0 23.35 41.15 L23.3 42.05 23.3 42.9 Q24.1 46.3 22.5 48.05 21.15 49.4 20.1 49.55 L18.6 49.7 17.65 50.65 11.7 50.9 Q8.35 50.0 -1.25 44.05 -2.2 44.25 -7.55 47.55 L-15.3 52.15 Q-16.85 53.1 -18.75 53.0 -20.8 52.85 -22.15 51.6 L-22.95 51.0 -23.9 50.55 Q-26.0 49.7 -26.05 47.35 -25.85 46.9 -26.2 46.45 L-26.6 45.65 Q-26.95 44.05 -26.2 42.45 -25.5 40.75 -24.15 39.9 -22.75 39.0 -18.9 38.7 L-13.0 37.65 Q-16.2 34.8 -17.7 31.05 -19.3 27.0 -18.6 22.75 -17.6 17.6 -18.35 10.75 L-18.45 10.75 -21.1 14.0 -23.65 17.35 Q-23.75 17.95 -22.95 19.05 L-21.65 21.25 Q-21.05 22.6 -21.65 23.6 L-22.9 24.7 -24.5 24.9 Q-26.0 24.4 -27.75 21.55 -28.2 22.7 -28.15 24.7 L-28.15 28.0 Q-28.5 29.5 -29.8 29.8 -31.25 30.1 -32.2 29.25 L-32.9 28.35 Q-33.9 28.7 -34.3 27.95 -35.5 25.95 -34.55 21.55 -34.0 18.75 -30.85 12.05 L-27.5 4.85 -25.35 -2.65 Q-23.95 -7.55 -22.5 -9.25 -27.6 -11.0 -29.6 -12.2 -34.85 -15.3 -35.05 -19.8 -35.25 -23.4 -33.65 -26.8 -37.65 -34.2 -38.1 -41.05 -38.35 -44.2 -36.8 -44.8 -34.3 -45.7 -30.3 -45.6 L-24.9 -44.6 Q-23.45 -44.5 -21.6 -45.15 L-18.45 -46.35 Q-14.7 -47.5 -9.6 -47.7 L-6.75 -47.65 Q-4.9 -47.65 -3.8 -48.45 -2.95 -48.85 -0.8 -50.35 1.1 -51.7 2.3 -52.1 5.35 -53.1 7.4 -52.85 8.0 -52.7 8.2 -52.35" fill="#000000" fill-rule="evenodd" stroke="none"/>
    <path d="M7.85 -51.7 Q9.0 -48.5 8.75 -42.65 8.6 -38.4 7.7 -35.65 L7.25 -35.9 Q7.65 -35.85 7.75 -36.35 L7.0 -36.9 Q6.25 -37.2 6.2 -37.25 L6.75 -37.5 7.25 -37.9 6.95 -38.45 4.05 -38.75 5.15 -39.65 6.2 -40.7 5.6 -41.25 Q3.45 -41.35 2.7 -40.7 3.8 -47.85 7.3 -51.7 L6.7 -51.7 Q3.95 -49.45 1.9 -43.65 L1.35 -40.55 Q1.45 -39.85 1.95 -39.75 L3.25 -40.2 4.75 -40.4 Q3.25 -39.5 2.65 -38.45 2.6 -38.1 3.05 -38.0 L5.7 -38.1 Q4.85 -37.55 4.55 -37.65 L4.25 -37.05 4.6 -36.8 6.65 -36.4 Q6.0 -35.8 6.35 -35.5 L8.1 -34.45 Q6.3 -31.25 2.3 -28.5 L1.95 -27.8 Q2.2 -27.2 2.95 -26.95 L4.25 -26.65 Q7.3 -26.2 10.7 -28.15 L10.9 -27.3 Q7.9 -24.65 2.6 -23.6 1.95 -23.3 1.9 -23.05 2.65 -21.4 6.1 -21.05 L9.3 -20.95 Q9.1 -20.1 7.9 -19.9 L4.5 -19.2 1.05 -18.95 Q0.55 -18.75 0.85 -18.25 1.85 -16.4 4.15 -15.3 L0.7 -12.9 Q-1.85 -11.3 -5.8 -9.75 L-5.75 -10.15 Q-5.85 -10.35 -6.1 -10.35 L-7.5 -8.85 Q-8.5 -8.15 -9.8 -8.05 -11.1 -8.0 -12.05 -8.65 L-13.25 -9.05 -13.35 -8.8 -13.3 -8.6 Q-21.25 -9.2 -26.9 -11.95 -25.25 -13.35 -24.45 -15.4 -24.35 -16.05 -24.8 -16.25 L-27.25 -15.8 Q-29.65 -15.0 -31.15 -14.85 L-31.45 -14.9 -31.65 -15.1 Q-29.5 -15.65 -26.1 -18.35 L-25.6 -19.0 Q-25.3 -19.4 -25.4 -19.75 L-25.55 -20.15 -25.85 -20.45 -34.1 -20.7 -34.1 -20.95 Q-30.5 -21.2 -27.6 -22.7 L-25.75 -24.3 Q-25.5 -24.75 -25.75 -25.0 L-28.25 -25.5 Q-30.8 -25.75 -32.45 -26.6 L-31.15 -28.4 -31.6 -29.1 -29.7 -30.85 -30.1 -31.4 -30.7 -31.45 Q-31.1 -31.45 -31.05 -31.75 L-29.15 -33.2 Q-29.05 -33.55 -29.4 -33.8 L-31.0 -34.2 Q-30.85 -34.75 -29.65 -35.05 -28.25 -35.4 -27.95 -35.7 -28.05 -36.75 -28.9 -37.9 L-30.45 -39.8 Q-34.1 -43.8 -36.55 -43.8 L-36.65 -43.45 Q-36.35 -43.2 -35.65 -43.0 -32.75 -41.35 -29.4 -36.0 -31.75 -35.5 -32.75 -34.2 -32.7 -33.55 -32.0 -33.5 L-30.8 -33.45 -30.45 -33.35 Q-32.3 -32.65 -33.05 -31.15 -32.9 -30.65 -32.2 -30.65 L-31.05 -30.6 -32.2 -29.85 Q-32.9 -29.35 -33.05 -28.7 L-32.5 -28.3 -33.0 -27.7 Q-35.3 -32.0 -36.2 -35.4 -37.55 -40.35 -37.3 -43.1 L-36.8 -43.9 -35.15 -44.25 -31.2 -44.45 -27.35 -44.05 -24.2 -43.5 -23.95 -43.55 -23.35 -40.65 Q-22.45 -37.45 -21.4 -36.6 -20.95 -36.45 -20.45 -36.8 -19.9 -37.75 -19.65 -40.15 -19.15 -43.05 -18.4 -44.8 L-18.3 -44.9 Q-17.9 -44.4 -17.75 -43.05 L-16.6 -39.55 -15.2 -36.35 Q-14.75 -35.8 -14.15 -35.7 -13.6 -35.75 -13.25 -36.5 L-12.55 -41.45 Q-12.2 -44.4 -11.35 -46.15 L-11.3 -46.15 -10.55 -43.05 Q-10.05 -40.65 -8.85 -38.5 -8.3 -37.95 -7.95 -38.25 -7.35 -39.15 -7.05 -40.7 L-6.75 -43.25 Q-6.45 -45.25 -5.6 -46.9 -5.0 -46.85 -2.8 -47.7 0.55 -50.0 2.1 -50.75 4.85 -52.15 7.35 -52.15 L7.85 -51.7" fill="#9eadb3" fill-rule="evenodd" stroke="none"/>
    <path d="M27.35 -15.35 Q27.8 -15.75 28.4 -15.9 L29.5 -15.8 30.3 -14.8 Q30.55 -14.1 29.75 -12.5 28.9 -10.75 29.0 -9.95 29.65 -8.95 32.2 -8.7 L34.0 -8.45 Q35.0 -8.25 35.5 -7.55 36.05 -6.65 35.55 -5.5 32.75 -5.8 31.05 -6.45 30.75 -6.4 30.65 -6.15 30.6 -5.7 31.3 -5.35 33.4 -4.5 35.55 -4.4 36.9 -4.0 36.9 -3.05 36.95 -1.85 36.25 -1.2 35.8 -3.0 34.45 -3.2 33.4 -3.5 31.25 -2.65 L29.4 -1.85 29.3 -1.2 30.8 -1.3 32.6 -1.95 34.4 -1.75 Q35.15 -0.95 34.8 0.1 34.35 1.15 33.15 1.35 L31.0 1.6 26.55 1.2 22.15 0.2 22.0 -5.1 21.25 -9.05 22.3 -9.5 Q23.65 -10.15 25.05 -12.15 L27.35 -15.35" fill="#ffffff" fill-rule="evenodd" stroke="none"/>
    <path d="M7.0 -0.45 L5.6 -4.8 5.2 -5.1 Q4.9 -4.85 5.1 -4.2 5.25 -3.55 4.75 -3.3 L0.55 -0.7 Q-0.05 -2.9 -1.35 -4.65 2.7 -7.15 3.9 -9.6 L4.4 -10.9 6.65 -10.35 Q7.7 -6.95 7.35 -1.8 L7.0 -0.45" fill="#9eadb3" fill-rule="evenodd" stroke="none"/>
    <path d="M16.05 -8.7 Q16.95 -6.8 17.15 -3.7 17.3 -0.95 16.85 0.85 L12.95 2.05 Q14.05 -4.75 12.45 -9.15 L16.05 -8.7" fill="#9eadb3" fill-rule="evenodd" stroke="none"/>
    <path d="M28.7 -8.35 L29.65 -6.85 Q30.6 -4.6 29.15 -2.45 28.6 -1.6 27.7 -1.95 25.9 -2.7 26.1 -6.75 26.2 -8.65 27.3 -8.85 27.95 -9.0 28.7 -8.35" fill="#000000" fill-rule="evenodd" stroke="none"/>
    <path d="M28.7 -6.15 Q28.9 -4.05 28.2 -3.4 27.85 -3.0 27.6 -3.4 26.45 -5.55 27.2 -7.6 27.35 -7.95 27.75 -7.7 28.6 -7.15 28.7 -6.15" fill="#ffb19e" fill-rule="evenodd" stroke="none"/>
    <path d="M-13.65 -3.65 Q-14.75 -0.9 -14.3 1.65 L-18.35 1.75 -18.3 0.5 Q-18.3 -0.15 -18.55 -0.65 L-18.95 -0.7 Q-19.3 -0.3 -19.3 0.55 -21.35 -2.0 -24.2 -3.1 L-23.15 -6.35 -20.05 -6.05 -17.1 -4.9 -13.65 -3.65" fill="#9eadb3" fill-rule="evenodd" stroke="none"/>
    <path d="M7.6 7.9 Q6.1 9.0 2.95 10.2 L1.75 5.55 6.6 2.9 Q6.8 4.8 7.6 7.9" fill="#9eadb3" fill-rule="evenodd" stroke="none"/>
    <path d="M-18.7 9.1 L-21.1 12.65 Q-22.45 10.45 -24.45 8.95 -26.15 7.7 -27.55 7.4 -26.45 4.75 -26.1 3.4 -23.9 3.4 -21.75 4.95 -19.45 6.65 -18.7 9.1" fill="#9eadb3" fill-rule="evenodd" stroke="none"/>
    <path d="M-12.9 8.55 Q-12.25 11.0 -12.1 13.5 L-17.15 12.9 -17.65 8.6 -12.9 8.55" fill="#9eadb3" fill-rule="evenodd" stroke="none"/>
    <path d="M-24.35 16.8 Q-24.65 17.95 -23.5 19.8 -22.4 21.6 -22.85 22.8 -23.6 23.75 -24.5 23.45 L-25.7 22.45 -26.7 21.15 -27.2 20.4 Q-27.55 19.85 -27.9 19.9 -28.8 21.15 -28.9 23.7 L-29.2 27.85 Q-29.85 28.75 -31.05 28.55 -32.3 27.95 -32.55 25.95 L-32.65 22.55 Q-32.45 21.75 -32.95 21.55 L-33.3 22.0 -33.45 22.65 Q-33.85 25.75 -33.2 27.6 L-33.85 26.95 -33.8 26.9 Q-34.1 26.25 -34.05 23.7 -33.5 19.8 -30.55 13.55 -28.25 13.2 -24.9 16.15 L-24.35 16.8" fill="#ffffff" fill-rule="evenodd" stroke="none"/>
    <path d="M11.35 17.65 L5.75 19.5 Q5.7 16.75 5.1 15.45 7.85 14.5 9.6 13.5 L11.35 17.65" fill="#9eadb3" fill-rule="evenodd" stroke="none"/>
    <path d="M-11.9 19.6 Q-11.9 21.7 -11.15 23.3 L-17.45 23.1 -17.15 18.95 -11.9 19.6" fill="#9eadb3" fill-rule="evenodd" stroke="none"/>
    <path d="M12.9 25.15 L12.35 28.45 Q7.8 30.1 2.45 29.2 L1.6 29.1 Q1.1 29.1 0.9 29.4 L0.85 30.2 Q1.55 31.2 4.6 33.15 6.65 34.55 9.85 34.75 L8.7 36.55 Q7.85 37.7 7.55 38.4 L7.85 38.75 8.7 38.25 17.25 37.8 Q20.95 38.2 22.05 40.75 L22.05 41.35 Q20.7 40.35 20.15 40.85 L20.15 41.15 21.7 42.2 Q22.55 42.95 22.55 44.0 22.45 46.45 21.6 47.4 20.3 48.6 19.2 48.7 20.2 45.7 18.75 44.25 17.45 43.55 16.8 43.65 16.6 43.75 16.65 44.05 L17.35 44.4 Q18.3 45.0 18.45 45.8 18.95 48.1 16.9 49.6 14.2 51.25 10.5 49.7 L7.35 48.05 4.35 46.2 Q0.7 44.1 -1.15 42.7 -1.45 37.95 -1.1 28.35 L-1.0 28.05 Q1.9 27.45 3.85 24.6 6.65 25.8 12.65 25.1 L12.9 25.15" fill="#9eadb3" fill-rule="evenodd" stroke="none"/>
    <path d="M-16.8 30.15 Q-11.75 30.15 -8.0 27.4 -7.05 28.0 -4.7 28.45 L-2.45 28.35 -2.35 28.5 Q-2.0 33.2 -2.4 42.45 -2.5 42.9 -3.7 43.6 -5.0 44.25 -7.75 46.05 L-10.5 47.9 -15.25 50.85 -20.55 51.1 Q-21.25 50.7 -21.4 49.55 L-21.45 47.7 Q-21.25 46.75 -20.65 46.35 -19.75 46.2 -19.65 45.65 L-20.7 45.5 -21.35 45.55 Q-22.2 46.05 -22.5 47.25 L-22.85 49.45 Q-24.5 49.15 -25.0 47.45 -25.1 44.45 -23.4 43.3 L-22.75 43.1 Q-22.3 43.0 -22.35 42.65 L-23.85 42.8 Q-25.25 43.5 -25.65 44.9 -25.65 43.45 -24.95 42.25 -24.2 41.0 -23.0 40.45 -21.45 39.8 -17.8 39.35 L-11.75 38.65 Q-10.35 39.6 -9.7 39.45 -9.4 39.25 -9.6 39.0 L-11.3 37.8 Q-6.05 36.2 -3.7 31.75 -3.65 30.5 -4.15 30.25 L-5.25 30.55 Q-7.5 32.1 -11.7 33.15 L-13.55 33.35 -15.4 33.1 -16.8 30.15" fill="#9eadb3" fill-rule="evenodd" stroke="none"/>
    <path d="M-0.9 -1.6 Q-0.05 0.3 0.5 3.3 L1.4 8.35 Q1.7 9.75 3.05 13.45 L4.4 17.65 Q4.8 20.55 3.15 23.25 1.4 26.05 -1.55 26.85 -5.75 27.95 -8.45 25.9 -10.1 24.65 -10.6 20.75 L-11.15 13.65 Q-11.3 12.25 -12.55 6.4 -13.5 1.9 -13.2 -1.1 -13.05 -2.85 -11.55 -4.25 -10.35 -5.4 -8.6 -5.95 -6.7 -6.55 -4.9 -5.9 -2.4 -4.9 -0.9 -1.6" fill="#ffffff" fill-rule="evenodd" stroke="none"/>
    <path d="M-27.35 -26.2 L-25.6 -28.5 -17.05 -28.4 -16.75 -23.95 -8.45 -25.3 -9.05 -29.6 -0.6 -32.6 0.25 -32.2 2.15 -30.85 Q4.95 -28.4 5.25 -24.8 5.95 -16.9 -5.8 -9.75 L-5.75 -10.15 Q-5.85 -10.35 -6.1 -10.35 L-7.5 -8.85 Q-8.5 -8.15 -9.8 -8.05 -11.1 -8.0 -12.05 -8.65 L-13.25 -9.05 -13.35 -8.8 -13.3 -8.6 Q-18.8 -9.8 -22.8 -12.2 -28.25 -15.4 -28.7 -19.75 -29.05 -23.2 -27.35 -26.2" fill="#ffffff" fill-rule="evenodd" stroke="none"/>
    <path d="M7.85 -51.7 Q9.0 -48.5 8.75 -42.65 8.6 -38.4 7.7 -35.65 L7.25 -35.9 Q7.65 -35.85 7.75 -36.35 L7.0 -36.9 Q6.25 -37.2 6.2 -37.25 L6.75 -37.5 7.25 -37.9 6.95 -38.45 4.05 -38.75 5.15 -39.65 6.2 -40.7 5.6 -41.25 Q3.45 -41.35 2.7 -40.7 3.8 -47.85 7.3 -51.7 L7.25 -51.7 7.6 -51.9 7.85 -51.7" fill="#ffb19e" fill-rule="evenodd" stroke="none"/>
    <path d="M-36.6 -43.65 L-36.65 -43.45 Q-36.35 -43.2 -35.65 -43.0 -32.75 -41.35 -29.4 -36.0 -31.75 -35.5 -32.75 -34.2 -32.7 -33.55 -32.0 -33.5 L-30.8 -33.45 -30.45 -33.35 Q-32.3 -32.65 -33.05 -31.15 -32.9 -30.65 -32.2 -30.65 L-31.05 -30.6 -32.2 -29.85 Q-32.9 -29.35 -33.05 -28.7 L-32.5 -28.3 -33.0 -27.7 Q-35.3 -32.0 -36.2 -35.4 -37.55 -40.35 -37.3 -43.1 L-37.0 -43.7 -36.6 -43.65" fill="#ffb19e" fill-rule="evenodd" stroke="none"/>
    <path d="M21.6 47.4 Q20.3 48.6 19.2 48.7 20.2 45.7 18.75 44.25 17.45 43.55 16.8 43.65 16.6 43.75 16.65 44.05 L17.35 44.4 Q18.3 45.0 18.45 45.8 18.95 48.1 16.9 49.6 14.2 51.25 10.5 49.7 L7.35 48.05 4.35 46.2 Q0.7 44.1 -1.15 42.7 -1.4 38.85 -1.25 32.6 2.1 35.1 5.85 35.9 L8.9 36.25 7.55 38.4 7.85 38.75 8.7 38.25 17.25 37.8 Q20.95 38.2 22.05 40.75 L22.05 41.35 Q20.7 40.35 20.15 40.85 L20.15 41.15 21.7 42.2 Q22.55 42.95 22.55 44.0 22.45 46.45 21.6 47.4" fill="#ffffff" fill-rule="evenodd" stroke="none"/>
    <path d="M-23.0 40.45 Q-21.45 39.8 -17.8 39.35 L-11.75 38.65 Q-10.35 39.6 -9.7 39.45 -9.4 39.25 -9.6 39.0 L-10.45 38.4 -7.35 37.1 Q-3.85 35.4 -2.2 33.1 L-2.4 42.45 Q-2.5 42.9 -3.7 43.6 -5.0 44.25 -7.75 46.05 L-10.5 47.9 -15.25 50.85 -20.55 51.1 Q-21.25 50.7 -21.4 49.55 L-21.45 47.7 Q-21.25 46.75 -20.65 46.35 -19.75 46.2 -19.65 45.65 L-20.7 45.5 -21.35 45.55 Q-22.2 46.05 -22.5 47.25 L-22.85 49.45 Q-24.5 49.15 -25.0 47.45 -25.1 44.45 -23.4 43.3 L-22.75 43.1 Q-22.3 43.0 -22.35 42.65 L-23.85 42.8 Q-25.25 43.5 -25.65 44.9 -25.65 43.45 -24.95 42.25 -24.2 41.0 -23.0 40.45" fill="#ffffff" fill-rule="evenodd" stroke="none"/>
    <path d="M-8.3 -25.15 Q-8.0 -24.1 -9.2 -22.4 -10.35 -20.8 -11.5 -20.2 L-11.45 -18.0 -10.8 -15.7 Q-8.65 -16.3 -6.65 -17.95 -4.55 -19.7 -3.5 -22.05 -3.6 -22.45 -4.2 -22.35 -4.7 -22.25 -4.65 -22.75 -3.25 -23.5 -2.55 -22.75 -2.0 -22.25 -2.45 -19.8 L-2.75 -19.7 Q-2.9 -21.05 -3.2 -21.6 -4.0 -19.0 -6.15 -17.1 -8.2 -15.25 -10.65 -14.8 -12.95 -14.35 -15.85 -15.5 -18.75 -16.65 -20.1 -18.55 L-20.2 -17.6 Q-20.15 -17.0 -20.25 -16.85 -20.8 -17.0 -21.1 -18.2 -21.4 -19.45 -20.85 -20.1 L-18.55 -20.2 Q-18.5 -20.0 -19.15 -19.85 L-19.95 -19.2 Q-17.05 -15.6 -11.35 -15.55 -12.4 -18.05 -12.4 -20.0 -13.8 -20.2 -15.2 -21.3 -16.7 -22.5 -16.8 -23.75 -17.0 -25.9 -12.8 -26.55 L-9.7 -26.6 Q-8.65 -26.3 -8.3 -25.15" fill="#000000" fill-rule="evenodd" stroke="none"/>
    <path d="M-7.25 -36.65 Q-5.85 -37.7 -4.2 -37.6 -2.45 -37.45 -0.55 -36.45 0.45 -34.95 -0.05 -32.45 -0.25 -31.45 -0.9 -30.5 -1.6 -29.45 -2.45 -29.1 -4.3 -28.4 -6.25 -28.4 -8.1 -28.4 -9.15 -28.95 L-9.55 -31.4 Q-9.7 -32.9 -9.35 -33.9 -8.7 -35.65 -7.25 -36.65" fill="#000000" fill-rule="evenodd" stroke="none"/>
    <path d="M-6.35 -34.1 Q-6.1 -33.8 -6.6 -33.1 -7.1 -32.35 -7.45 -32.55 -7.95 -32.8 -7.4 -33.7 -6.85 -34.6 -6.35 -34.1" fill="#ffffff" fill-rule="evenodd" stroke="none"/>
    <path d="M-6.95 -35.7 Q-4.35 -37.75 -1.05 -35.8 -0.7 -35.4 -0.6 -33.9 -0.4 -31.65 -2.4 -30.3 -1.95 -31.85 -2.4 -33.35 -3.05 -35.65 -5.3 -35.6 L-6.95 -35.1 Q-7.9 -34.55 -8.25 -33.6 -8.95 -31.6 -7.65 -29.35 L-8.3 -29.35 Q-9.15 -31.55 -8.55 -33.5 -8.1 -34.75 -6.95 -35.7" fill="#ffffff" fill-rule="evenodd" stroke="none"/>
    <path d="M-23.65 -34.4 L-20.5 -34.55 Q-18.85 -34.05 -17.8 -32.6 -17.2 -31.75 -16.95 -30.3 L-16.7 -27.8 Q-17.55 -26.95 -19.3 -26.35 -21.2 -25.7 -23.1 -25.75 -24.05 -25.75 -25.0 -26.55 L-26.3 -28.15 Q-27.35 -30.35 -26.85 -32.1 -25.3 -33.65 -23.65 -34.4" fill="#000000" fill-rule="evenodd" stroke="none"/>
    <path d="M-23.05 -31.25 Q-22.45 -32.0 -22.0 -31.55 -21.75 -31.25 -22.3 -30.55 -22.9 -29.85 -23.2 -30.05 -23.65 -30.4 -23.05 -31.25" fill="#ffffff" fill-rule="evenodd" stroke="none"/>
    <path d="M-17.65 -27.9 L-18.2 -27.7 Q-17.6 -30.3 -18.75 -31.9 -19.3 -32.75 -20.4 -32.95 L-22.1 -32.85 Q-23.0 -32.55 -23.6 -31.7 -24.25 -30.85 -24.25 -29.75 -24.3 -28.25 -23.5 -26.85 -25.75 -27.55 -26.15 -29.7 -26.4 -31.15 -26.15 -31.65 -23.5 -34.6 -20.55 -33.5 -19.15 -33.0 -18.45 -31.95 -17.35 -30.3 -17.65 -27.9" fill="#ffffff" fill-rule="evenodd" stroke="none"/>
  </g>
</svg>
