<?xml version="1.0" encoding="UTF-8" standalone="no"?>
<svg xmlns:xlink="http://www.w3.org/1999/xlink" height="10.85px" width="25.85px" xmlns="http://www.w3.org/2000/svg">
  <g transform="matrix(1.0, 0.0, 0.0, 1.0, 26.3, 37.15)">
    <path d="M-17.45 -28.05 Q-20.15 -26.5 -20.8 -26.35 -21.85 -26.1 -24.15 -26.8 -25.7 -27.3 -26.2 -29.85 -26.4 -31.25 -26.2 -31.8 -23.55 -34.75 -20.6 -33.65 -19.15 -33.1 -18.5 -32.1 -17.6 -30.8 -17.45 -28.05 M-8.4 -29.55 Q-8.85 -30.6 -8.7 -32.6 -8.6 -34.6 -8.1 -35.25 -7.5 -36.25 -6.05 -36.8 -3.15 -37.9 -1.0 -35.6 -0.4 -33.45 -0.45 -33.0 -0.95 -30.45 -2.5 -29.95 L-6.05 -29.0 Q-7.4 -29.1 -8.4 -29.55" fill="#9eadb3" fill-rule="evenodd" stroke="none"/>
  </g>
</svg>
