<?xml version="1.0" encoding="UTF-8" standalone="no"?>
<svg xmlns:xlink="http://www.w3.org/1999/xlink" height="107.55px" width="118.05px" xmlns="http://www.w3.org/2000/svg">
  <g transform="matrix(1.0, 0.0, 0.0, 1.0, 67.75, 97.85)">
    <path d="M41.7 -87.95 L37.25 -87.95 37.25 -57.6 29.05 -57.6 29.05 -87.95 24.6 -87.95 24.6 -96.5 41.7 -96.5 41.7 -87.95 M23.55 -87.95 L18.55 -87.95 18.55 -81.7 23.25 -81.7 23.25 -73.55 18.55 -73.55 18.55 -66.15 24.05 -66.15 24.05 -57.6 10.35 -57.6 10.35 -96.5 23.55 -96.5 23.55 -87.95 M8.85 -57.6 L-3.9 -57.6 -3.9 -96.5 4.3 -96.5 4.3 -66.15 8.85 -66.15 8.85 -57.6 M31.35 -30.5 L31.35 -4.7 31.1 1.5 Q30.9 3.35 29.8 5.25 28.65 7.2 26.9 8.2 25.1 9.2 22.7 9.2 20.0 9.2 17.95 8.0 15.9 6.85 14.85 4.95 13.85 3.05 13.65 0.95 13.5 -1.1 13.5 -7.6 L13.5 -30.5 21.7 -30.5 21.7 -1.6 Q21.7 0.8 21.85 1.3 22.0 1.8 22.35 1.8 22.8 1.8 22.95 1.2 L23.1 -2.1 23.1 -30.5 31.35 -30.5 M12.1 -0.15 L12.1 8.4 -0.65 8.4 -0.65 -30.5 7.55 -30.5 7.55 -0.15 12.1 -0.15 M32.7 -21.95 L32.7 -30.5 49.8 -30.5 49.8 -21.95 45.35 -21.95 45.35 8.4 37.15 8.4 37.15 -21.95 32.7 -21.95 M-6.25 -96.5 L-6.25 -87.95 -11.25 -87.95 -11.25 -81.7 -6.55 -81.7 -6.55 -73.55 -11.25 -73.55 -11.25 -66.15 -5.75 -66.15 -5.75 -57.6 -19.45 -57.6 -19.45 -96.5 -6.25 -96.5 M-30.0 -89.05 L-30.0 -80.35 -29.8 -80.35 Q-28.95 -80.35 -28.65 -80.85 -28.35 -81.4 -28.35 -83.3 L-28.35 -86.45 Q-28.35 -88.15 -28.7 -88.6 -29.05 -89.05 -30.0 -89.05 M-22.85 -93.9 Q-21.95 -92.6 -21.65 -90.8 -21.35 -89.0 -21.35 -85.4 L-21.35 -82.1 Q-21.35 -78.4 -21.95 -76.6 -22.6 -74.8 -24.2 -73.85 -25.8 -72.9 -28.35 -72.9 L-30.0 -72.9 -30.0 -57.6 -38.2 -57.6 -38.2 -96.5 -30.3 -96.5 -25.5 -95.85 Q-23.75 -95.2 -22.85 -93.9 M-41.6 -92.7 Q-40.85 -90.7 -40.85 -86.05 L-40.85 -84.1 -48.55 -84.1 -48.55 -87.4 Q-48.55 -89.2 -48.75 -89.55 -48.95 -89.95 -49.35 -89.95 -49.8 -89.95 -50.05 -89.4 L-50.35 -87.5 Q-50.35 -85.7 -50.05 -85.05 -49.65 -84.05 -48.55 -82.8 -42.95 -78.7 -41.65 -76.15 -40.25 -73.5 -40.25 -67.8 -40.25 -63.65 -41.0 -61.6 -41.8 -59.55 -43.95 -58.15 -46.1 -56.8 -48.95 -56.8 -52.05 -56.8 -54.25 -58.4 -56.45 -59.95 -57.15 -62.4 -57.85 -64.85 -57.85 -69.2 L-57.85 -72.15 -50.15 -72.15 -50.15 -67.05 Q-50.15 -65.05 -49.95 -64.65 -49.75 -64.2 -49.2 -64.2 -48.65 -64.2 -48.4 -64.8 -48.1 -65.4 -48.1 -66.8 -48.1 -69.95 -48.5 -70.7 L-52.15 -74.25 -55.9 -77.85 Q-56.85 -79.0 -57.45 -81.0 -58.1 -83.05 -58.1 -86.2 -58.1 -90.7 -57.2 -92.8 -56.3 -94.95 -54.3 -96.15 -52.35 -97.35 -49.6 -97.35 -46.6 -97.35 -44.45 -96.0 -42.3 -94.75 -41.6 -92.7 M-40.9 -30.5 L-33.6 -29.95 Q-31.65 -29.35 -30.35 -27.05 -29.1 -24.65 -29.1 -19.65 -29.1 -15.1 -30.05 -13.4 -30.95 -11.7 -33.25 -11.65 -31.2 -11.6 -30.35 -10.25 -29.5 -8.9 -29.3 -7.8 -29.1 -6.7 -29.1 -2.1 L-29.1 8.4 -36.8 8.4 -36.8 -4.7 Q-36.8 -7.6 -37.1 -8.15 -37.35 -8.7 -38.35 -8.7 L-38.35 8.4 -46.55 8.4 -46.55 -30.5 -40.9 -30.5 M-51.05 -30.8 L-56.45 -30.8 -56.45 -37.85 -51.05 -37.85 -51.05 -30.8 M-58.85 -30.8 L-64.2 -30.8 -64.2 -37.85 -58.85 -37.85 -58.85 -30.8 M-56.6 -6.1 L-57.45 -21.1 -58.45 -6.1 -56.6 -6.1 M-51.95 -30.5 L-47.65 8.4 -56.0 8.4 -56.4 1.6 -58.4 1.6 -58.85 8.4 -67.25 8.4 -63.4 -30.5 -51.95 -30.5 M-4.05 -26.7 Q-3.3 -24.7 -3.3 -20.05 L-3.3 -18.1 -11.0 -18.1 -11.0 -21.4 Q-11.0 -23.2 -11.2 -23.55 -11.4 -23.95 -11.8 -23.95 -12.25 -23.95 -12.5 -23.4 -12.8 -22.85 -12.8 -21.5 -12.8 -19.7 -12.5 -19.05 -12.1 -18.05 -11.0 -16.8 -5.4 -12.7 -4.1 -10.15 -2.7 -7.5 -2.7 -1.8 -2.7 2.35 -3.45 4.4 -4.25 6.45 -6.4 7.85 -8.55 9.2 -11.4 9.2 -14.5 9.2 -16.7 7.6 -18.9 6.05 -19.6 3.6 -20.3 1.15 -20.3 -3.2 L-20.3 -6.15 -12.6 -6.15 -12.6 -1.05 Q-12.6 0.95 -12.4 1.35 L-11.65 1.8 Q-11.1 1.8 -10.85 1.2 -10.55 0.6 -10.55 -0.8 -10.55 -3.95 -10.95 -4.7 L-14.6 -8.25 -18.35 -11.85 Q-19.3 -13.0 -19.9 -15.0 -20.55 -17.05 -20.55 -20.2 -20.55 -24.7 -19.65 -26.8 -18.75 -28.95 -16.75 -30.15 -14.8 -31.35 -12.05 -31.35 -9.05 -31.35 -6.9 -30.0 -4.75 -28.75 -4.05 -26.7 M-37.2 -15.9 Q-36.8 -16.25 -36.8 -18.5 L-36.8 -20.6 Q-36.8 -22.2 -37.2 -22.65 -37.55 -23.05 -38.35 -23.05 L-38.35 -15.55 Q-37.55 -15.55 -37.2 -15.9" fill="#ffffff" fill-rule="evenodd" stroke="none"/>
    <path d="M-41.6 -92.7 Q-40.85 -90.7 -40.85 -86.05 L-40.85 -84.1 -48.55 -84.1 -48.55 -87.4 Q-48.55 -89.2 -48.75 -89.55 -48.95 -89.95 -49.35 -89.95 -49.8 -89.95 -50.05 -89.4 L-50.35 -87.5 Q-50.35 -85.7 -50.05 -85.05 -49.65 -84.05 -48.55 -82.8 -42.95 -78.7 -41.65 -76.15 -40.25 -73.5 -40.25 -67.8 -40.25 -63.65 -41.0 -61.6 -41.8 -59.55 -43.95 -58.15 -46.1 -56.8 -48.95 -56.8 -52.05 -56.8 -54.25 -58.4 -56.45 -59.95 -57.15 -62.4 -57.85 -64.85 -57.85 -69.2 L-57.85 -72.15 -50.15 -72.15 -50.15 -67.05 Q-50.15 -65.05 -49.95 -64.65 -49.75 -64.2 -49.2 -64.2 -48.65 -64.2 -48.4 -64.8 -48.1 -65.4 -48.1 -66.8 -48.1 -69.95 -48.5 -70.7 L-52.15 -74.25 -55.9 -77.85 Q-56.85 -79.0 -57.45 -81.0 -58.1 -83.05 -58.1 -86.2 -58.1 -90.7 -57.2 -92.8 -56.3 -94.95 -54.3 -96.15 -52.35 -97.35 -49.6 -97.35 -46.6 -97.35 -44.45 -96.0 -42.3 -94.75 -41.6 -92.7" fill="none" stroke="#000000" stroke-linecap="round" stroke-linejoin="round" stroke-width="1.0"/>
    <path d="M41.7 -87.95 L37.25 -87.95 37.25 -57.6 29.05 -57.6 29.05 -87.95 24.6 -87.95 24.6 -96.5 41.7 -96.5 41.7 -87.95 M23.55 -87.95 L18.55 -87.95 18.55 -81.7 23.25 -81.7 23.25 -73.55 18.55 -73.55 18.55 -66.15 24.05 -66.15 24.05 -57.6 10.35 -57.6 10.35 -96.5 23.55 -96.5 23.55 -87.95 M8.85 -57.6 L-3.9 -57.6 -3.9 -96.5 4.3 -96.5 4.3 -66.15 8.85 -66.15 8.85 -57.6 M31.35 -30.5 L31.35 -4.7 31.1 1.5 Q30.9 3.35 29.8 5.25 28.65 7.2 26.9 8.2 25.1 9.2 22.7 9.2 20.0 9.2 17.95 8.0 15.9 6.85 14.85 4.95 13.85 3.05 13.65 0.95 13.5 -1.1 13.5 -7.6 L13.5 -30.5 21.7 -30.5 21.7 -1.6 Q21.7 0.8 21.85 1.3 22.0 1.8 22.35 1.8 22.8 1.8 22.95 1.2 L23.1 -2.1 23.1 -30.5 31.35 -30.5 M12.1 -0.15 L12.1 8.4 -0.65 8.4 -0.65 -30.5 7.55 -30.5 7.55 -0.15 12.1 -0.15 M32.7 -21.95 L32.7 -30.5 49.8 -30.5 49.8 -21.95 45.35 -21.95 45.35 8.4 37.15 8.4 37.15 -21.95 32.7 -21.95 M-6.25 -96.5 L-6.25 -87.95 -11.25 -87.95 -11.25 -81.7 -6.55 -81.7 -6.55 -73.55 -11.25 -73.55 -11.25 -66.15 -5.75 -66.15 -5.75 -57.6 -19.45 -57.6 -19.45 -96.5 -6.25 -96.5 M-30.0 -89.05 L-30.0 -80.35 -29.8 -80.35 Q-28.95 -80.35 -28.65 -80.85 -28.35 -81.4 -28.35 -83.3 L-28.35 -86.45 Q-28.35 -88.15 -28.7 -88.6 -29.05 -89.05 -30.0 -89.05 M-22.85 -93.9 Q-21.95 -92.6 -21.65 -90.8 -21.35 -89.0 -21.35 -85.4 L-21.35 -82.1 Q-21.35 -78.4 -21.95 -76.6 -22.6 -74.8 -24.2 -73.85 -25.8 -72.9 -28.35 -72.9 L-30.0 -72.9 -30.0 -57.6 -38.2 -57.6 -38.2 -96.5 -30.3 -96.5 -25.5 -95.85 Q-23.75 -95.2 -22.85 -93.9 M-40.9 -30.5 L-33.6 -29.95 Q-31.65 -29.35 -30.35 -27.05 -29.1 -24.65 -29.1 -19.65 -29.1 -15.1 -30.05 -13.4 -30.95 -11.7 -33.25 -11.65 -31.2 -11.6 -30.35 -10.25 -29.5 -8.9 -29.3 -7.8 -29.1 -6.7 -29.1 -2.1 L-29.1 8.4 -36.8 8.4 -36.8 -4.7 Q-36.8 -7.6 -37.1 -8.15 -37.35 -8.7 -38.35 -8.7 L-38.35 8.4 -46.55 8.4 -46.55 -30.5 -40.9 -30.5 M-51.05 -30.8 L-56.45 -30.8 -56.45 -37.85 -51.05 -37.85 -51.05 -30.8 M-58.85 -30.8 L-64.2 -30.8 -64.2 -37.85 -58.85 -37.85 -58.85 -30.8 M-56.6 -6.1 L-57.45 -21.1 -58.45 -6.1 -56.6 -6.1 M-51.95 -30.5 L-47.65 8.4 -56.0 8.4 -56.4 1.6 -58.4 1.6 -58.85 8.4 -67.25 8.4 -63.4 -30.5 -51.95 -30.5 M-4.05 -26.7 Q-3.3 -24.7 -3.3 -20.05 L-3.3 -18.1 -11.0 -18.1 -11.0 -21.4 Q-11.0 -23.2 -11.2 -23.55 -11.4 -23.95 -11.8 -23.95 -12.25 -23.95 -12.5 -23.4 -12.8 -22.85 -12.8 -21.5 -12.8 -19.7 -12.5 -19.05 -12.1 -18.05 -11.0 -16.8 -5.4 -12.7 -4.1 -10.15 -2.7 -7.5 -2.7 -1.8 -2.7 2.35 -3.45 4.4 -4.25 6.45 -6.4 7.85 -8.55 9.2 -11.4 9.2 -14.5 9.2 -16.7 7.6 -18.9 6.05 -19.6 3.6 -20.3 1.15 -20.3 -3.2 L-20.3 -6.15 -12.6 -6.15 -12.6 -1.05 Q-12.6 0.95 -12.4 1.35 L-11.65 1.8 Q-11.1 1.8 -10.85 1.2 -10.55 0.6 -10.55 -0.8 -10.55 -3.95 -10.95 -4.7 L-14.6 -8.25 -18.35 -11.85 Q-19.3 -13.0 -19.9 -15.0 -20.55 -17.05 -20.55 -20.2 -20.55 -24.7 -19.65 -26.8 -18.75 -28.95 -16.75 -30.15 -14.8 -31.35 -12.05 -31.35 -9.05 -31.35 -6.9 -30.0 -4.75 -28.75 -4.05 -26.7 M-37.2 -15.9 Q-36.8 -16.25 -36.8 -18.5 L-36.8 -20.6 Q-36.8 -22.2 -37.2 -22.65 -37.55 -23.05 -38.35 -23.05 L-38.35 -15.55 Q-37.55 -15.55 -37.2 -15.9" fill="none" stroke="#000000" stroke-linecap="round" stroke-linejoin="round" stroke-width="1.0"/>
  </g>
</svg>
