<?xml version="1.0" encoding="UTF-8" standalone="no"?>
<svg xmlns:xlink="http://www.w3.org/1999/xlink" height="34.0px" width="123.95px" xmlns="http://www.w3.org/2000/svg">
  <g transform="matrix(1.0, 0.0, 0.0, 1.0, 62.0, 19.0)">
    <path d="M47.45 -16.0 Q52.2 -16.0 55.55 -12.9 58.95 -9.8 58.95 -5.5 L58.95 1.5 Q58.95 5.85 55.55 8.9 52.2 12.0 47.45 12.0 L-46.5 12.0 Q-51.25 12.0 -54.65 8.9 -58.0 5.85 -58.0 1.5 L-58.0 -5.5 Q-58.0 -9.8 -54.65 -12.9 -51.25 -16.0 -46.5 -16.0 L47.45 -16.0" fill="#ffffff" fill-rule="evenodd" stroke="none"/>
    <path d="M48.95 -18.0 Q53.9 -18.0 57.4 -14.5 60.95 -10.95 60.95 -6.0 L60.95 2.0 Q60.95 6.95 57.4 10.45 53.9 14.0 48.95 14.0 L-49.0 14.0 Q-53.95 14.0 -57.5 10.45 -61.0 6.95 -61.0 2.0 L-61.0 -6.0 Q-61.0 -10.95 -57.5 -14.5 -53.95 -18.0 -49.0 -18.0 L48.95 -18.0 M47.45 -16.0 L-46.5 -16.0 Q-51.25 -16.0 -54.65 -12.9 -58.0 -9.8 -58.0 -5.5 L-58.0 1.5 Q-58.0 5.85 -54.65 8.9 -51.25 12.0 -46.5 12.0 L47.45 12.0 Q52.2 12.0 55.55 8.9 58.95 5.85 58.95 1.5 L58.95 -5.5 Q58.95 -9.8 55.55 -12.9 52.2 -16.0 47.45 -16.0" fill="#cccccc" fill-rule="evenodd" stroke="none"/>
    <path d="M48.95 -18.0 L-49.0 -18.0 Q-53.95 -18.0 -57.5 -14.5 -61.0 -10.95 -61.0 -6.0 L-61.0 2.0 Q-61.0 6.95 -57.5 10.45 -53.95 14.0 -49.0 14.0 L48.95 14.0 Q53.9 14.0 57.4 10.45 60.95 6.95 60.95 2.0 L60.95 -6.0 Q60.95 -10.95 57.4 -14.5 53.9 -18.0 48.95 -18.0 Z" fill="none" stroke="#000000" stroke-linecap="round" stroke-linejoin="round" stroke-width="2.0"/>
  </g>
</svg>
