<?xml version="1.0" encoding="UTF-8" standalone="no"?>
<svg xmlns:xlink="http://www.w3.org/1999/xlink" height="93.35px" width="73.7px" xmlns="http://www.w3.org/2000/svg">
  <g transform="matrix(1.0, 0.0, 0.0, 1.0, 36.85, 46.65)">
    <path d="M20.9 -38.35 L20.8 -37.85 17.5 -31.4 15.3 -38.75 15.3 -38.85 19.05 -45.6 19.85 -45.15 29.75 -41.85 29.55 -41.25 28.6 -37.4 28.1 -37.4 20.9 -38.35 M17.95 -29.45 L21.3 -29.6 21.3 -29.15 20.8 -28.65 17.95 -29.45 M21.3 -29.15 L26.65 -34.45 27.15 -34.95 36.35 -31.05 36.35 -30.1 34.5 -23.85 28.1 -28.15 27.65 -29.1 21.35 -21.85 21.35 -20.35 21.3 -29.15 M-32.6 6.35 L-8.8 4.9 -8.75 4.7 -8.55 3.95 9.7 -0.95 11.2 11.3 11.35 14.05 -14.15 15.1 -15.6 15.6 -13.2 33.8 -13.25 33.8 -14.15 33.9 -32.15 33.55 -33.1 33.55 -32.6 6.35" fill="#999999" fill-rule="evenodd" stroke="none"/>
    <path d="M17.5 -31.4 L17.9 -30.1 17.95 -29.45 20.8 -28.65 21.3 -29.15 21.35 -20.35 21.3 -14.05 19.85 -13.55 -13.55 -17.85 -13.7 -16.95 -8.55 3.95 -8.75 4.7 -8.8 4.9 -32.6 6.35 -32.6 -32.5 -32.15 -32.5 15.2 -38.7 15.3 -38.75 17.5 -31.4 M-14.15 -17.95 L-13.55 -17.85 -14.15 -17.95 M6.25 -10.15 L6.75 -11.15 23.25 -10.65 23.75 -10.15 23.75 13.65 11.2 11.3 9.7 -0.95 9.65 -1.9 6.25 -10.15 M-14.65 -28.15 L17.95 -29.45 -14.65 -28.15 M-13.2 33.8 L-2.0 30.65 -0.55 46.2 -35.55 45.2 -36.35 44.9 -32.15 34.05 -32.15 33.55 -14.15 33.9 -13.6 33.9 -13.25 33.8 -13.2 33.8" fill="#666666" fill-rule="evenodd" stroke="none"/>
    <path d="M20.8 -37.85 L17.5 -31.4 17.9 -30.1 M17.95 -29.45 L21.3 -29.6 21.3 -30.1 M28.1 -37.4 L20.9 -38.35 M29.55 -41.25 L28.6 -37.4 M20.8 -28.65 L21.3 -29.15 21.3 -29.6 M26.65 -34.45 L21.3 -29.15 21.35 -20.35 21.3 -14.05 M21.35 -21.85 L27.65 -29.1 M28.1 -28.15 L34.5 -23.85 36.35 -30.1 M36.35 -31.05 L27.15 -34.95 M15.2 -38.7 L15.3 -38.85 15.0 -39.8 M15.2 -38.7 L-32.15 -32.5 M-32.6 -32.5 L-32.6 6.35 -8.8 4.9 M-8.75 4.7 L-8.55 3.95 -13.7 -16.95 M-13.55 -17.85 L-14.15 -17.95 M19.05 -45.6 L19.35 -46.15 M19.05 -45.6 L15.3 -38.85 15.3 -38.75 17.5 -31.4 M6.75 -11.15 L23.25 -10.65 M23.75 -10.15 L23.75 13.65 23.75 14.6 M9.65 -1.9 L6.25 -10.15 M19.85 -13.55 L-13.55 -17.85 M17.95 -29.45 L-14.65 -28.15 M19.85 -45.15 L29.75 -41.85 M23.75 13.65 L11.2 11.3 11.55 14.05 11.6 14.6 M11.55 14.05 L11.35 14.05 -14.15 15.1 M-15.6 15.6 L-13.2 33.8 -2.0 30.65 -0.55 46.2 -35.55 45.2 M-36.35 44.9 L-32.15 34.05 M-33.1 33.55 L-32.6 6.35 M11.2 11.3 L9.7 -0.95 -8.55 3.95 M-32.6 -33.0 L-32.6 -32.5 M-13.2 33.8 L-13.25 33.8 -13.6 33.9 -14.15 33.9 -32.15 33.55" fill="none" stroke="#000000" stroke-linecap="round" stroke-linejoin="round" stroke-width="1.0"/>
  </g>
</svg>
