<?xml version="1.0" encoding="UTF-8" standalone="no"?>
<svg xmlns:xlink="http://www.w3.org/1999/xlink" height="91.45px" width="93.35px" xmlns="http://www.w3.org/2000/svg">
  <g transform="matrix(1.0, 0.0, 0.0, 1.0, 46.7, 45.75)">
    <path d="M30.7 -38.0 L30.6 -37.5 27.3 -31.05 26.55 -30.85 25.1 -35.7 25.1 -38.5 25.1 -38.55 28.85 -45.25 39.55 -41.5 37.9 -37.05 30.7 -38.0 M27.75 -26.3 L30.95 -25.8 31.1 -26.0 31.1 -25.8 29.55 -25.8 27.75 -26.3 M1.25 7.1 L17.05 21.15 8.95 30.4 6.85 32.75 -7.3 20.55 -22.45 35.55 -22.45 35.5 -22.5 35.5 -22.8 35.35 -35.0 21.4 -35.6 20.7 -22.8 10.05 -22.8 9.5 -22.75 10.1 -22.7 10.1 1.25 7.1 M36.45 -26.05 L36.95 -26.55 46.15 -22.65 46.15 -21.7 44.3 -15.45 37.9 -19.75 37.45 -20.7 31.15 -13.45 31.15 -12.35 30.9 -20.95 31.1 -20.95 31.1 -20.75 36.45 -26.05" fill="#999999" fill-rule="evenodd" stroke="none"/>
    <path d="M26.55 -30.85 L27.75 -26.3 28.05 -25.1 28.05 -24.1 30.75 -24.05 30.75 -23.55 31.15 -6.7 -3.7 -14.7 -3.9 -13.8 1.25 7.1 -22.7 10.1 -22.8 9.5 -22.8 -29.85 -22.9 -30.3 24.4 -40.7 25.1 -40.7 25.1 -38.55 25.1 -38.5 25.1 -35.7 26.55 -30.85 M17.05 21.15 L21.55 12.45 33.25 24.75 33.25 25.45 15.55 41.3 8.95 30.4 17.05 21.15 M-22.45 35.55 L-13.15 34.1 -12.7 34.35 -12.7 44.95 -12.9 45.2 -29.95 45.2 -30.2 44.9 -45.85 26.75 -46.2 25.9 -35.35 21.75 -35.0 21.4 -22.8 35.35 -22.5 35.5 -22.45 35.5 -22.45 35.55 M-4.35 -14.8 L-3.75 -14.7 -3.7 -14.7 -3.75 -14.7 -4.35 -14.8 M28.05 -24.1 L-5.25 -24.8 28.05 -24.1" fill="#666666" fill-rule="evenodd" stroke="none"/>
    <path d="M30.6 -37.5 L27.3 -31.05 M26.55 -30.85 L27.75 -26.3 28.05 -25.1 M28.05 -24.1 L30.75 -24.05 M30.75 -23.55 L31.15 -6.7 -3.7 -14.7 -3.75 -14.7 -4.35 -14.8 M-3.9 -13.8 L1.25 7.1 17.05 21.15 21.55 12.45 33.25 24.75 M33.25 25.45 L15.55 41.3 8.95 30.4 6.85 32.75 M-7.3 20.55 L-22.45 35.55 M-30.2 44.9 L-45.85 26.75 M-46.2 25.9 L-35.35 21.75 M-35.6 20.7 L-22.8 10.05 -22.8 9.5 -22.8 -29.85 M25.1 -40.7 L25.1 -38.55 28.85 -45.25 39.55 -41.5 37.9 -37.05 30.7 -38.0 M36.45 -26.05 L31.1 -20.75 M31.15 -13.45 L37.45 -20.7 M37.9 -19.75 L44.3 -15.45 46.15 -21.7 M46.15 -22.65 L36.95 -26.55 M26.55 -30.85 L25.1 -35.7 25.1 -38.5 25.1 -38.55 M-22.8 9.5 L-22.75 10.1 -22.7 10.1 1.25 7.1 M-22.45 35.5 L-22.5 35.5 -22.8 35.35 -35.0 21.4 M-22.45 35.5 L-22.45 35.55 M8.95 30.4 L17.05 21.15 M-5.25 -24.8 L28.05 -24.1" fill="none" stroke="#000000" stroke-linecap="round" stroke-linejoin="round" stroke-width="1.0"/>
    <path d="M6.85 32.75 L-7.3 20.55 M-22.45 35.55 L-13.15 34.1 M-12.7 34.35 L-12.7 44.95 M-12.9 45.2 L-29.95 45.2 M-22.9 -30.3 L24.4 -40.7" fill="none" stroke="#000000" stroke-linecap="round" stroke-linejoin="round" stroke-width="1.0"/>
  </g>
</svg>
