<?xml version="1.0" encoding="UTF-8" standalone="no"?>
<svg xmlns:xlink="http://www.w3.org/1999/xlink" height="76.35px" width="114.85px" xmlns="http://www.w3.org/2000/svg">
  <g transform="matrix(1.0, 0.0, 0.0, 1.0, 74.8, 45.75)">
    <path d="M30.7 -38.0 L30.6 -37.5 27.3 -31.05 26.55 -30.85 25.1 -35.7 25.1 -38.5 25.1 -38.55 28.85 -45.25 39.55 -41.5 37.9 -37.05 30.7 -38.0 M-0.75 -7.9 L15.05 6.15 6.95 15.4 4.85 17.75 -9.3 5.55 -24.45 20.55 -24.45 20.5 -24.5 20.5 -24.8 20.35 -37.0 6.4 -37.6 5.7 -36.85 5.05 -24.8 -4.95 -24.8 -5.5 -24.75 -4.9 -24.7 -4.9 -0.75 -7.9 M-54.75 -38.5 L-55.8 -32.35 -56.3 -32.45 -62.5 -35.4 -62.8 -36.0 -69.9 -32.4 -73.85 -35.85 -64.25 -45.1 -63.7 -45.1 -55.45 -38.65 -54.75 -38.5" fill="#999999" fill-rule="evenodd" stroke="none"/>
    <path d="M26.55 -30.85 L28.05 -25.1 28.1 -24.8 -4.75 -21.65 -5.95 -21.45 -0.75 -7.9 -24.7 -4.9 -24.8 -5.5 -22.8 -20.05 -22.8 -20.8 -22.8 -21.05 -56.3 -26.55 -56.8 -26.65 -55.8 -32.35 -54.75 -38.5 -54.25 -41.3 -22.85 -30.3 -22.15 -30.45 24.4 -40.7 25.1 -40.7 25.1 -38.55 25.1 -38.5 25.1 -35.7 26.55 -30.85 M15.05 6.15 L19.55 -2.55 31.25 9.75 31.25 10.45 13.55 26.3 6.95 15.4 15.05 6.15 M-24.45 20.55 L-24.1 21.25 -31.8 30.1 -32.2 29.9 -50.2 9.1 -50.35 8.85 -41.95 -4.0 -41.2 -3.5 -37.1 4.75 -36.85 5.05 -37.6 5.7 -37.0 6.4 -24.8 20.35 -24.5 20.5 -24.45 20.5 -24.45 20.55" fill="#666666" fill-rule="evenodd" stroke="none"/>
    <path d="M30.6 -37.5 L27.3 -31.05 M26.55 -30.85 L28.05 -25.1 M28.1 -24.8 L-4.75 -21.65 -5.95 -21.45 -0.75 -7.9 15.05 6.15 19.55 -2.55 31.25 9.75 M31.25 10.45 L13.55 26.3 6.95 15.4 4.85 17.75 M-9.3 5.55 L-24.45 20.55 M-32.2 29.9 L-50.2 9.1 M25.1 -38.55 L28.85 -45.25 39.55 -41.5 37.9 -37.05 30.7 -38.0 M-22.8 -20.8 L-22.8 -20.05 -24.8 -5.5 -24.75 -4.9 -24.7 -4.9 -0.75 -7.9 M25.1 -38.55 L25.1 -40.7 M26.55 -30.85 L25.1 -35.7 25.1 -38.5 25.1 -38.55 M6.95 15.4 L15.05 6.15 M-24.8 -4.95 L-24.8 -5.5 M-37.6 5.7 L-36.85 5.05 -24.8 -4.95 M-24.45 20.5 L-24.45 20.55 M-24.45 20.5 L-24.5 20.5 -24.8 20.35 -37.0 6.4" fill="none" stroke="#000000" stroke-linecap="round" stroke-linejoin="round" stroke-width="1.0"/>
    <path d="M4.85 17.75 L-9.3 5.55 M-24.1 21.25 L-31.8 30.1 M-50.35 8.85 L-41.95 -4.0 -41.5 -4.7 M24.4 -40.7 L-22.15 -30.45 -22.85 -30.3 -54.25 -41.3 -54.75 -38.5 -55.8 -32.35 -56.8 -26.65 M-56.3 -26.55 L-22.8 -21.05 M-55.45 -38.65 L-63.7 -45.1 M-64.25 -45.1 L-73.85 -35.85 -69.9 -32.4 -62.8 -36.0 M-62.5 -35.4 L-56.3 -32.45 M-74.3 -36.25 L-73.85 -35.85 M-37.1 4.75 L-41.2 -3.5" fill="none" stroke="#000000" stroke-linecap="round" stroke-linejoin="round" stroke-width="1.0"/>
  </g>
</svg>
