<?xml version="1.0" encoding="UTF-8" standalone="no"?>
<svg xmlns:xlink="http://www.w3.org/1999/xlink" height="41.4px" width="40.0px" xmlns="http://www.w3.org/2000/svg">
  <g transform="matrix(1.0, 0.0, 0.0, 1.0, 19.9, 20.8)">
    <path d="M17.45 -14.95 Q19.1 -14.7 20.1 -13.65 20.15 -12.6 18.55 -11.05 16.95 -9.55 17.15 -8.3 15.45 -4.2 10.65 -1.75 L6.75 4.1 Q4.2 7.4 1.1 8.25 L-1.8 9.0 Q-2.05 11.1 -0.9 11.35 1.3 11.4 5.2 13.35 6.1 14.05 5.65 15.8 5.05 15.9 4.75 16.85 4.4 17.8 3.75 17.9 2.8 18.15 1.8 17.15 0.55 15.95 0.0 15.8 1.05 17.35 0.75 18.55 0.65 19.4 -0.8 19.55 -1.2 19.3 -2.0 19.0 -2.6 20.4 -3.15 20.55 -4.05 20.75 -5.1 19.8 -5.5 17.75 -7.45 16.35 L-9.35 16.35 Q-10.35 16.3 -10.8 15.45 -10.7 14.6 -9.85 14.05 L-8.45 13.1 Q-10.9 9.9 -10.8 7.8 -15.75 6.4 -18.45 2.15 -21.5 -4.6 -18.2 -8.2 -15.95 -9.25 -10.45 -9.85 -5.05 -10.45 -2.8 -11.5 -2.1 -12.25 0.0 -16.05 1.55 -18.9 3.65 -19.75 9.25 -22.0 13.55 -19.4 15.0 -18.4 17.45 -14.95 M-4.7 9.55 L-6.25 9.35 Q-7.15 9.8 -6.65 10.75 L-5.8 12.25 Q-5.25 11.8 -4.0 11.35 L-4.7 9.55" fill="#000000" fill-rule="evenodd" stroke="none"/>
    <path d="M14.25 -12.3 Q13.9 -11.35 15.15 -10.15 16.25 -9.05 15.55 -8.2 13.15 -4.5 8.85 -2.4 L6.25 1.9 Q4.65 4.45 2.65 5.45 -0.25 8.1 -6.25 7.25 -6.6 8.15 -8.1 8.9 -9.4 9.15 -9.55 8.25 L-9.75 7.0 Q-9.75 6.2 -10.25 5.9 -11.05 7.15 -13.1 5.25 -16.05 2.35 -16.95 0.25 -18.15 -2.45 -17.2 -5.85 -16.05 -7.15 -13.65 -7.7 L-9.7 -8.4 -3.0 -9.85 Q-1.15 -10.35 -0.1 -13.05 1.15 -16.1 2.2 -16.85 7.0 -20.1 10.1 -19.2 14.2 -18.5 15.9 -15.2 14.85 -14.65 14.25 -12.3" fill="#ffe066" fill-rule="evenodd" stroke="none"/>
    <path d="M18.0 -13.95 L19.0 -13.4 Q18.3 -12.75 15.55 -11.95 15.45 -13.65 16.35 -14.2 L18.0 -13.95" fill="#ffb31a" fill-rule="evenodd" stroke="none"/>
    <path d="M10.95 -12.3 Q11.25 -11.6 10.3 -10.4 L7.85 -10.3 Q6.95 -10.65 7.55 -12.2 8.0 -13.15 9.3 -13.15 10.6 -13.2 10.95 -12.3" fill="#000000" fill-rule="evenodd" stroke="none"/>
    <path d="M9.4 -11.75 Q9.3 -11.5 8.85 -11.5 8.65 -11.75 8.75 -11.95 9.7 -12.25 9.4 -11.75" fill="#ffffff" fill-rule="evenodd" stroke="none"/>
    <path d="M16.45 -10.65 Q15.25 -11.6 18.0 -11.95 L16.45 -10.65" fill="#ffb31a" fill-rule="evenodd" stroke="none"/>
    <path d="M-7.55 -4.5 L-8.85 -4.4 Q-9.75 -4.6 -9.9 -3.85 L-9.2 -3.35 Q-8.8 -3.05 -8.9 -2.65 -9.45 -2.35 -10.5 -2.9 -11.65 -3.5 -12.25 -3.3 -12.7 -3.0 -12.8 -1.2 -11.25 1.95 -9.0 1.9 -5.95 2.75 -2.0 -1.4 -0.95 -3.65 0.1 -3.55 0.2 -2.4 -0.75 -1.3 L-2.45 0.6 Q-5.15 3.45 -8.9 3.0 -12.7 2.1 -13.65 -0.3 -14.35 -2.0 -14.25 -3.3 -13.7 -4.2 -12.65 -4.4 -12.05 -4.0 -10.9 -5.0 -9.7 -6.05 -8.9 -5.4 L-7.55 -4.5" fill="#000000" fill-rule="evenodd" stroke="none"/>
    <path d="M-2.8 9.35 Q-2.75 12.15 -1.7 12.9 -1.6 12.55 -0.25 12.7 3.4 13.5 4.75 14.7 L4.85 15.35 Q4.4 15.35 3.55 14.35 2.1 14.05 -0.25 12.9 L-0.55 13.7 1.3 14.45 Q3.35 15.55 3.85 16.55 3.1 17.25 2.15 16.25 L0.75 14.9 Q-0.55 13.65 -5.1 13.1 -4.7 12.55 -3.7 12.7 -3.5 13.0 -3.15 12.9 -2.6 12.25 -3.0 11.15 L-3.45 9.35 -2.8 9.35" fill="#ffb34d" fill-rule="evenodd" stroke="none"/>
    <path d="M-6.55 12.9 Q-6.5 13.5 -5.9 14.0 -3.35 14.8 -0.7 17.1 L-0.35 18.35 Q-0.95 18.35 -1.65 17.35 -2.45 16.25 -3.0 16.1 L-5.1 14.9 Q-5.45 14.9 -5.6 15.25 -5.75 15.65 -5.55 15.9 -3.2 17.6 -3.45 19.0 -4.55 18.8 -5.25 17.0 -7.35 14.7 -9.1 15.35 -9.2 14.8 -8.15 14.3 -7.15 13.8 -7.35 12.9 L-8.9 10.45 Q-8.1 10.35 -7.55 11.3 L-6.55 12.9" fill="#ffb34d" fill-rule="evenodd" stroke="none"/>
    <path d="M-0.15 15.8 Q-1.2 15.0 -0.35 15.55 L-0.15 15.8" fill="#ffffff" fill-rule="evenodd" stroke="none"/>
  </g>
</svg>
