<?xml version="1.0" encoding="UTF-8" standalone="no"?>
<svg xmlns:xlink="http://www.w3.org/1999/xlink" height="39.75px" width="40.0px" xmlns="http://www.w3.org/2000/svg">
  <g transform="matrix(1.0, 0.0, 0.0, 1.0, 20.0, 20.8)">
    <path d="M-12.9 10.3 L-12.65 11.6 Q-10.5 13.4 -9.0 16.4 L-9.15 17.7 Q-9.7 17.45 -10.0 16.25 -10.3 15.0 -10.8 14.65 L-12.3 12.7 -12.9 12.85 -13.05 13.45 Q-11.5 15.9 -12.25 17.15 -13.2 16.55 -13.15 14.65 -14.25 11.7 -16.15 11.65 -16.05 11.1 -14.85 11.0 -13.7 10.95 -13.6 10.05 L-14.15 7.2 Q-13.4 7.4 -13.2 8.45 L-12.9 10.3 Z" fill="none" stroke="#000000" stroke-linecap="round" stroke-linejoin="round" stroke-width="2.5"/>
    <path d="M9.25 8.5 Q12.95 7.95 14.65 8.5 L15.0 9.1 Q14.6 9.25 13.4 8.65 11.95 8.95 9.35 8.7 L9.3 9.55 11.35 9.6 Q13.6 9.7 14.5 10.6 14.05 11.5 12.85 10.95 11.15 10.2 11.0 10.2 9.4 9.5 4.9 10.7 5.0 10.1 6.05 9.75 6.3 9.95 6.65 9.75 6.9 8.95 6.15 8.1 L5.05 6.6 5.65 6.35 Q6.7 8.9 8.0 9.25 8.0 9.0 9.25 8.5 Z" fill="none" stroke="#000000" stroke-linecap="round" stroke-linejoin="round" stroke-width="3.0"/>
    <path d="M6.65 4.1 Q4.1 7.4 1.05 8.25 L-1.85 9.05 -10.85 7.8 Q-15.8 6.5 -18.5 2.15 -21.55 -4.55 -18.3 -8.15 -16.0 -9.2 -10.5 -9.8 -5.1 -10.45 -2.85 -11.5 -2.15 -12.25 -0.05 -16.05 1.5 -18.95 3.6 -19.75 9.2 -22.0 13.45 -19.4 14.85 -18.5 17.35 -15.0 19.05 -14.7 20.0 -13.65 20.05 -12.55 18.4 -11.0 16.85 -9.55 17.0 -8.25 15.45 -4.3 10.6 -1.7 L6.65 4.1" fill="#000000" fill-rule="evenodd" stroke="none"/>
    <path d="M15.8 -15.2 Q14.75 -14.6 14.15 -12.25 13.8 -11.3 15.05 -10.1 16.2 -9.05 15.45 -8.15 12.9 -4.35 8.8 -2.4 7.85 -1.1 6.2 1.9 4.6 4.5 2.6 5.5 -0.4 8.2 -6.3 7.25 -6.65 8.25 -8.2 8.95 -9.4 9.2 -9.6 8.25 L-9.8 7.05 Q-9.8 6.25 -10.3 5.95 -11.1 7.2 -13.15 5.25 -16.1 2.35 -17.0 0.25 -18.25 -2.45 -17.3 -5.85 -16.15 -7.1 -13.7 -7.65 L-9.75 -8.4 -3.05 -9.85 Q-1.2 -10.35 -0.15 -13.0 1.1 -16.1 2.15 -16.85 7.0 -20.15 10.05 -19.2 14.05 -18.6 15.8 -15.2" fill="#ffe066" fill-rule="evenodd" stroke="none"/>
    <path d="M17.9 -14.0 Q18.65 -13.8 18.9 -13.4 18.1 -12.6 15.45 -11.95 15.35 -13.65 16.25 -14.2 L17.9 -14.0" fill="#ffb31a" fill-rule="evenodd" stroke="none"/>
    <path d="M10.9 -12.25 Q11.25 -11.55 10.25 -10.4 L7.8 -10.25 Q6.95 -10.55 7.45 -12.15 7.95 -13.1 9.25 -13.1 10.55 -13.15 10.9 -12.25" fill="#000000" fill-rule="evenodd" stroke="none"/>
    <path d="M9.35 -11.7 Q9.15 -11.45 8.8 -11.5 8.6 -11.75 8.7 -11.95 9.65 -12.25 9.35 -11.7" fill="#ffffff" fill-rule="evenodd" stroke="none"/>
    <path d="M16.35 -10.6 Q15.15 -11.55 17.9 -11.95 L16.35 -10.6" fill="#ffb31a" fill-rule="evenodd" stroke="none"/>
    <path d="M-2.5 0.6 Q-5.2 3.5 -8.95 3.05 -12.75 2.05 -13.75 -0.3 -14.4 -2.0 -14.3 -3.3 -13.75 -4.2 -12.75 -4.4 -12.15 -3.95 -10.95 -4.95 -9.75 -6.0 -8.95 -5.4 L-7.6 -4.5 -8.9 -4.35 Q-9.8 -4.55 -9.95 -3.85 L-9.25 -3.35 Q-8.85 -3.05 -8.95 -2.6 -9.5 -2.3 -10.55 -2.85 -11.7 -3.5 -12.3 -3.3 -12.75 -3.0 -12.85 -1.15 -11.25 2.0 -9.05 1.95 -5.95 2.8 -2.05 -1.4 -1.0 -3.65 0.05 -3.5 0.15 -2.35 -0.8 -1.3 L-2.5 0.6" fill="#000000" fill-rule="evenodd" stroke="none"/>
    <path d="M9.25 8.5 Q12.95 7.95 14.65 8.5 L15.0 9.1 Q14.6 9.25 13.4 8.65 11.95 8.95 9.35 8.7 L9.3 9.55 11.35 9.6 Q13.6 9.7 14.5 10.6 14.05 11.5 12.85 10.95 11.15 10.2 11.0 10.2 9.4 9.5 4.9 10.7 5.0 10.1 6.05 9.75 6.3 9.95 6.65 9.75 6.9 8.95 6.15 8.1 L5.05 6.6 5.65 6.35 Q6.7 8.9 8.0 9.25 8.0 9.0 9.25 8.5" fill="#ffb34d" fill-rule="evenodd" stroke="none"/>
    <path d="M-12.9 10.3 L-12.65 11.6 Q-10.5 13.4 -9.0 16.4 L-9.15 17.7 Q-9.7 17.45 -10.0 16.25 -10.3 15.0 -10.8 14.65 L-12.3 12.7 -12.9 12.85 -13.05 13.45 Q-11.5 15.9 -12.25 17.15 -13.2 16.55 -13.15 14.65 -14.25 11.7 -16.15 11.65 -16.05 11.1 -14.85 11.0 -13.7 10.95 -13.6 10.05 L-14.15 7.2 Q-13.4 7.4 -13.2 8.45 L-12.9 10.3" fill="#ffb34d" fill-rule="evenodd" stroke="none"/>
  </g>
</svg>
