<?xml version="1.0" encoding="UTF-8" standalone="no"?>
<svg xmlns:xlink="http://www.w3.org/1999/xlink" height="39.0px" width="40.0px" xmlns="http://www.w3.org/2000/svg">
  <g transform="matrix(1.0, 0.0, 0.0, 1.0, 20.0, 20.9)">
    <path d="M8.8 8.85 L8.35 9.25 Q8.2 9.65 8.45 9.9 11.0 11.3 10.85 12.8 10.2 12.75 9.75 12.1 L8.9 10.95 Q6.55 8.9 4.85 9.7 4.7 9.2 5.7 8.55 6.7 7.95 6.4 7.1 L4.6 4.8 Q5.35 4.65 6.05 5.5 L7.15 7.0 Q7.3 7.65 7.95 8.05 10.65 8.6 13.45 10.65 L13.9 11.8 Q13.3 11.9 12.45 11.0 11.55 9.95 11.0 9.85 L8.8 8.85 Z" fill="none" stroke="#000000" stroke-linecap="round" stroke-linejoin="round" stroke-width="2.5"/>
    <path d="M-13.45 7.15 Q-13.45 7.5 -14.0 9.0 -14.4 10.15 -14.0 10.85 -13.8 10.65 -12.6 11.25 L-10.65 13.1 Q-9.4 14.3 -9.0 15.25 L-9.2 15.9 -9.95 14.4 Q-11.5 12.35 -12.7 11.45 L-13.35 12.0 -12.0 13.55 Q-10.6 15.4 -10.6 16.55 -11.6 16.8 -12.0 15.55 L-12.7 13.7 Q-13.3 12.05 -17.2 9.55 L-15.7 9.75 -15.3 10.2 Q-14.55 9.85 -14.4 8.7 L-14.05 6.85 -13.45 7.15 Z" fill="none" stroke="#000000" stroke-linecap="round" stroke-linejoin="round" stroke-width="3.0"/>
    <path d="M17.35 -15.15 Q19.05 -14.85 20.0 -13.75 20.05 -12.7 18.4 -11.15 16.8 -9.7 17.0 -8.4 15.45 -4.45 10.55 -1.85 L6.65 3.95 Q4.1 7.25 1.0 8.1 L-1.85 8.9 -6.55 8.25 -8.65 10.0 -10.85 7.65 Q-15.9 6.3 -18.5 2.0 -21.55 -4.7 -18.3 -8.3 -16.0 -9.35 -10.5 -9.95 -5.1 -10.6 -2.85 -11.65 -2.1 -12.4 -0.1 -16.2 1.45 -19.1 3.55 -19.9 9.1 -22.1 13.45 -19.55 14.85 -18.65 17.35 -15.15" fill="#000000" fill-rule="evenodd" stroke="none"/>
    <path d="M14.1 -12.4 Q13.75 -11.45 15.05 -10.25 16.2 -9.2 15.45 -8.3 12.95 -4.55 8.8 -2.55 7.85 -1.25 6.2 1.75 4.55 4.35 2.55 5.35 -0.4 8.05 -6.3 7.1 -6.75 8.1 -8.2 8.8 -9.4 9.05 -9.65 8.1 L-9.85 6.9 Q-9.8 6.1 -10.3 5.8 -11.15 7.05 -13.2 5.1 -16.1 2.2 -17.05 0.1 -18.25 -2.6 -17.3 -6.0 -16.15 -7.25 -13.75 -7.8 L-9.75 -8.55 -3.1 -10.0 Q-1.25 -10.5 -0.15 -13.15 1.1 -16.25 2.15 -17.0 7.0 -20.3 10.0 -19.35 13.95 -18.75 15.8 -15.35 14.8 -14.8 14.1 -12.4" fill="#ffe066" fill-rule="evenodd" stroke="none"/>
    <path d="M17.9 -14.1 Q18.15 -13.7 18.9 -13.55 18.1 -12.75 15.45 -12.1 15.25 -13.7 16.2 -14.35 16.65 -13.9 17.9 -14.1" fill="#ffb31a" fill-rule="evenodd" stroke="none"/>
    <path d="M10.9 -12.4 Q11.2 -11.8 10.25 -10.55 L7.8 -10.4 Q6.95 -10.7 7.45 -12.3 7.95 -13.25 9.25 -13.25 10.55 -13.3 10.9 -12.4" fill="#000000" fill-rule="evenodd" stroke="none"/>
    <path d="M9.35 -11.85 Q9.15 -11.55 8.8 -11.65 8.6 -11.9 8.7 -12.1 9.6 -12.4 9.35 -11.85" fill="#ffffff" fill-rule="evenodd" stroke="none"/>
    <path d="M16.35 -10.75 Q15.6 -11.3 16.45 -11.6 L17.9 -12.1 16.35 -10.75" fill="#ffb31a" fill-rule="evenodd" stroke="none"/>
    <path d="M-2.55 0.45 Q-5.2 3.35 -8.95 2.9 -12.75 1.9 -13.75 -0.45 -14.45 -2.25 -14.3 -3.45 -13.75 -4.35 -12.75 -4.55 -12.15 -4.1 -11.0 -5.1 -9.8 -6.15 -8.95 -5.55 L-7.65 -4.65 -8.95 -4.5 Q-9.8 -4.7 -9.95 -4.0 L-9.3 -3.5 Q-8.85 -3.2 -8.95 -2.75 -9.5 -2.45 -10.55 -3.0 -11.7 -3.65 -12.3 -3.45 -12.75 -3.15 -12.85 -1.3 -11.25 1.85 -9.1 1.8 -5.9 2.7 -2.1 -1.55 -1.7 -1.8 -1.05 -2.9 -0.55 -3.75 0.0 -3.65 0.1 -2.5 -0.8 -1.45 L-2.55 0.45" fill="#000000" fill-rule="evenodd" stroke="none"/>
    <path d="M-13.45 7.15 Q-13.45 7.5 -14.0 9.0 -14.4 10.15 -14.0 10.85 -13.8 10.65 -12.6 11.25 L-10.65 13.1 Q-9.4 14.3 -9.0 15.25 L-9.2 15.9 -9.95 14.4 Q-11.5 12.35 -12.7 11.45 L-13.35 12.0 -12.0 13.55 Q-10.6 15.4 -10.6 16.55 -11.6 16.8 -12.0 15.55 L-12.7 13.7 Q-13.3 12.05 -17.2 9.55 L-15.7 9.75 -15.3 10.2 Q-14.55 9.85 -14.4 8.7 L-14.05 6.85 -13.45 7.15" fill="#ffb34d" fill-rule="evenodd" stroke="none"/>
    <path d="M8.8 8.85 L8.35 9.25 Q8.2 9.65 8.45 9.9 11.0 11.3 10.85 12.8 10.2 12.75 9.75 12.1 L8.9 10.95 Q6.55 8.9 4.85 9.7 4.7 9.2 5.7 8.55 6.7 7.95 6.4 7.1 L4.6 4.8 Q5.35 4.65 6.05 5.5 L7.15 7.0 Q7.3 7.65 7.95 8.05 10.65 8.6 13.45 10.65 L13.9 11.8 Q13.3 11.9 12.45 11.0 11.55 9.95 11.0 9.85 L8.8 8.85" fill="#ffb34d" fill-rule="evenodd" stroke="none"/>
  </g>
</svg>
