<?xml version="1.0" encoding="UTF-8" standalone="no"?>
<svg xmlns:xlink="http://www.w3.org/1999/xlink" height="51.45px" width="39.0px" xmlns="http://www.w3.org/2000/svg">
  <g transform="matrix(1.0, 0.0, 0.0, 1.0, 19.15, 25.75)">
    <path d="M-6.85 14.7 L-6.5 12.85 Q-6.25 11.75 -5.65 11.45 -6.15 14.45 -6.75 15.1 -6.8 15.6 -6.45 15.9 -5.75 15.95 -5.3 14.9 -4.85 13.8 -4.2 13.9 L-3.4 13.9 Q-2.9 13.95 -3.25 14.6 L-4.45 15.7 -5.85 16.7 Q-9.25 20.75 -10.95 23.45 L-11.5 23.0 Q-11.7 22.55 -11.5 22.1 -11.0 20.75 -9.75 19.15 L-7.65 16.55 -7.85 16.2 -12.4 20.2 -13.25 20.15 Q-13.75 20.1 -13.5 19.55 -12.65 18.05 -10.9 17.0 L-8.0 15.35 Q-7.65 15.85 -7.35 15.45 L-6.85 14.7" fill="#ffb34d" fill-rule="evenodd" stroke="none"/>
    <path d="M-6.85 14.7 L-6.5 12.85 Q-6.25 11.75 -5.65 11.45 -6.15 14.45 -6.75 15.1 -6.8 15.6 -6.45 15.9 -5.75 15.95 -5.3 14.9 -4.85 13.8 -4.2 13.9 L-3.4 13.9 Q-2.9 13.95 -3.25 14.6 L-4.45 15.7 -5.85 16.7 Q-9.25 20.75 -10.95 23.45 L-11.5 23.0 Q-11.7 22.55 -11.5 22.1 -11.0 20.75 -9.75 19.15 L-7.65 16.55 -7.85 16.2 -12.4 20.2 -13.25 20.15 Q-13.75 20.1 -13.5 19.55 -12.65 18.05 -10.9 17.0 L-8.0 15.35 Q-7.65 15.85 -7.35 15.45 L-6.85 14.7 Z" fill="none" stroke="#000000" stroke-linecap="round" stroke-linejoin="round" stroke-width="4.5"/>
    <path d="M-2.1 -23.5 Q2.45 -23.0 4.2 -20.25 5.75 -18.2 6.0 -13.9 6.35 -8.15 6.55 -7.35 7.3 -5.05 10.1 -2.7 12.5 -0.6 12.95 2.95 12.9 7.55 10.85 10.1 5.0 15.35 -0.2 14.25 L-6.75 10.5 Q-7.9 8.25 -7.3 4.4 L-6.2 -2.55 Q-10.5 -10.0 -9.2 -15.3 -6.3 -23.3 -2.1 -23.5" fill="#ffe066" fill-rule="evenodd" stroke="none"/>
    <path d="M-2.1 -23.5 Q2.45 -23.0 4.2 -20.25 5.75 -18.2 6.0 -13.9 6.35 -8.15 6.55 -7.35 7.3 -5.05 10.1 -2.7 12.5 -0.6 12.95 2.95 12.9 7.55 10.85 10.1 5.0 15.35 -0.2 14.25 L-6.75 10.5 Q-7.9 8.25 -7.3 4.4 L-6.2 -2.55 Q-10.5 -10.0 -9.2 -15.3 -6.3 -23.3 -2.1 -23.5 Z" fill="none" stroke="#000000" stroke-linecap="round" stroke-linejoin="round" stroke-width="4.5"/>
    <path d="M6.05 -8.45 L7.0 -9.9 Q8.2 -11.3 9.65 -11.0 L13.65 -10.9 Q15.65 -10.7 14.65 -9.05 13.85 -7.7 16.4 -8.95 L17.55 -9.4 Q17.75 -9.25 16.4 -7.85 L12.55 -3.5 Q11.4 -2.2 10.3 -2.1 8.7 -2.0 6.95 -4.25 5.1 -6.65 6.05 -8.45" fill="#ffe066" fill-rule="evenodd" stroke="none"/>
    <path d="M6.05 -8.45 L7.0 -9.9 Q8.2 -11.3 9.65 -11.0 L13.65 -10.9 Q15.65 -10.7 14.65 -9.05 13.85 -7.7 16.4 -8.95 L17.55 -9.4 Q17.75 -9.25 16.4 -7.85 L12.55 -3.5 Q11.4 -2.2 10.3 -2.1 8.7 -2.0 6.95 -4.25 5.1 -6.65 6.05 -8.45 Z" fill="none" stroke="#000000" stroke-linecap="round" stroke-linejoin="round" stroke-width="4.5"/>
    <path d="M-5.4 -3.3 Q-4.45 -1.55 -6.3 0.9 -8.05 3.15 -9.6 3.05 -10.75 2.95 -11.9 1.65 L-15.7 -2.7 -16.9 -4.25 -15.75 -3.8 Q-13.2 -2.6 -14.0 -3.9 -15.0 -5.6 -13.0 -5.75 L-9.0 -5.9 Q-6.65 -6.35 -5.4 -3.3" fill="#ffe066" fill-rule="evenodd" stroke="none"/>
    <path d="M-5.4 -3.3 Q-6.65 -6.35 -9.0 -5.9 L-13.0 -5.75 Q-15.0 -5.6 -14.0 -3.9 -13.2 -2.6 -15.75 -3.8 L-16.9 -4.25 -15.7 -2.7 -11.9 1.65 Q-10.75 2.95 -9.6 3.05 -8.05 3.15 -6.3 0.9 -4.45 -1.55 -5.4 -3.3 Z" fill="none" stroke="#000000" stroke-linecap="round" stroke-linejoin="round" stroke-width="4.5"/>
    <path d="M-2.1 -23.5 Q2.45 -23.0 4.2 -20.25 5.75 -18.2 6.0 -13.9 6.35 -8.15 6.55 -7.35 7.3 -5.05 10.1 -2.7 12.5 -0.6 12.95 2.95 12.9 7.55 10.85 10.1 5.0 15.35 -0.2 14.25 L-6.75 10.5 Q-7.9 8.25 -7.3 4.4 L-6.2 -2.55 Q-10.5 -10.0 -9.2 -15.3 -6.3 -23.3 -2.1 -23.5" fill="#ffe066" fill-rule="evenodd" stroke="none"/>
    <path d="M-3.5 -17.75 Q-3.2 -16.9 -4.15 -15.5 -5.15 -14.65 -6.6 -15.35 -7.5 -15.75 -6.95 -17.65 -6.45 -18.75 -5.15 -18.8 -3.85 -18.85 -3.5 -17.75" fill="#000000" fill-rule="evenodd" stroke="none"/>
    <path d="M1.8 -18.8 Q3.1 -18.85 3.45 -17.75 3.8 -16.9 2.8 -15.5 1.85 -14.65 0.35 -15.35 -0.5 -15.75 0.05 -17.65 0.5 -18.75 1.8 -18.8" fill="#000000" fill-rule="evenodd" stroke="none"/>
    <path d="M-6.85 14.7 L-6.5 12.85 Q-6.25 11.75 -5.65 11.45 -6.15 14.45 -6.75 15.1 -6.8 15.6 -6.45 15.9 -5.75 15.95 -5.3 14.9 -4.85 13.8 -4.2 13.9 L-3.4 13.9 Q-2.9 13.95 -3.25 14.6 L-4.45 15.7 -5.85 16.7 Q-9.25 20.75 -10.95 23.45 L-11.5 23.0 Q-11.7 22.55 -11.5 22.1 -11.0 20.75 -9.75 19.15 L-7.65 16.55 -7.85 16.2 -12.4 20.2 -13.25 20.15 Q-13.75 20.1 -13.5 19.55 -12.65 18.05 -10.9 17.0 L-8.0 15.35 Q-7.65 15.85 -7.35 15.45 L-6.85 14.7" fill="#ffb34d" fill-rule="evenodd" stroke="none"/>
    <path d="M7.6 14.45 Q7.25 13.8 7.75 13.75 L8.55 13.75 Q9.2 13.7 9.65 14.75 10.1 15.85 10.8 15.8 L11.15 14.95 Q10.6 14.35 10.0 11.35 10.6 11.65 10.9 12.7 L11.25 14.6 11.7 15.35 Q12.0 15.75 12.35 15.25 L15.25 16.9 Q17.0 17.95 17.9 19.4 18.1 19.95 17.65 20.05 L16.75 20.1 12.25 16.05 12.0 16.45 14.1 19.0 Q15.4 20.6 15.9 21.95 L15.85 22.85 15.35 23.3 Q13.7 20.7 10.25 16.55 8.2 15.45 7.6 14.45" fill="#ffb34d" fill-rule="evenodd" stroke="none"/>
    <path d="M7.6 14.45 Q8.2 15.45 10.25 16.55 13.7 20.7 15.35 23.3 L15.85 22.85 15.9 21.95 Q15.4 20.6 14.1 19.0 L12.0 16.45 12.25 16.05 16.75 20.1 17.65 20.05 Q18.1 19.95 17.9 19.4 17.0 17.95 15.25 16.9 L12.35 15.25 Q12.0 15.75 11.7 15.35 L11.25 14.6 10.9 12.7 Q10.6 11.65 10.0 11.35 10.6 14.35 11.15 14.95 L10.8 15.8 Q10.1 15.85 9.65 14.75 9.2 13.7 8.55 13.75 L7.75 13.75 Q7.25 13.8 7.6 14.45 Z" fill="none" stroke="#000000" stroke-linecap="round" stroke-linejoin="round" stroke-width="2.5"/>
    <path d="M7.6 14.45 Q7.25 13.8 7.75 13.75 L8.55 13.75 Q9.2 13.7 9.65 14.75 10.1 15.85 10.8 15.8 L11.15 14.95 Q10.6 14.35 10.0 11.35 10.6 11.65 10.9 12.7 L11.25 14.6 11.7 15.35 Q12.0 15.75 12.35 15.25 L15.25 16.9 Q17.0 17.95 17.9 19.4 18.1 19.95 17.65 20.05 L16.75 20.1 12.25 16.05 12.0 16.45 14.1 19.0 Q15.4 20.6 15.9 21.95 L15.85 22.85 15.35 23.3 Q13.7 20.7 10.25 16.55 8.2 15.45 7.6 14.45" fill="#ffb34d" fill-rule="evenodd" stroke="none"/>
    <path d="M0.95 -11.85 Q0.95 -10.85 0.15 -10.1 -0.65 -9.4 -1.75 -9.4 -2.9 -9.4 -3.7 -10.1 -4.45 -10.85 -4.45 -11.85 -4.45 -12.85 -3.7 -13.55 -2.9 -14.3 -1.75 -14.3 -0.65 -14.3 0.15 -13.55 0.95 -12.85 0.95 -11.85" fill="#ffb31a" fill-rule="evenodd" stroke="none"/>
    <path d="M0.95 -11.85 Q0.95 -10.85 0.15 -10.1 -0.65 -9.4 -1.75 -9.4 -2.9 -9.4 -3.7 -10.1 -4.45 -10.85 -4.45 -11.85 -4.45 -12.85 -3.7 -13.55 -2.9 -14.3 -1.75 -14.3 -0.65 -14.3 0.15 -13.55 0.95 -12.85 0.95 -11.85 Z" fill="none" stroke="#000000" stroke-linecap="round" stroke-linejoin="round" stroke-width="1.0"/>
    <path d="M6.05 -8.45 L7.0 -9.9 Q8.2 -11.3 9.65 -11.0 L13.65 -10.9 Q15.65 -10.7 14.65 -9.05 13.85 -7.7 16.4 -8.95 L17.55 -9.4 Q17.75 -9.25 16.4 -7.85 L12.55 -3.5 Q11.4 -2.2 10.3 -2.1 8.7 -2.0 6.95 -4.25 5.1 -6.65 6.05 -8.45" fill="#ffe066" fill-rule="evenodd" stroke="none"/>
    <path d="M-5.4 -3.3 Q-4.45 -1.55 -6.3 0.9 -8.05 3.15 -9.6 3.05 -10.75 2.95 -11.9 1.65 L-15.7 -2.7 -16.9 -4.25 -15.75 -3.8 Q-13.2 -2.6 -14.0 -3.9 -15.0 -5.6 -13.0 -5.75 L-9.0 -5.9 Q-6.65 -6.35 -5.4 -3.3" fill="#ffe066" fill-rule="evenodd" stroke="none"/>
    <path d="M-5.15 -16.75 Q-5.15 -16.3 -5.4 -16.3 -5.7 -16.3 -5.7 -16.75 -5.7 -17.25 -5.4 -17.25 -5.15 -17.25 -5.15 -16.75" fill="#ffffff" fill-rule="evenodd" stroke="none"/>
    <path d="M1.8 -16.75 L1.55 -16.3 Q1.3 -16.3 1.3 -16.75 1.3 -17.25 1.55 -17.25 L1.8 -16.75" fill="#ffffff" fill-rule="evenodd" stroke="none"/>
    <path d="M-3.9 -10.2 L-2.35 -11.0 Q-0.6 -11.6 0.55 -10.2" fill="none" stroke="#000000" stroke-linecap="round" stroke-linejoin="round" stroke-width="1.0"/>
  </g>
</svg>
