<?xml version="1.0" encoding="UTF-8" standalone="no"?>
<svg xmlns:xlink="http://www.w3.org/1999/xlink" height="96.35px" width="187.75px" xmlns="http://www.w3.org/2000/svg">
  <g transform="matrix(1.0, 0.0, 0.0, 1.0, 101.05, 39.0)">
    <path d="M-67.0 -1.85 Q-67.05 2.15 -69.2 5.4 -71.35 8.65 -74.95 10.55 -78.55 12.5 -83.05 12.5 -87.85 12.45 -91.6 10.3 -91.95 10.05 -91.15 9.4 -90.35 8.75 -88.95 7.85 L-86.1 6.1 -83.85 4.5 Q-82.95 3.75 -83.2 3.45 L-85.05 3.2 -88.55 3.55 -92.6 4.05 -96.05 4.3 Q-97.45 4.35 -97.7 3.95 -99.0 1.3 -99.05 -1.85 -99.0 -5.85 -96.85 -9.1 -94.75 -12.3 -91.1 -14.2 -87.5 -16.15 -83.05 -16.2 -78.55 -16.15 -74.95 -14.25 -71.35 -12.3 -69.2 -9.05 -67.05 -5.85 -67.0 -1.85 Z" fill="none" stroke="#000000" stroke-linecap="round" stroke-linejoin="round" stroke-width="4.0"/>
    <path d="M-50.8 -0.3 Q-50.8 2.3 -52.1 4.4 -53.35 6.45 -55.5 7.7 -57.7 8.95 -60.35 8.95 L-69.9 8.95 Q-72.6 8.95 -74.75 7.7 -76.9 6.45 -78.2 4.35 -79.45 2.3 -79.5 -0.3 -79.45 -2.9 -78.2 -5.0 -76.9 -7.1 -74.75 -8.3 -72.6 -9.55 -69.9 -9.6 L-60.35 -9.6 Q-57.7 -9.55 -55.5 -8.3 -53.35 -7.1 -52.1 -5.0 -50.8 -2.9 -50.8 -0.3 Z" fill="none" stroke="#000000" stroke-linecap="round" stroke-linejoin="round" stroke-width="4.0"/>
    <path d="M-88.7 -8.55 Q-87.95 -7.85 -87.95 -6.7 -88.0 -5.55 -88.7 -4.85 -89.45 -4.1 -90.55 -4.05 L-91.0 -4.05 Q-92.1 -4.1 -92.85 -4.85 -93.55 -5.55 -93.6 -6.7 -93.55 -7.85 -92.85 -8.55 -92.1 -9.3 -91.0 -9.35 L-90.55 -9.35 Q-89.45 -9.3 -88.7 -8.55 Z" fill="none" stroke="#000000" stroke-linecap="round" stroke-linejoin="round" stroke-width="4.0"/>
    <path d="M-90.05 -6.2 Q-90.15 -5.3 -91.1 -5.2 L-91.6 -5.2 Q-92.05 -5.2 -92.35 -5.5 L-92.65 -6.2 Q-92.55 -7.15 -91.6 -7.2 L-91.1 -7.2 -90.35 -6.9 Q-90.05 -6.65 -90.05 -6.2 Z" fill="none" stroke="#000000" stroke-linecap="round" stroke-linejoin="round" stroke-width="4.0"/>
    <path d="M-62.35 5.4 Q-62.3 -1.65 -58.6 -8.0 -54.9 -14.35 -48.15 -19.65 -41.4 -24.95 -32.25 -28.8 -23.05 -32.7 -12.05 -34.85 -1.05 -36.95 11.2 -37.0 23.45 -36.95 34.45 -34.85 45.45 -32.7 54.6 -28.8 63.8 -24.95 70.5 -19.65 77.25 -14.35 80.95 -8.0 84.65 -1.65 84.7 5.4" fill="none" stroke="#000000" stroke-linecap="round" stroke-linejoin="round" stroke-width="4.0"/>
    <path d="M21.05 -33.3 Q12.4 -33.55 2.7 -32.8 -6.95 -32.05 -16.65 -29.75 -26.35 -27.45 -35.15 -23.1 -43.95 -18.7 -50.95 -11.75 -57.95 -4.75 -62.2 5.4 -62.15 -1.65 -58.45 -8.0 -54.75 -14.35 -48.0 -19.65 -41.25 -24.95 -32.1 -28.8 -22.9 -32.7 -11.9 -34.85 -0.9 -36.95 11.35 -37.0 22.35 -37.0 32.35 -35.25 42.4 -33.5 51.05 -30.3 L47.1 -31.0 36.45 -32.35 21.05 -33.3 Z" fill="none" stroke="#000000" stroke-linecap="round" stroke-linejoin="round" stroke-width="4.0"/>
    <path d="M-62.35 4.25 Q-62.3 7.45 -58.6 10.3 -54.9 13.15 -48.15 15.55 -41.4 17.9 -32.25 19.65 -23.05 21.4 -12.05 22.4 L11.2 23.35 34.45 22.4 Q45.45 21.4 54.6 19.65 63.8 17.9 70.5 15.55 77.25 13.15 80.95 10.3 84.65 7.45 84.7 4.25" fill="none" stroke="#000000" stroke-linecap="round" stroke-linejoin="round" stroke-width="4.0"/>
    <path d="M70.5 15.55 Q63.75 17.95 54.6 19.7 45.4 21.4 34.4 22.4 L11.15 23.35 -12.1 22.4 Q-23.1 21.4 -32.25 19.65 -41.45 17.95 -48.15 15.55 -54.9 13.15 -58.6 10.3 -62.3 7.45 -62.35 4.3 L-58.55 6.05 Q-54.8 7.7 -47.65 10.1 -40.55 12.5 -30.55 14.7 -20.5 16.95 -7.9 18.2 4.65 19.45 19.35 18.8 34.05 18.1 50.5 14.7 66.9 11.3 84.7 4.3 84.65 7.45 80.95 10.3 77.25 13.15 70.5 15.55 Z" fill="none" stroke="#000000" stroke-linecap="round" stroke-linejoin="round" stroke-width="4.0"/>
    <path d="M-22.55 -12.15 Q-22.6 -9.65 -23.55 -7.6 -24.55 -5.6 -26.2 -4.35 -27.85 -3.15 -29.95 -3.15 -32.0 -3.2 -33.65 -4.4 -35.3 -5.6 -36.25 -7.6 -37.25 -9.65 -37.3 -12.15 -37.25 -14.65 -36.3 -16.7 -35.3 -18.75 -33.65 -19.95 -32.0 -21.15 -29.95 -21.15 -27.9 -21.15 -26.2 -19.95 -24.55 -18.75 -23.6 -16.7 -22.6 -14.65 -22.55 -12.15 Z" fill="none" stroke="#000000" stroke-linecap="round" stroke-linejoin="round" stroke-width="4.0"/>
    <path d="M10.3 -0.45 Q10.25 2.9 8.4 5.15 6.55 7.4 3.8 7.5 1.05 7.4 -0.8 5.15 -2.6 2.9 -2.7 -0.45 -2.6 -3.85 -0.8 -6.1 1.05 -8.3 3.8 -8.4 6.55 -8.3 8.4 -6.1 10.25 -3.85 10.3 -0.45 Z" fill="none" stroke="#000000" stroke-linecap="round" stroke-linejoin="round" stroke-width="4.0"/>
    <path d="M48.35 5.9 Q48.3 9.25 46.45 11.5 44.6 13.75 41.85 13.85 39.1 13.75 37.25 11.5 35.45 9.25 35.35 5.9 35.45 2.5 37.25 0.25 39.1 -1.95 41.85 -2.05 44.6 -1.95 46.45 0.25 48.3 2.5 48.35 5.9 Z" fill="none" stroke="#000000" stroke-linecap="round" stroke-linejoin="round" stroke-width="4.0"/>
    <path d="M28.8 -21.9 Q30.0 -19.45 30.0 -16.4 30.0 -13.35 28.8 -10.85 27.6 -8.4 25.6 -6.95 23.6 -5.5 21.1 -5.45 18.6 -5.5 16.6 -6.95 14.6 -8.4 13.4 -10.85 12.2 -13.35 12.15 -16.4 12.2 -19.45 13.4 -21.9 14.6 -24.35 16.6 -25.8 18.6 -27.25 21.1 -27.3 23.6 -27.25 25.6 -25.8 27.6 -24.35 28.8 -21.9 Z" fill="none" stroke="#000000" stroke-linecap="round" stroke-linejoin="round" stroke-width="4.0"/>
    <path d="M-8.95 3.05 Q-9.0 5.55 -9.95 7.6 -10.95 9.65 -12.6 10.85 -14.3 12.05 -16.35 12.05 -18.4 12.05 -20.05 10.85 -21.75 9.65 -22.7 7.6 -23.7 5.55 -23.75 3.05 -23.7 0.5 -22.75 -1.55 -21.75 -3.55 -20.05 -4.75 -18.4 -6.0 -16.35 -6.0 -14.3 -6.0 -12.6 -4.75 -10.95 -3.55 -10.0 -1.55 -9.0 0.5 -8.95 3.05 Z" fill="none" stroke="#000000" stroke-linecap="round" stroke-linejoin="round" stroke-width="4.0"/>
    <path d="M-37.7 3.45 Q-37.75 6.2 -39.15 8.0 -40.55 9.85 -42.6 9.9 -44.7 9.85 -46.1 8.0 -47.5 6.2 -47.55 3.45 -47.5 0.7 -46.1 -1.1 -44.7 -2.95 -42.6 -3.0 -40.55 -2.95 -39.15 -1.1 -37.75 0.7 -37.7 3.45 Z" fill="none" stroke="#000000" stroke-linecap="round" stroke-linejoin="round" stroke-width="4.0"/>
    <path d="M7.3 -21.15 Q7.25 -18.55 6.05 -16.5 4.85 -14.4 2.8 -13.2 0.75 -11.95 -1.8 -11.95 -4.35 -11.95 -6.4 -13.2 -8.45 -14.4 -9.65 -16.5 -10.85 -18.55 -10.9 -21.15 -10.85 -23.7 -9.65 -25.8 -8.45 -27.85 -6.4 -29.1 -4.35 -30.3 -1.8 -30.35 0.75 -30.3 2.8 -29.1 4.85 -27.85 6.05 -25.8 7.25 -23.7 7.3 -21.15 Z" fill="none" stroke="#000000" stroke-linecap="round" stroke-linejoin="round" stroke-width="4.0"/>
    <path d="M59.2 -10.55 Q59.15 -7.95 57.95 -5.9 56.75 -3.8 54.7 -2.6 52.65 -1.35 50.1 -1.35 47.55 -1.35 45.5 -2.6 43.45 -3.8 42.25 -5.9 41.05 -7.95 41.0 -10.55 41.05 -13.1 42.25 -15.2 43.45 -17.25 45.5 -18.5 47.55 -19.7 50.1 -19.75 52.65 -19.7 54.7 -18.5 56.75 -17.25 57.95 -15.2 59.15 -13.1 59.2 -10.55 Z" fill="none" stroke="#000000" stroke-linecap="round" stroke-linejoin="round" stroke-width="4.0"/>
    <path d="M70.3 -2.05 Q70.25 -0.4 69.2 0.7 68.1 1.8 66.45 1.85 64.8 1.8 63.75 0.7 62.65 -0.4 62.6 -2.05 62.65 -3.7 63.75 -4.8 64.8 -5.9 66.45 -5.95 68.1 -5.9 69.2 -4.8 70.25 -3.7 70.3 -2.05 Z" fill="none" stroke="#000000" stroke-linecap="round" stroke-linejoin="round" stroke-width="4.0"/>
    <path d="M18.4 9.6 Q18.35 11.25 17.3 12.35 16.2 13.45 14.55 13.5 12.9 13.45 11.85 12.35 10.75 11.25 10.7 9.6 10.75 7.95 11.85 6.85 12.9 5.75 14.55 5.7 16.2 5.75 17.3 6.85 18.35 7.95 18.4 9.6 Z" fill="none" stroke="#000000" stroke-linecap="round" stroke-linejoin="round" stroke-width="4.0"/>
    <path d="M31.95 4.3 Q31.9 6.55 30.65 8.1 29.45 9.6 27.6 9.65 25.75 9.6 24.5 8.1 23.3 6.55 23.25 4.3 23.3 2.05 24.5 0.55 25.75 -0.95 27.6 -1.0 29.45 -0.95 30.65 0.55 31.9 2.05 31.95 4.3 Z" fill="none" stroke="#000000" stroke-linecap="round" stroke-linejoin="round" stroke-width="4.0"/>
    <path d="M-26.0 17.9 L-37.15 42.3 Q-38.0 44.05 -39.5 45.1 -41.0 46.15 -42.8 46.35 -44.6 46.55 -46.35 45.75 -48.1 44.9 -49.15 43.45 -50.2 41.95 -50.4 40.15 -50.6 38.3 -49.8 36.55 L-38.65 12.15 Q-37.8 10.4 -36.3 9.35 -34.8 8.3 -33.0 8.1 -31.2 7.9 -29.45 8.7 -27.7 9.55 -26.65 11.0 -25.6 12.5 -25.4 14.3 -25.2 16.15 -26.0 17.9 Z" fill="none" stroke="#000000" stroke-linecap="round" stroke-linejoin="round" stroke-width="4.0"/>
    <path d="M58.65 21.85 L45.75 45.4 Q44.8 47.1 43.2 48.0 41.65 48.9 39.85 49.0 38.0 49.05 36.3 48.1 34.6 47.15 33.7 45.6 32.75 44.05 32.7 42.2 32.65 40.4 33.55 38.7 L46.5 15.15 Q47.45 13.45 49.0 12.55 50.6 11.6 52.4 11.55 54.2 11.5 55.95 12.4 57.65 13.35 58.55 14.95 59.5 16.5 59.55 18.3 59.6 20.15 58.65 21.85 Z" fill="none" stroke="#000000" stroke-linecap="round" stroke-linejoin="round" stroke-width="4.0"/>
    <path d="M-34.95 43.55 L-37.15 48.4 Q-38.25 50.7 -40.25 52.1 -42.2 53.45 -44.6 53.7 -47.0 53.95 -49.3 52.9 -51.65 51.8 -53.0 49.85 -54.4 47.9 -54.65 45.5 -54.9 43.1 -53.85 40.75 L-51.65 35.95 Q-50.55 33.6 -48.55 32.25 -46.6 30.85 -44.2 30.6 -41.8 30.35 -39.5 31.4 -37.15 32.5 -35.8 34.45 -34.4 36.45 -34.15 38.8 -33.9 41.2 -34.95 43.55 Z" fill="none" stroke="#000000" stroke-linecap="round" stroke-linejoin="round" stroke-width="4.0"/>
    <path d="M-50.55 41.15 Q-49.5 41.7 -49.1 42.7 -48.7 43.75 -49.15 44.85 L-49.7 46.0 Q-50.2 47.05 -51.25 47.45 L-53.35 47.35 Q-54.4 46.85 -54.8 45.8 -55.2 44.8 -54.75 43.7 L-54.2 42.55 Q-53.7 41.5 -52.65 41.1 L-50.55 41.15 Z" fill="none" stroke="#000000" stroke-linecap="round" stroke-linejoin="round" stroke-width="4.0"/>
    <path d="M-46.25 46.7 Q-45.2 47.25 -44.8 48.25 -44.4 49.3 -44.85 50.4 L-45.4 51.55 Q-45.9 52.6 -46.95 53.0 L-49.05 52.9 Q-50.1 52.4 -50.5 51.35 -50.9 50.35 -50.45 49.25 L-49.9 48.1 Q-49.4 47.05 -48.35 46.65 L-46.25 46.7 Z" fill="none" stroke="#000000" stroke-linecap="round" stroke-linejoin="round" stroke-width="4.0"/>
    <path d="M-39.35 45.2 Q-38.3 45.75 -37.9 46.75 -37.5 47.8 -37.95 48.9 L-38.5 50.05 Q-39.0 51.1 -40.05 51.5 L-42.15 51.4 Q-43.2 50.9 -43.6 49.85 -44.0 48.85 -43.55 47.75 L-43.0 46.6 Q-42.5 45.55 -41.45 45.15 L-39.35 45.2 Z" fill="none" stroke="#000000" stroke-linecap="round" stroke-linejoin="round" stroke-width="4.0"/>
    <path d="M48.3 45.95 L45.75 50.6 Q44.5 52.85 42.4 54.05 40.35 55.3 37.95 55.35 35.55 55.45 33.3 54.2 31.05 52.95 29.85 50.9 28.6 48.8 28.55 46.45 28.45 44.05 29.7 41.75 L32.25 37.1 Q33.5 34.85 35.6 33.65 37.65 32.4 40.05 32.35 42.45 32.25 44.7 33.5 46.95 34.75 48.15 36.8 49.35 38.85 49.45 41.25 49.5 43.65 48.3 45.95 Z" fill="none" stroke="#000000" stroke-linecap="round" stroke-linejoin="round" stroke-width="4.0"/>
    <path d="M33.0 42.35 Q34.0 42.95 34.3 44.0 34.6 45.1 34.05 46.15 L33.45 47.25 Q32.85 48.25 31.8 48.6 L29.7 48.35 Q28.7 47.75 28.35 46.7 28.05 45.65 28.6 44.6 L29.25 43.45 Q29.85 42.45 30.9 42.15 L33.0 42.35 Z" fill="none" stroke="#000000" stroke-linecap="round" stroke-linejoin="round" stroke-width="4.0"/>
    <path d="M36.9 48.2 Q37.9 48.8 38.2 49.85 38.5 50.95 37.95 51.95 L37.35 53.1 Q36.75 54.1 35.7 54.45 L33.6 54.2 Q32.6 53.6 32.25 52.55 31.95 51.5 32.5 50.45 L33.15 49.3 Q33.75 48.3 34.8 48.0 L36.9 48.2 Z" fill="none" stroke="#000000" stroke-linecap="round" stroke-linejoin="round" stroke-width="4.0"/>
    <path d="M43.85 47.2 Q44.85 47.8 45.15 48.85 45.45 49.95 44.9 50.95 L44.3 52.1 Q43.7 53.1 42.65 53.45 L40.55 53.2 Q39.55 52.6 39.2 51.55 38.9 50.5 39.45 49.45 L40.1 48.3 Q40.7 47.3 41.75 47.0 L43.85 47.2 Z" fill="none" stroke="#000000" stroke-linecap="round" stroke-linejoin="round" stroke-width="4.0"/>
    <path d="M-67.0 -1.85 Q-67.05 2.15 -69.2 5.4 -71.35 8.65 -74.95 10.55 -78.55 12.45 -83.05 12.5 -87.85 12.45 -91.65 10.25 -92.0 10.0 -91.2 9.35 L-88.95 7.85 -86.15 6.05 -83.85 4.45 Q-82.95 3.75 -83.25 3.4 L-85.05 3.2 -88.55 3.5 -92.6 4.0 -96.05 4.3 Q-97.45 4.3 -97.7 3.95 -99.0 1.25 -99.05 -1.85 -99.0 -5.85 -96.85 -9.1 -94.75 -12.35 -91.1 -14.25 -87.5 -16.15 -83.05 -16.2 -78.55 -16.15 -74.95 -14.25 -71.35 -12.35 -69.2 -9.1 -67.05 -5.85 -67.0 -1.85" fill="#dee00d" fill-rule="evenodd" stroke="none"/>
    <path d="M-50.8 -0.3 Q-50.8 2.3 -52.1 4.35 -53.35 6.45 -55.55 7.7 -57.7 8.95 -60.35 8.95 L-69.95 8.95 Q-72.6 8.9 -74.75 7.7 -76.9 6.45 -78.2 4.35 -79.45 2.25 -79.5 -0.3 -79.45 -2.9 -78.2 -5.0 -76.9 -7.1 -74.75 -8.35 -72.6 -9.55 -69.95 -9.6 L-60.35 -9.6 Q-57.7 -9.55 -55.55 -8.35 -53.35 -7.1 -52.1 -5.0 -50.8 -2.9 -50.8 -0.3" fill="#dee00d" fill-rule="evenodd" stroke="none"/>
    <path d="M-90.55 -4.05 L-91.0 -4.05 Q-92.1 -4.1 -92.85 -4.8 -93.55 -5.55 -93.6 -6.7 -93.55 -7.85 -92.85 -8.55 -92.1 -9.3 -91.0 -9.35 L-90.55 -9.35 Q-89.45 -9.3 -88.7 -8.55 -88.0 -7.85 -87.95 -6.7 -88.0 -5.55 -88.7 -4.8 -89.45 -4.1 -90.55 -4.05" fill="#ffffff" fill-rule="evenodd" stroke="none"/>
    <path d="M-90.05 -6.2 Q-90.15 -5.25 -91.1 -5.15 L-91.6 -5.15 Q-92.05 -5.15 -92.35 -5.45 -92.65 -5.75 -92.65 -6.2 -92.55 -7.1 -91.6 -7.2 L-91.1 -7.2 -90.35 -6.9 -90.05 -6.2" fill="#000000" fill-rule="evenodd" stroke="none"/>
    <path d="M84.7 5.35 L-62.35 5.35 Q-62.3 -1.7 -58.6 -8.05 -54.9 -14.4 -48.15 -19.7 -41.45 -25.0 -32.25 -28.85 -23.1 -32.75 -12.05 -34.9 -1.05 -37.0 11.15 -37.05 23.4 -37.0 34.4 -34.9 45.4 -32.75 54.6 -28.85 63.75 -25.0 70.5 -19.7 77.25 -14.4 80.95 -8.05 84.65 -1.7 84.7 5.35" fill="#7f6d13" fill-rule="evenodd" stroke="none"/>
    <path d="M21.0 -33.3 Q12.35 -33.55 2.7 -32.8 -6.95 -32.05 -16.65 -29.75 -26.35 -27.45 -35.2 -23.1 -44.0 -18.7 -51.0 -11.75 -57.95 -4.75 -62.2 5.4 -62.15 -1.65 -58.45 -8.0 -54.75 -14.35 -48.0 -19.65 -41.3 -24.95 -32.1 -28.8 -22.95 -32.7 -11.9 -34.85 -0.9 -36.95 11.3 -37.0 22.3 -37.0 32.35 -35.25 42.4 -33.5 51.0 -30.3 L47.05 -31.0 36.45 -32.35 21.0 -33.3" fill="#9e8818" fill-rule="evenodd" stroke="none"/>
    <path d="M84.7 4.3 Q84.65 7.45 80.95 10.35 77.25 13.2 70.5 15.55 63.75 17.95 54.6 19.7 45.4 21.45 34.4 22.4 L11.15 23.35 -12.05 22.4 Q-23.1 21.45 -32.25 19.7 -41.45 17.95 -48.15 15.55 -54.9 13.2 -58.6 10.35 -62.3 7.45 -62.35 4.3 L84.7 4.3" fill="#7f6d13" fill-rule="evenodd" stroke="none"/>
    <path d="M70.5 15.55 Q63.75 17.95 54.6 19.7 45.4 21.45 34.4 22.4 L11.15 23.35 -12.1 22.4 Q-23.1 21.45 -32.25 19.7 -41.45 17.95 -48.15 15.55 -54.9 13.2 -58.6 10.35 -62.3 7.45 -62.35 4.3 L-58.55 6.05 Q-54.8 7.7 -47.65 10.1 -40.55 12.5 -30.55 14.75 -20.5 17.0 -7.9 18.2 4.65 19.45 19.35 18.8 34.05 18.15 50.5 14.75 66.9 11.35 84.7 4.3 84.65 7.45 80.95 10.35 77.25 13.2 70.5 15.55" fill="#65570f" fill-rule="evenodd" stroke="none"/>
    <path d="M-22.55 -12.15 Q-22.55 -9.65 -23.55 -7.6 -24.55 -5.55 -26.2 -4.35 -27.85 -3.15 -29.9 -3.15 -31.95 -3.15 -33.6 -4.35 -35.25 -5.55 -36.25 -7.6 -37.25 -9.65 -37.25 -12.15 -37.25 -14.65 -36.25 -16.7 -35.25 -18.7 -33.6 -19.9 -31.95 -21.1 -29.9 -21.15 -27.85 -21.1 -26.2 -19.9 -24.55 -18.7 -23.55 -16.7 -22.55 -14.65 -22.55 -12.15" fill="#c6b90e" fill-rule="evenodd" stroke="none"/>
    <path d="M10.3 -0.45 Q10.25 2.95 8.4 5.15 6.6 7.4 3.85 7.5 1.1 7.4 -0.75 5.15 -2.6 2.9 -2.65 -0.45 -2.6 -3.85 -0.75 -6.05 1.1 -8.3 3.85 -8.4 6.6 -8.3 8.45 -6.05 10.25 -3.85 10.3 -0.45" fill="#c6b90e" fill-rule="evenodd" stroke="none"/>
    <path d="M48.35 5.9 Q48.3 9.25 46.45 11.5 44.65 13.75 41.9 13.85 39.15 13.75 37.3 11.5 35.45 9.25 35.4 5.9 35.45 2.5 37.3 0.3 39.15 -1.95 41.9 -2.05 44.65 -1.95 46.5 0.3 48.3 2.5 48.35 5.9" fill="#c6b90e" fill-rule="evenodd" stroke="none"/>
    <path d="M30.05 -16.35 Q30.0 -13.3 28.8 -10.85 27.65 -8.4 25.6 -6.95 23.6 -5.5 21.1 -5.45 18.6 -5.5 16.6 -6.95 14.6 -8.4 13.4 -10.85 12.25 -13.3 12.2 -16.35 12.25 -19.4 13.4 -21.9 14.6 -24.35 16.6 -25.8 18.65 -27.25 21.1 -27.3 23.6 -27.25 25.6 -25.8 27.65 -24.35 28.8 -21.9 30.0 -19.4 30.05 -16.35" fill="#c6b90e" fill-rule="evenodd" stroke="none"/>
    <path d="M-9.0 3.05 Q-9.0 5.55 -10.0 7.6 -11.0 9.65 -12.65 10.85 -14.3 12.05 -16.35 12.1 -18.4 12.05 -20.1 10.85 -21.75 9.65 -22.75 7.6 -23.75 5.55 -23.75 3.05 -23.75 0.5 -22.75 -1.5 -21.75 -3.55 -20.1 -4.75 -18.45 -5.95 -16.35 -6.0 -14.3 -5.95 -12.65 -4.75 -11.0 -3.55 -10.0 -1.5 -9.0 0.5 -9.0 3.05" fill="#c6b90e" fill-rule="evenodd" stroke="none"/>
    <path d="M-37.7 3.4 Q-37.75 6.15 -39.15 7.95 -40.55 9.8 -42.65 9.85 -44.75 9.8 -46.1 7.95 -47.5 6.15 -47.55 3.4 -47.5 0.65 -46.1 -1.15 -44.7 -3.0 -42.65 -3.05 -40.55 -3.0 -39.15 -1.15 -37.75 0.65 -37.7 3.4" fill="#c6b90e" fill-rule="evenodd" stroke="none"/>
    <path d="M7.3 -21.15 Q7.25 -18.6 6.05 -16.5 4.85 -14.45 2.8 -13.2 0.75 -12.0 -1.8 -11.95 -4.35 -12.0 -6.4 -13.2 -8.45 -14.45 -9.65 -16.5 -10.85 -18.6 -10.9 -21.15 -10.85 -23.7 -9.65 -25.8 -8.45 -27.85 -6.4 -29.1 -4.35 -30.3 -1.8 -30.35 0.75 -30.3 2.8 -29.1 4.85 -27.85 6.05 -25.8 7.25 -23.7 7.3 -21.15" fill="#c6b90e" fill-rule="evenodd" stroke="none"/>
    <path d="M59.2 -10.55 Q59.15 -8.0 57.95 -5.9 56.75 -3.85 54.7 -2.6 52.65 -1.4 50.1 -1.35 47.55 -1.4 45.5 -2.6 43.45 -3.85 42.25 -5.9 41.05 -8.0 41.0 -10.55 41.05 -13.1 42.25 -15.2 43.45 -17.25 45.5 -18.5 47.55 -19.7 50.1 -19.75 52.65 -19.7 54.7 -18.5 56.75 -17.25 57.95 -15.2 59.15 -13.1 59.2 -10.55" fill="#c6b90e" fill-rule="evenodd" stroke="none"/>
    <path d="M70.3 -2.05 Q70.25 -0.4 69.2 0.7 68.1 1.8 66.45 1.85 64.8 1.8 63.75 0.7 62.65 -0.4 62.6 -2.05 62.65 -3.7 63.75 -4.8 64.8 -5.9 66.45 -5.95 68.1 -5.9 69.2 -4.8 70.25 -3.7 70.3 -2.05" fill="#c6b90e" fill-rule="evenodd" stroke="none"/>
    <path d="M18.45 9.6 Q18.4 11.25 17.35 12.35 16.25 13.45 14.6 13.5 12.95 13.45 11.9 12.35 10.8 11.25 10.75 9.6 10.8 7.95 11.9 6.85 12.95 5.75 14.6 5.7 16.25 5.75 17.35 6.85 18.4 7.95 18.45 9.6" fill="#c6b90e" fill-rule="evenodd" stroke="none"/>
    <path d="M31.95 4.3 Q31.9 6.55 30.65 8.05 29.45 9.55 27.6 9.6 25.75 9.55 24.5 8.05 23.3 6.55 23.25 4.3 23.3 2.0 24.5 0.5 25.75 -1.0 27.6 -1.05 29.45 -1.0 30.65 0.5 31.9 2.0 31.95 4.3" fill="#c6b90e" fill-rule="evenodd" stroke="none"/>
    <path d="M-25.95 17.95 L-37.15 42.35 Q-37.95 44.1 -39.45 45.15 -40.95 46.2 -42.75 46.35 -44.55 46.55 -46.35 45.8 -48.1 44.95 -49.15 43.45 -50.2 41.95 -50.35 40.15 -50.55 38.35 -49.75 36.55 L-38.6 12.15 Q-37.8 10.4 -36.3 9.35 -34.8 8.3 -33.0 8.15 -31.15 7.95 -29.4 8.75 -27.65 9.55 -26.6 11.05 -25.55 12.55 -25.4 14.35 -25.2 16.15 -25.95 17.95" fill="#dee00d" fill-rule="evenodd" stroke="none"/>
    <path d="M58.55 14.95 Q59.5 16.5 59.55 18.35 59.6 20.15 58.7 21.85 L45.75 45.4 Q44.8 47.1 43.25 48.0 41.65 48.95 39.85 49.0 38.0 49.05 36.3 48.1 34.6 47.15 33.7 45.6 32.75 44.05 32.7 42.2 32.65 40.4 33.55 38.7 L46.5 15.15 Q47.45 13.45 49.05 12.55 50.6 11.6 52.4 11.55 54.25 11.5 55.95 12.4 57.65 13.35 58.55 14.95" fill="#dee00d" fill-rule="evenodd" stroke="none"/>
    <path d="M-35.8 34.5 Q-34.45 36.45 -34.2 38.85 -33.95 41.25 -35.0 43.6 L-37.2 48.45 Q-38.3 50.75 -40.25 52.1 -42.25 53.5 -44.6 53.75 -47.0 54.0 -49.35 52.95 -51.65 51.85 -53.05 49.9 -54.4 47.9 -54.65 45.55 -54.9 43.15 -53.85 40.8 L-51.65 35.95 Q-50.55 33.65 -48.6 32.25 -46.6 30.9 -44.25 30.65 -41.85 30.4 -39.5 31.45 -37.2 32.55 -35.8 34.5" fill="#dee00d" fill-rule="evenodd" stroke="none"/>
    <path d="M-49.7 45.95 Q-50.2 47.0 -51.25 47.4 L-53.35 47.35 Q-54.4 46.8 -54.8 45.8 -55.2 44.75 -54.7 43.65 L-54.2 42.5 Q-53.65 41.45 -52.65 41.05 L-50.5 41.15 Q-49.45 41.65 -49.1 42.7 -48.7 43.7 -49.15 44.8 L-49.7 45.95" fill="#ffffff" fill-rule="evenodd" stroke="none"/>
    <path d="M-45.4 51.55 Q-45.9 52.6 -46.95 53.0 L-49.05 52.95 Q-50.1 52.4 -50.5 51.4 -50.9 50.35 -50.4 49.25 L-49.9 48.1 Q-49.35 47.05 -48.35 46.65 L-46.2 46.75 Q-45.15 47.25 -44.8 48.3 -44.4 49.3 -44.85 50.4 L-45.4 51.55" fill="#ffffff" fill-rule="evenodd" stroke="none"/>
    <path d="M-38.55 50.05 Q-39.05 51.1 -40.1 51.5 L-42.2 51.45 Q-43.25 50.9 -43.65 49.9 -44.05 48.85 -43.55 47.75 L-43.05 46.6 Q-42.5 45.55 -41.5 45.15 L-39.35 45.25 Q-38.3 45.75 -37.95 46.8 -37.55 47.8 -38.0 48.9 L-38.55 50.05" fill="#ffffff" fill-rule="evenodd" stroke="none"/>
    <path d="M45.75 50.6 Q44.5 52.85 42.45 54.05 40.35 55.3 37.95 55.35 35.55 55.45 33.3 54.25 31.05 53.0 29.85 50.9 28.65 48.85 28.55 46.45 28.5 44.05 29.7 41.8 L32.25 37.1 Q33.5 34.85 35.6 33.65 37.65 32.45 40.05 32.35 42.45 32.3 44.7 33.5 46.95 34.75 48.15 36.8 49.4 38.9 49.45 41.3 49.55 43.7 48.3 45.95 L45.75 50.6" fill="#dee00d" fill-rule="evenodd" stroke="none"/>
    <path d="M33.45 47.2 Q32.85 48.25 31.8 48.55 L29.7 48.3 Q28.7 47.7 28.4 46.65 28.1 45.6 28.65 44.55 L29.25 43.4 Q29.85 42.4 30.9 42.1 L33.0 42.35 Q34.0 42.95 34.35 44.0 34.65 45.05 34.1 46.1 L33.45 47.2" fill="#ffffff" fill-rule="evenodd" stroke="none"/>
    <path d="M37.3 53.1 Q36.7 54.15 35.65 54.45 L33.55 54.2 Q32.55 53.6 32.25 52.55 31.95 51.5 32.5 50.45 L33.1 49.3 Q33.7 48.3 34.75 48.0 35.8 47.7 36.85 48.25 37.85 48.85 38.2 49.9 38.5 50.95 37.95 52.0 L37.3 53.1" fill="#ffffff" fill-rule="evenodd" stroke="none"/>
    <path d="M44.3 52.1 Q43.7 53.15 42.65 53.45 L40.55 53.2 Q39.55 52.6 39.25 51.55 38.95 50.5 39.5 49.45 L40.1 48.3 Q40.7 47.3 41.75 47.0 42.8 46.7 43.85 47.25 44.85 47.85 45.2 48.9 45.5 49.95 44.95 51.0 L44.3 52.1" fill="#ffffff" fill-rule="evenodd" stroke="none"/>
  </g>
</svg>
