<?xml version="1.0" encoding="UTF-8" standalone="no"?>
<svg xmlns:xlink="http://www.w3.org/1999/xlink" height="51.45px" width="39.0px" xmlns="http://www.w3.org/2000/svg">
  <g transform="matrix(1.0, 0.0, 0.0, 1.0, 19.15, 38.75)">
    <path d="M-6.85 1.7 L-6.5 -0.15 Q-6.25 -1.25 -5.65 -1.55 -6.15 1.45 -6.75 2.1 -6.8 2.6 -6.45 2.9 -5.75 2.95 -5.3 1.9 -4.85 0.8 -4.2 0.9 L-3.4 0.9 Q-2.9 0.95 -3.25 1.6 L-4.45 2.7 -5.85 3.7 Q-9.25 7.75 -10.95 10.45 L-11.5 10.0 Q-11.7 9.55 -11.5 9.1 -11.0 7.75 -9.75 6.15 L-7.65 3.55 -7.85 3.2 -12.4 7.2 -13.25 7.15 Q-13.75 7.1 -13.5 6.55 -12.65 5.05 -10.9 4.0 L-8.0 2.35 Q-7.65 2.85 -7.35 2.45 L-6.85 1.7" fill="#ffb34d" fill-rule="evenodd" stroke="none"/>
    <path d="M-6.85 1.7 L-6.5 -0.15 Q-6.25 -1.25 -5.65 -1.55 -6.15 1.45 -6.75 2.1 -6.8 2.6 -6.45 2.9 -5.75 2.95 -5.3 1.9 -4.85 0.8 -4.2 0.9 L-3.4 0.9 Q-2.9 0.95 -3.25 1.6 L-4.45 2.7 -5.85 3.7 Q-9.25 7.75 -10.95 10.45 L-11.5 10.0 Q-11.7 9.55 -11.5 9.1 -11.0 7.75 -9.75 6.15 L-7.65 3.55 -7.85 3.2 -12.4 7.2 -13.25 7.15 Q-13.75 7.1 -13.5 6.55 -12.65 5.05 -10.9 4.0 L-8.0 2.35 Q-7.65 2.85 -7.35 2.45 L-6.85 1.7 Z" fill="none" stroke="#000000" stroke-linecap="round" stroke-linejoin="round" stroke-width="4.5"/>
    <path d="M-2.1 -36.5 Q2.45 -36.0 4.2 -33.25 5.75 -31.2 6.0 -26.9 6.35 -21.15 6.55 -20.35 7.3 -18.05 10.1 -15.7 12.5 -13.6 12.95 -10.05 12.9 -5.45 10.85 -2.9 5.0 2.35 -0.2 1.25 L-6.75 -2.5 Q-7.9 -4.75 -7.3 -8.6 L-6.2 -15.55 Q-10.5 -23.0 -9.2 -28.3 -6.3 -36.3 -2.1 -36.5" fill="#ffe066" fill-rule="evenodd" stroke="none"/>
    <path d="M-2.1 -36.5 Q2.45 -36.0 4.2 -33.25 5.75 -31.2 6.0 -26.9 6.35 -21.15 6.55 -20.35 7.3 -18.05 10.1 -15.7 12.5 -13.6 12.95 -10.05 12.9 -5.45 10.85 -2.9 5.0 2.35 -0.2 1.25 L-6.75 -2.5 Q-7.9 -4.75 -7.3 -8.6 L-6.2 -15.55 Q-10.5 -23.0 -9.2 -28.3 -6.3 -36.3 -2.1 -36.5 Z" fill="none" stroke="#000000" stroke-linecap="round" stroke-linejoin="round" stroke-width="4.5"/>
    <path d="M6.05 -21.45 L7.0 -22.9 Q8.2 -24.3 9.65 -24.0 L13.65 -23.9 Q15.65 -23.7 14.65 -22.05 13.85 -20.7 16.4 -21.95 L17.55 -22.4 Q17.75 -22.25 16.4 -20.85 L12.55 -16.5 Q11.4 -15.2 10.3 -15.1 8.7 -15.0 6.95 -17.25 5.1 -19.65 6.05 -21.45" fill="#ffe066" fill-rule="evenodd" stroke="none"/>
    <path d="M6.05 -21.45 L7.0 -22.9 Q8.2 -24.3 9.65 -24.0 L13.65 -23.9 Q15.65 -23.7 14.65 -22.05 13.85 -20.7 16.4 -21.95 L17.55 -22.4 Q17.75 -22.25 16.4 -20.85 L12.55 -16.5 Q11.4 -15.2 10.3 -15.1 8.7 -15.0 6.95 -17.25 5.1 -19.65 6.05 -21.45 Z" fill="none" stroke="#000000" stroke-linecap="round" stroke-linejoin="round" stroke-width="4.5"/>
    <path d="M-5.4 -16.3 Q-4.45 -14.55 -6.3 -12.1 -8.05 -9.85 -9.6 -9.95 -10.75 -10.05 -11.9 -11.35 L-15.7 -15.7 -16.9 -17.25 -15.75 -16.8 Q-13.2 -15.6 -14.0 -16.9 -15.0 -18.6 -13.0 -18.75 L-9.0 -18.9 Q-6.65 -19.35 -5.4 -16.3" fill="#ffe066" fill-rule="evenodd" stroke="none"/>
    <path d="M-5.4 -16.3 Q-6.65 -19.35 -9.0 -18.9 L-13.0 -18.75 Q-15.0 -18.6 -14.0 -16.9 -13.2 -15.6 -15.75 -16.8 L-16.9 -17.25 -15.7 -15.7 -11.9 -11.35 Q-10.75 -10.05 -9.6 -9.95 -8.05 -9.85 -6.3 -12.1 -4.45 -14.55 -5.4 -16.3 Z" fill="none" stroke="#000000" stroke-linecap="round" stroke-linejoin="round" stroke-width="4.5"/>
    <path d="M-2.1 -36.5 Q2.45 -36.0 4.2 -33.25 5.75 -31.2 6.0 -26.9 6.35 -21.15 6.55 -20.35 7.3 -18.05 10.1 -15.7 12.5 -13.6 12.95 -10.05 12.9 -5.45 10.85 -2.9 5.0 2.35 -0.2 1.25 L-6.75 -2.5 Q-7.9 -4.75 -7.3 -8.6 L-6.2 -15.55 Q-10.5 -23.0 -9.2 -28.3 -6.3 -36.3 -2.1 -36.5" fill="#ffe066" fill-rule="evenodd" stroke="none"/>
    <path d="M-3.5 -30.75 Q-3.2 -29.9 -4.15 -28.5 -5.15 -27.65 -6.6 -28.35 -7.5 -28.75 -6.95 -30.65 -6.45 -31.75 -5.15 -31.8 -3.85 -31.85 -3.5 -30.75" fill="#000000" fill-rule="evenodd" stroke="none"/>
    <path d="M1.8 -31.8 Q3.1 -31.85 3.45 -30.75 3.8 -29.9 2.8 -28.5 1.85 -27.65 0.35 -28.35 -0.5 -28.75 0.05 -30.65 0.5 -31.75 1.8 -31.8" fill="#000000" fill-rule="evenodd" stroke="none"/>
    <path d="M-6.85 1.7 L-6.5 -0.15 Q-6.25 -1.25 -5.65 -1.55 -6.15 1.45 -6.75 2.1 -6.8 2.6 -6.45 2.9 -5.75 2.95 -5.3 1.9 -4.85 0.8 -4.2 0.9 L-3.4 0.9 Q-2.9 0.95 -3.25 1.6 L-4.45 2.7 -5.85 3.7 Q-9.25 7.75 -10.95 10.45 L-11.5 10.0 Q-11.7 9.55 -11.5 9.1 -11.0 7.75 -9.75 6.15 L-7.65 3.55 -7.85 3.2 -12.4 7.2 -13.25 7.15 Q-13.75 7.1 -13.5 6.55 -12.65 5.05 -10.9 4.0 L-8.0 2.35 Q-7.65 2.85 -7.35 2.45 L-6.85 1.7" fill="#ffb34d" fill-rule="evenodd" stroke="none"/>
    <path d="M7.6 1.45 Q7.25 0.8 7.75 0.75 L8.55 0.75 Q9.2 0.7 9.65 1.75 10.1 2.85 10.8 2.8 L11.15 1.95 Q10.6 1.35 10.0 -1.65 10.6 -1.35 10.9 -0.3 L11.25 1.6 11.7 2.35 Q12.0 2.75 12.35 2.25 L15.25 3.9 Q17.0 4.95 17.9 6.4 18.1 6.95 17.65 7.05 L16.75 7.1 12.25 3.05 12.0 3.45 14.1 6.0 Q15.4 7.6 15.9 8.95 L15.85 9.85 15.35 10.3 Q13.7 7.7 10.25 3.55 8.2 2.45 7.6 1.45" fill="#ffb34d" fill-rule="evenodd" stroke="none"/>
    <path d="M7.6 1.45 Q8.2 2.45 10.25 3.55 13.7 7.7 15.35 10.3 L15.85 9.85 15.9 8.95 Q15.4 7.6 14.1 6.0 L12.0 3.45 12.25 3.05 16.75 7.1 17.65 7.05 Q18.1 6.95 17.9 6.4 17.0 4.95 15.25 3.9 L12.35 2.25 Q12.0 2.75 11.7 2.35 L11.25 1.6 10.9 -0.3 Q10.6 -1.35 10.0 -1.65 10.6 1.35 11.15 1.95 L10.8 2.8 Q10.1 2.85 9.65 1.75 9.2 0.7 8.55 0.75 L7.75 0.75 Q7.25 0.8 7.6 1.45 Z" fill="none" stroke="#000000" stroke-linecap="round" stroke-linejoin="round" stroke-width="2.5"/>
    <path d="M7.6 1.45 Q7.25 0.8 7.75 0.75 L8.55 0.75 Q9.2 0.7 9.65 1.75 10.1 2.85 10.8 2.8 L11.15 1.95 Q10.6 1.35 10.0 -1.65 10.6 -1.35 10.9 -0.3 L11.25 1.6 11.7 2.35 Q12.0 2.75 12.35 2.25 L15.25 3.9 Q17.0 4.95 17.9 6.4 18.1 6.95 17.65 7.05 L16.75 7.1 12.25 3.05 12.0 3.45 14.1 6.0 Q15.4 7.6 15.9 8.95 L15.85 9.85 15.35 10.3 Q13.7 7.7 10.25 3.55 8.2 2.45 7.6 1.45" fill="#ffb34d" fill-rule="evenodd" stroke="none"/>
    <path d="M0.95 -24.85 Q0.95 -23.85 0.15 -23.1 -0.65 -22.4 -1.75 -22.4 -2.9 -22.4 -3.7 -23.1 -4.45 -23.85 -4.45 -24.85 -4.45 -25.85 -3.7 -26.55 -2.9 -27.3 -1.75 -27.3 -0.65 -27.3 0.15 -26.55 0.95 -25.85 0.95 -24.85" fill="#ffb31a" fill-rule="evenodd" stroke="none"/>
    <path d="M0.95 -24.85 Q0.95 -23.85 0.15 -23.1 -0.65 -22.4 -1.75 -22.4 -2.9 -22.4 -3.7 -23.1 -4.45 -23.85 -4.45 -24.85 -4.45 -25.85 -3.7 -26.55 -2.9 -27.3 -1.75 -27.3 -0.65 -27.3 0.15 -26.55 0.95 -25.85 0.95 -24.85 Z" fill="none" stroke="#000000" stroke-linecap="round" stroke-linejoin="round" stroke-width="1.0"/>
    <path d="M6.05 -21.45 L7.0 -22.9 Q8.2 -24.3 9.65 -24.0 L13.65 -23.9 Q15.65 -23.7 14.65 -22.05 13.85 -20.7 16.4 -21.95 L17.55 -22.4 Q17.75 -22.25 16.4 -20.85 L12.55 -16.5 Q11.4 -15.2 10.3 -15.1 8.7 -15.0 6.95 -17.25 5.1 -19.65 6.05 -21.45" fill="#ffe066" fill-rule="evenodd" stroke="none"/>
    <path d="M-5.4 -16.3 Q-4.45 -14.55 -6.3 -12.1 -8.05 -9.85 -9.6 -9.95 -10.75 -10.05 -11.9 -11.35 L-15.7 -15.7 -16.9 -17.25 -15.75 -16.8 Q-13.2 -15.6 -14.0 -16.9 -15.0 -18.6 -13.0 -18.75 L-9.0 -18.9 Q-6.65 -19.35 -5.4 -16.3" fill="#ffe066" fill-rule="evenodd" stroke="none"/>
    <path d="M-5.15 -29.75 Q-5.15 -29.3 -5.4 -29.3 -5.7 -29.3 -5.7 -29.75 -5.7 -30.25 -5.4 -30.25 -5.15 -30.25 -5.15 -29.75" fill="#ffffff" fill-rule="evenodd" stroke="none"/>
    <path d="M1.8 -29.75 L1.55 -29.3 Q1.3 -29.3 1.3 -29.75 1.3 -30.25 1.55 -30.25 L1.8 -29.75" fill="#ffffff" fill-rule="evenodd" stroke="none"/>
    <path d="M-3.9 -23.2 L-2.35 -24.0 Q-0.6 -24.6 0.55 -23.2" fill="none" stroke="#000000" stroke-linecap="round" stroke-linejoin="round" stroke-width="1.0"/>
  </g>
</svg>
