<?xml version="1.0" encoding="UTF-8" standalone="no"?>
<svg xmlns:xlink="http://www.w3.org/1999/xlink" height="52.45px" width="44.7px" xmlns="http://www.w3.org/2000/svg">
  <g transform="matrix(1.0, 0.0, 0.0, 1.0, 21.8, 39.95)">
    <path d="M-6.6 1.3 L-6.25 -0.6 Q-6.0 -1.65 -5.4 -2.0 -5.9 1.05 -6.5 1.7 -6.55 2.2 -6.2 2.55 -5.5 2.6 -5.05 1.5 -4.6 0.45 -4.0 0.5 L-3.15 0.5 Q-2.65 0.6 -3.0 1.2 L-4.25 2.35 -5.6 3.4 Q-9.0 7.5 -10.7 10.25 L-11.2 9.8 Q-11.4 9.35 -11.2 8.9 -10.75 7.55 -9.45 5.85 L-7.4 3.25 -7.6 2.85 -12.1 6.95 -12.95 6.9 Q-13.45 6.8 -13.2 6.25 -12.35 4.75 -10.6 3.65 L-7.7 2.0 Q-7.4 2.5 -7.1 2.1 L-6.6 1.3" fill="#ffb34d" fill-rule="evenodd" stroke="none"/>
    <path d="M-6.6 1.3 L-6.25 -0.6 Q-6.0 -1.65 -5.4 -2.0 -5.9 1.05 -6.5 1.7 -6.55 2.2 -6.2 2.55 -5.5 2.6 -5.05 1.5 -4.6 0.45 -4.0 0.5 L-3.15 0.5 Q-2.65 0.6 -3.0 1.2 L-4.25 2.35 -5.6 3.4 Q-9.0 7.5 -10.7 10.25 L-11.2 9.8 Q-11.4 9.35 -11.2 8.9 -10.75 7.55 -9.45 5.85 L-7.4 3.25 -7.6 2.85 -12.1 6.95 -12.95 6.9 Q-13.45 6.8 -13.2 6.25 -12.35 4.75 -10.6 3.65 L-7.7 2.0 Q-7.4 2.5 -7.1 2.1 L-6.6 1.3 Z" fill="none" stroke="#000000" stroke-linecap="round" stroke-linejoin="round" stroke-width="4.5"/>
    <path d="M-1.9 -37.7 Q2.65 -37.2 4.4 -34.4 5.9 -32.25 6.15 -27.9 6.5 -22.0 6.7 -21.2 7.45 -18.85 10.25 -16.45 12.65 -14.35 13.1 -10.65 13.05 -5.95 11.0 -3.4 5.15 1.95 0.0 0.85 L-6.5 -2.95 Q-7.65 -5.25 -7.0 -9.2 L-5.95 -16.25 Q-10.25 -23.9 -8.9 -29.35 -6.05 -37.45 -1.9 -37.7" fill="#ffe066" fill-rule="evenodd" stroke="none"/>
    <path d="M-1.9 -37.7 Q2.65 -37.2 4.4 -34.4 5.9 -32.25 6.15 -27.9 6.5 -22.0 6.7 -21.2 7.45 -18.85 10.25 -16.45 12.65 -14.35 13.1 -10.65 13.05 -5.95 11.0 -3.4 5.15 1.95 0.0 0.85 L-6.5 -2.95 Q-7.65 -5.25 -7.0 -9.2 L-5.95 -16.25 Q-10.25 -23.9 -8.9 -29.35 -6.05 -37.45 -1.9 -37.7 Z" fill="none" stroke="#000000" stroke-linecap="round" stroke-linejoin="round" stroke-width="4.5"/>
    <path d="M6.25 -22.3 L7.15 -23.8 Q8.35 -25.2 9.8 -24.95 L15.25 -24.8 Q18.7 -24.65 17.75 -22.95 16.95 -21.6 19.5 -22.85 L20.6 -23.3 Q20.8 -23.1 19.45 -21.7 14.2 -16.15 10.45 -15.85 8.9 -15.7 7.1 -18.05 5.3 -20.5 6.25 -22.3" fill="#ffe066" fill-rule="evenodd" stroke="none"/>
    <path d="M6.25 -22.3 L7.15 -23.8 Q8.35 -25.2 9.8 -24.95 L15.25 -24.8 Q18.7 -24.65 17.75 -22.95 16.95 -21.6 19.5 -22.85 L20.6 -23.3 Q20.8 -23.1 19.45 -21.7 14.2 -16.15 10.45 -15.85 8.9 -15.7 7.1 -18.05 5.3 -20.5 6.25 -22.3 Z" fill="none" stroke="#000000" stroke-linecap="round" stroke-linejoin="round" stroke-width="4.5"/>
    <path d="M-18.35 -15.85 Q-19.7 -17.25 -19.55 -17.4 L-18.4 -17.0 -16.65 -17.05 Q-17.65 -18.8 -14.15 -19.25 L-8.75 -19.7 Q-6.4 -20.15 -5.15 -17.05 -4.2 -15.25 -6.05 -12.8 -7.8 -10.45 -9.35 -10.6 -13.75 -10.95 -18.35 -15.85" fill="#ffe066" fill-rule="evenodd" stroke="none"/>
    <path d="M-18.35 -15.85 Q-13.75 -10.95 -9.35 -10.6 -7.8 -10.45 -6.05 -12.8 -4.2 -15.25 -5.15 -17.05 -6.4 -20.15 -8.75 -19.7 L-14.15 -19.25 Q-17.65 -18.8 -16.65 -17.05 L-18.4 -17.0 -19.55 -17.4 Q-19.7 -17.25 -18.35 -15.85 Z" fill="none" stroke="#000000" stroke-linecap="round" stroke-linejoin="round" stroke-width="4.5"/>
    <path d="M-1.9 -37.7 Q2.65 -37.2 4.4 -34.4 5.9 -32.25 6.15 -27.9 6.5 -22.0 6.7 -21.2 7.45 -18.85 10.25 -16.45 12.65 -14.35 13.1 -10.65 13.05 -5.95 11.0 -3.4 5.15 1.95 0.0 0.85 L-6.5 -2.95 Q-7.65 -5.25 -7.0 -9.2 L-5.95 -16.25 Q-10.25 -23.9 -8.9 -29.35 -6.05 -37.45 -1.9 -37.7" fill="#ffe066" fill-rule="evenodd" stroke="none"/>
    <path d="M-3.25 -31.85 Q-2.95 -30.95 -3.95 -29.5 L-6.35 -29.35 Q-7.2 -29.75 -6.7 -31.7 -6.2 -32.85 -4.9 -32.9 -3.65 -32.95 -3.25 -31.85" fill="#000000" fill-rule="evenodd" stroke="none"/>
    <path d="M2.0 -32.9 Q3.3 -32.95 3.65 -31.85 4.0 -30.95 3.0 -29.5 L0.55 -29.35 Q-0.3 -29.75 0.25 -31.7 0.7 -32.85 2.0 -32.9" fill="#000000" fill-rule="evenodd" stroke="none"/>
    <path d="M-6.6 1.3 L-6.25 -0.6 Q-6.0 -1.65 -5.4 -2.0 -5.9 1.05 -6.5 1.7 -6.55 2.2 -6.2 2.55 -5.5 2.6 -5.05 1.5 -4.6 0.45 -4.0 0.5 L-3.15 0.5 Q-2.65 0.6 -3.0 1.2 L-4.25 2.35 -5.6 3.4 Q-9.0 7.5 -10.7 10.25 L-11.2 9.8 Q-11.4 9.35 -11.2 8.9 -10.75 7.55 -9.45 5.85 L-7.4 3.25 -7.6 2.85 -12.1 6.95 -12.95 6.9 Q-13.45 6.8 -13.2 6.25 -12.35 4.75 -10.6 3.65 L-7.7 2.0 Q-7.4 2.5 -7.1 2.1 L-6.6 1.3" fill="#ffb34d" fill-rule="evenodd" stroke="none"/>
    <path d="M7.75 1.05 Q7.4 0.45 7.9 0.35 L8.75 0.35 Q9.35 0.3 9.8 1.4 10.25 2.5 10.95 2.45 11.3 2.1 11.25 1.6 10.75 1.0 10.15 -2.1 10.75 -1.8 11.05 -0.7 L11.35 1.2 11.85 1.95 12.5 1.9 15.4 3.55 Q17.1 4.6 17.95 6.15 18.2 6.7 17.75 6.8 L16.85 6.8 12.35 2.7 12.15 3.1 14.25 5.75 Q15.5 7.35 16.0 8.75 L15.95 9.65 15.45 10.1 Q13.8 7.45 10.4 3.25 8.35 2.1 7.75 1.05" fill="#ffb34d" fill-rule="evenodd" stroke="none"/>
    <path d="M7.75 1.05 Q8.35 2.1 10.4 3.25 13.8 7.45 15.45 10.1 L15.95 9.65 16.0 8.75 Q15.5 7.35 14.25 5.75 L12.15 3.1 12.35 2.7 16.85 6.8 17.75 6.8 Q18.2 6.7 17.95 6.15 17.1 4.6 15.4 3.55 L12.5 1.9 11.85 1.95 11.35 1.2 11.05 -0.7 Q10.75 -1.8 10.15 -2.1 10.75 1.0 11.25 1.6 11.3 2.1 10.95 2.45 10.25 2.5 9.8 1.4 9.35 0.3 8.75 0.35 L7.9 0.35 Q7.4 0.45 7.75 1.05 Z" fill="none" stroke="#000000" stroke-linecap="round" stroke-linejoin="round" stroke-width="2.5"/>
    <path d="M7.75 1.05 Q7.4 0.45 7.9 0.35 L8.75 0.35 Q9.35 0.3 9.8 1.4 10.25 2.5 10.95 2.45 11.3 2.1 11.25 1.6 10.75 1.0 10.15 -2.1 10.75 -1.8 11.05 -0.7 L11.35 1.2 11.85 1.95 12.5 1.9 15.4 3.55 Q17.1 4.6 17.95 6.15 18.2 6.7 17.75 6.8 L16.85 6.8 12.35 2.7 12.15 3.1 14.25 5.75 Q15.5 7.35 16.0 8.75 L15.95 9.65 15.45 10.1 Q13.8 7.45 10.4 3.25 8.35 2.1 7.75 1.05" fill="#ffb34d" fill-rule="evenodd" stroke="none"/>
    <path d="M1.15 -25.8 Q1.15 -24.75 0.35 -24.0 -0.4 -23.3 -1.55 -23.3 -2.65 -23.3 -3.45 -24.0 -4.25 -24.75 -4.25 -25.8 -4.25 -26.85 -3.45 -27.55 -2.65 -28.3 -1.55 -28.3 -0.4 -28.3 0.35 -27.55 1.15 -26.85 1.15 -25.8" fill="#ffb31a" fill-rule="evenodd" stroke="none"/>
    <path d="M1.15 -25.8 Q1.15 -24.75 0.35 -24.0 -0.4 -23.3 -1.55 -23.3 -2.65 -23.3 -3.45 -24.0 -4.25 -24.75 -4.25 -25.8 -4.25 -26.85 -3.45 -27.55 -2.65 -28.3 -1.55 -28.3 -0.4 -28.3 0.35 -27.55 1.15 -26.85 1.15 -25.8 Z" fill="none" stroke="#000000" stroke-linecap="round" stroke-linejoin="round" stroke-width="1.0"/>
    <path d="M6.25 -22.3 L7.15 -23.8 Q8.35 -25.2 9.8 -24.95 L15.25 -24.8 Q18.7 -24.65 17.75 -22.95 16.95 -21.6 19.5 -22.85 L20.6 -23.3 Q20.8 -23.1 19.45 -21.7 14.2 -16.15 10.45 -15.85 8.9 -15.7 7.1 -18.05 5.3 -20.5 6.25 -22.3" fill="#ffe066" fill-rule="evenodd" stroke="none"/>
    <path d="M-18.35 -15.85 Q-19.7 -17.25 -19.55 -17.4 L-18.4 -17.0 -16.65 -17.05 Q-17.65 -18.8 -14.15 -19.25 L-8.75 -19.7 Q-6.4 -20.15 -5.15 -17.05 -4.2 -15.25 -6.05 -12.8 -7.8 -10.45 -9.35 -10.6 -13.75 -10.95 -18.35 -15.85" fill="#ffe066" fill-rule="evenodd" stroke="none"/>
    <path d="M-4.9 -30.8 Q-4.9 -30.3 -5.15 -30.3 -5.45 -30.3 -5.45 -30.8 -5.45 -31.3 -5.15 -31.3 -4.9 -31.3 -4.9 -30.8" fill="#ffffff" fill-rule="evenodd" stroke="none"/>
    <path d="M2.0 -30.8 Q2.0 -30.3 1.75 -30.3 1.5 -30.3 1.5 -30.8 1.5 -31.3 1.75 -31.3 L2.0 -30.8" fill="#ffffff" fill-rule="evenodd" stroke="none"/>
    <path d="M-3.65 -24.1 L-2.15 -24.95 Q-0.4 -25.55 0.75 -24.1" fill="none" stroke="#000000" stroke-linecap="round" stroke-linejoin="round" stroke-width="1.0"/>
  </g>
</svg>
