<?xml version="1.0" encoding="UTF-8" standalone="no"?>
<svg xmlns:xlink="http://www.w3.org/1999/xlink" height="98.65px" width="187.75px" xmlns="http://www.w3.org/2000/svg">
  <g transform="matrix(1.0, 0.0, 0.0, 1.0, 101.05, 39.0)">
    <path d="M-67.0 -1.85 Q-67.05 2.15 -69.2 5.4 -71.35 8.65 -74.95 10.55 -78.55 12.5 -83.05 12.5 -87.85 12.45 -91.6 10.3 -91.95 10.05 -91.15 9.4 -90.35 8.75 -88.95 7.85 L-86.1 6.1 -83.85 4.5 Q-82.95 3.75 -83.2 3.45 L-85.05 3.2 -88.55 3.55 -92.6 4.05 -96.05 4.3 Q-97.45 4.35 -97.7 3.95 -99.0 1.3 -99.05 -1.85 -99.0 -5.85 -96.85 -9.1 -94.75 -12.3 -91.1 -14.2 -87.5 -16.15 -83.05 -16.2 -78.55 -16.15 -74.95 -14.25 -71.35 -12.3 -69.2 -9.05 -67.05 -5.85 -67.0 -1.85 Z" fill="none" stroke="#000000" stroke-linecap="round" stroke-linejoin="round" stroke-width="4.0"/>
    <path d="M-50.8 -0.3 Q-50.8 2.3 -52.1 4.4 -53.35 6.45 -55.5 7.7 -57.7 8.95 -60.35 8.95 L-69.9 8.95 Q-72.6 8.95 -74.75 7.7 -76.9 6.45 -78.2 4.35 -79.45 2.3 -79.5 -0.3 -79.45 -2.9 -78.2 -5.0 -76.9 -7.1 -74.75 -8.3 -72.6 -9.55 -69.9 -9.6 L-60.35 -9.6 Q-57.7 -9.55 -55.5 -8.3 -53.35 -7.1 -52.1 -5.0 -50.8 -2.9 -50.8 -0.3 Z" fill="none" stroke="#000000" stroke-linecap="round" stroke-linejoin="round" stroke-width="4.0"/>
    <path d="M-88.7 -8.55 Q-87.95 -7.85 -87.95 -6.7 -88.0 -5.55 -88.7 -4.85 -89.45 -4.1 -90.55 -4.05 L-91.0 -4.05 Q-92.1 -4.1 -92.85 -4.85 -93.55 -5.55 -93.6 -6.7 -93.55 -7.85 -92.85 -8.55 -92.1 -9.3 -91.0 -9.35 L-90.55 -9.35 Q-89.45 -9.3 -88.7 -8.55 Z" fill="none" stroke="#000000" stroke-linecap="round" stroke-linejoin="round" stroke-width="4.0"/>
    <path d="M-90.05 -6.2 Q-90.15 -5.3 -91.1 -5.2 L-91.6 -5.2 Q-92.05 -5.2 -92.35 -5.5 L-92.65 -6.2 Q-92.55 -7.15 -91.6 -7.2 L-91.1 -7.2 -90.35 -6.9 Q-90.05 -6.65 -90.05 -6.2 Z" fill="none" stroke="#000000" stroke-linecap="round" stroke-linejoin="round" stroke-width="4.0"/>
    <path d="M-62.35 5.4 Q-62.3 -1.65 -58.6 -8.0 -54.9 -14.35 -48.15 -19.65 -41.4 -24.95 -32.25 -28.8 -23.05 -32.7 -12.05 -34.85 -1.05 -36.95 11.2 -37.0 23.45 -36.95 34.45 -34.85 45.45 -32.7 54.6 -28.8 63.8 -24.95 70.5 -19.65 77.25 -14.35 80.95 -8.0 84.65 -1.65 84.7 5.4" fill="none" stroke="#000000" stroke-linecap="round" stroke-linejoin="round" stroke-width="4.0"/>
    <path d="M21.05 -33.3 Q12.4 -33.55 2.7 -32.8 -6.95 -32.05 -16.65 -29.75 -26.35 -27.45 -35.15 -23.1 -43.95 -18.7 -50.95 -11.75 -57.95 -4.75 -62.2 5.4 -62.15 -1.65 -58.45 -8.0 -54.75 -14.35 -48.0 -19.65 -41.25 -24.95 -32.1 -28.8 -22.9 -32.7 -11.9 -34.85 -0.9 -36.95 11.35 -37.0 22.35 -37.0 32.35 -35.25 42.4 -33.5 51.05 -30.3 L47.1 -31.0 36.45 -32.35 21.05 -33.3 Z" fill="none" stroke="#000000" stroke-linecap="round" stroke-linejoin="round" stroke-width="4.0"/>
    <path d="M-62.35 4.25 Q-62.3 7.45 -58.6 10.3 -54.9 13.15 -48.15 15.55 -41.4 17.9 -32.25 19.65 -23.05 21.4 -12.05 22.4 L11.2 23.35 34.45 22.4 Q45.45 21.4 54.6 19.65 63.8 17.9 70.5 15.55 77.25 13.15 80.95 10.3 84.65 7.45 84.7 4.25" fill="none" stroke="#000000" stroke-linecap="round" stroke-linejoin="round" stroke-width="4.0"/>
    <path d="M70.5 15.55 Q63.75 17.95 54.6 19.7 45.4 21.4 34.4 22.4 L11.15 23.35 -12.1 22.4 Q-23.1 21.4 -32.25 19.65 -41.45 17.95 -48.15 15.55 -54.9 13.15 -58.6 10.3 -62.3 7.45 -62.35 4.3 L-58.55 6.05 Q-54.8 7.7 -47.65 10.1 -40.55 12.5 -30.55 14.7 -20.5 16.95 -7.9 18.2 4.65 19.45 19.35 18.8 34.05 18.1 50.5 14.7 66.9 11.3 84.7 4.3 84.65 7.45 80.95 10.3 77.25 13.15 70.5 15.55 Z" fill="none" stroke="#000000" stroke-linecap="round" stroke-linejoin="round" stroke-width="4.0"/>
    <path d="M-22.55 -12.15 Q-22.6 -9.65 -23.55 -7.6 -24.55 -5.6 -26.2 -4.35 -27.85 -3.15 -29.95 -3.15 -32.0 -3.2 -33.65 -4.4 -35.3 -5.6 -36.25 -7.6 -37.25 -9.65 -37.3 -12.15 -37.25 -14.65 -36.3 -16.7 -35.3 -18.75 -33.65 -19.95 -32.0 -21.15 -29.95 -21.15 -27.9 -21.15 -26.2 -19.95 -24.55 -18.75 -23.6 -16.7 -22.6 -14.65 -22.55 -12.15 Z" fill="none" stroke="#000000" stroke-linecap="round" stroke-linejoin="round" stroke-width="4.0"/>
    <path d="M10.3 -0.45 Q10.25 2.9 8.4 5.15 6.55 7.4 3.8 7.5 1.05 7.4 -0.8 5.15 -2.6 2.9 -2.7 -0.45 -2.6 -3.85 -0.8 -6.1 1.05 -8.3 3.8 -8.4 6.55 -8.3 8.4 -6.1 10.25 -3.85 10.3 -0.45 Z" fill="none" stroke="#000000" stroke-linecap="round" stroke-linejoin="round" stroke-width="4.0"/>
    <path d="M48.35 5.9 Q48.3 9.25 46.45 11.5 44.6 13.75 41.85 13.85 39.1 13.75 37.25 11.5 35.45 9.25 35.35 5.9 35.45 2.5 37.25 0.25 39.1 -1.95 41.85 -2.05 44.6 -1.95 46.45 0.25 48.3 2.5 48.35 5.9 Z" fill="none" stroke="#000000" stroke-linecap="round" stroke-linejoin="round" stroke-width="4.0"/>
    <path d="M28.8 -21.9 Q30.0 -19.45 30.0 -16.4 30.0 -13.35 28.8 -10.85 27.6 -8.4 25.6 -6.95 23.6 -5.5 21.1 -5.45 18.6 -5.5 16.6 -6.95 14.6 -8.4 13.4 -10.85 12.2 -13.35 12.15 -16.4 12.2 -19.45 13.4 -21.9 14.6 -24.35 16.6 -25.8 18.6 -27.25 21.1 -27.3 23.6 -27.25 25.6 -25.8 27.6 -24.35 28.8 -21.9 Z" fill="none" stroke="#000000" stroke-linecap="round" stroke-linejoin="round" stroke-width="4.0"/>
    <path d="M-8.95 3.05 Q-9.0 5.55 -9.95 7.6 -10.95 9.65 -12.6 10.85 -14.3 12.05 -16.35 12.05 -18.4 12.05 -20.05 10.85 -21.75 9.65 -22.7 7.6 -23.7 5.55 -23.75 3.05 -23.7 0.5 -22.75 -1.55 -21.75 -3.55 -20.05 -4.75 -18.4 -6.0 -16.35 -6.0 -14.3 -6.0 -12.6 -4.75 -10.95 -3.55 -10.0 -1.55 -9.0 0.5 -8.95 3.05 Z" fill="none" stroke="#000000" stroke-linecap="round" stroke-linejoin="round" stroke-width="4.0"/>
    <path d="M-37.7 3.45 Q-37.75 6.2 -39.15 8.0 -40.55 9.85 -42.6 9.9 -44.7 9.85 -46.1 8.0 -47.5 6.2 -47.55 3.45 -47.5 0.7 -46.1 -1.1 -44.7 -2.95 -42.6 -3.0 -40.55 -2.95 -39.15 -1.1 -37.75 0.7 -37.7 3.45 Z" fill="none" stroke="#000000" stroke-linecap="round" stroke-linejoin="round" stroke-width="4.0"/>
    <path d="M7.3 -21.15 Q7.25 -18.55 6.05 -16.5 4.85 -14.4 2.8 -13.2 0.75 -11.95 -1.8 -11.95 -4.35 -11.95 -6.4 -13.2 -8.45 -14.4 -9.65 -16.5 -10.85 -18.55 -10.9 -21.15 -10.85 -23.7 -9.65 -25.8 -8.45 -27.85 -6.4 -29.1 -4.35 -30.3 -1.8 -30.35 0.75 -30.3 2.8 -29.1 4.85 -27.85 6.05 -25.8 7.25 -23.7 7.3 -21.15 Z" fill="none" stroke="#000000" stroke-linecap="round" stroke-linejoin="round" stroke-width="4.0"/>
    <path d="M59.2 -10.55 Q59.15 -7.95 57.95 -5.9 56.75 -3.8 54.7 -2.6 52.65 -1.35 50.1 -1.35 47.55 -1.35 45.5 -2.6 43.45 -3.8 42.25 -5.9 41.05 -7.95 41.0 -10.55 41.05 -13.1 42.25 -15.2 43.45 -17.25 45.5 -18.5 47.55 -19.7 50.1 -19.75 52.65 -19.7 54.7 -18.5 56.75 -17.25 57.95 -15.2 59.15 -13.1 59.2 -10.55 Z" fill="none" stroke="#000000" stroke-linecap="round" stroke-linejoin="round" stroke-width="4.0"/>
    <path d="M70.3 -2.05 Q70.25 -0.4 69.2 0.7 68.1 1.8 66.45 1.85 64.8 1.8 63.75 0.7 62.65 -0.4 62.6 -2.05 62.65 -3.7 63.75 -4.8 64.8 -5.9 66.45 -5.95 68.1 -5.9 69.2 -4.8 70.25 -3.7 70.3 -2.05 Z" fill="none" stroke="#000000" stroke-linecap="round" stroke-linejoin="round" stroke-width="4.0"/>
    <path d="M18.4 9.6 Q18.35 11.25 17.3 12.35 16.2 13.45 14.55 13.5 12.9 13.45 11.85 12.35 10.75 11.25 10.7 9.6 10.75 7.95 11.85 6.85 12.9 5.75 14.55 5.7 16.2 5.75 17.3 6.85 18.35 7.95 18.4 9.6 Z" fill="none" stroke="#000000" stroke-linecap="round" stroke-linejoin="round" stroke-width="4.0"/>
    <path d="M31.95 4.3 Q31.9 6.55 30.65 8.1 29.45 9.6 27.6 9.65 25.75 9.6 24.5 8.1 23.3 6.55 23.25 4.3 23.3 2.05 24.5 0.55 25.75 -0.95 27.6 -1.0 29.45 -0.95 30.65 0.55 31.9 2.05 31.95 4.3 Z" fill="none" stroke="#000000" stroke-linecap="round" stroke-linejoin="round" stroke-width="4.0"/>
    <path d="M-36.4 11.15 Q-34.45 9.2 -31.5 9.1 -28.55 9.2 -26.6 11.15 -24.65 13.1 -24.55 16.05 L-24.55 42.9 Q-24.65 45.85 -26.6 47.8 -28.55 49.8 -31.5 49.85 -34.45 49.8 -36.4 47.8 -38.4 45.85 -38.45 42.9 L-38.45 16.05 Q-38.4 13.1 -36.4 11.15 Z" fill="none" stroke="#000000" stroke-linecap="round" stroke-linejoin="round" stroke-width="4.0"/>
    <path d="M51.6 4.65 Q53.55 2.7 56.5 2.6 59.45 2.7 61.4 4.65 63.35 6.6 63.45 9.55 L63.45 36.4 Q63.35 39.35 61.4 41.3 59.45 43.3 56.5 43.35 53.55 43.3 51.6 41.3 49.6 39.35 49.55 36.4 L49.55 9.55 Q49.6 6.6 51.6 4.65 Z" fill="none" stroke="#000000" stroke-linecap="round" stroke-linejoin="round" stroke-width="4.0"/>
    <path d="M-22.05 48.45 Q-22.1 51.0 -23.3 53.1 -24.55 55.15 -26.6 56.4 -28.65 57.6 -31.25 57.65 -33.8 57.6 -35.85 56.4 -37.95 55.15 -39.15 53.1 -40.35 51.0 -40.4 48.45 L-40.4 43.15 Q-40.35 40.6 -39.15 38.5 -37.95 36.45 -35.85 35.2 -33.8 34.0 -31.25 33.95 -28.7 34.0 -26.6 35.2 -24.55 36.45 -23.3 38.5 -22.1 40.55 -22.05 43.15 L-22.05 48.45 Z" fill="none" stroke="#000000" stroke-linecap="round" stroke-linejoin="round" stroke-width="4.0"/>
    <path d="M-34.5 51.45 Q-34.5 52.65 -35.3 53.4 -36.05 54.2 -37.25 54.2 -38.4 54.2 -39.2 53.4 -39.95 52.65 -40.0 51.45 L-40.0 50.15 Q-39.95 49.0 -39.2 48.2 -38.4 47.45 -37.25 47.4 -36.05 47.45 -35.3 48.2 -34.5 49.0 -34.5 50.15 L-34.5 51.45 Z" fill="none" stroke="#000000" stroke-linecap="round" stroke-linejoin="round" stroke-width="4.0"/>
    <path d="M-28.3 54.75 Q-28.3 55.95 -29.1 56.7 -29.85 57.5 -31.05 57.5 -32.2 57.5 -33.0 56.7 -33.75 55.95 -33.8 54.75 L-33.8 53.45 Q-33.75 52.3 -33.0 51.5 -32.2 50.75 -31.05 50.7 -29.85 50.75 -29.1 51.5 -28.3 52.3 -28.3 53.45 L-28.3 54.75 Z" fill="none" stroke="#000000" stroke-linecap="round" stroke-linejoin="round" stroke-width="4.0"/>
    <path d="M-22.65 50.5 Q-22.65 51.7 -23.45 52.45 -24.2 53.25 -25.4 53.25 -26.55 53.25 -27.35 52.45 -28.1 51.7 -28.15 50.5 L-28.15 49.2 Q-28.1 48.05 -27.35 47.25 -26.55 46.5 -25.4 46.45 -24.2 46.5 -23.45 47.25 -22.65 48.05 -22.65 49.2 L-22.65 50.5 Z" fill="none" stroke="#000000" stroke-linecap="round" stroke-linejoin="round" stroke-width="4.0"/>
    <path d="M65.95 45.95 Q65.9 48.5 64.7 50.6 63.45 52.65 61.4 53.9 59.35 55.1 56.75 55.15 54.2 55.1 52.15 53.9 50.05 52.65 48.85 50.6 47.65 48.5 47.6 45.95 L47.6 40.65 Q47.65 38.1 48.85 36.0 50.05 33.95 52.15 32.7 54.2 31.5 56.75 31.45 59.3 31.5 61.4 32.7 63.45 33.95 64.7 36.0 65.9 38.05 65.95 40.65 L65.95 45.95 Z" fill="none" stroke="#000000" stroke-linecap="round" stroke-linejoin="round" stroke-width="4.0"/>
    <path d="M53.5 48.95 Q53.5 50.15 52.7 50.9 51.95 51.7 50.75 51.7 49.6 51.7 48.8 50.9 48.05 50.15 48.0 48.95 L48.0 47.65 Q48.05 46.5 48.8 45.7 49.6 44.95 50.75 44.9 51.95 44.95 52.7 45.7 53.5 46.5 53.5 47.65 L53.5 48.95 Z" fill="none" stroke="#000000" stroke-linecap="round" stroke-linejoin="round" stroke-width="4.0"/>
    <path d="M59.7 52.25 Q59.7 53.45 58.9 54.2 58.15 55.0 56.95 55.0 55.8 55.0 55.0 54.2 54.25 53.45 54.2 52.25 L54.2 50.95 Q54.25 49.8 55.0 49.0 55.8 48.25 56.95 48.2 58.15 48.25 58.9 49.0 59.7 49.8 59.7 50.95 L59.7 52.25 Z" fill="none" stroke="#000000" stroke-linecap="round" stroke-linejoin="round" stroke-width="4.0"/>
    <path d="M65.35 48.0 Q65.35 49.2 64.55 49.95 63.8 50.75 62.6 50.75 61.45 50.75 60.65 49.95 59.9 49.2 59.85 48.0 L59.85 46.7 Q59.9 45.55 60.65 44.75 61.45 44.0 62.6 43.95 63.8 44.0 64.55 44.75 65.35 45.55 65.35 46.7 L65.35 48.0 Z" fill="none" stroke="#000000" stroke-linecap="round" stroke-linejoin="round" stroke-width="4.0"/>
    <path d="M-67.0 -1.85 Q-67.05 2.15 -69.2 5.4 -71.35 8.65 -74.95 10.55 -78.55 12.45 -83.05 12.5 -87.85 12.45 -91.65 10.25 -92.0 10.0 -91.2 9.35 L-88.95 7.85 -86.15 6.05 -83.85 4.45 Q-82.95 3.75 -83.25 3.4 L-85.05 3.2 -88.55 3.5 -92.6 4.0 -96.05 4.3 Q-97.45 4.3 -97.7 3.95 -99.0 1.25 -99.05 -1.85 -99.0 -5.85 -96.85 -9.1 -94.75 -12.35 -91.1 -14.25 -87.5 -16.15 -83.05 -16.2 -78.55 -16.15 -74.95 -14.25 -71.35 -12.35 -69.2 -9.1 -67.05 -5.85 -67.0 -1.85" fill="#dee00d" fill-rule="evenodd" stroke="none"/>
    <path d="M-50.8 -0.3 Q-50.8 2.3 -52.1 4.35 -53.35 6.45 -55.55 7.7 -57.7 8.95 -60.35 8.95 L-69.95 8.95 Q-72.6 8.9 -74.75 7.7 -76.9 6.45 -78.2 4.35 -79.45 2.25 -79.5 -0.3 -79.45 -2.9 -78.2 -5.0 -76.9 -7.1 -74.75 -8.35 -72.6 -9.55 -69.95 -9.6 L-60.35 -9.6 Q-57.7 -9.55 -55.55 -8.35 -53.35 -7.1 -52.1 -5.0 -50.8 -2.9 -50.8 -0.3" fill="#dee00d" fill-rule="evenodd" stroke="none"/>
    <path d="M-90.55 -4.05 L-91.0 -4.05 Q-92.1 -4.1 -92.85 -4.8 -93.55 -5.55 -93.6 -6.7 -93.55 -7.85 -92.85 -8.55 -92.1 -9.3 -91.0 -9.35 L-90.55 -9.35 Q-89.45 -9.3 -88.7 -8.55 -88.0 -7.85 -87.95 -6.7 -88.0 -5.55 -88.7 -4.8 -89.45 -4.1 -90.55 -4.05" fill="#ffffff" fill-rule="evenodd" stroke="none"/>
    <path d="M-90.05 -6.2 Q-90.15 -5.25 -91.1 -5.15 L-91.6 -5.15 Q-92.05 -5.15 -92.35 -5.45 -92.65 -5.75 -92.65 -6.2 -92.55 -7.1 -91.6 -7.2 L-91.1 -7.2 -90.35 -6.9 -90.05 -6.2" fill="#000000" fill-rule="evenodd" stroke="none"/>
    <path d="M84.7 5.35 L-62.35 5.35 Q-62.3 -1.7 -58.6 -8.05 -54.9 -14.4 -48.15 -19.7 -41.45 -25.0 -32.25 -28.85 -23.1 -32.75 -12.05 -34.9 -1.05 -37.0 11.15 -37.05 23.4 -37.0 34.4 -34.9 45.4 -32.75 54.6 -28.85 63.75 -25.0 70.5 -19.7 77.25 -14.4 80.95 -8.05 84.65 -1.7 84.7 5.35" fill="#7f6d13" fill-rule="evenodd" stroke="none"/>
    <path d="M21.0 -33.3 Q12.35 -33.55 2.7 -32.8 -6.95 -32.05 -16.65 -29.75 -26.35 -27.45 -35.2 -23.1 -44.0 -18.7 -51.0 -11.75 -57.95 -4.75 -62.2 5.4 -62.15 -1.65 -58.45 -8.0 -54.75 -14.35 -48.0 -19.65 -41.3 -24.95 -32.1 -28.8 -22.95 -32.7 -11.9 -34.85 -0.9 -36.95 11.3 -37.0 22.3 -37.0 32.35 -35.25 42.4 -33.5 51.0 -30.3 L47.05 -31.0 36.45 -32.35 21.0 -33.3" fill="#9e8818" fill-rule="evenodd" stroke="none"/>
    <path d="M84.7 4.3 Q84.65 7.45 80.95 10.35 77.25 13.2 70.5 15.55 63.75 17.95 54.6 19.7 45.4 21.45 34.4 22.4 L11.15 23.35 -12.05 22.4 Q-23.1 21.45 -32.25 19.7 -41.45 17.95 -48.15 15.55 -54.9 13.2 -58.6 10.35 -62.3 7.45 -62.35 4.3 L84.7 4.3" fill="#7f6d13" fill-rule="evenodd" stroke="none"/>
    <path d="M70.5 15.55 Q63.75 17.95 54.6 19.7 45.4 21.45 34.4 22.4 L11.15 23.35 -12.1 22.4 Q-23.1 21.45 -32.25 19.7 -41.45 17.95 -48.15 15.55 -54.9 13.2 -58.6 10.35 -62.3 7.45 -62.35 4.3 L-58.55 6.05 Q-54.8 7.7 -47.65 10.1 -40.55 12.5 -30.55 14.75 -20.5 17.0 -7.9 18.2 4.65 19.45 19.35 18.8 34.05 18.15 50.5 14.75 66.9 11.35 84.7 4.3 84.65 7.45 80.95 10.35 77.25 13.2 70.5 15.55" fill="#65570f" fill-rule="evenodd" stroke="none"/>
    <path d="M-22.55 -12.15 Q-22.55 -9.65 -23.55 -7.6 -24.55 -5.55 -26.2 -4.35 -27.85 -3.15 -29.9 -3.15 -31.95 -3.15 -33.6 -4.35 -35.25 -5.55 -36.25 -7.6 -37.25 -9.65 -37.25 -12.15 -37.25 -14.65 -36.25 -16.7 -35.25 -18.7 -33.6 -19.9 -31.95 -21.1 -29.9 -21.15 -27.85 -21.1 -26.2 -19.9 -24.55 -18.7 -23.55 -16.7 -22.55 -14.65 -22.55 -12.15" fill="#c6b90e" fill-rule="evenodd" stroke="none"/>
    <path d="M10.3 -0.45 Q10.25 2.95 8.4 5.15 6.6 7.4 3.85 7.5 1.1 7.4 -0.75 5.15 -2.6 2.9 -2.65 -0.45 -2.6 -3.85 -0.75 -6.05 1.1 -8.3 3.85 -8.4 6.6 -8.3 8.45 -6.05 10.25 -3.85 10.3 -0.45" fill="#c6b90e" fill-rule="evenodd" stroke="none"/>
    <path d="M48.35 5.9 Q48.3 9.25 46.45 11.5 44.65 13.75 41.9 13.85 39.15 13.75 37.3 11.5 35.45 9.25 35.4 5.9 35.45 2.5 37.3 0.3 39.15 -1.95 41.9 -2.05 44.65 -1.95 46.5 0.3 48.3 2.5 48.35 5.9" fill="#c6b90e" fill-rule="evenodd" stroke="none"/>
    <path d="M30.05 -16.35 Q30.0 -13.3 28.8 -10.85 27.65 -8.4 25.6 -6.95 23.6 -5.5 21.1 -5.45 18.6 -5.5 16.6 -6.95 14.6 -8.4 13.4 -10.85 12.25 -13.3 12.2 -16.35 12.25 -19.4 13.4 -21.9 14.6 -24.35 16.6 -25.8 18.65 -27.25 21.1 -27.3 23.6 -27.25 25.6 -25.8 27.65 -24.35 28.8 -21.9 30.0 -19.4 30.05 -16.35" fill="#c6b90e" fill-rule="evenodd" stroke="none"/>
    <path d="M-9.0 3.05 Q-9.0 5.55 -10.0 7.6 -11.0 9.65 -12.65 10.85 -14.3 12.05 -16.35 12.1 -18.4 12.05 -20.1 10.85 -21.75 9.65 -22.75 7.6 -23.75 5.55 -23.75 3.05 -23.75 0.5 -22.75 -1.5 -21.75 -3.55 -20.1 -4.75 -18.45 -5.95 -16.35 -6.0 -14.3 -5.95 -12.65 -4.75 -11.0 -3.55 -10.0 -1.5 -9.0 0.5 -9.0 3.05" fill="#c6b90e" fill-rule="evenodd" stroke="none"/>
    <path d="M-37.7 3.4 Q-37.75 6.15 -39.15 7.95 -40.55 9.8 -42.65 9.85 -44.75 9.8 -46.1 7.95 -47.5 6.15 -47.55 3.4 -47.5 0.65 -46.1 -1.15 -44.7 -3.0 -42.65 -3.05 -40.55 -3.0 -39.15 -1.15 -37.75 0.65 -37.7 3.4" fill="#c6b90e" fill-rule="evenodd" stroke="none"/>
    <path d="M7.3 -21.15 Q7.25 -18.6 6.05 -16.5 4.85 -14.45 2.8 -13.2 0.75 -12.0 -1.8 -11.95 -4.35 -12.0 -6.4 -13.2 -8.45 -14.45 -9.65 -16.5 -10.85 -18.6 -10.9 -21.15 -10.85 -23.7 -9.65 -25.8 -8.45 -27.85 -6.4 -29.1 -4.35 -30.3 -1.8 -30.35 0.75 -30.3 2.8 -29.1 4.85 -27.85 6.05 -25.8 7.25 -23.7 7.3 -21.15" fill="#c6b90e" fill-rule="evenodd" stroke="none"/>
    <path d="M59.2 -10.55 Q59.15 -8.0 57.95 -5.9 56.75 -3.85 54.7 -2.6 52.65 -1.4 50.1 -1.35 47.55 -1.4 45.5 -2.6 43.45 -3.85 42.25 -5.9 41.05 -8.0 41.0 -10.55 41.05 -13.1 42.25 -15.2 43.45 -17.25 45.5 -18.5 47.55 -19.7 50.1 -19.75 52.65 -19.7 54.7 -18.5 56.75 -17.25 57.95 -15.2 59.15 -13.1 59.2 -10.55" fill="#c6b90e" fill-rule="evenodd" stroke="none"/>
    <path d="M70.3 -2.05 Q70.25 -0.4 69.2 0.7 68.1 1.8 66.45 1.85 64.8 1.8 63.75 0.7 62.65 -0.4 62.6 -2.05 62.65 -3.7 63.75 -4.8 64.8 -5.9 66.45 -5.95 68.1 -5.9 69.2 -4.8 70.25 -3.7 70.3 -2.05" fill="#c6b90e" fill-rule="evenodd" stroke="none"/>
    <path d="M18.45 9.6 Q18.4 11.25 17.35 12.35 16.25 13.45 14.6 13.5 12.95 13.45 11.9 12.35 10.8 11.25 10.75 9.6 10.8 7.95 11.9 6.85 12.95 5.75 14.6 5.7 16.25 5.75 17.35 6.85 18.4 7.95 18.45 9.6" fill="#c6b90e" fill-rule="evenodd" stroke="none"/>
    <path d="M31.95 4.3 Q31.9 6.55 30.65 8.05 29.45 9.55 27.6 9.6 25.75 9.55 24.5 8.05 23.3 6.55 23.25 4.3 23.3 2.0 24.5 0.5 25.75 -1.0 27.6 -1.05 29.45 -1.0 30.65 0.5 31.9 2.0 31.95 4.3" fill="#c6b90e" fill-rule="evenodd" stroke="none"/>
    <path d="M-36.4 11.2 Q-34.45 9.2 -31.5 9.15 -28.55 9.2 -26.6 11.2 -24.65 13.15 -24.55 16.1 L-24.55 42.95 Q-24.65 45.9 -26.6 47.85 -28.55 49.8 -31.5 49.9 -34.45 49.8 -36.4 47.85 -38.4 45.9 -38.45 42.95 L-38.45 16.1 Q-38.4 13.15 -36.4 11.2" fill="#dee00d" fill-rule="evenodd" stroke="none"/>
    <path d="M51.6 9.7 Q53.55 7.7 56.5 7.65 59.45 7.7 61.4 9.7 63.35 11.65 63.45 14.6 L63.45 41.45 Q63.35 44.4 61.4 46.35 59.45 48.3 56.5 48.4 53.55 48.3 51.6 46.35 49.6 44.4 49.55 41.45 L49.55 14.6 Q49.6 11.65 51.6 9.7" fill="#dee00d" fill-rule="evenodd" stroke="none"/>
    <path d="M-22.05 43.1 L-22.05 48.45 Q-22.1 51.0 -23.3 53.1 -24.55 55.15 -26.6 56.35 -28.65 57.6 -31.25 57.6 -33.8 57.6 -35.85 56.35 -37.95 55.15 -39.15 53.1 -40.35 51.0 -40.4 48.45 L-40.4 43.1 Q-40.35 40.55 -39.15 38.5 -37.95 36.4 -35.85 35.2 -33.8 34.0 -31.25 33.95 -28.7 34.0 -26.6 35.2 -24.55 36.4 -23.3 38.5 -22.1 40.55 -22.05 43.1" fill="#dee00d" fill-rule="evenodd" stroke="none"/>
    <path d="M-34.5 51.45 Q-34.5 52.65 -35.3 53.4 -36.05 54.2 -37.25 54.2 -38.4 54.2 -39.2 53.4 -39.95 52.65 -40.0 51.45 L-40.0 50.15 Q-39.95 49.0 -39.2 48.2 -38.4 47.45 -37.25 47.4 -36.05 47.45 -35.3 48.2 -34.5 49.0 -34.5 50.15 L-34.5 51.45" fill="#ffffff" fill-rule="evenodd" stroke="none"/>
    <path d="M-28.3 54.75 Q-28.3 55.95 -29.1 56.7 -29.85 57.5 -31.05 57.5 -32.2 57.5 -33.0 56.7 -33.75 55.95 -33.8 54.75 L-33.8 53.45 Q-33.75 52.3 -33.0 51.5 -32.2 50.75 -31.05 50.7 -29.85 50.75 -29.1 51.5 -28.3 52.3 -28.3 53.45 L-28.3 54.75" fill="#ffffff" fill-rule="evenodd" stroke="none"/>
    <path d="M-22.65 50.5 Q-22.65 51.7 -23.45 52.45 -24.2 53.25 -25.4 53.25 -26.55 53.25 -27.35 52.45 -28.1 51.7 -28.15 50.5 L-28.15 49.2 Q-28.1 48.05 -27.35 47.25 -26.55 46.5 -25.4 46.45 -24.2 46.5 -23.45 47.25 -22.65 48.05 -22.65 49.2 L-22.65 50.5" fill="#ffffff" fill-rule="evenodd" stroke="none"/>
    <path d="M65.95 40.6 L65.95 45.95 Q65.9 48.5 64.7 50.6 63.45 52.65 61.4 53.85 59.35 55.1 56.75 55.1 54.2 55.1 52.15 53.85 50.05 52.65 48.85 50.6 47.65 48.5 47.6 45.95 L47.6 40.6 Q47.65 38.05 48.85 36.0 50.05 33.9 52.15 32.7 54.2 31.5 56.75 31.45 59.3 31.5 61.4 32.7 63.45 33.9 64.7 36.0 65.9 38.05 65.95 40.6" fill="#dee00d" fill-rule="evenodd" stroke="none"/>
    <path d="M53.5 48.95 Q53.5 50.15 52.7 50.9 51.95 51.7 50.75 51.7 49.6 51.7 48.8 50.9 48.05 50.15 48.0 48.95 L48.0 47.65 Q48.05 46.5 48.8 45.7 49.6 44.95 50.75 44.9 51.95 44.95 52.7 45.7 53.5 46.5 53.5 47.65 L53.5 48.95" fill="#ffffff" fill-rule="evenodd" stroke="none"/>
    <path d="M59.7 52.25 Q59.7 53.45 58.9 54.2 58.15 55.0 56.95 55.0 55.8 55.0 55.0 54.2 54.25 53.45 54.2 52.25 L54.2 50.95 Q54.25 49.8 55.0 49.0 55.8 48.25 56.95 48.2 58.15 48.25 58.9 49.0 59.7 49.8 59.7 50.95 L59.7 52.25" fill="#ffffff" fill-rule="evenodd" stroke="none"/>
    <path d="M65.35 48.0 Q65.35 49.2 64.55 49.95 63.8 50.75 62.6 50.75 61.45 50.75 60.65 49.95 59.9 49.2 59.85 48.0 L59.85 46.7 Q59.9 45.55 60.65 44.75 61.45 44.0 62.6 43.95 63.8 44.0 64.55 44.75 65.35 45.55 65.35 46.7 L65.35 48.0" fill="#ffffff" fill-rule="evenodd" stroke="none"/>
  </g>
</svg>
