<?xml version="1.0" encoding="UTF-8" standalone="no"?>
<svg xmlns:xlink="http://www.w3.org/1999/xlink" height="96.45px" width="259.05px" xmlns="http://www.w3.org/2000/svg">
  <g transform="matrix(1.0, 0.0, 0.0, 1.0, 13.55, 34.35)">
    <path d="M172.3 -8.0 L171.05 -9.05 169.6 -9.2 Q168.0 -8.95 165.85 -7.2 L162.45 -4.45 166.45 2.2 Q169.3 0.55 171.4 -1.8 173.45 -4.1 173.0 -6.4 L172.3 -8.0 M183.25 -4.95 Q182.5 -2.2 180.45 0.95 L198.75 9.7 191.85 16.95 187.35 17.7 189.4 19.45 184.0 25.05 172.1 8.95 167.25 13.65 171.1 24.8 160.7 31.2 157.8 20.8 160.8 20.0 157.7 20.35 154.7 9.55 159.1 8.6 158.65 8.45 157.7 8.2 156.25 8.25 154.45 8.65 149.05 -10.85 Q152.45 -13.05 157.4 -14.9 162.35 -16.8 167.05 -17.7 L176.5 -18.15 Q180.45 -17.65 181.8 -15.35 183.1 -13.05 183.55 -10.65 184.1 -7.75 183.25 -4.95 M145.0 -5.7 L132.2 -1.7 134.6 6.05 142.95 3.8 145.15 10.35 139.2 13.95 140.4 16.9 151.8 13.75 153.6 21.1 151.8 21.25 149.7 21.5 148.0 21.8 145.0 22.2 141.7 22.7 139.6 23.25 136.85 24.2 134.6 25.0 133.55 25.35 134.7 25.2 137.0 24.75 138.9 24.35 141.05 23.85 144.1 23.25 146.5 22.8 148.85 22.75 150.65 22.9 152.1 22.65 153.9 22.4 155.45 28.45 153.8 28.7 152.5 29.05 150.6 29.8 147.95 30.8 129.1 31.95 118.65 -6.7 142.65 -14.4 145.0 -5.7 M116.35 18.1 Q117.75 25.65 113.55 31.85 110.65 36.2 106.1 38.55 L103.1 39.0 101.1 39.45 Q100.5 39.65 99.25 40.2 L96.8 41.15 Q90.15 41.35 84.25 36.95 L80.6 33.6 83.4 32.75 86.75 31.8 89.0 31.15 Q90.3 30.7 91.5 30.35 L93.7 29.45 95.15 28.95 97.85 29.15 99.65 28.6 Q100.6 28.25 101.45 27.05 L103.4 26.4 Q103.9 26.2 103.65 25.85 L103.35 25.55 102.15 25.9 Q103.05 24.1 102.85 21.9 L97.55 23.5 96.0 17.15 119.7 9.25 121.3 16.15 116.35 18.1 M107.75 0.85 L103.25 7.95 101.5 8.2 99.95 8.55 98.15 9.1 Q96.3 8.35 94.7 8.65 91.75 9.2 90.4 11.8 L88.1 12.6 86.75 13.1 85.05 13.7 82.6 14.6 80.4 15.35 79.45 15.75 80.75 15.35 83.8 14.45 87.05 13.45 89.2 12.85 90.05 12.55 Q88.8 15.85 89.5 19.8 L89.7 20.65 90.45 23.2 Q91.1 25.1 93.1 27.4 L93.85 28.15 91.2 28.7 88.7 29.15 87.3 29.45 Q86.85 29.55 86.15 30.0 L84.75 30.95 83.7 31.6 82.05 32.55 80.45 33.4 Q76.55 28.85 75.35 22.65 73.75 14.2 78.3 7.05 82.95 -0.15 91.2 -1.7 L99.95 -2.15 Q103.75 -1.65 107.75 0.85 M100.8 9.15 L102.75 8.75 101.7 10.5 99.3 9.6 100.8 9.15 M71.7 12.25 L59.6 14.75 59.75 16.2 56.65 14.7 50.9 19.9 57.7 16.55 59.75 16.65 60.45 24.25 61.0 32.95 64.75 32.65 71.1 31.55 73.0 43.95 70.5 44.3 67.7 44.8 65.45 45.3 63.25 46.2 61.05 47.25 47.75 48.4 37.15 49.25 36.5 44.65 38.25 43.95 Q39.2 43.55 39.75 43.3 L42.05 42.7 44.9 41.9 46.75 41.0 48.55 39.9 49.35 39.5 48.25 39.75 46.1 40.3 44.35 40.7 42.35 41.2 39.75 41.8 37.95 42.35 36.35 43.05 Q36.05 40.75 36.2 38.15 L45.1 36.5 44.7 34.6 44.2 31.6 42.8 24.85 41.75 20.55 46.7 15.6 45.35 16.05 42.6 16.85 40.2 17.6 38.25 18.2 35.65 18.95 33.45 19.55 31.25 11.8 69.5 0.75 71.7 12.25 M16.7 17.5 L15.8 17.8 13.75 18.35 11.55 19.05 10.3 19.5 8.6 20.0 6.05 20.7 3.95 21.25 Q3.15 21.5 1.7 22.1 L-1.05 23.3 -2.85 24.1 -4.05 24.35 -5.75 24.5 -7.15 17.25 -2.15 15.6 28.0 11.5 30.05 22.45 17.15 27.35 17.95 29.8 15.6 32.7 18.7 32.15 23.5 47.25 19.9 47.9 18.1 48.45 15.5 49.35 13.4 50.0 12.05 50.45 10.9 51.1 7.35 32.1 -3.75 35.1 -5.5 25.75 -2.25 24.85 0.7 24.05 3.4 23.1 6.7 21.75 9.1 20.75 11.75 19.9 14.05 19.15 15.75 18.15 16.7 17.5 M25.6 53.8 L12.45 59.15 11.05 51.9 24.0 48.8 25.6 53.8" fill="none" stroke="#000000" stroke-linecap="round" stroke-linejoin="round" stroke-width="5.9"/>
    <path d="M168.85 -10.35 L167.6 -11.4 166.15 -11.55 Q164.55 -11.3 162.4 -9.55 L159.0 -6.8 162.95 -0.15 Q165.9 -1.8 167.95 -4.15 170.0 -6.45 169.55 -8.75 169.45 -9.55 168.85 -10.35 M179.8 -7.3 Q179.05 -4.55 177.0 -1.4 L195.3 7.35 188.4 14.6 183.9 15.35 185.95 17.1 180.55 22.7 168.65 6.6 163.8 11.3 167.65 22.45 157.25 28.85 154.35 18.45 157.35 17.65 154.25 18.0 151.25 7.2 155.65 6.25 155.2 6.1 154.25 5.85 152.8 5.9 151.0 6.3 145.6 -13.2 Q149.0 -15.4 153.95 -17.25 158.9 -19.15 163.6 -20.05 L173.05 -20.5 Q177.0 -20.0 178.35 -17.7 179.65 -15.4 180.1 -13.0 180.65 -10.1 179.8 -7.3 M141.55 -8.05 L128.75 -4.05 131.15 3.7 139.5 1.45 141.7 8.0 135.75 11.6 136.95 14.55 148.35 11.4 150.15 18.75 148.35 18.9 146.25 19.15 144.55 19.45 141.55 19.9 138.25 20.35 136.15 20.9 133.4 21.85 131.15 22.65 130.1 23.0 131.25 22.85 133.55 22.4 135.45 22.0 137.6 21.5 140.65 20.9 143.05 20.45 145.4 20.4 147.2 20.55 148.65 20.3 150.45 20.05 152.0 26.1 150.35 26.35 149.05 26.7 147.15 27.45 144.55 28.45 125.65 29.6 115.2 -9.05 139.2 -16.75 141.55 -8.05 M112.9 15.75 Q114.3 23.25 110.1 29.5 107.2 33.85 102.65 36.2 L99.65 36.65 97.65 37.1 Q97.05 37.3 95.8 37.85 L93.35 38.8 Q86.7 39.0 80.8 34.6 L77.15 31.25 79.95 30.4 83.3 29.45 85.55 28.8 88.05 28.0 90.25 27.1 91.7 26.6 94.4 26.8 96.2 26.25 Q97.15 25.9 98.0 24.7 L99.95 24.05 Q100.45 23.85 100.2 23.5 L99.9 23.2 98.7 23.55 Q99.6 21.75 99.4 19.55 L94.1 21.15 92.55 14.8 116.25 6.9 117.85 13.8 112.9 15.75 M104.3 -1.5 L99.8 5.6 98.05 5.85 96.5 6.2 94.7 6.75 Q92.85 6.0 91.25 6.3 88.3 6.85 86.95 9.45 L84.65 10.25 83.3 10.75 81.6 11.35 79.15 12.25 76.95 13.0 76.0 13.4 77.3 13.0 80.35 12.1 83.6 11.1 85.75 10.5 86.6 10.2 Q85.35 13.5 86.05 17.45 L86.25 18.3 87.0 20.85 Q87.65 22.75 89.65 25.05 L90.4 25.8 87.75 26.35 85.25 26.8 83.85 27.1 Q83.4 27.2 82.7 27.65 L81.3 28.6 80.25 29.25 78.6 30.2 77.0 31.05 Q73.1 26.5 71.9 20.3 70.3 11.85 74.85 4.7 79.5 -2.5 87.75 -4.05 L96.5 -4.5 Q100.3 -4.0 104.3 -1.5 M97.35 6.8 L99.3 6.4 98.25 8.15 95.85 7.25 97.35 6.8 M68.25 9.9 L56.15 12.4 56.3 13.85 53.2 12.35 47.45 17.55 54.25 14.2 56.3 14.3 57.0 21.9 57.55 30.55 61.3 30.3 67.65 29.2 69.55 41.6 67.05 41.95 64.25 42.45 62.0 42.95 59.8 43.85 Q58.6 44.4 57.6 44.9 L44.3 46.05 33.7 46.9 33.05 42.3 34.8 41.6 36.3 40.95 38.6 40.35 41.45 39.55 43.3 38.65 45.1 37.55 45.9 37.15 44.8 37.4 42.65 37.95 40.9 38.35 38.9 38.85 36.3 39.45 34.5 40.0 32.9 40.7 Q32.6 38.4 32.75 35.8 L41.65 34.15 41.25 32.25 40.75 29.25 39.35 22.5 38.3 18.2 43.25 13.25 41.9 13.7 39.15 14.5 36.75 15.25 34.8 15.85 32.2 16.6 30.0 17.2 27.8 9.45 66.05 -1.6 68.25 9.9 M13.25 15.15 L12.35 15.45 10.3 16.0 8.1 16.7 6.85 17.15 5.15 17.65 2.6 18.35 0.5 18.9 -1.75 19.75 -4.5 20.95 -6.3 21.75 -7.5 22.0 -9.2 22.15 -10.6 14.9 -5.6 13.25 24.55 9.15 26.6 20.1 13.7 25.0 14.5 27.45 12.15 30.35 15.25 29.8 20.05 44.9 16.45 45.55 14.65 46.1 12.05 47.0 9.95 47.65 8.6 48.1 7.45 48.75 3.9 29.75 -7.2 32.75 -8.95 23.4 -5.7 22.5 -2.75 21.7 -0.05 20.75 3.25 19.4 5.65 18.4 8.3 17.55 10.6 16.8 12.3 15.8 13.25 15.15 M22.15 51.45 L9.0 56.8 7.6 49.55 20.55 46.45 22.15 51.45" fill="none" stroke="#ffffff" stroke-linecap="round" stroke-linejoin="round" stroke-width="5.9"/>
    <path d="M14.5 27.45 L12.1 30.4 15.25 29.85 20.05 44.9 16.45 45.55 14.65 46.1 12.05 47.0 9.95 47.65 8.6 48.1 7.5 48.7 3.9 29.7 -7.2 32.75 -8.95 23.4 -6.9 22.85 -4.65 22.2 -2.8 21.7 -0.05 20.75 3.3 19.35 5.7 18.4 8.3 17.55 10.55 16.85 12.3 15.8 13.25 15.15 12.35 15.45 10.25 16.05 8.1 16.7 6.85 17.15 5.2 17.65 2.6 18.4 0.5 18.95 -1.7 19.75 -4.5 20.9 -6.35 21.7 -7.45 22.0 -9.2 22.15 -10.55 14.9 -5.6 13.25 24.55 9.15 26.6 20.1 13.65 25.05 14.5 27.45 M7.65 49.5 L20.55 46.45 22.2 51.45 9.0 56.75 7.65 49.5" fill="#ff0000" fill-rule="evenodd" stroke="none"/>
    <path d="M68.15 9.95 L56.1 12.5 56.25 13.95 53.15 12.45 47.4 17.5 54.25 14.25 56.25 14.4 56.95 22.0 57.5 30.65 61.3 30.4 67.6 29.3 69.5 41.65 67.0 42.05 64.2 42.5 61.95 43.05 59.75 43.95 57.55 44.95 44.3 46.1 33.65 46.95 33.0 42.25 34.75 41.55 36.25 41.0 38.55 40.45 41.4 39.65 43.3 38.7 45.05 37.65 45.85 37.2 44.75 37.45 42.6 38.0 40.9 38.45 38.85 38.9 36.3 39.5 34.45 40.05 Q33.55 40.45 32.85 40.8 32.6 38.45 32.7 35.9 L41.6 34.2 41.2 32.2 40.7 29.35 39.25 22.55 38.25 18.25 43.2 13.35 41.9 13.75 39.1 14.6 36.7 15.35 34.75 15.9 32.2 16.65 29.95 17.3 27.75 9.55 66.0 -1.55 68.15 9.95" fill="#ff0000" fill-rule="evenodd" stroke="none"/>
    <path d="M75.95 13.4 L77.25 13.0 80.3 12.1 83.6 11.15 Q85.1 10.65 85.7 10.5 L86.55 10.15 Q85.25 13.45 86.0 17.45 L86.15 18.3 86.95 20.8 Q87.55 22.75 89.6 25.05 L90.35 25.8 87.7 26.3 85.2 26.8 83.8 27.05 Q83.3 27.2 82.6 27.7 L81.25 28.6 80.15 29.3 78.5 30.2 Q77.6 30.65 76.95 31.05 73.0 26.5 71.85 20.3 70.25 11.85 74.85 4.7 79.45 -2.5 87.7 -4.05 L96.5 -4.5 Q100.25 -4.05 104.25 -1.55 L99.75 5.6 98.05 5.85 96.45 6.2 94.65 6.75 Q92.8 6.0 91.25 6.3 88.25 6.85 86.95 9.45 L84.6 10.25 83.25 10.7 81.55 11.3 79.1 12.25 76.9 13.0 Q75.95 13.35 75.95 13.4 M97.3 6.75 L99.3 6.4 98.2 8.15 95.85 7.25 97.3 6.75 M117.8 13.8 L112.85 15.75 Q114.25 23.2 110.05 29.5 107.15 33.75 102.65 36.2 L99.6 36.7 97.6 37.1 95.7 37.8 93.3 38.8 Q86.65 39.0 80.75 34.55 L77.1 31.25 79.95 30.4 83.25 29.45 85.5 28.75 88.05 28.0 90.25 27.1 91.65 26.6 94.35 26.8 96.1 26.25 Q97.1 25.9 98.0 24.7 L99.9 24.0 Q100.4 23.8 100.2 23.5 L99.85 23.2 98.65 23.55 Q99.55 21.8 99.4 19.55 L94.05 21.15 92.55 14.85 116.2 6.9 117.8 13.8" fill="#ff0000" fill-rule="evenodd" stroke="none"/>
    <path d="M141.35 -8.0 L128.6 -4.05 131.0 3.7 139.4 1.5 141.6 8.0 135.65 11.65 136.8 14.55 148.2 11.45 150.0 18.75 148.2 18.9 146.15 19.15 144.4 19.45 141.35 19.95 138.15 20.45 136.0 20.95 133.3 21.85 130.95 22.7 130.0 23.05 131.1 22.8 133.4 22.45 135.35 22.0 137.45 21.5 140.5 20.95 142.9 20.5 145.25 20.4 147.0 20.55 148.55 20.35 150.3 20.05 151.8 26.2 150.25 26.45 148.9 26.8 147.05 27.45 144.45 28.45 125.55 29.55 115.1 -9.0 139.1 -16.7 141.35 -8.0" fill="#ff0000" fill-rule="evenodd" stroke="none"/>
    <path d="M169.55 -8.85 L168.85 -10.4 Q168.3 -11.25 167.55 -11.4 L166.1 -11.6 Q164.5 -11.3 162.35 -9.6 L158.95 -6.9 162.95 -0.2 Q165.8 -1.85 167.85 -4.15 170.0 -6.5 169.55 -8.85 M176.95 -1.5 L195.3 7.3 188.3 14.6 183.85 15.35 185.9 17.05 180.55 22.65 168.65 6.55 163.75 11.25 167.55 22.4 157.2 28.8 154.3 18.45 157.35 17.6 154.2 18.0 151.2 7.15 155.65 6.25 155.15 6.05 154.25 5.75 152.8 5.85 150.9 6.25 145.55 -13.2 Q148.95 -15.45 153.9 -17.25 158.9 -19.2 163.6 -20.1 L173.0 -20.5 Q176.95 -20.1 178.3 -17.75 179.6 -15.4 180.05 -13.05 180.6 -10.15 179.8 -7.4 178.95 -4.6 176.95 -1.5" fill="#ff0000" fill-rule="evenodd" stroke="none"/>
    <path d="M237.85 11.2 Q232.0 17.45 222.95 19.15 215.35 20.6 210.0 19.9 L207.35 19.15 203.75 17.65 200.6 16.25 199.3 15.6 199.1 15.5 203.95 0.2 Q206.6 2.45 211.1 3.25 215.7 4.1 219.5 3.35 222.2 2.85 223.6 1.8 225.0 0.7 224.7 -0.85 224.05 -4.4 218.1 -5.45 L207.0 -6.75 Q205.3 -7.15 203.55 -8.3 201.9 -9.55 200.75 -10.7 L199.5 -12.15 Q198.55 -17.25 203.7 -20.75 208.9 -24.25 215.6 -25.95 L227.25 -29.1 228.95 -20.0 223.75 -20.65 219.2 -20.45 Q217.2 -20.1 216.15 -19.15 215.2 -18.2 215.55 -16.45 215.7 -15.65 222.5 -16.3 229.35 -16.9 234.9 -14.55 L237.8 -12.7 238.75 -11.6 Q241.2 -8.6 242.25 -3.05 243.8 5.0 237.85 11.2" fill="#000000" fill-rule="evenodd" stroke="none"/>
    <path d="M237.85 11.2 Q232.0 17.45 222.95 19.15 215.35 20.6 210.0 19.9 L207.35 19.15 203.75 17.65 200.6 16.25 199.3 15.6 199.1 15.5 203.95 0.2 Q206.6 2.45 211.1 3.25 215.7 4.1 219.5 3.35 222.2 2.85 223.6 1.8 225.0 0.7 224.7 -0.85 224.05 -4.4 218.1 -5.45 L207.0 -6.75 Q205.3 -7.15 203.55 -8.3 201.9 -9.55 200.75 -10.7 L199.5 -12.15 Q198.55 -17.25 203.7 -20.75 208.9 -24.25 215.6 -25.95 L227.25 -29.1 228.95 -20.0 223.75 -20.65 219.2 -20.45 Q217.2 -20.1 216.15 -19.15 215.2 -18.2 215.55 -16.45 215.7 -15.65 222.5 -16.3 229.35 -16.9 234.9 -14.55 L237.8 -12.7 238.75 -11.6 Q241.2 -8.6 242.25 -3.05 243.8 5.0 237.85 11.2 Z" fill="none" stroke="#000000" stroke-linecap="round" stroke-linejoin="round" stroke-width="5.9"/>
    <path d="M234.4 8.9 Q228.55 15.15 219.5 16.85 211.9 18.3 206.55 17.6 L203.9 16.85 200.3 15.35 197.15 13.95 195.85 13.3 195.65 13.2 200.5 -2.1 Q203.15 0.15 207.65 0.95 212.25 1.8 216.05 1.05 218.75 0.55 220.15 -0.5 221.55 -1.6 221.25 -3.15 220.6 -6.7 214.65 -7.75 L203.55 -9.05 Q201.85 -9.45 200.1 -10.6 L197.3 -13.0 196.05 -14.45 Q195.1 -19.55 200.25 -23.05 205.45 -26.55 212.15 -28.25 L223.8 -31.4 225.5 -22.3 220.3 -22.95 215.75 -22.75 Q213.75 -22.4 212.7 -21.45 211.75 -20.5 212.1 -18.75 212.25 -17.95 219.05 -18.6 225.9 -19.2 231.45 -16.85 L234.35 -15.0 235.3 -13.9 Q237.75 -10.9 238.8 -5.35 240.35 2.7 234.4 8.9" fill="#ffffff" fill-rule="evenodd" stroke="none"/>
    <path d="M234.4 8.9 Q228.55 15.15 219.5 16.85 211.9 18.3 206.55 17.6 L203.9 16.85 200.3 15.35 197.15 13.95 195.85 13.3 195.65 13.2 200.5 -2.1 Q203.15 0.15 207.65 0.95 212.25 1.8 216.05 1.05 218.75 0.55 220.15 -0.5 221.55 -1.6 221.25 -3.15 220.6 -6.7 214.65 -7.75 L203.55 -9.05 Q201.85 -9.45 200.1 -10.6 L197.3 -13.0 196.05 -14.45 Q195.1 -19.55 200.25 -23.05 205.45 -26.55 212.15 -28.25 L223.8 -31.4 225.5 -22.3 220.3 -22.95 215.75 -22.75 Q213.75 -22.4 212.7 -21.45 211.75 -20.5 212.1 -18.75 212.25 -17.95 219.05 -18.6 225.9 -19.2 231.45 -16.85 L234.35 -15.0 235.3 -13.9 Q237.75 -10.9 238.8 -5.35 240.35 2.7 234.4 8.9 Z" fill="none" stroke="#ffffff" stroke-linecap="round" stroke-linejoin="round" stroke-width="5.9"/>
    <path d="M238.85 -5.4 Q240.35 2.65 234.5 8.85 228.55 15.05 219.5 16.8 211.9 18.2 206.55 17.5 203.05 17.15 199.4 15.35 L206.95 13.45 212.45 11.55 214.55 10.6 205.15 12.4 198.45 13.2 195.85 13.3 195.65 13.15 200.5 -2.15 Q203.15 0.1 207.7 0.9 212.2 1.75 216.1 1.0 218.8 0.5 220.15 -0.6 221.6 -1.7 221.3 -3.25 220.6 -6.8 214.7 -7.85 L203.65 -9.1 Q198.5 -9.95 197.2 -11.3 L201.4 -13.15 196.75 -12.1 196.1 -14.55 Q195.1 -19.65 200.3 -23.05 205.5 -26.6 212.15 -28.35 L223.85 -31.5 224.65 -27.35 220.85 -26.6 224.85 -26.2 225.6 -22.35 220.4 -23.0 215.75 -22.8 Q213.75 -22.45 212.75 -21.5 211.85 -20.55 212.15 -18.8 L219.1 -18.6 Q225.95 -19.3 231.45 -16.9 L234.35 -15.1 230.4 -13.75 235.35 -14.0 Q237.8 -10.85 238.85 -5.4" fill="#ff0000" fill-rule="evenodd" stroke="none"/>
  </g>
</svg>
