<?xml version="1.0" encoding="UTF-8" standalone="no"?>
<svg xmlns:xlink="http://www.w3.org/1999/xlink" height="66.7px" width="296.15px" xmlns="http://www.w3.org/2000/svg">
  <g transform="matrix(1.0, 0.0, 0.0, 1.0, 140.65, 24.0)">
    <path d="M23.1 2.9 Q27.3 2.9 30.1 4.65 32.95 6.4 33.8 8.8 34.65 11.25 34.65 15.65 L34.65 17.65 24.45 17.65 24.45 14.0 Q24.45 11.0 24.25 10.4 24.05 9.85 23.4 9.85 22.85 9.85 22.6 10.35 22.4 10.8 22.4 13.45 L22.4 30.55 Q22.4 32.85 22.6 33.4 22.85 34.0 23.45 34.0 24.2 34.0 24.45 33.35 24.75 32.65 24.75 30.25 L24.75 26.5 22.9 26.5 22.9 20.15 34.65 20.15 34.65 40.2 28.0 40.2 27.4 37.65 Q26.9 39.15 25.35 40.05 23.8 40.95 21.7 40.95 19.25 40.95 17.1 39.75 14.95 38.55 13.85 36.8 12.75 35.05 12.45 33.15 12.2 31.25 12.2 27.55 L12.2 16.95 Q12.2 11.75 12.8 9.35 13.35 6.95 16.1 4.9 18.8 2.9 23.1 2.9 M46.65 9.95 Q46.65 11.65 47.05 12.3 47.5 13.25 48.85 14.4 55.85 18.2 57.45 20.6 59.2 23.1 59.2 28.5 59.2 32.4 58.25 34.3 57.3 36.25 54.6 37.5 51.9 38.8 48.4 38.8 44.6 38.8 41.85 37.3 39.1 35.85 38.2 33.55 37.35 31.25 37.35 27.15 L37.35 24.35 46.9 24.35 46.9 29.15 Q46.9 31.05 47.15 31.45 47.4 31.85 48.1 31.85 48.75 31.85 49.1 31.3 49.45 30.75 49.45 29.45 49.45 26.45 48.95 25.75 47.85 24.7 44.45 22.45 40.95 20.15 39.8 19.05 38.65 17.95 37.85 16.05 37.1 14.15 37.1 11.2 37.1 7.0 38.2 5.0 39.3 3.0 41.75 1.85 44.2 0.75 47.6 0.75 51.3 0.75 53.95 2.0 56.65 3.2 57.55 5.1 58.4 7.0 58.4 11.3 L58.4 13.2 48.9 13.2 48.9 10.1 48.65 8.05 Q48.4 7.7 47.9 7.7 47.3 7.7 47.0 8.2 46.65 8.7 46.65 9.95 M60.1 7.4 L60.1 -0.65 81.3 -0.65 81.3 7.4 75.8 7.4 75.8 35.9 65.6 35.9 65.6 7.4 60.1 7.4 M118.35 4.2 L118.35 26.75 Q119.6 26.75 120.0 26.1 120.35 25.45 120.35 22.05 L120.35 8.2 120.2 5.25 Q120.1 4.7 119.65 4.45 L118.35 4.2 M115.55 -2.8 L124.75 -2.15 Q127.25 -1.5 128.6 0.0 129.9 1.5 130.2 3.3 130.55 5.15 130.55 10.25 L130.55 22.7 Q130.55 27.55 130.05 29.3 129.55 31.0 128.35 32.0 127.1 33.0 125.4 33.35 L120.3 33.75 108.15 33.75 108.15 -2.8 115.55 -2.8 M104.95 5.4 L104.95 29.65 104.7 35.45 Q104.4 37.2 103.0 39.0 101.65 40.85 99.45 41.75 97.2 42.7 94.2 42.7 90.9 42.7 88.35 41.6 85.8 40.5 84.55 38.7 83.25 36.9 83.05 34.95 82.8 33.05 82.8 26.95 L82.8 5.4 93.0 5.4 93.0 32.55 Q93.0 34.85 93.2 35.3 93.35 35.75 93.8 35.75 94.35 35.75 94.6 35.2 L94.75 32.1 94.75 5.4 104.95 5.4 M153.35 -14.25 Q154.2 -12.35 154.2 -8.05 L154.2 -6.15 144.7 -6.15 144.7 -9.25 144.45 -11.3 Q144.2 -11.65 143.7 -11.65 143.1 -11.65 142.8 -11.15 142.45 -10.65 142.45 -9.4 142.45 -7.7 142.85 -7.05 143.3 -6.1 144.65 -4.95 151.65 -1.15 153.25 1.25 155.0 3.75 155.0 9.15 155.0 13.05 154.05 14.95 153.1 16.9 150.4 18.15 147.7 19.45 144.2 19.45 140.4 19.45 137.65 17.95 134.9 16.5 134.0 14.2 133.15 11.9 133.15 7.8 L133.15 5.0 142.7 5.0 142.7 9.8 Q142.7 11.7 142.95 12.1 143.2 12.5 143.9 12.5 144.55 12.5 144.9 11.95 145.25 11.4 145.25 10.1 145.25 7.1 144.75 6.4 L140.25 3.1 Q136.75 0.8 135.6 -0.3 134.45 -1.4 133.65 -3.3 132.9 -5.2 132.9 -8.15 132.9 -12.35 134.0 -14.35 135.1 -16.35 137.55 -17.5 139.5 -18.35 142.0 -18.55 L143.4 -18.6 144.85 -18.55 Q147.65 -18.35 149.75 -17.35 152.45 -16.15 153.35 -14.25 M9.1 29.45 L0.2 29.45 -3.85 13.25 -3.85 29.45 -12.5 29.45 -12.5 -7.1 -3.95 -7.1 0.45 8.95 0.45 -7.1 9.1 -7.1 9.1 29.45 M-129.95 4.6 L-126.65 -9.25 -108.2 -9.25 Q-106.15 1.45 -106.2 4.75 -105.95 -0.55 -104.1 -9.25 L-94.75 -9.25 -101.5 14.0 -101.5 27.3 -111.0 27.3 -111.0 14.05 -117.3 -8.55 -122.45 7.3 -116.6 27.3 -127.0 27.3 -129.95 12.05 -129.95 27.3 -140.15 27.3 -140.15 -9.25 -129.95 -9.25 -129.95 4.6 M-82.6 -12.15 Q-78.4 -12.15 -75.55 -10.5 -72.8 -8.85 -71.9 -6.35 -71.05 -3.85 -71.05 1.2 L-71.05 5.05 -81.25 5.05 -81.25 -1.6 Q-81.25 -4.25 -81.45 -4.7 -81.65 -5.2 -82.4 -5.2 -83.2 -5.2 -83.45 -4.6 -83.65 -4.0 -83.65 -1.35 L-83.65 15.2 Q-83.65 17.75 -83.45 18.35 -83.2 18.95 -82.45 18.95 -81.75 18.95 -81.5 18.35 -81.25 17.7 -81.25 14.9 L-81.25 9.95 -71.05 9.95 -71.05 11.8 Q-71.05 17.4 -71.85 19.85 -72.65 22.25 -75.5 24.05 -78.25 25.9 -82.35 25.9 -86.55 25.9 -89.3 24.35 -92.05 22.8 -92.95 20.05 -93.85 17.35 -93.85 12.05 L-93.85 1.6 -93.6 -4.25 Q-93.3 -6.25 -91.9 -8.15 -90.55 -10.0 -88.15 -11.1 -85.7 -12.15 -82.6 -12.15 M-57.9 -13.55 L-57.9 0.3 -54.6 -13.55 -45.05 -13.55 -50.4 3.0 -44.55 23.0 -54.95 23.0 -57.9 7.75 -57.9 23.0 -68.1 23.0 -68.1 -13.55 -57.9 -13.55 M-15.6 -15.7 L-15.6 20.85 -25.8 20.85 -25.8 -15.7 -15.6 -15.7 M-33.15 -4.95 L-33.15 23.55 -27.5 23.55 -27.5 31.6 -43.35 31.6 -43.35 -4.95 -33.15 -4.95" fill="#000000" fill-rule="evenodd" stroke="none"/>
    <path d="M118.35 4.2 L118.35 26.75 Q119.6 26.75 120.0 26.1 120.35 25.45 120.35 22.05 L120.35 8.2 120.2 5.25 Q120.1 4.7 119.65 4.45 L118.35 4.2 Z" fill="none" stroke="#ff0000" stroke-linecap="round" stroke-linejoin="round" stroke-width="1.0"/>
    <path d="M23.1 -2.0 Q27.3 -2.0 30.1 -0.25 32.95 1.5 33.8 3.9 34.65 6.35 34.65 10.75 L34.65 12.75 24.45 12.75 24.45 9.1 Q24.45 6.1 24.25 5.5 24.05 4.95 23.4 4.95 22.85 4.95 22.6 5.45 22.4 5.9 22.4 8.55 L22.4 25.65 Q22.4 27.95 22.6 28.5 22.85 29.1 23.45 29.1 24.2 29.1 24.45 28.45 24.75 27.75 24.75 25.35 L24.75 21.6 22.9 21.6 22.9 15.25 34.65 15.25 34.65 35.3 28.0 35.3 27.4 32.75 Q26.9 34.25 25.35 35.15 23.8 36.05 21.7 36.05 19.25 36.05 17.1 34.85 14.95 33.65 13.85 31.9 12.75 30.15 12.45 28.25 12.2 26.35 12.2 22.65 L12.2 12.05 Q12.2 6.85 12.8 4.45 13.35 2.05 16.1 0.0 18.8 -2.0 23.1 -2.0 M41.75 -3.05 Q44.2 -4.15 47.6 -4.15 51.3 -4.15 53.95 -2.9 56.65 -1.7 57.55 0.2 58.4 2.1 58.4 6.4 L58.4 8.3 48.9 8.3 48.9 5.2 48.65 3.15 Q48.4 2.8 47.9 2.8 47.3 2.8 47.0 3.3 46.65 3.8 46.65 5.05 46.65 6.75 47.05 7.4 47.5 8.35 48.85 9.5 55.85 13.3 57.45 15.7 59.2 18.2 59.2 23.6 59.2 27.5 58.25 29.4 57.3 31.35 54.6 32.6 51.9 33.9 48.4 33.9 44.6 33.9 41.85 32.4 39.1 30.95 38.2 28.65 37.35 26.35 37.35 22.25 L37.35 19.45 46.9 19.45 46.9 24.25 Q46.9 26.15 47.15 26.55 47.4 26.95 48.1 26.95 48.75 26.95 49.1 26.4 49.45 25.85 49.45 24.55 49.45 21.55 48.95 20.85 47.85 19.8 44.45 17.55 40.95 15.25 39.8 14.15 38.65 13.05 37.85 11.15 37.1 9.25 37.1 6.3 37.1 2.1 38.2 0.1 39.3 -1.9 41.75 -3.05 M60.1 2.5 L60.1 -5.55 81.3 -5.55 81.3 2.5 75.8 2.5 75.8 31.0 65.6 31.0 65.6 2.5 60.1 2.5 M104.95 0.5 L104.95 24.75 104.7 30.55 Q104.4 32.3 103.0 34.1 101.65 35.95 99.45 36.85 97.2 37.8 94.2 37.8 90.9 37.8 88.35 36.7 85.8 35.6 84.55 33.8 83.25 32.0 83.05 30.05 82.8 28.15 82.8 22.05 L82.8 0.5 93.0 0.5 93.0 27.65 Q93.0 29.95 93.2 30.4 93.35 30.85 93.8 30.85 94.35 30.85 94.6 30.3 L94.75 27.2 94.75 0.5 104.95 0.5 M115.55 -7.7 L124.75 -7.05 Q127.25 -6.4 128.6 -4.9 129.9 -3.4 130.2 -1.6 130.55 0.25 130.55 5.35 L130.55 17.8 Q130.55 22.65 130.05 24.4 129.55 26.1 128.35 27.1 127.1 28.1 125.4 28.45 L120.3 28.85 108.15 28.85 108.15 -7.7 115.55 -7.7 M118.35 -0.7 L118.35 21.85 Q119.6 21.85 120.0 21.2 120.35 20.55 120.35 17.15 L120.35 3.3 120.2 0.35 119.65 -0.45 118.35 -0.7 M153.35 -19.15 Q154.2 -17.25 154.2 -12.95 L154.2 -11.05 144.7 -11.05 144.7 -14.15 144.45 -16.2 Q144.2 -16.55 143.7 -16.55 143.1 -16.55 142.8 -16.05 142.45 -15.55 142.45 -14.3 142.45 -12.6 142.85 -11.95 143.3 -11.0 144.65 -9.85 151.65 -6.05 153.25 -3.65 155.0 -1.15 155.0 4.25 155.0 8.15 154.05 10.05 153.1 12.0 150.4 13.25 147.7 14.55 144.2 14.55 140.4 14.55 137.65 13.05 134.9 11.6 134.0 9.3 133.15 7.0 133.15 2.9 L133.15 0.1 142.7 0.1 142.7 4.9 Q142.7 6.8 142.95 7.2 143.2 7.6 143.9 7.6 144.55 7.6 144.9 7.05 145.25 6.5 145.25 5.2 145.25 2.2 144.75 1.5 L140.25 -1.8 Q136.75 -4.1 135.6 -5.2 134.45 -6.3 133.65 -8.2 132.9 -10.1 132.9 -13.05 132.9 -17.25 134.0 -19.25 135.1 -21.25 137.55 -22.4 140.0 -23.5 143.4 -23.5 147.1 -23.5 149.75 -22.25 152.45 -21.05 153.35 -19.15 M9.1 24.55 L0.2 24.55 -3.85 8.35 -3.85 24.55 -12.5 24.55 -12.5 -12.0 -3.95 -12.0 0.45 4.05 0.45 -12.0 9.1 -12.0 9.1 24.55 M-129.95 -0.3 L-126.65 -14.15 -108.2 -14.15 Q-106.15 -3.45 -106.2 -0.15 -105.95 -5.45 -104.1 -14.15 L-94.75 -14.15 -101.5 9.1 -101.5 22.4 -111.0 22.4 -111.0 9.15 -117.3 -13.45 -122.45 2.4 -116.6 22.4 -127.0 22.4 -129.95 7.15 -129.95 22.4 -140.15 22.4 -140.15 -14.15 -129.95 -14.15 -129.95 -0.3 M-75.55 -15.4 Q-72.8 -13.75 -71.9 -11.25 -71.05 -8.75 -71.05 -3.7 L-71.05 0.15 -81.25 0.15 -81.25 -6.5 Q-81.25 -9.15 -81.45 -9.6 -81.65 -10.1 -82.4 -10.1 -83.2 -10.1 -83.45 -9.5 -83.65 -8.9 -83.65 -6.25 L-83.65 10.3 Q-83.65 12.85 -83.45 13.45 -83.2 14.05 -82.45 14.05 -81.75 14.05 -81.5 13.45 -81.25 12.8 -81.25 10.0 L-81.25 5.05 -71.05 5.05 -71.05 6.9 Q-71.05 12.5 -71.85 14.95 -72.65 17.35 -75.5 19.15 -78.25 21.0 -82.35 21.0 -86.55 21.0 -89.3 19.45 -92.05 17.9 -92.95 15.15 -93.85 12.45 -93.85 7.15 L-93.85 -3.3 -93.6 -9.15 Q-93.3 -11.15 -91.9 -13.05 -90.55 -14.9 -88.15 -16.0 -85.7 -17.05 -82.6 -17.05 -78.4 -17.05 -75.55 -15.4 M-57.9 -4.6 L-54.6 -18.45 -45.05 -18.45 -50.4 -1.9 -44.55 18.1 -54.95 18.1 -57.9 2.85 -57.9 18.1 -68.1 18.1 -68.1 -18.45 -57.9 -18.45 -57.9 -4.6 M-15.6 -20.6 L-15.6 15.95 -25.8 15.95 -25.8 -20.6 -15.6 -20.6 M-33.15 -9.85 L-33.15 18.65 -27.5 18.65 -27.5 26.7 -43.35 26.7 -43.35 -9.85 -33.15 -9.85" fill="#ffff00" fill-rule="evenodd" stroke="none"/>
    <path d="M23.1 -2.0 Q27.3 -2.0 30.1 -0.25 32.95 1.5 33.8 3.9 34.65 6.35 34.65 10.75 L34.65 12.75 24.45 12.75 24.45 9.1 Q24.45 6.1 24.25 5.5 24.05 4.95 23.4 4.95 22.85 4.95 22.6 5.45 22.4 5.9 22.4 8.55 L22.4 25.65 Q22.4 27.95 22.6 28.5 22.85 29.1 23.45 29.1 24.2 29.1 24.45 28.45 24.75 27.75 24.75 25.35 L24.75 21.6 22.9 21.6 22.9 15.25 34.65 15.25 34.65 35.3 28.0 35.3 27.4 32.75 Q26.9 34.25 25.35 35.15 23.8 36.05 21.7 36.05 19.25 36.05 17.1 34.85 14.95 33.65 13.85 31.9 12.75 30.15 12.45 28.25 12.2 26.35 12.2 22.65 L12.2 12.05 Q12.2 6.85 12.8 4.45 13.35 2.05 16.1 0.0 18.8 -2.0 23.1 -2.0 M41.75 -3.05 Q44.2 -4.15 47.6 -4.15 51.3 -4.15 53.95 -2.9 56.65 -1.7 57.55 0.2 58.4 2.1 58.4 6.4 L58.4 8.3 48.9 8.3 48.9 5.2 48.65 3.15 Q48.4 2.8 47.9 2.8 47.3 2.8 47.0 3.3 46.65 3.8 46.65 5.05 46.65 6.75 47.05 7.4 47.5 8.35 48.85 9.5 55.85 13.3 57.45 15.7 59.2 18.2 59.2 23.6 59.2 27.5 58.25 29.4 57.3 31.35 54.6 32.6 51.9 33.9 48.4 33.9 44.6 33.9 41.85 32.4 39.1 30.95 38.2 28.65 37.35 26.35 37.35 22.25 L37.35 19.45 46.9 19.45 46.9 24.25 Q46.9 26.15 47.15 26.55 47.4 26.95 48.1 26.95 48.75 26.95 49.1 26.4 49.45 25.85 49.45 24.55 49.45 21.55 48.95 20.85 47.85 19.8 44.45 17.55 40.95 15.25 39.8 14.15 38.65 13.05 37.85 11.15 37.1 9.25 37.1 6.3 37.1 2.1 38.2 0.1 39.3 -1.9 41.75 -3.05 M60.1 2.5 L60.1 -5.55 81.3 -5.55 81.3 2.5 75.8 2.5 75.8 31.0 65.6 31.0 65.6 2.5 60.1 2.5 M104.95 0.5 L104.95 24.75 104.7 30.55 Q104.4 32.3 103.0 34.1 101.65 35.95 99.45 36.85 97.2 37.8 94.2 37.8 90.9 37.8 88.35 36.7 85.8 35.6 84.55 33.8 83.25 32.0 83.05 30.05 82.8 28.15 82.8 22.05 L82.8 0.5 93.0 0.5 93.0 27.65 Q93.0 29.95 93.2 30.4 93.35 30.85 93.8 30.85 94.35 30.85 94.6 30.3 L94.75 27.2 94.75 0.5 104.95 0.5 M115.55 -7.7 L124.75 -7.05 Q127.25 -6.4 128.6 -4.9 129.9 -3.4 130.2 -1.6 130.55 0.25 130.55 5.35 L130.55 17.8 Q130.55 22.65 130.05 24.4 129.55 26.1 128.35 27.1 127.1 28.1 125.4 28.45 L120.3 28.85 108.15 28.85 108.15 -7.7 115.55 -7.7 M118.35 -0.7 L118.35 21.85 Q119.6 21.85 120.0 21.2 120.35 20.55 120.35 17.15 L120.35 3.3 120.2 0.35 119.65 -0.45 118.35 -0.7 M153.35 -19.15 Q154.2 -17.25 154.2 -12.95 L154.2 -11.05 144.7 -11.05 144.7 -14.15 144.45 -16.2 Q144.2 -16.55 143.7 -16.55 143.1 -16.55 142.8 -16.05 142.45 -15.55 142.45 -14.3 142.45 -12.6 142.85 -11.95 143.3 -11.0 144.65 -9.85 151.65 -6.05 153.25 -3.65 155.0 -1.15 155.0 4.25 155.0 8.15 154.05 10.05 153.1 12.0 150.4 13.25 147.7 14.55 144.2 14.55 140.4 14.55 137.65 13.05 134.9 11.6 134.0 9.3 133.15 7.0 133.15 2.9 L133.15 0.1 142.7 0.1 142.7 4.9 Q142.7 6.8 142.95 7.2 143.2 7.6 143.9 7.6 144.55 7.6 144.9 7.05 145.25 6.5 145.25 5.2 145.25 2.2 144.75 1.5 L140.25 -1.8 Q136.75 -4.1 135.6 -5.2 134.45 -6.3 133.65 -8.2 132.9 -10.1 132.9 -13.05 132.9 -17.25 134.0 -19.25 135.1 -21.25 137.55 -22.4 140.0 -23.5 143.4 -23.5 147.1 -23.5 149.75 -22.25 152.45 -21.05 153.35 -19.15 M9.1 24.55 L0.2 24.55 -3.85 8.35 -3.85 24.55 -12.5 24.55 -12.5 -12.0 -3.95 -12.0 0.45 4.05 0.45 -12.0 9.1 -12.0 9.1 24.55 M-129.95 -0.3 L-126.65 -14.15 -108.2 -14.15 Q-106.15 -3.45 -106.2 -0.15 -105.95 -5.45 -104.1 -14.15 L-94.75 -14.15 -101.5 9.1 -101.5 22.4 -111.0 22.4 -111.0 9.15 -117.3 -13.45 -122.45 2.4 -116.6 22.4 -127.0 22.4 -129.95 7.15 -129.95 22.4 -140.15 22.4 -140.15 -14.15 -129.95 -14.15 -129.95 -0.3 M-75.55 -15.4 Q-72.8 -13.75 -71.9 -11.25 -71.05 -8.75 -71.05 -3.7 L-71.05 0.15 -81.25 0.15 -81.25 -6.5 Q-81.25 -9.15 -81.45 -9.6 -81.65 -10.1 -82.4 -10.1 -83.2 -10.1 -83.45 -9.5 -83.65 -8.9 -83.65 -6.25 L-83.65 10.3 Q-83.65 12.85 -83.45 13.45 -83.2 14.05 -82.45 14.05 -81.75 14.05 -81.5 13.45 -81.25 12.8 -81.25 10.0 L-81.25 5.05 -71.05 5.05 -71.05 6.9 Q-71.05 12.5 -71.85 14.95 -72.65 17.35 -75.5 19.15 -78.25 21.0 -82.35 21.0 -86.55 21.0 -89.3 19.45 -92.05 17.9 -92.95 15.15 -93.85 12.45 -93.85 7.15 L-93.85 -3.3 -93.6 -9.15 Q-93.3 -11.15 -91.9 -13.05 -90.55 -14.9 -88.15 -16.0 -85.7 -17.05 -82.6 -17.05 -78.4 -17.05 -75.55 -15.4 M-57.9 -4.6 L-54.6 -18.45 -45.05 -18.45 -50.4 -1.9 -44.55 18.1 -54.95 18.1 -57.9 2.85 -57.9 18.1 -68.1 18.1 -68.1 -18.45 -57.9 -18.45 -57.9 -4.6 M-15.6 -20.6 L-15.6 15.95 -25.8 15.95 -25.8 -20.6 -15.6 -20.6 M-33.15 -9.85 L-33.15 18.65 -27.5 18.65 -27.5 26.7 -43.35 26.7 -43.35 -9.85 -33.15 -9.85" fill="none" stroke="#ff0000" stroke-linecap="round" stroke-linejoin="round" stroke-width="1.0"/>
  </g>
</svg>
