<?xml version="1.0" encoding="UTF-8" standalone="no"?>
<svg xmlns:xlink="http://www.w3.org/1999/xlink" height="94.15px" width="187.75px" xmlns="http://www.w3.org/2000/svg">
  <g transform="matrix(1.0, 0.0, 0.0, 1.0, 101.05, 39.0)">
    <path d="M-67.0 -1.85 Q-67.05 2.15 -69.2 5.4 -71.35 8.65 -74.95 10.55 -78.55 12.5 -83.05 12.5 -87.85 12.45 -91.6 10.3 -91.95 10.05 -91.15 9.4 -90.35 8.75 -88.95 7.85 L-86.1 6.1 -83.85 4.5 Q-82.95 3.75 -83.2 3.45 L-85.05 3.2 -88.55 3.55 -92.6 4.05 -96.05 4.3 Q-97.45 4.35 -97.7 3.95 -99.0 1.3 -99.05 -1.85 -99.0 -5.85 -96.85 -9.1 -94.75 -12.3 -91.1 -14.2 -87.5 -16.15 -83.05 -16.2 -78.55 -16.15 -74.95 -14.25 -71.35 -12.3 -69.2 -9.05 -67.05 -5.85 -67.0 -1.85 Z" fill="none" stroke="#000000" stroke-linecap="round" stroke-linejoin="round" stroke-width="4.0"/>
    <path d="M-50.8 -0.3 Q-50.8 2.3 -52.1 4.4 -53.35 6.45 -55.5 7.7 -57.7 8.95 -60.35 8.95 L-69.9 8.95 Q-72.6 8.95 -74.75 7.7 -76.9 6.45 -78.2 4.35 -79.45 2.3 -79.5 -0.3 -79.45 -2.9 -78.2 -5.0 -76.9 -7.1 -74.75 -8.3 -72.6 -9.55 -69.9 -9.6 L-60.35 -9.6 Q-57.7 -9.55 -55.5 -8.3 -53.35 -7.1 -52.1 -5.0 -50.8 -2.9 -50.8 -0.3 Z" fill="none" stroke="#000000" stroke-linecap="round" stroke-linejoin="round" stroke-width="4.0"/>
    <path d="M-88.7 -8.55 Q-87.95 -7.85 -87.95 -6.7 -88.0 -5.55 -88.7 -4.85 -89.45 -4.1 -90.55 -4.05 L-91.0 -4.05 Q-92.1 -4.1 -92.85 -4.85 -93.55 -5.55 -93.6 -6.7 -93.55 -7.85 -92.85 -8.55 -92.1 -9.3 -91.0 -9.35 L-90.55 -9.35 Q-89.45 -9.3 -88.7 -8.55 Z" fill="none" stroke="#000000" stroke-linecap="round" stroke-linejoin="round" stroke-width="4.0"/>
    <path d="M-90.05 -6.2 Q-90.15 -5.3 -91.1 -5.2 L-91.6 -5.2 Q-92.05 -5.2 -92.35 -5.5 L-92.65 -6.2 Q-92.55 -7.15 -91.6 -7.2 L-91.1 -7.2 -90.35 -6.9 Q-90.05 -6.65 -90.05 -6.2 Z" fill="none" stroke="#000000" stroke-linecap="round" stroke-linejoin="round" stroke-width="4.0"/>
    <path d="M-62.35 5.4 Q-62.3 -1.65 -58.6 -8.0 -54.9 -14.35 -48.15 -19.65 -41.4 -24.95 -32.25 -28.8 -23.05 -32.7 -12.05 -34.85 -1.05 -36.95 11.2 -37.0 23.45 -36.95 34.45 -34.85 45.45 -32.7 54.6 -28.8 63.8 -24.95 70.5 -19.65 77.25 -14.35 80.95 -8.0 84.65 -1.65 84.7 5.4" fill="none" stroke="#000000" stroke-linecap="round" stroke-linejoin="round" stroke-width="4.0"/>
    <path d="M21.05 -33.3 Q12.4 -33.55 2.7 -32.8 -6.95 -32.05 -16.65 -29.75 -26.35 -27.45 -35.15 -23.1 -43.95 -18.7 -50.95 -11.75 -57.95 -4.75 -62.2 5.4 -62.15 -1.65 -58.45 -8.0 -54.75 -14.35 -48.0 -19.65 -41.25 -24.95 -32.1 -28.8 -22.9 -32.7 -11.9 -34.85 -0.9 -36.95 11.35 -37.0 22.35 -37.0 32.35 -35.25 42.4 -33.5 51.05 -30.3 L47.1 -31.0 36.45 -32.35 21.05 -33.3 Z" fill="none" stroke="#000000" stroke-linecap="round" stroke-linejoin="round" stroke-width="4.0"/>
    <path d="M-62.35 4.25 Q-62.3 7.45 -58.6 10.3 -54.9 13.15 -48.15 15.55 -41.4 17.9 -32.25 19.65 -23.05 21.4 -12.05 22.4 L11.2 23.35 34.45 22.4 Q45.45 21.4 54.6 19.65 63.8 17.9 70.5 15.55 77.25 13.15 80.95 10.3 84.65 7.45 84.7 4.25" fill="none" stroke="#000000" stroke-linecap="round" stroke-linejoin="round" stroke-width="4.0"/>
    <path d="M70.5 15.55 Q63.75 17.95 54.6 19.7 45.4 21.4 34.4 22.4 L11.15 23.35 -12.1 22.4 Q-23.1 21.4 -32.25 19.65 -41.45 17.95 -48.15 15.55 -54.9 13.15 -58.6 10.3 -62.3 7.45 -62.35 4.3 L-58.55 6.05 Q-54.8 7.7 -47.65 10.1 -40.55 12.5 -30.55 14.7 -20.5 16.95 -7.9 18.2 4.65 19.45 19.35 18.8 34.05 18.1 50.5 14.7 66.9 11.3 84.7 4.3 84.65 7.45 80.95 10.3 77.25 13.15 70.5 15.55 Z" fill="none" stroke="#000000" stroke-linecap="round" stroke-linejoin="round" stroke-width="4.0"/>
    <path d="M-22.55 -12.15 Q-22.6 -9.65 -23.55 -7.6 -24.55 -5.6 -26.2 -4.35 -27.85 -3.15 -29.95 -3.15 -32.0 -3.2 -33.65 -4.4 -35.3 -5.6 -36.25 -7.6 -37.25 -9.65 -37.3 -12.15 -37.25 -14.65 -36.3 -16.7 -35.3 -18.75 -33.65 -19.95 -32.0 -21.15 -29.95 -21.15 -27.9 -21.15 -26.2 -19.95 -24.55 -18.75 -23.6 -16.7 -22.6 -14.65 -22.55 -12.15 Z" fill="none" stroke="#000000" stroke-linecap="round" stroke-linejoin="round" stroke-width="4.0"/>
    <path d="M10.3 -0.45 Q10.25 2.9 8.4 5.15 6.55 7.4 3.8 7.5 1.05 7.4 -0.8 5.15 -2.6 2.9 -2.7 -0.45 -2.6 -3.85 -0.8 -6.1 1.05 -8.3 3.8 -8.4 6.55 -8.3 8.4 -6.1 10.25 -3.85 10.3 -0.45 Z" fill="none" stroke="#000000" stroke-linecap="round" stroke-linejoin="round" stroke-width="4.0"/>
    <path d="M48.35 5.9 Q48.3 9.25 46.45 11.5 44.6 13.75 41.85 13.85 39.1 13.75 37.25 11.5 35.45 9.25 35.35 5.9 35.45 2.5 37.25 0.25 39.1 -1.95 41.85 -2.05 44.6 -1.95 46.45 0.25 48.3 2.5 48.35 5.9 Z" fill="none" stroke="#000000" stroke-linecap="round" stroke-linejoin="round" stroke-width="4.0"/>
    <path d="M28.8 -21.9 Q30.0 -19.45 30.0 -16.4 30.0 -13.35 28.8 -10.85 27.6 -8.4 25.6 -6.95 23.6 -5.5 21.1 -5.45 18.6 -5.5 16.6 -6.95 14.6 -8.4 13.4 -10.85 12.2 -13.35 12.15 -16.4 12.2 -19.45 13.4 -21.9 14.6 -24.35 16.6 -25.8 18.6 -27.25 21.1 -27.3 23.6 -27.25 25.6 -25.8 27.6 -24.35 28.8 -21.9 Z" fill="none" stroke="#000000" stroke-linecap="round" stroke-linejoin="round" stroke-width="4.0"/>
    <path d="M-8.95 3.05 Q-9.0 5.55 -9.95 7.6 -10.95 9.65 -12.6 10.85 -14.3 12.05 -16.35 12.05 -18.4 12.05 -20.05 10.85 -21.75 9.65 -22.7 7.6 -23.7 5.55 -23.75 3.05 -23.7 0.5 -22.75 -1.55 -21.75 -3.55 -20.05 -4.75 -18.4 -6.0 -16.35 -6.0 -14.3 -6.0 -12.6 -4.75 -10.95 -3.55 -10.0 -1.55 -9.0 0.5 -8.95 3.05 Z" fill="none" stroke="#000000" stroke-linecap="round" stroke-linejoin="round" stroke-width="4.0"/>
    <path d="M-37.7 3.45 Q-37.75 6.2 -39.15 8.0 -40.55 9.85 -42.6 9.9 -44.7 9.85 -46.1 8.0 -47.5 6.2 -47.55 3.45 -47.5 0.7 -46.1 -1.1 -44.7 -2.95 -42.6 -3.0 -40.55 -2.95 -39.15 -1.1 -37.75 0.7 -37.7 3.45 Z" fill="none" stroke="#000000" stroke-linecap="round" stroke-linejoin="round" stroke-width="4.0"/>
    <path d="M7.3 -21.15 Q7.25 -18.55 6.05 -16.5 4.85 -14.4 2.8 -13.2 0.75 -11.95 -1.8 -11.95 -4.35 -11.95 -6.4 -13.2 -8.45 -14.4 -9.65 -16.5 -10.85 -18.55 -10.9 -21.15 -10.85 -23.7 -9.65 -25.8 -8.45 -27.85 -6.4 -29.1 -4.35 -30.3 -1.8 -30.35 0.75 -30.3 2.8 -29.1 4.85 -27.85 6.05 -25.8 7.25 -23.7 7.3 -21.15 Z" fill="none" stroke="#000000" stroke-linecap="round" stroke-linejoin="round" stroke-width="4.0"/>
    <path d="M59.2 -10.55 Q59.15 -7.95 57.95 -5.9 56.75 -3.8 54.7 -2.6 52.65 -1.35 50.1 -1.35 47.55 -1.35 45.5 -2.6 43.45 -3.8 42.25 -5.9 41.05 -7.95 41.0 -10.55 41.05 -13.1 42.25 -15.2 43.45 -17.25 45.5 -18.5 47.55 -19.7 50.1 -19.75 52.65 -19.7 54.7 -18.5 56.75 -17.25 57.95 -15.2 59.15 -13.1 59.2 -10.55 Z" fill="none" stroke="#000000" stroke-linecap="round" stroke-linejoin="round" stroke-width="4.0"/>
    <path d="M70.3 -2.05 Q70.25 -0.4 69.2 0.7 68.1 1.8 66.45 1.85 64.8 1.8 63.75 0.7 62.65 -0.4 62.6 -2.05 62.65 -3.7 63.75 -4.8 64.8 -5.9 66.45 -5.95 68.1 -5.9 69.2 -4.8 70.25 -3.7 70.3 -2.05 Z" fill="none" stroke="#000000" stroke-linecap="round" stroke-linejoin="round" stroke-width="4.0"/>
    <path d="M18.4 9.6 Q18.35 11.25 17.3 12.35 16.2 13.45 14.55 13.5 12.9 13.45 11.85 12.35 10.75 11.25 10.7 9.6 10.75 7.95 11.85 6.85 12.9 5.75 14.55 5.7 16.2 5.75 17.3 6.85 18.35 7.95 18.4 9.6 Z" fill="none" stroke="#000000" stroke-linecap="round" stroke-linejoin="round" stroke-width="4.0"/>
    <path d="M31.95 4.3 Q31.9 6.55 30.65 8.1 29.45 9.6 27.6 9.65 25.75 9.6 24.5 8.1 23.3 6.55 23.25 4.3 23.3 2.05 24.5 0.55 25.75 -0.95 27.6 -1.0 29.45 -0.95 30.65 0.55 31.9 2.05 31.95 4.3 Z" fill="none" stroke="#000000" stroke-linecap="round" stroke-linejoin="round" stroke-width="4.0"/>
    <path d="M-27.2 14.0 L-11.25 35.6 Q-10.1 37.15 -9.9 38.95 -9.75 40.8 -10.45 42.45 -11.15 44.1 -12.7 45.3 -14.25 46.45 -16.05 46.6 -17.9 46.8 -19.55 46.1 -21.25 45.4 -22.4 43.85 L-38.35 22.25 Q-39.5 20.7 -39.7 18.85 -39.85 17.05 -39.15 15.4 -38.45 13.7 -36.9 12.55 -35.35 11.4 -33.55 11.2 -31.7 11.05 -30.05 11.75 -28.35 12.45 -27.2 14.0 Z" fill="none" stroke="#000000" stroke-linecap="round" stroke-linejoin="round" stroke-width="4.0"/>
    <path d="M56.9 8.2 Q58.6 8.8 59.9 10.25 L77.3 30.7 Q78.55 32.2 78.85 33.95 79.2 35.75 78.6 37.5 78.0 39.2 76.55 40.45 75.05 41.7 73.25 42.0 L69.75 41.75 Q68.05 41.15 66.75 39.7 L49.35 19.3 Q48.1 17.8 47.8 16.0 47.45 14.2 48.05 12.5 48.65 10.75 50.1 9.5 51.6 8.25 53.4 7.95 L56.9 8.2 Z" fill="none" stroke="#000000" stroke-linecap="round" stroke-linejoin="round" stroke-width="4.0"/>
    <path d="M-4.15 43.0 Q-3.9 45.4 -4.85 47.6 -5.75 49.8 -7.8 51.35 -9.9 52.85 -12.25 53.1 -14.65 53.35 -16.9 52.4 -19.1 51.5 -20.65 49.45 L-23.8 45.15 Q-25.3 43.1 -25.55 40.7 -25.8 38.3 -24.85 36.1 -23.95 33.9 -21.9 32.35 -19.8 30.85 -17.45 30.6 -15.05 30.35 -12.8 31.3 -10.6 32.2 -9.05 34.25 L-5.9 38.55 Q-4.4 40.6 -4.15 43.0 Z" fill="none" stroke="#000000" stroke-linecap="round" stroke-linejoin="round" stroke-width="4.0"/>
    <path d="M-14.1 48.3 Q-13.4 49.3 -13.55 50.35 -13.75 51.45 -14.65 52.2 -15.6 52.85 -16.7 52.7 -17.8 52.55 -18.5 51.6 L-19.3 50.55 Q-19.95 49.6 -19.8 48.5 -19.65 47.4 -18.7 46.7 -17.75 46.05 -16.65 46.2 -15.55 46.35 -14.85 47.3 L-14.1 48.3 Z" fill="none" stroke="#000000" stroke-linecap="round" stroke-linejoin="round" stroke-width="4.0"/>
    <path d="M-7.15 47.25 Q-6.45 48.25 -6.6 49.3 -6.8 50.4 -7.7 51.15 -8.65 51.8 -9.75 51.65 -10.85 51.5 -11.55 50.55 L-12.35 49.5 Q-13.0 48.55 -12.85 47.45 -12.7 46.35 -11.75 45.65 -10.8 45.0 -9.7 45.15 -8.6 45.3 -7.9 46.25 L-7.15 47.25 Z" fill="none" stroke="#000000" stroke-linecap="round" stroke-linejoin="round" stroke-width="4.0"/>
    <path d="M-5.15 40.5 Q-4.45 41.5 -4.6 42.55 -4.8 43.65 -5.7 44.4 -6.65 45.05 -7.75 44.9 -8.85 44.75 -9.55 43.8 L-10.35 42.75 Q-11.0 41.8 -10.85 40.7 -10.7 39.6 -9.75 38.9 -8.8 38.25 -7.7 38.4 -6.6 38.55 -5.9 39.5 L-5.15 40.5 Z" fill="none" stroke="#000000" stroke-linecap="round" stroke-linejoin="round" stroke-width="4.0"/>
    <path d="M84.25 36.85 Q84.65 39.25 83.9 41.5 83.1 43.75 81.2 45.45 79.25 47.1 76.85 47.5 L72.2 47.15 Q69.95 46.35 68.25 44.45 L64.8 40.4 Q63.15 38.4 62.75 36.05 62.35 33.7 63.1 31.4 63.9 29.15 65.85 27.45 67.8 25.8 70.15 25.4 L74.8 25.75 Q77.05 26.55 78.75 28.5 L82.2 32.55 Q83.85 34.5 84.25 36.85 Z" fill="none" stroke="#000000" stroke-linecap="round" stroke-linejoin="round" stroke-width="4.0"/>
    <path d="M73.85 41.9 L74.7 42.85 Q75.45 43.75 75.35 44.9 75.3 46.0 74.4 46.75 73.5 47.5 72.4 47.4 71.3 47.35 70.5 46.45 L69.65 45.45 Q68.9 44.55 69.0 43.45 69.1 42.35 69.95 41.55 70.9 40.85 72.0 40.9 73.1 41.0 73.85 41.9 Z" fill="none" stroke="#000000" stroke-linecap="round" stroke-linejoin="round" stroke-width="4.0"/>
    <path d="M80.7 40.35 L81.55 41.3 Q82.3 42.2 82.2 43.35 82.15 44.45 81.25 45.2 80.35 45.95 79.25 45.85 78.15 45.8 77.35 44.9 L76.5 43.9 Q75.75 43.0 75.85 41.9 75.95 40.8 76.8 40.0 77.75 39.3 78.85 39.35 79.95 39.45 80.7 40.35 Z" fill="none" stroke="#000000" stroke-linecap="round" stroke-linejoin="round" stroke-width="4.0"/>
    <path d="M82.25 33.5 L83.1 34.45 Q83.85 35.35 83.75 36.5 83.7 37.6 82.8 38.35 81.9 39.1 80.8 39.0 79.7 38.95 78.9 38.05 L78.05 37.05 Q77.3 36.15 77.4 35.05 77.5 33.95 78.35 33.15 79.3 32.45 80.4 32.5 81.5 32.6 82.25 33.5 Z" fill="none" stroke="#000000" stroke-linecap="round" stroke-linejoin="round" stroke-width="4.0"/>
    <path d="M-67.0 -1.85 Q-67.05 2.15 -69.2 5.4 -71.35 8.65 -74.95 10.55 -78.55 12.45 -83.05 12.5 -87.85 12.45 -91.65 10.25 -92.0 10.0 -91.2 9.35 L-88.95 7.85 -86.15 6.05 -83.85 4.45 Q-82.95 3.75 -83.25 3.4 L-85.05 3.2 -88.55 3.5 -92.6 4.0 -96.05 4.3 Q-97.45 4.3 -97.7 3.95 -99.0 1.25 -99.05 -1.85 -99.0 -5.85 -96.85 -9.1 -94.75 -12.35 -91.1 -14.25 -87.5 -16.15 -83.05 -16.2 -78.55 -16.15 -74.95 -14.25 -71.35 -12.35 -69.2 -9.1 -67.05 -5.85 -67.0 -1.85" fill="#dee00d" fill-rule="evenodd" stroke="none"/>
    <path d="M-50.8 -0.3 Q-50.8 2.3 -52.1 4.35 -53.35 6.45 -55.55 7.7 -57.7 8.95 -60.35 8.95 L-69.95 8.95 Q-72.6 8.9 -74.75 7.7 -76.9 6.45 -78.2 4.35 -79.45 2.25 -79.5 -0.3 -79.45 -2.9 -78.2 -5.0 -76.9 -7.1 -74.75 -8.35 -72.6 -9.55 -69.95 -9.6 L-60.35 -9.6 Q-57.7 -9.55 -55.55 -8.35 -53.35 -7.1 -52.1 -5.0 -50.8 -2.9 -50.8 -0.3" fill="#dee00d" fill-rule="evenodd" stroke="none"/>
    <path d="M-90.55 -4.05 L-91.0 -4.05 Q-92.1 -4.1 -92.85 -4.8 -93.55 -5.55 -93.6 -6.7 -93.55 -7.85 -92.85 -8.55 -92.1 -9.3 -91.0 -9.35 L-90.55 -9.35 Q-89.45 -9.3 -88.7 -8.55 -88.0 -7.85 -87.95 -6.7 -88.0 -5.55 -88.7 -4.8 -89.45 -4.1 -90.55 -4.05" fill="#ffffff" fill-rule="evenodd" stroke="none"/>
    <path d="M-90.05 -6.2 Q-90.15 -5.25 -91.1 -5.15 L-91.6 -5.15 Q-92.05 -5.15 -92.35 -5.45 -92.65 -5.75 -92.65 -6.2 -92.55 -7.1 -91.6 -7.2 L-91.1 -7.2 -90.35 -6.9 -90.05 -6.2" fill="#000000" fill-rule="evenodd" stroke="none"/>
    <path d="M84.7 5.35 L-62.35 5.35 Q-62.3 -1.7 -58.6 -8.05 -54.9 -14.4 -48.15 -19.7 -41.45 -25.0 -32.25 -28.85 -23.1 -32.75 -12.05 -34.9 -1.05 -37.0 11.15 -37.05 23.4 -37.0 34.4 -34.9 45.4 -32.75 54.6 -28.85 63.75 -25.0 70.5 -19.7 77.25 -14.4 80.95 -8.05 84.65 -1.7 84.7 5.35" fill="#7f6d13" fill-rule="evenodd" stroke="none"/>
    <path d="M21.0 -33.3 Q12.35 -33.55 2.7 -32.8 -6.95 -32.05 -16.65 -29.75 -26.35 -27.45 -35.2 -23.1 -44.0 -18.7 -51.0 -11.75 -57.95 -4.75 -62.2 5.4 -62.15 -1.65 -58.45 -8.0 -54.75 -14.35 -48.0 -19.65 -41.3 -24.95 -32.1 -28.8 -22.95 -32.7 -11.9 -34.85 -0.9 -36.95 11.3 -37.0 22.3 -37.0 32.35 -35.25 42.4 -33.5 51.0 -30.3 L47.05 -31.0 36.45 -32.35 21.0 -33.3" fill="#9e8818" fill-rule="evenodd" stroke="none"/>
    <path d="M84.7 4.3 Q84.65 7.45 80.95 10.35 77.25 13.2 70.5 15.55 63.75 17.95 54.6 19.7 45.4 21.45 34.4 22.4 L11.15 23.35 -12.05 22.4 Q-23.1 21.45 -32.25 19.7 -41.45 17.95 -48.15 15.55 -54.9 13.2 -58.6 10.35 -62.3 7.45 -62.35 4.3 L84.7 4.3" fill="#7f6d13" fill-rule="evenodd" stroke="none"/>
    <path d="M70.5 15.55 Q63.75 17.95 54.6 19.7 45.4 21.45 34.4 22.4 L11.15 23.35 -12.1 22.4 Q-23.1 21.45 -32.25 19.7 -41.45 17.95 -48.15 15.55 -54.9 13.2 -58.6 10.35 -62.3 7.45 -62.35 4.3 L-58.55 6.05 Q-54.8 7.7 -47.65 10.1 -40.55 12.5 -30.55 14.75 -20.5 17.0 -7.9 18.2 4.65 19.45 19.35 18.8 34.05 18.15 50.5 14.75 66.9 11.35 84.7 4.3 84.65 7.45 80.95 10.35 77.25 13.2 70.5 15.55" fill="#65570f" fill-rule="evenodd" stroke="none"/>
    <path d="M-22.55 -12.15 Q-22.55 -9.65 -23.55 -7.6 -24.55 -5.55 -26.2 -4.35 -27.85 -3.15 -29.9 -3.15 -31.95 -3.15 -33.6 -4.35 -35.25 -5.55 -36.25 -7.6 -37.25 -9.65 -37.25 -12.15 -37.25 -14.65 -36.25 -16.7 -35.25 -18.7 -33.6 -19.9 -31.95 -21.1 -29.9 -21.15 -27.85 -21.1 -26.2 -19.9 -24.55 -18.7 -23.55 -16.7 -22.55 -14.65 -22.55 -12.15" fill="#c6b90e" fill-rule="evenodd" stroke="none"/>
    <path d="M10.3 -0.45 Q10.25 2.95 8.4 5.15 6.6 7.4 3.85 7.5 1.1 7.4 -0.75 5.15 -2.6 2.9 -2.65 -0.45 -2.6 -3.85 -0.75 -6.05 1.1 -8.3 3.85 -8.4 6.6 -8.3 8.45 -6.05 10.25 -3.85 10.3 -0.45" fill="#c6b90e" fill-rule="evenodd" stroke="none"/>
    <path d="M48.35 5.9 Q48.3 9.25 46.45 11.5 44.65 13.75 41.9 13.85 39.15 13.75 37.3 11.5 35.45 9.25 35.4 5.9 35.45 2.5 37.3 0.3 39.15 -1.95 41.9 -2.05 44.65 -1.95 46.5 0.3 48.3 2.5 48.35 5.9" fill="#c6b90e" fill-rule="evenodd" stroke="none"/>
    <path d="M30.05 -16.35 Q30.0 -13.3 28.8 -10.85 27.65 -8.4 25.6 -6.95 23.6 -5.5 21.1 -5.45 18.6 -5.5 16.6 -6.95 14.6 -8.4 13.4 -10.85 12.25 -13.3 12.2 -16.35 12.25 -19.4 13.4 -21.9 14.6 -24.35 16.6 -25.8 18.65 -27.25 21.1 -27.3 23.6 -27.25 25.6 -25.8 27.65 -24.35 28.8 -21.9 30.0 -19.4 30.05 -16.35" fill="#c6b90e" fill-rule="evenodd" stroke="none"/>
    <path d="M-9.0 3.05 Q-9.0 5.55 -10.0 7.6 -11.0 9.65 -12.65 10.85 -14.3 12.05 -16.35 12.1 -18.4 12.05 -20.1 10.85 -21.75 9.65 -22.75 7.6 -23.75 5.55 -23.75 3.05 -23.75 0.5 -22.75 -1.5 -21.75 -3.55 -20.1 -4.75 -18.45 -5.95 -16.35 -6.0 -14.3 -5.95 -12.65 -4.75 -11.0 -3.55 -10.0 -1.5 -9.0 0.5 -9.0 3.05" fill="#c6b90e" fill-rule="evenodd" stroke="none"/>
    <path d="M-37.7 3.4 Q-37.75 6.15 -39.15 7.95 -40.55 9.8 -42.65 9.85 -44.75 9.8 -46.1 7.95 -47.5 6.15 -47.55 3.4 -47.5 0.65 -46.1 -1.15 -44.7 -3.0 -42.65 -3.05 -40.55 -3.0 -39.15 -1.15 -37.75 0.65 -37.7 3.4" fill="#c6b90e" fill-rule="evenodd" stroke="none"/>
    <path d="M7.3 -21.15 Q7.25 -18.6 6.05 -16.5 4.85 -14.45 2.8 -13.2 0.75 -12.0 -1.8 -11.95 -4.35 -12.0 -6.4 -13.2 -8.45 -14.45 -9.65 -16.5 -10.85 -18.6 -10.9 -21.15 -10.85 -23.7 -9.65 -25.8 -8.45 -27.85 -6.4 -29.1 -4.35 -30.3 -1.8 -30.35 0.75 -30.3 2.8 -29.1 4.85 -27.85 6.05 -25.8 7.25 -23.7 7.3 -21.15" fill="#c6b90e" fill-rule="evenodd" stroke="none"/>
    <path d="M59.2 -10.55 Q59.15 -8.0 57.95 -5.9 56.75 -3.85 54.7 -2.6 52.65 -1.4 50.1 -1.35 47.55 -1.4 45.5 -2.6 43.45 -3.85 42.25 -5.9 41.05 -8.0 41.0 -10.55 41.05 -13.1 42.25 -15.2 43.45 -17.25 45.5 -18.5 47.55 -19.7 50.1 -19.75 52.65 -19.7 54.7 -18.5 56.75 -17.25 57.95 -15.2 59.15 -13.1 59.2 -10.55" fill="#c6b90e" fill-rule="evenodd" stroke="none"/>
    <path d="M70.3 -2.05 Q70.25 -0.4 69.2 0.7 68.1 1.8 66.45 1.85 64.8 1.8 63.75 0.7 62.65 -0.4 62.6 -2.05 62.65 -3.7 63.75 -4.8 64.8 -5.9 66.45 -5.95 68.1 -5.9 69.2 -4.8 70.25 -3.7 70.3 -2.05" fill="#c6b90e" fill-rule="evenodd" stroke="none"/>
    <path d="M18.45 9.6 Q18.4 11.25 17.35 12.35 16.25 13.45 14.6 13.5 12.95 13.45 11.9 12.35 10.8 11.25 10.75 9.6 10.8 7.95 11.9 6.85 12.95 5.75 14.6 5.7 16.25 5.75 17.35 6.85 18.4 7.95 18.45 9.6" fill="#c6b90e" fill-rule="evenodd" stroke="none"/>
    <path d="M31.95 4.3 Q31.9 6.55 30.65 8.05 29.45 9.55 27.6 9.6 25.75 9.55 24.5 8.05 23.3 6.55 23.25 4.3 23.3 2.0 24.5 0.5 25.75 -1.0 27.6 -1.05 29.45 -1.0 30.65 0.5 31.9 2.0 31.95 4.3" fill="#c6b90e" fill-rule="evenodd" stroke="none"/>
    <path d="M-36.9 12.55 Q-35.35 11.4 -33.55 11.2 -31.7 11.05 -30.05 11.75 -28.35 12.45 -27.2 14.0 L-11.25 35.6 Q-10.1 37.15 -9.9 38.95 -9.7 40.75 -10.45 42.45 -11.15 44.1 -12.7 45.3 -14.25 46.45 -16.05 46.6 -17.9 46.8 -19.55 46.1 -21.25 45.4 -22.4 43.85 L-38.35 22.25 Q-39.5 20.7 -39.7 18.85 -39.85 17.05 -39.15 15.4 -38.45 13.7 -36.9 12.55" fill="#dee00d" fill-rule="evenodd" stroke="none"/>
    <path d="M59.9 10.25 L77.35 30.7 Q78.6 32.2 78.9 33.95 79.2 35.75 78.6 37.5 78.0 39.2 76.55 40.5 75.05 41.75 73.3 42.05 L69.75 41.75 Q68.05 41.15 66.75 39.7 L49.35 19.3 Q48.1 17.8 47.8 16.0 47.5 14.2 48.05 12.5 48.65 10.75 50.1 9.5 51.6 8.25 53.4 7.95 L56.9 8.2 Q58.65 8.8 59.9 10.25" fill="#dee00d" fill-rule="evenodd" stroke="none"/>
    <path d="M-4.85 47.6 Q-5.75 49.85 -7.8 51.35 -9.9 52.85 -12.25 53.1 -14.65 53.35 -16.9 52.45 -19.1 51.5 -20.65 49.45 L-23.8 45.15 Q-25.3 43.1 -25.55 40.7 -25.8 38.3 -24.85 36.1 -23.95 33.9 -21.9 32.35 -19.8 30.85 -17.4 30.6 -15.05 30.35 -12.8 31.3 -10.6 32.2 -9.05 34.25 L-5.9 38.55 Q-4.4 40.65 -4.15 43.0 -3.9 45.4 -4.85 47.6" fill="#dee00d" fill-rule="evenodd" stroke="none"/>
    <path d="M-14.1 48.35 Q-13.4 49.3 -13.55 50.4 -13.75 51.45 -14.65 52.2 -15.6 52.85 -16.7 52.7 -17.8 52.55 -18.5 51.6 L-19.3 50.55 Q-19.95 49.6 -19.8 48.5 -19.65 47.45 -18.7 46.7 -17.75 46.05 -16.65 46.2 -15.55 46.35 -14.85 47.3 L-14.1 48.35" fill="#ffffff" fill-rule="evenodd" stroke="none"/>
    <path d="M-7.15 47.3 Q-6.45 48.25 -6.6 49.35 -6.8 50.4 -7.7 51.15 -8.65 51.8 -9.75 51.65 -10.85 51.5 -11.55 50.55 L-12.35 49.5 Q-13.0 48.55 -12.85 47.45 -12.7 46.4 -11.75 45.65 -10.8 45.0 -9.7 45.15 -8.6 45.3 -7.9 46.25 L-7.15 47.3" fill="#ffffff" fill-rule="evenodd" stroke="none"/>
    <path d="M-5.15 40.55 Q-4.45 41.5 -4.6 42.6 -4.8 43.65 -5.7 44.4 -6.65 45.05 -7.75 44.9 -8.85 44.75 -9.55 43.8 L-10.35 42.75 Q-11.0 41.8 -10.85 40.7 -10.7 39.65 -9.75 38.9 -8.8 38.25 -7.7 38.4 -6.6 38.55 -5.9 39.5 L-5.15 40.55" fill="#ffffff" fill-rule="evenodd" stroke="none"/>
    <path d="M83.85 41.5 Q83.1 43.8 81.15 45.45 79.2 47.1 76.8 47.5 L72.2 47.15 Q69.9 46.4 68.25 44.45 L64.75 40.4 Q63.1 38.45 62.7 36.05 62.3 33.7 63.1 31.4 63.85 29.15 65.8 27.45 67.75 25.8 70.1 25.4 L74.75 25.8 Q77.05 26.55 78.7 28.5 L82.15 32.55 Q83.8 34.5 84.2 36.9 84.65 39.25 83.85 41.5" fill="#dee00d" fill-rule="evenodd" stroke="none"/>
    <path d="M74.7 42.85 Q75.45 43.75 75.35 44.85 75.25 45.95 74.4 46.75 73.5 47.5 72.4 47.4 71.3 47.3 70.5 46.45 L69.65 45.45 Q68.9 44.55 69.0 43.45 69.1 42.35 69.95 41.55 70.85 40.8 71.95 40.9 73.05 41.0 73.85 41.85 L74.7 42.85" fill="#ffffff" fill-rule="evenodd" stroke="none"/>
    <path d="M81.55 41.3 Q82.3 42.2 82.2 43.3 82.1 44.4 81.25 45.2 80.35 45.95 79.25 45.85 78.15 45.75 77.35 44.9 L76.5 43.9 Q75.75 43.0 75.85 41.9 75.95 40.8 76.8 40.0 77.7 39.25 78.8 39.35 79.9 39.45 80.7 40.3 L81.55 41.3" fill="#ffffff" fill-rule="evenodd" stroke="none"/>
    <path d="M83.15 34.45 Q83.9 35.35 83.8 36.45 83.7 37.55 82.85 38.35 81.95 39.1 80.85 39.0 79.75 38.9 78.95 38.05 L78.1 37.05 Q77.35 36.15 77.45 35.05 77.55 33.95 78.4 33.15 79.3 32.4 80.4 32.5 81.5 32.6 82.3 33.45 L83.15 34.45" fill="#ffffff" fill-rule="evenodd" stroke="none"/>
  </g>
</svg>
