<?xml version="1.0" encoding="UTF-8" standalone="no"?>
<svg xmlns:xlink="http://www.w3.org/1999/xlink" height="82.85px" width="80.0px" xmlns="http://www.w3.org/2000/svg">
  <g transform="matrix(1.0, 0.0, 0.0, 1.0, 40.0, 41.4)">
    <path d="M7.1 -39.3 Q18.15 -43.8 26.9 -38.65 29.45 -36.95 34.7 -29.75 38.1 -29.2 40.0 -27.1 40.05 -25.0 36.8 -21.9 33.65 -18.95 34.0 -16.4 30.75 -8.35 21.1 -3.3 18.5 0.25 13.3 8.35 8.15 14.95 2.0 16.7 L-3.75 18.25 -3.5 20.9 Q-3.35 22.6 -2.0 22.9 2.2 23.05 10.25 26.9 12.0 28.3 11.1 31.8 9.95 32.05 9.3 33.95 8.7 35.8 7.35 36.05 5.45 36.45 3.45 34.55 0.9 32.1 -0.2 31.8 1.9 35.1 1.35 37.35 1.1 38.95 -1.75 39.35 L-4.2 38.25 Q-5.45 41.05 -6.45 41.35 -8.25 41.8 -10.45 39.8 -11.2 35.75 -15.1 32.9 L-18.85 32.95 Q-20.85 32.8 -21.8 31.15 -21.6 29.5 -19.95 28.3 L-17.1 26.45 -20.15 21.35 Q-21.95 18.35 -21.8 15.8 -31.85 13.05 -37.1 4.45 -43.15 -9.0 -36.65 -16.2 -32.1 -18.3 -21.1 -19.5 -10.2 -20.75 -5.75 -22.85 -4.35 -24.3 -0.25 -31.9 2.85 -37.7 7.1 -39.3 M-8.2 22.9 Q-8.95 20.45 -9.55 19.35 L-11.0 19.1 -12.65 18.9 Q-14.4 19.75 -13.45 21.7 L-11.75 24.7 Q-10.95 24.1 -8.2 22.9" fill="#000000" fill-rule="evenodd" stroke="none"/>
    <path d="M4.25 -33.55 Q14.05 -40.05 20.0 -38.2 28.05 -36.95 31.55 -30.2 29.55 -29.1 28.25 -24.4 27.55 -22.55 30.1 -20.15 32.35 -18.0 30.9 -16.2 25.9 -8.7 17.55 -4.65 15.7 -2.0 12.35 4.0 9.1 9.15 5.1 11.15 -0.75 16.55 -12.65 14.7 -13.5 16.65 -16.45 18.05 -18.85 18.55 -19.35 16.7 -19.8 16.15 -19.75 14.25 -19.7 12.6 -20.65 12.05 -21.65 13.55 -23.5 12.45 L-26.45 10.7 Q-32.3 4.85 -34.15 0.7 -36.55 -4.75 -34.65 -11.55 -32.35 -14.1 -27.55 -15.2 L-19.55 -16.65 -6.2 -19.55 Q-2.5 -20.6 -0.35 -25.9 2.1 -32.0 4.25 -33.55" fill="#ffe066" fill-rule="evenodd" stroke="none"/>
    <path d="M35.8 -27.75 Q36.35 -27.05 37.8 -26.65 36.35 -25.2 30.9 -23.75 30.6 -27.1 32.45 -28.2 32.9 -27.75 34.05 -27.9 L35.8 -27.75" fill="#ffb31a" fill-rule="evenodd" stroke="none"/>
    <path d="M21.8 -24.4 Q22.45 -23.0 20.45 -20.65 18.5 -19.3 15.55 -20.4 13.8 -21.05 14.9 -24.2 15.85 -26.05 18.45 -26.15 21.05 -26.2 21.8 -24.4" fill="#000000" fill-rule="evenodd" stroke="none"/>
    <path d="M18.65 -23.3 Q18.3 -22.75 17.55 -22.85 17.15 -23.35 17.35 -23.75 19.4 -24.6 18.65 -23.3" fill="#ffffff" fill-rule="evenodd" stroke="none"/>
    <path d="M32.65 -21.1 Q31.2 -22.25 32.95 -22.8 L35.8 -23.75 32.65 -21.1" fill="#ffb31a" fill-rule="evenodd" stroke="none"/>
    <path d="M-5.1 1.35 Q-10.4 7.05 -18.0 6.25 -25.65 4.25 -27.55 -0.4 -28.95 -4.0 -28.65 -6.4 -27.6 -8.2 -25.55 -8.65 -24.4 -7.8 -22.0 -9.85 -19.65 -11.9 -18.0 -10.65 -17.7 -10.35 -16.45 -9.9 -15.45 -9.6 -15.35 -8.85 -15.95 -8.15 -17.95 -8.6 -19.65 -9.0 -20.0 -7.55 L-18.6 -6.55 Q-17.8 -5.95 -18.0 -5.1 -19.05 -4.45 -21.15 -5.6 -23.4 -6.85 -24.65 -6.4 -25.75 -5.7 -25.8 -4.45 L-25.8 -2.2 Q-22.65 4.15 -18.2 4.05 -11.9 5.8 -4.2 -2.65 -3.5 -3.1 -2.15 -5.3 -1.15 -7.0 0.0 -6.85 0.2 -4.6 -1.65 -2.4 L-5.1 1.35" fill="#000000" fill-rule="evenodd" stroke="none"/>
    <path d="M-7.55 25.6 Q-7.1 26.1 -6.45 26.05 -5.4 24.7 -6.2 22.5 -7.2 19.75 -7.1 18.9 L-5.75 18.9 Q-5.55 19.4 -5.1 22.75 -4.8 25.1 -3.55 26.05 -3.3 25.25 -2.3 25.35 L-0.65 25.6 4.45 27.2 Q7.7 28.2 9.35 29.6 9.55 29.85 9.55 30.9 L8.25 30.05 6.9 28.9 Q5.5 28.65 3.15 27.45 0.85 26.3 -0.65 26.05 L-1.4 26.75 Q-1.8 27.2 -1.35 27.6 -0.05 28.75 2.45 29.15 6.55 31.2 7.55 33.35 6.0 34.7 4.15 32.8 L1.35 30.05 Q-0.85 27.9 -4.25 27.2 L-10.45 26.45 Q-9.65 25.45 -7.55 25.6" fill="#ffb34d" fill-rule="evenodd" stroke="none"/>
    <path d="M-11.35 32.05 Q-6.5 35.25 -7.1 38.25 -8.35 38.0 -9.1 36.65 -10.2 34.65 -10.65 34.25 -14.85 29.6 -18.45 30.9 -18.65 29.85 -16.5 28.8 -14.45 27.8 -14.9 26.05 L-18.0 21.15 Q-16.45 20.95 -15.3 22.8 L-13.35 26.05 Q-13.2 27.15 -12.0 28.25 -6.85 29.85 -1.55 34.45 L-1.1 35.65 Q-0.7 36.35 -0.9 36.9 -2.1 36.9 -3.55 34.95 -5.15 32.8 -6.2 32.45 -8.95 30.6 -10.45 30.05 -11.15 30.05 -11.45 30.75 -11.75 31.45 -11.35 32.05" fill="#ffb34d" fill-rule="evenodd" stroke="none"/>
    <path d="M-0.45 31.8 L-1.5 31.05 Q-2.05 30.6 -0.9 31.35 L-0.45 31.8" fill="#ffffff" fill-rule="evenodd" stroke="none"/>
  </g>
</svg>
