<?xml version="1.0" encoding="UTF-8" standalone="no"?>
<svg xmlns:xlink="http://www.w3.org/1999/xlink" height="50.0px" width="177.9px" xmlns="http://www.w3.org/2000/svg">
  <g transform="matrix(1.0, 0.0, 0.0, 1.0, 286.3, 220.2)">
    <path d="M-137.95 -215.2 Q-128.65 -215.2 -122.05 -209.95 -115.4 -204.6 -115.4 -197.2 -115.4 -189.75 -122.05 -184.5 -128.65 -179.2 -137.95 -179.2 L-258.65 -179.2 Q-268.0 -179.2 -274.65 -184.5 -281.3 -189.75 -281.3 -197.2 -281.3 -204.6 -274.65 -209.95 -268.0 -215.2 -258.65 -215.2 L-137.95 -215.2" fill="#ffffff" fill-rule="evenodd" stroke="none"/>
    <path d="M-137.95 -215.2 L-258.65 -215.2 Q-268.0 -215.2 -274.65 -209.95 -281.3 -204.6 -281.3 -197.2 -281.3 -189.75 -274.65 -184.5 -268.0 -179.2 -258.65 -179.2 L-137.95 -179.2 Q-128.65 -179.2 -122.05 -184.5 -115.4 -189.75 -115.4 -197.2 -115.4 -204.6 -122.05 -209.95 -128.65 -215.2 -137.95 -215.2 M-133.35 -219.2 Q-123.45 -219.2 -116.45 -212.2 -109.4 -205.1 -109.4 -195.2 -109.4 -185.3 -116.45 -178.3 -123.45 -171.2 -133.35 -171.2 L-261.3 -171.2 Q-271.2 -171.2 -278.3 -178.3 -285.3 -185.3 -285.3 -195.2 -285.3 -205.1 -278.3 -212.2 -271.2 -219.2 -261.3 -219.2 L-133.35 -219.2" fill="#cccccc" fill-rule="evenodd" stroke="none"/>
    <path d="M-133.35 -219.2 L-261.3 -219.2 Q-271.2 -219.2 -278.3 -212.2 -285.3 -205.1 -285.3 -195.2 -285.3 -185.3 -278.3 -178.3 -271.2 -171.2 -261.3 -171.2 L-133.35 -171.2 Q-123.45 -171.2 -116.45 -178.3 -109.4 -185.3 -109.4 -195.2 -109.4 -205.1 -116.45 -212.2 -123.45 -219.2 -133.35 -219.2 Z" fill="none" stroke="#000000" stroke-linecap="round" stroke-linejoin="round" stroke-width="2.0"/>
  </g>
</svg>
