<?xml version="1.0" encoding="UTF-8" standalone="no"?>
<svg xmlns:xlink="http://www.w3.org/1999/xlink" height="46.0px" width="276.0px" xmlns="http://www.w3.org/2000/svg">
  <g transform="matrix(1.0, 0.0, 0.0, 1.0, 336.1, 214.2)">
    <path d="M-335.1 -201.2 Q-335.1 -206.2 -331.6 -209.7 -328.1 -213.2 -323.1 -213.2 L-73.1 -213.2 Q-68.1 -213.2 -64.6 -209.7 -61.1 -206.2 -61.1 -201.2 L-61.1 -181.2 Q-61.1 -176.2 -64.6 -172.7 -68.1 -169.2 -73.1 -169.2 L-323.1 -169.2 Q-328.1 -169.2 -331.6 -172.7 -335.1 -176.2 -335.1 -181.2 L-335.1 -201.2" fill="#ffffff" fill-rule="evenodd" stroke="none"/>
    <path d="M-335.1 -201.2 L-335.1 -181.2 Q-335.1 -176.2 -331.6 -172.7 -328.1 -169.2 -323.1 -169.2 L-73.1 -169.2 Q-68.1 -169.2 -64.6 -172.7 -61.1 -176.2 -61.1 -181.2 L-61.1 -201.2 Q-61.1 -206.2 -64.6 -209.7 -68.1 -213.2 -73.1 -213.2 L-323.1 -213.2 Q-328.1 -213.2 -331.6 -209.7 -335.1 -206.2 -335.1 -201.2 Z" fill="none" stroke="#000000" stroke-linecap="round" stroke-linejoin="round" stroke-width="2.0"/>
  </g>
</svg>
