<?xml version="1.0" encoding="UTF-8" standalone="no"?>
<svg xmlns:xlink="http://www.w3.org/1999/xlink" height="294.85px" width="297.0px" xmlns="http://www.w3.org/2000/svg">
  <g transform="matrix(1.0, 0.0, 0.0, 1.0, 148.5, 147.4)">
    <path d="M83.5 -134.3 Q87.6 -132.45 91.9 -130.95 96.2 -129.5 99.8 -127.75 L105.7 -121.45 Q108.55 -118.2 110.65 -114.65 112.8 -111.1 113.7 -107.05 114.6 -103.05 113.8 -98.45 112.5 -94.6 109.6 -92.0 106.65 -89.35 102.85 -87.7 99.05 -86.05 95.05 -85.1 L87.55 -83.7 87.15 -83.45 86.75 -79.9 Q86.7 -78.9 86.3 -78.05 85.95 -77.15 86.15 -76.2 L94.1 -75.55 Q98.15 -75.25 101.95 -74.15 105.75 -73.05 108.8 -70.45 109.8 -68.65 109.55 -66.4 L109.05 -62.2 Q107.3 -55.4 103.9 -49.2 100.5 -43.05 95.2 -38.0 96.9 -35.25 98.0 -32.25 99.1 -29.25 99.4 -25.9 100.0 -21.0 97.95 -16.95 95.9 -12.9 92.35 -9.85 85.35 -4.5 77.65 -0.85 69.9 2.75 61.55 4.8 L64.55 5.05 72.2 5.3 82.55 4.6 Q88.2 3.95 93.7 2.2 L97.1 1.5 100.5 0.75 Q102.2 0.3 103.55 -0.65 L103.2 -5.9 Q103.15 -8.45 103.95 -10.85 105.75 -14.1 108.8 -16.05 111.8 -18.0 115.45 -18.4 117.85 -17.85 119.55 -16.25 121.3 -14.7 122.4 -12.6 L122.75 -12.65 Q123.85 -15.65 124.35 -18.85 124.9 -21.25 124.15 -23.4 L122.45 -27.55 Q121.45 -29.6 121.1 -31.85 120.75 -35.5 121.8 -38.95 122.85 -42.4 125.0 -45.35 127.15 -48.3 130.0 -50.5 132.2 -51.4 134.45 -51.25 136.65 -51.1 138.8 -50.35 L142.95 -48.7 Q145.6 -47.4 146.9 -45.05 148.15 -42.7 148.5 -39.95 148.45 -32.25 143.75 -25.8 142.45 -23.9 140.6 -23.0 138.8 -22.1 136.85 -21.45 134.9 -20.75 133.25 -19.55 L131.65 -16.25 Q131.0 -14.7 130.9 -12.75 L133.5 -11.95 136.0 -10.75 Q137.7 -9.75 139.3 -8.4 140.85 -7.1 141.75 -5.45 142.7 -3.75 142.4 -1.65 142.05 0.05 141.0 1.55 139.95 3.05 138.25 3.65 L138.7 5.45 138.8 7.4 Q138.55 9.3 137.1 10.75 135.6 12.2 133.85 12.75 L133.9 13.1 137.3 15.2 Q139.05 16.4 140.3 17.95 141.55 19.55 141.75 21.6 L141.1 24.65 Q140.6 26.1 139.2 27.2 137.2 29.0 135.25 29.1 133.3 29.15 131.35 28.25 L127.55 26.1 123.9 24.0 122.7 26.35 121.0 28.4 118.85 29.1 116.65 28.95 Q114.8 28.2 113.8 26.7 112.75 25.2 112.7 23.3 L105.2 26.9 98.35 29.75 90.2 32.45 80.7 35.25 70.4 38.15 61.25 40.5 55.05 41.6 Q54.75 42.35 54.8 43.3 L54.95 45.05 57.1 45.95 Q58.2 46.9 58.55 48.25 58.95 49.6 58.75 51.15 57.9 52.1 58.15 52.9 58.4 53.75 58.95 54.55 59.5 55.35 59.65 56.25 59.95 57.45 59.35 58.5 58.8 59.5 57.75 60.2 57.3 60.35 57.0 60.65 56.7 60.9 56.85 61.5 58.2 65.0 58.85 68.9 59.55 72.85 59.75 76.3 L60.0 81.95 59.95 84.2 Q59.05 91.8 55.75 98.2 52.45 104.65 47.65 110.65 51.0 112.6 55.0 113.75 L63.0 115.9 Q67.05 116.9 70.7 118.5 74.35 120.05 77.0 122.9 79.7 125.7 80.9 130.5 81.7 132.9 81.05 134.95 80.4 137.0 79.1 138.8 L76.6 142.35 Q73.7 145.2 70.05 146.55 L62.45 146.8 Q57.65 147.95 53.4 147.0 49.15 146.0 45.45 143.55 41.8 141.05 38.7 137.75 35.6 134.4 33.15 130.9 L29.65 126.75 25.9 122.65 Q23.9 120.75 21.55 119.45 17.85 121.05 14.4 123.2 L7.55 127.7 -0.2 133.8 Q-4.1 136.75 -8.3 138.9 -12.5 141.05 -17.4 141.7 L-23.95 141.6 Q-27.25 141.4 -30.3 140.45 -33.3 139.45 -35.75 137.15 -37.4 135.2 -38.4 132.9 L-40.6 128.35 Q-41.25 126.1 -41.5 123.5 -41.7 120.9 -41.1 118.4 -40.5 115.95 -38.7 114.2 -35.85 111.4 -32.3 110.3 -28.8 109.2 -24.95 109.0 L-17.2 108.6 Q-13.3 108.4 -9.75 107.45 -13.1 102.95 -15.9 98.15 -18.75 97.7 -21.1 96.0 -22.45 94.8 -23.3 93.35 -24.2 91.85 -24.05 90.0 -24.05 82.5 -22.75 75.55 -21.4 68.55 -19.2 61.9 -17.05 55.25 -14.5 48.75 L-9.65 35.65 -9.65 34.85 Q-17.05 36.9 -24.8 38.0 L-40.6 39.6 -42.6 39.45 Q-43.35 39.85 -43.8 40.7 L-44.9 42.4 Q-45.45 43.2 -46.45 43.55 -47.85 44.5 -49.75 44.6 -51.65 44.65 -53.2 43.9 -55.3 45.55 -58.0 45.7 -60.75 45.9 -63.15 44.8 -64.65 46.1 -66.45 46.6 -70.3 47.35 -73.65 45.95 -76.95 44.6 -79.2 41.25 -80.1 38.95 -80.05 36.55 -80.0 34.1 -79.45 31.8 -80.15 31.7 -80.2 30.1 -80.25 28.55 -79.75 26.55 -79.3 24.5 -78.5 22.95 -77.7 21.4 -76.75 21.25 L-76.4 21.0 -74.9 17.45 Q-74.35 16.3 -73.3 15.45 L-69.8 12.95 Q-67.55 11.5 -65.1 11.55 -62.65 11.6 -60.3 12.55 -57.95 13.55 -56.05 15.0 -54.65 15.7 -53.5 15.3 L-51.2 14.35 Q-50.0 13.7 -48.35 13.85 -38.05 12.9 -28.4 9.95 -18.75 7.05 -9.75 2.65 -7.9 1.55 -5.7 0.6 -3.45 -0.35 -1.75 -1.8 -0.05 -3.25 0.3 -5.75 L3.4 -7.75 6.8 -9.35 Q2.25 -13.1 -2.2 -17.45 -6.65 -21.8 -10.25 -26.75 -13.85 -31.7 -15.85 -37.3 -17.9 -42.9 -17.55 -49.2 -17.05 -52.9 -15.2 -56.25 -13.35 -59.6 -10.5 -62.2 -7.65 -64.85 -4.15 -66.4 -5.25 -71.5 -5.65 -76.85 -6.1 -82.25 -5.7 -87.4 L-5.05 -92.05 Q-4.6 -94.4 -3.4 -96.3 -2.2 -98.15 0.05 -99.1 5.45 -99.5 10.25 -98.1 15.05 -96.7 19.45 -94.15 23.8 -91.6 27.95 -88.55 29.45 -90.45 30.45 -92.7 31.5 -94.95 33.15 -96.8 33.2 -97.4 32.85 -97.45 L32.05 -97.45 31.25 -97.6 Q28.0 -99.15 24.8 -100.8 21.55 -102.5 17.6 -103.35 14.95 -104.5 13.15 -106.6 11.35 -108.75 10.35 -111.35 9.35 -114.0 9.05 -116.75 8.65 -119.25 9.3 -121.45 10.0 -123.65 11.1 -125.75 L13.0 -130.0 Q15.45 -135.25 19.7 -138.4 23.95 -141.55 29.1 -143.25 34.25 -144.95 39.4 -145.9 L48.8 -146.45 58.25 -147.4 64.9 -146.0 Q68.2 -145.15 71.1 -143.5 74.0 -141.85 76.25 -139.0 79.35 -136.15 83.5 -134.3" fill="#000000" fill-rule="evenodd" stroke="none"/>
    <path d="M107.7 86.4 Q109.15 87.4 110.15 88.85 L111.8 91.85 Q112.45 94.2 112.2 96.45 111.95 98.65 110.55 100.65 107.7 104.9 103.4 107.2 99.1 109.45 94.1 110.2 L84.0 110.65 74.4 109.45 Q70.15 108.8 65.6 106.55 61.1 104.3 56.7 101.15 52.35 97.95 48.5 94.55 44.65 91.15 41.75 88.1 L51.9 67.5 Q53.4 71.05 55.75 74.2 58.05 77.35 60.8 80.2 64.2 84.8 68.75 87.25 73.35 89.75 78.55 90.35 L88.9 89.9 Q91.65 89.5 94.15 88.4 L99.1 86.35 Q101.6 85.35 104.4 85.3 106.25 85.4 107.7 86.4" fill="#000000" fill-rule="evenodd" stroke="none"/>
    <path d="M107.7 86.4 Q106.25 85.4 104.4 85.3 101.6 85.35 99.1 86.35 L94.15 88.4 Q91.65 89.5 88.9 89.9 L78.55 90.35 Q73.35 89.75 68.75 87.25 64.2 84.8 60.8 80.2 58.05 77.35 55.75 74.2 53.4 71.05 51.9 67.5 L41.75 88.1 Q44.65 91.15 48.5 94.55 52.35 97.95 56.7 101.15 61.1 104.3 65.6 106.55 70.15 108.8 74.4 109.45 L84.0 110.65 94.1 110.2 Q99.1 109.45 103.4 107.2 107.7 104.9 110.55 100.65 111.95 98.65 112.2 96.45 112.45 94.2 111.8 91.85 L110.15 88.85 Q109.15 87.4 107.7 86.4 Z" fill="none" stroke="#000000" stroke-linecap="round" stroke-linejoin="round" stroke-width="0.9500000000000001"/>
    <path d="M107.6 90.1 Q108.75 91.6 108.9 93.25 109.05 94.9 108.65 96.55 L107.6 99.8 Q105.9 102.6 103.2 104.25 100.45 105.85 97.25 106.25 98.15 105.15 98.55 103.95 L99.4 101.55 Q99.9 99.8 99.9 97.65 99.9 95.5 99.2 93.6 98.5 91.65 96.9 90.45 L100.4 88.8 Q102.15 87.9 104.0 87.75 105.15 88.0 106.05 88.55 L107.6 90.1" fill="#ffffff" fill-rule="evenodd" stroke="none"/>
    <path d="M87.7 92.85 L88.3 93.25 Q89.7 96.85 89.15 100.65 88.65 104.5 86.1 107.65 L81.6 107.45 77.15 106.75 Q79.65 103.8 80.75 100.25 81.85 96.65 81.0 93.0 L84.3 93.05 87.7 92.85" fill="#9e9390" fill-rule="evenodd" stroke="none"/>
    <path d="M67.75 89.25 L71.1 91.05 Q71.6 93.35 70.9 95.6 70.15 97.8 68.7 99.75 67.25 101.7 65.6 103.15 L61.2 101.0 56.9 98.4 Q59.85 96.5 62.0 93.55 64.2 90.55 64.65 87.15 L67.75 89.25" fill="#9e9390" fill-rule="evenodd" stroke="none"/>
    <path d="M103.75 -120.0 Q106.75 -117.35 108.25 -114.1 109.7 -110.8 110.2 -107.15 110.7 -103.45 110.75 -99.6 109.8 -96.25 107.25 -93.75 104.65 -91.25 101.2 -89.5 97.7 -87.8 94.05 -86.75 L87.3 -85.25 86.5 -90.4 Q86.0 -92.7 84.7 -95.15 L89.15 -94.6 Q91.45 -94.65 93.5 -95.5 L95.55 -97.05 Q96.55 -97.95 97.2 -99.0 97.8 -100.1 97.7 -101.5 L97.2 -103.0 96.05 -104.05 Q94.1 -104.2 92.55 -103.35 91.0 -102.5 89.55 -101.35 L86.5 -99.3 Q84.95 -98.4 83.05 -98.55 81.2 -100.9 79.85 -103.5 78.45 -106.1 76.55 -108.25 76.7 -108.95 77.65 -109.3 L79.35 -110.3 Q80.4 -111.05 80.9 -112.1 L81.9 -114.15 Q82.4 -115.15 83.4 -115.9 83.8 -116.4 83.65 -117.0 L83.3 -118.05 Q82.3 -118.3 81.75 -117.6 L80.6 -116.3 Q80.5 -113.95 78.95 -112.15 77.4 -110.35 75.25 -109.65 72.35 -112.55 68.6 -113.65 64.8 -114.75 60.7 -114.75 L52.6 -114.35 Q51.3 -115.55 50.55 -117.0 L49.3 -120.0 48.0 -123.0 46.65 -124.5 Q45.85 -125.05 44.7 -124.95 43.95 -124.7 43.3 -124.15 L42.3 -122.9 Q41.8 -121.7 42.15 -120.5 L43.05 -118.3 Q43.85 -116.55 45.45 -115.4 47.05 -114.25 48.9 -114.0 L49.15 -114.3 49.15 -114.75 47.05 -116.2 Q45.95 -116.95 45.2 -118.05 44.6 -119.1 44.35 -120.45 44.1 -121.8 44.95 -122.9 L45.9 -122.95 46.75 -122.4 48.65 -118.05 Q49.5 -115.9 51.05 -114.0 46.4 -112.65 42.15 -110.3 L41.15 -110.3 37.95 -113.15 34.7 -116.2 Q33.0 -117.65 31.15 -118.4 29.25 -119.2 27.1 -118.8 24.9 -118.6 23.0 -117.2 21.15 -115.8 20.25 -113.8 20.05 -112.2 20.85 -111.0 22.7 -109.6 24.15 -109.55 25.6 -109.5 26.9 -110.2 L29.65 -111.7 29.9 -112.5 Q30.05 -112.9 29.65 -113.2 28.4 -112.65 27.4 -112.6 L25.35 -112.65 22.9 -112.4 Q22.25 -112.7 22.4 -113.45 22.55 -114.25 23.1 -114.9 L24.45 -115.85 Q26.95 -117.1 29.6 -116.3 32.2 -115.45 34.65 -113.6 L39.1 -109.9 38.2 -109.65 Q36.3 -108.8 35.05 -106.9 33.8 -105.05 33.9 -102.75 L32.0 -103.7 29.9 -104.45 Q28.9 -104.7 28.15 -104.1 28.0 -104.1 28.0 -103.75 28.05 -103.4 28.35 -103.1 29.65 -102.25 30.8 -102.95 L32.4 -102.55 33.9 -101.65 33.8 -100.4 33.15 -99.5 Q31.6 -99.6 30.15 -100.45 28.7 -101.25 27.35 -102.4 L24.75 -104.55 20.75 -105.75 Q18.65 -106.4 16.95 -107.55 15.2 -108.7 14.2 -110.8 L12.45 -114.9 Q11.5 -116.95 11.25 -119.3 11.7 -121.65 12.8 -123.65 L15.2 -127.6 Q16.45 -129.6 17.25 -131.8 19.2 -135.45 22.35 -137.55 25.55 -139.65 29.2 -140.95 L36.35 -143.65 47.45 -144.05 58.55 -144.75 63.95 -143.45 69.25 -141.7 73.85 -137.45 Q76.1 -135.2 78.6 -133.25 81.05 -131.3 84.0 -130.35 87.4 -129.8 91.0 -128.4 94.65 -127.0 97.95 -124.9 101.25 -122.75 103.75 -120.0" fill="#ffffff" fill-rule="evenodd" stroke="none"/>
    <path d="M71.8 -107.9 Q74.2 -106.3 75.85 -104.1 L79.0 -99.55 Q80.5 -97.2 82.4 -95.15 L83.9 -88.9 Q84.55 -85.75 84.35 -82.65 84.2 -79.5 82.8 -76.35 L76.95 -75.9 71.1 -75.1 Q65.45 -78.2 59.35 -80.65 53.25 -83.05 46.7 -84.15 40.2 -85.25 33.25 -84.4 L30.6 -86.55 Q31.85 -88.0 32.55 -89.7 L34.05 -93.05 35.45 -95.25 Q36.3 -96.3 37.6 -96.6 L39.35 -96.95 Q40.3 -97.0 40.55 -98.0 L38.05 -98.35 35.3 -98.15 36.55 -103.7 38.45 -105.75 Q39.55 -106.6 40.85 -106.85 47.45 -110.65 55.15 -111.7 L61.2 -111.95 Q64.05 -111.55 66.7 -110.45 69.35 -109.35 71.8 -107.9" fill="#ffffff" fill-rule="evenodd" stroke="none"/>
    <path d="M95.55 -102.25 L95.8 -101.05 Q95.85 -100.35 95.55 -99.85 94.05 -97.8 91.75 -96.6 89.45 -95.4 86.6 -96.0 85.4 -96.9 84.2 -97.4 86.3 -97.75 88.2 -98.6 90.1 -99.45 91.85 -100.6 L93.65 -101.7 Q94.55 -102.25 95.55 -102.25" fill="#ffffff" fill-rule="evenodd" stroke="none"/>
    <path d="M84.6 -64.55 Q82.95 -63.35 81.9 -61.6 82.55 -60.6 83.65 -60.2 L85.75 -59.4 87.9 -58.2 89.45 -56.6 88.2 -56.65 87.0 -56.75 84.35 -56.45 Q83.05 -56.1 82.55 -54.85 L85.85 -52.75 Q87.55 -51.8 88.55 -50.1 L86.05 -50.2 83.45 -50.25 83.15 -49.9 83.05 -49.5 Q87.5 -47.0 91.5 -43.5 L90.35 -43.35 Q89.75 -43.3 89.3 -42.85 89.8 -42.05 90.55 -41.4 L91.6 -39.95 Q90.45 -40.55 88.1 -40.95 L83.15 -41.45 78.4 -41.35 Q76.3 -41.15 75.7 -40.6 75.2 -39.85 75.6 -39.2 L76.35 -37.9 83.15 -33.55 89.9 -29.25 Q93.2 -26.95 95.95 -23.9 L96.2 -22.75 Q94.4 -24.0 91.5 -25.25 L85.3 -27.6 78.95 -29.45 73.8 -30.45 71.1 -30.4 70.65 -29.55 Q70.55 -29.1 70.6 -28.5 72.75 -24.75 75.8 -21.95 L81.8 -16.35 Q84.75 -13.55 86.65 -9.75 L86.25 -9.1 85.5 -9.0 81.15 -10.45 75.2 -11.6 69.55 -12.3 Q67.05 -12.5 66.15 -12.3 65.5 -12.2 65.35 -11.6 L65.15 -10.55 Q65.5 -8.3 66.85 -7.0 68.15 -5.75 69.65 -4.6 71.2 -3.4 72.25 -1.45 67.05 1.05 61.1 2.3 55.1 3.6 48.95 3.75 L36.95 3.1 Q37.5 3.05 37.85 2.6 L38.25 1.6 Q38.15 1.1 37.75 1.2 L37.1 1.1 Q35.15 2.1 32.95 2.4 L28.55 2.85 Q25.55 2.15 22.75 0.65 19.95 -0.9 17.8 -3.2 15.6 -5.5 14.55 -8.45 L13.65 -8.85 Q12.9 -8.6 12.95 -7.95 L13.0 -6.8 4.1 -14.7 Q-0.25 -18.8 -3.9 -23.35 -7.55 -27.9 -10.15 -33.15 L-7.7 -33.0 -5.65 -32.75 -3.3 -33.0 Q-2.6 -33.3 -2.0 -33.9 -1.4 -34.5 -1.55 -35.45 -4.6 -37.9 -7.35 -39.75 -10.1 -41.6 -13.6 -43.0 -12.8 -43.75 -11.6 -43.95 L-9.25 -44.5 -4.85 -45.0 -0.75 -45.15 Q1.25 -45.35 3.15 -46.9 3.35 -47.85 2.9 -48.6 L1.65 -49.95 0.25 -50.95 -10.55 -56.85 -10.65 -57.25 -10.15 -57.95 -9.4 -58.4 -3.9 -59.0 1.35 -59.05 7.0 -59.4 7.95 -59.95 8.8 -60.7 Q9.1 -61.15 8.8 -61.8 6.95 -63.85 5.15 -64.95 3.3 -66.05 0.9 -66.65 L2.3 -66.9 Q2.9 -67.4 2.65 -67.6 L1.95 -68.05 Q1.5 -68.3 1.55 -68.7 L4.85 -69.1 Q6.5 -69.35 7.9 -70.25 8.05 -71.0 7.6 -71.6 L6.55 -72.65 5.65 -73.55 8.6 -73.95 11.5 -74.2 Q12.8 -74.5 13.25 -76.2 L11.65 -77.75 9.85 -79.15 13.55 -79.5 17.2 -79.0 Q17.8 -79.0 18.1 -79.35 18.4 -79.7 18.25 -80.3 16.65 -83.85 14.15 -87.35 11.7 -90.85 8.45 -93.55 5.25 -96.25 1.3 -97.35 L0.5 -97.2 Q0.05 -97.15 0.15 -96.6 L0.6 -96.3 1.15 -96.35 Q4.4 -94.8 7.1 -92.35 9.8 -89.85 11.9 -86.9 14.0 -83.9 15.45 -80.8 L12.75 -81.05 Q11.6 -80.85 10.5 -81.05 L8.35 -81.3 Q7.3 -81.35 6.4 -80.55 6.8 -79.45 7.65 -78.8 L9.45 -77.5 11.0 -75.85 6.55 -75.65 Q4.4 -75.25 2.45 -74.45 2.7 -73.2 3.8 -72.55 L5.75 -71.1 5.75 -70.75 2.4 -70.5 Q0.75 -70.35 -0.75 -69.7 -1.0 -69.4 -0.85 -69.15 L-0.5 -68.7 -0.25 -68.2 -1.65 -68.2 Q-2.9 -72.95 -3.5 -78.1 -4.15 -83.25 -3.55 -88.3 L-2.95 -92.75 Q-2.65 -95.0 -1.5 -96.85 -0.75 -97.9 0.45 -98.1 L2.95 -98.25 Q8.25 -97.35 12.95 -95.05 17.65 -92.7 22.0 -89.6 L30.6 -83.1 30.85 -82.45 30.35 -80.35 30.0 -78.2 Q30.0 -77.1 30.7 -76.2 31.35 -75.7 32.15 -75.85 L33.65 -76.2 Q35.4 -76.8 37.0 -77.75 L40.15 -79.65 Q41.75 -80.6 43.45 -81.05 L42.8 -78.65 Q41.8 -76.65 41.6 -74.15 41.35 -71.7 42.7 -69.75 43.35 -69.2 44.15 -69.05 L45.75 -69.1 52.8 -73.2 Q56.35 -75.2 60.15 -76.6 L61.45 -76.8 62.7 -76.6 61.25 -73.35 Q60.7 -71.65 60.65 -69.75 61.05 -69.0 61.75 -68.45 62.4 -67.95 63.35 -68.05 65.65 -68.7 67.7 -70.05 69.7 -71.35 71.85 -72.4 L81.7 -73.3 Q86.65 -73.6 91.75 -73.3 L97.3 -72.65 102.85 -71.9 Q105.55 -71.3 107.65 -69.5 108.1 -68.15 107.8 -66.85 L107.4 -64.25 Q105.8 -57.6 102.4 -51.65 99.05 -45.7 93.9 -40.7 L92.9 -41.55 92.1 -42.5 93.15 -42.75 93.9 -43.35 Q94.2 -43.75 94.0 -44.25 L88.55 -48.2 90.55 -48.2 Q91.65 -48.1 92.5 -48.6 92.15 -50.25 91.0 -51.35 89.85 -52.45 88.35 -53.25 L85.5 -54.7 91.5 -54.85 92.0 -55.35 92.0 -56.1 91.85 -56.75 Q90.65 -58.4 88.95 -59.65 87.25 -60.9 85.35 -61.6 L88.9 -64.15 Q90.8 -65.3 92.75 -66.15 95.65 -67.4 98.7 -68.3 101.75 -69.25 105.1 -69.35 L105.5 -69.55 105.6 -70.0 100.85 -70.6 96.15 -69.85 91.75 -68.45 88.1 -66.65 84.6 -64.55" fill="#9e9390" fill-rule="evenodd" stroke="none"/>
    <path d="M44.7 6.6 L50.0 6.8 Q48.7 8.5 47.8 10.3 L45.9 13.95 Q43.1 22.05 42.15 31.0 41.15 39.9 41.2 49.1 L41.4 51.55 Q41.55 52.75 42.5 53.45 L49.8 52.85 Q53.4 52.3 56.75 51.15 L56.75 51.4 56.25 53.2 Q55.9 54.15 55.85 55.05 55.8 55.95 56.6 56.6 57.15 56.55 57.15 56.3 L57.0 55.7 Q56.9 55.4 57.15 55.1 L57.4 55.45 Q57.75 56.15 57.6 56.9 L57.0 58.25 Q54.0 59.1 51.25 60.5 L45.8 63.5 44.75 64.0 Q44.15 64.15 43.7 64.45 43.25 64.75 43.25 65.55 43.9 70.5 45.05 75.3 L47.3 84.8 Q48.5 89.55 49.35 94.45 L42.05 93.9 Q38.2 93.95 34.95 95.1 34.75 95.3 34.9 95.5 L35.2 95.85 37.9 95.45 Q39.25 95.2 40.55 95.45 37.85 97.6 34.85 99.2 31.9 100.8 28.6 101.55 24.5 102.65 20.6 102.45 16.65 102.2 12.95 101.2 L5.55 98.8 -1.7 96.35 Q-4.8 95.5 -8.05 95.75 L-14.45 96.1 Q-17.0 95.95 -19.1 94.5 -21.25 93.1 -22.35 90.75 -22.5 84.2 -21.3 78.15 -20.1 72.1 -18.15 66.35 L-14.05 54.9 Q-11.9 49.2 -10.1 43.4 L-7.85 37.55 -5.55 31.7 Q-4.5 28.7 -4.25 25.4 -3.2 20.65 -2.5 15.75 L-0.85 6.0 Q0.1 1.2 1.7 -3.35 1.95 -4.65 2.9 -5.3 3.8 -5.9 4.95 -6.3 6.1 -6.65 7.05 -7.2 L9.15 -7.25 10.75 -5.9 Q8.7 2.1 7.6 10.5 7.25 13.4 7.05 16.3 L6.2 21.85 Q10.85 24.95 16.05 26.8 21.25 28.65 26.7 29.9 27.35 29.9 28.05 30.25 L29.4 30.7 Q30.05 30.8 30.5 29.9 33.75 17.5 39.3 6.05 L44.7 6.6" fill="#ffffff" fill-rule="evenodd" stroke="none"/>
    <path d="M34.8 10.7 Q33.65 13.25 32.8 16.0 32.15 13.45 30.45 11.35 28.8 9.25 26.5 7.85 24.2 6.5 21.7 6.15 L15.3 6.4 Q12.25 7.05 10.25 9.75 L11.25 2.4 Q11.75 -1.3 12.8 -4.65 14.25 -4.1 15.1 -3.0 L16.75 -0.6 Q17.5 0.65 18.55 1.7 20.45 3.7 23.05 4.7 25.6 5.7 28.35 5.65 31.15 5.65 33.7 4.65 L37.25 5.55 34.8 10.7" fill="#9e9390" fill-rule="evenodd" stroke="none"/>
    <path d="M-15.25 8.1 L-7.1 4.4 Q-6.2 5.85 -5.7 7.5 L-4.55 10.75 -5.85 17.65 -6.75 23.25 -7.85 28.7 Q-8.6 23.1 -10.45 17.9 -12.25 12.65 -15.25 8.1" fill="#9e9390" fill-rule="evenodd" stroke="none"/>
    <path d="M-51.4 15.25 Q-49.25 15.4 -48.2 16.85 -47.2 18.25 -46.7 20.15 L-45.55 23.65 Q-46.65 23.2 -47.95 23.3 -49.25 23.35 -50.25 24.05 L-52.55 23.0 Q-54.1 22.35 -55.7 22.65 -57.35 22.95 -58.65 23.9 -60.05 23.65 -60.2 22.95 -60.4 22.3 -60.05 21.4 L-59.4 19.5 Q-59.15 18.5 -59.65 17.65 L-60.3 17.6 Q-60.6 17.75 -60.8 18.05 -61.35 20.7 -62.55 23.1 -63.75 25.5 -65.8 27.35 -66.75 28.1 -68.1 28.2 L-70.6 28.0 -72.5 26.45 Q-73.3 25.45 -73.55 24.3 L-73.25 22.4 -72.75 21.85 -72.15 21.4 Q-71.75 21.0 -71.3 19.7 -70.45 18.05 -69.1 16.6 -67.8 15.2 -66.05 14.45 L-60.55 13.6 -55.7 13.25 Q-53.45 13.4 -51.4 15.25" fill="#ffffff" fill-rule="evenodd" stroke="none"/>
    <path d="M60.5 7.45 Q58.65 10.05 57.8 13.85 56.95 17.7 56.65 22.15 L56.15 31.0 Q56.0 35.4 55.5 39.2 L54.05 40.15 52.15 40.6 Q50.2 41.3 48.05 41.6 L43.75 41.85 43.95 38.9 43.95 34.9 Q44.0 32.85 44.4 31.15 44.85 29.45 46.0 28.7 47.05 28.2 48.3 25.95 L50.9 20.7 53.4 14.65 55.65 9.55 Q56.65 7.5 57.25 7.2 L59.2 7.25 59.55 7.35 59.55 7.4 60.5 7.45" fill="#9e9390" fill-rule="evenodd" stroke="none"/>
    <path d="M31.75 18.8 L30.35 23.55 Q29.55 25.85 29.1 28.35 23.85 27.35 18.95 25.6 14.05 23.85 9.6 21.1 9.55 19.1 9.65 17.2 L9.85 13.35 Q10.4 12.3 11.3 11.45 L13.15 10.0 Q14.9 8.85 17.05 8.55 19.2 8.25 21.4 8.6 23.6 9.0 25.4 9.9 28.05 11.2 29.75 13.55 31.4 15.9 31.75 18.8" fill="#ffffff" fill-rule="evenodd" stroke="none"/>
    <path d="M-25.55 14.55 Q-23.3 19.25 -21.75 24.25 -20.2 29.25 -19.55 34.45 L-24.55 35.4 -29.6 36.1 Q-30.15 30.2 -31.95 24.8 -33.8 19.45 -36.75 14.55 L-31.95 13.4 -27.2 12.15 -25.55 14.55" fill="#9e9390" fill-rule="evenodd" stroke="none"/>
    <path d="M-50.4 27.95 L-49.75 29.95 Q-49.45 30.95 -49.75 32.05 -50.35 35.35 -51.8 38.4 -53.25 41.45 -56.4 43.25 L-58.8 43.7 Q-60.05 43.75 -61.1 43.0 -58.5 39.75 -56.85 36.15 -55.15 32.5 -55.35 28.25 L-56.15 26.75 -56.65 25.3 Q-54.85 24.95 -53.15 25.65 -51.45 26.3 -50.4 27.95" fill="#ffffff" fill-rule="evenodd" stroke="none"/>
    <path d="M-46.7 25.9 Q-45.75 26.25 -45.05 26.95 -43.7 29.15 -43.75 31.9 -43.8 34.6 -44.8 36.9 L-46.25 39.15 Q-47.15 40.2 -48.3 40.85 -49.45 41.5 -50.9 41.35 L-49.35 38.95 -48.1 36.4 Q-47.35 34.7 -46.9 32.8 -46.5 30.9 -46.8 29.05 -47.15 27.2 -48.6 25.7 L-46.7 25.9" fill="#ffffff" fill-rule="evenodd" stroke="none"/>
    <path d="M-60.25 26.2 L-59.2 27.35 Q-58.25 29.05 -58.4 30.9 -58.6 32.8 -59.05 34.6 -59.9 36.85 -61.25 39.1 -62.55 41.35 -64.55 42.85 -66.5 44.4 -69.25 44.4 -71.5 44.2 -73.45 43.25 -75.4 42.3 -76.9 40.5 -78.05 38.55 -78.05 36.15 -78.05 33.7 -76.9 31.8 L-75.1 31.6 -73.35 31.55 Q-74.4 33.8 -74.85 36.25 L-74.4 36.85 -73.7 36.9 -73.05 35.6 Q-72.6 35.0 -72.55 34.25 -72.05 33.6 -71.65 32.55 -71.25 31.45 -70.6 30.85 -70.0 30.25 -68.75 31.05 -66.4 30.8 -64.55 29.3 -62.7 27.8 -61.6 25.7 -60.8 25.65 -60.25 26.2" fill="#ffffff" fill-rule="evenodd" stroke="none"/>
    <path d="M29.7 48.2 Q30.55 48.7 30.85 49.6 30.0 52.85 29.45 56.25 28.85 59.65 27.55 62.7 26.25 65.75 23.2 67.95 20.2 69.8 16.5 70.3 L9.1 70.1 Q5.4 69.35 2.45 67.55 -0.75 65.6 -2.3 62.6 -3.8 59.6 -4.1 56.0 -4.4 52.45 -4.0 48.85 L-2.9 41.95 -1.9 41.7 Q5.35 44.95 13.2 46.75 21.1 48.5 29.7 48.2" fill="#000000" fill-rule="evenodd" stroke="none"/>
    <path d="M23.35 65.65 Q21.6 67.0 19.45 67.7 L15.2 68.8 Q11.9 68.75 8.8 67.9 5.65 67.05 3.05 65.25 0.5 63.4 -1.0 60.4 -1.95 57.95 -2.15 55.0 -2.3 52.05 -2.0 49.05 L-1.25 43.35 Q5.75 46.5 13.3 48.5 20.8 50.45 28.95 50.6 27.95 56.5 25.9 61.95 25.05 64.25 23.35 65.65" fill="#ffffff" fill-rule="evenodd" stroke="none"/>
    <path d="M55.3 49.5 L55.3 47.95 55.95 47.95 56.5 48.25 Q56.8 48.5 56.7 48.85 L56.05 49.4 55.3 49.5" fill="#9e9390" fill-rule="evenodd" stroke="none"/>
    <path d="M47.8 55.95 L48.05 57.1 Q46.9 58.85 45.05 59.8 43.25 60.75 41.3 61.3 L40.55 61.45 Q40.15 61.45 40.15 60.95 L43.25 59.4 Q44.8 58.6 45.9 57.25 L43.5 57.1 41.05 57.35 40.9 57.0 44.3 55.9 Q46.05 55.45 47.8 55.95" fill="#000000" fill-rule="evenodd" stroke="none"/>
    <path d="M45.0 66.8 L49.4 63.85 Q51.6 62.4 54.15 61.7 L54.8 64.35 Q52.65 65.7 50.15 66.45 L45.15 67.7 45.0 66.8" fill="#9e9390" fill-rule="evenodd" stroke="none"/>
    <path d="M57.5 79.65 Q57.8 82.05 57.45 84.7 L56.6 89.7 Q56.25 90.85 55.3 91.1 L53.25 91.35 51.1 91.5 49.75 86.9 Q49.05 84.6 48.7 82.2 L53.15 81.05 Q55.4 80.55 57.5 79.65" fill="#9e9390" fill-rule="evenodd" stroke="none"/>
    <path d="M2.1 103.75 Q5.6 103.7 8.8 102.35 L13.15 103.7 17.5 104.9 19.3 110.65 20.65 116.6 Q15.45 118.85 10.7 122.3 L1.3 129.35 Q-3.4 132.95 -8.45 135.6 -13.5 138.25 -19.35 138.9 -20.2 138.75 -21.1 138.9 L-22.8 139.0 Q-23.6 138.95 -24.3 138.4 -24.9 137.05 -25.3 135.2 -25.75 133.3 -25.7 131.45 -25.65 129.55 -24.95 128.15 L-23.85 126.9 -22.7 125.9 Q-22.2 125.4 -22.5 124.95 -23.85 125.05 -25.0 125.7 L-27.1 127.25 Q-28.35 128.65 -28.5 130.7 L-28.25 134.95 -27.6 138.65 Q-29.8 138.5 -31.65 137.15 -33.55 135.8 -35.0 134.05 -35.7 132.25 -36.05 129.85 -36.4 127.45 -36.15 125.15 -35.85 122.8 -34.6 121.15 L-33.4 120.25 -32.15 119.55 -31.55 118.85 Q-32.5 118.25 -33.3 118.6 L-35.1 119.35 Q-36.7 119.9 -37.4 121.35 -38.1 122.85 -38.3 124.6 L-38.7 127.7 Q-39.35 126.25 -39.45 124.6 -39.55 121.9 -38.75 119.35 -38.0 116.8 -35.65 115.05 -32.65 113.15 -29.25 112.45 L-22.3 111.5 -15.2 110.85 Q-11.7 110.45 -8.5 109.1 L-7.05 110.5 Q-6.25 111.25 -5.3 111.5 -4.95 111.45 -4.95 111.1 L-4.95 110.5 -8.2 105.6 -11.2 100.55 Q-8.25 101.95 -4.8 102.85 L2.1 103.75" fill="#ffffff" fill-rule="evenodd" stroke="none"/>
    <path d="M61.55 117.6 Q65.4 118.55 68.9 120.2 72.45 121.85 75.3 125.0 76.75 126.8 77.6 129.05 78.45 131.3 78.45 133.65 78.5 136.0 77.45 138.1 77.35 135.35 76.8 132.7 76.25 130.1 74.65 127.95 L72.35 126.1 Q71.15 125.3 69.7 125.4 L69.7 125.65 Q72.15 127.15 73.35 129.45 74.6 131.75 74.9 134.45 75.2 137.2 74.9 139.9 72.8 142.55 69.75 143.7 66.7 144.85 63.2 144.85 L63.2 142.95 62.8 138.05 Q62.55 135.55 61.55 133.5 60.5 131.5 57.95 130.6 L57.75 130.85 57.6 131.1 Q58.9 132.0 59.4 133.3 L60.25 135.95 Q60.6 138.05 60.5 140.25 60.45 142.45 59.75 144.35 L56.55 144.45 53.5 143.85 Q49.2 142.9 45.9 140.55 42.6 138.2 39.85 135.05 L34.6 128.45 Q32.0 125.05 29.15 122.0 26.3 118.9 22.7 116.75 L20.4 105.15 26.45 104.7 32.1 103.1 Q35.95 104.65 40.15 105.3 L48.8 105.9 46.2 109.5 43.3 112.9 43.05 113.9 Q43.8 114.7 44.4 114.25 L45.5 113.15 Q46.05 112.4 46.75 112.25 50.15 114.35 53.9 115.5 L61.55 117.6" fill="#ffffff" fill-rule="evenodd" stroke="none"/>
    <path d="M48.8 105.9 L46.65 108.85 Q38.75 109.35 32.9 108.65 27.1 107.95 23.85 107.0 L20.55 106.0 20.4 105.15 26.45 104.7 32.1 103.1 Q35.95 104.65 40.15 105.3 L48.8 105.9" fill="#9e9390" fill-rule="evenodd" stroke="none"/>
    <path d="M13.15 103.7 L17.5 104.9 3.7 106.3 -5.2 105.9 -8.3 105.35 -11.15 100.55 Q-8.2 101.95 -4.8 102.85 -1.4 103.75 2.15 103.75 5.65 103.7 8.85 102.35 L13.15 103.7" fill="#9e9390" fill-rule="evenodd" stroke="none"/>
    <path d="M7.15 -92.35 Q9.8 -89.9 11.9 -86.9 14.0 -83.9 15.5 -80.8 L12.8 -81.05 Q11.65 -80.85 10.55 -81.05 L8.4 -81.3 Q7.35 -81.35 6.45 -80.55 6.8 -79.45 7.7 -78.8 L9.5 -77.5 Q10.45 -76.85 11.0 -75.85 L6.6 -75.65 Q4.45 -75.25 2.5 -74.45 2.75 -73.2 3.85 -72.6 L5.8 -71.15 5.8 -70.75 2.45 -70.55 -0.7 -69.75 -0.85 -69.15 -0.45 -68.7 -0.2 -68.2 -1.6 -68.2 Q-2.85 -72.95 -3.5 -78.1 -4.1 -83.25 -3.5 -88.35 L-2.9 -92.75 Q-2.6 -95.0 -1.45 -96.85 L-1.05 -97.35 0.25 -97.05 0.2 -96.6 0.65 -96.3 1.2 -96.35 Q4.45 -94.8 7.15 -92.35" fill="#fcb286" fill-rule="evenodd" stroke="none"/>
    <path d="M105.65 -70.0 L107.7 -69.5 Q108.1 -68.15 107.85 -66.85 L107.45 -64.25 Q105.8 -57.65 102.45 -51.65 99.1 -45.7 93.95 -40.7 L92.95 -41.55 92.15 -42.5 93.15 -42.75 93.95 -43.35 Q94.25 -43.8 94.05 -44.25 L88.6 -48.2 90.6 -48.2 Q91.7 -48.15 92.55 -48.6 92.2 -50.25 91.05 -51.35 L88.4 -53.25 85.55 -54.7 91.5 -54.85 92.0 -55.35 92.05 -56.1 91.9 -56.75 Q90.7 -58.4 89.0 -59.65 87.3 -60.9 85.4 -61.6 87.05 -63.05 88.95 -64.15 90.8 -65.3 92.8 -66.15 95.7 -67.4 98.75 -68.3 101.75 -69.25 105.15 -69.35 L105.5 -69.6 105.65 -70.0" fill="#fcb286" fill-rule="evenodd" stroke="none"/>
    <path d="M36.2 -89.45 Q35.75 -90.2 35.9 -91.1 36.15 -92.0 36.9 -92.45 L38.55 -92.75 Q39.45 -92.5 39.9 -91.75 40.4 -91.0 40.2 -90.1 39.95 -89.2 39.2 -88.75 38.45 -88.25 37.55 -88.45 36.65 -88.7 36.2 -89.45" fill="#3f007d" fill-rule="evenodd" stroke="none"/>
    <path d="M36.2 -89.45 Q35.75 -90.2 35.9 -91.1 36.15 -92.0 36.9 -92.45 L38.55 -92.75 Q39.45 -92.5 39.9 -91.75 40.4 -91.0 40.2 -90.1 39.95 -89.2 39.2 -88.75 38.45 -88.25 37.55 -88.45 36.65 -88.7 36.2 -89.45 Z" fill="none" stroke="#3f007d" stroke-linecap="round" stroke-linejoin="round" stroke-width="0.05"/>
    <path d="M39.3 -92.75 Q38.85 -93.5 39.0 -94.4 39.25 -95.3 40.0 -95.75 L41.65 -96.05 Q42.55 -95.8 43.0 -95.05 43.5 -94.3 43.3 -93.4 43.05 -92.5 42.3 -92.05 41.55 -91.55 40.65 -91.75 39.75 -92.0 39.3 -92.75" fill="#3f007d" fill-rule="evenodd" stroke="none"/>
    <path d="M39.3 -92.75 Q38.85 -93.5 39.0 -94.4 39.25 -95.3 40.0 -95.75 L41.65 -96.05 Q42.55 -95.8 43.0 -95.05 43.5 -94.3 43.3 -93.4 43.05 -92.5 42.3 -92.05 41.55 -91.55 40.65 -91.75 39.75 -92.0 39.3 -92.75 Z" fill="none" stroke="#3f007d" stroke-linecap="round" stroke-linejoin="round" stroke-width="0.05"/>
    <path d="M40.65 -88.4 Q40.2 -89.15 40.35 -90.05 40.6 -90.95 41.35 -91.4 42.1 -91.85 43.0 -91.7 43.9 -91.45 44.35 -90.7 44.85 -89.95 44.65 -89.05 44.4 -88.15 43.65 -87.7 42.9 -87.2 42.0 -87.4 41.1 -87.65 40.65 -88.4" fill="#3f007d" fill-rule="evenodd" stroke="none"/>
    <path d="M40.65 -88.4 Q40.2 -89.15 40.35 -90.05 40.6 -90.95 41.35 -91.4 42.1 -91.85 43.0 -91.7 43.9 -91.45 44.35 -90.7 44.85 -89.95 44.65 -89.05 44.4 -88.15 43.65 -87.7 42.9 -87.2 42.0 -87.4 41.1 -87.65 40.65 -88.4 Z" fill="none" stroke="#3f007d" stroke-linecap="round" stroke-linejoin="round" stroke-width="0.05"/>
    <path d="M44.7 -92.4 L43.95 -91.8 43.05 -91.45 42.1 -91.65 42.15 -91.7 43.45 -92.0 44.4 -92.65 45.15 -93.65 45.4 -94.9 45.8 -94.8 45.5 -93.5 44.7 -92.4" fill="#3f007d" fill-rule="evenodd" stroke="none"/>
    <path d="M44.7 -92.4 L43.95 -91.8 43.05 -91.45 42.1 -91.65 42.15 -91.7 43.45 -92.0 44.4 -92.65 45.15 -93.65 45.4 -94.9 45.8 -94.8 45.5 -93.5 44.7 -92.4 Z" fill="none" stroke="#3f007d" stroke-linecap="round" stroke-linejoin="round" stroke-width="0.05"/>
    <path d="M54.9 -91.45 Q54.4 -91.6 54.45 -92.15 54.65 -92.65 55.15 -92.6 55.65 -92.4 55.6 -91.9 55.45 -91.4 54.9 -91.45" fill="#3f007d" fill-rule="evenodd" stroke="none"/>
    <path d="M54.9 -91.45 Q54.4 -91.6 54.45 -92.15 54.65 -92.65 55.15 -92.6 55.65 -92.4 55.6 -91.9 55.45 -91.4 54.9 -91.45 Z" fill="none" stroke="#3f007d" stroke-linecap="round" stroke-linejoin="round" stroke-width="0.05"/>
    <path d="M65.95 -85.15 Q65.65 -83.95 64.7 -83.35 63.7 -82.75 62.55 -83.0 61.35 -83.3 60.75 -84.25 60.15 -85.25 60.4 -86.4 60.7 -87.6 61.65 -88.2 62.65 -88.8 63.8 -88.55 65.0 -88.25 65.6 -87.3 66.2 -86.3 65.95 -85.15" fill="#3f007d" fill-rule="evenodd" stroke="none"/>
    <path d="M60.8 -84.25 Q60.15 -85.2 60.4 -86.4 60.7 -87.55 61.7 -88.15 62.65 -88.8 63.85 -88.55 65.0 -88.25 65.6 -87.25 66.2 -86.3 65.95 -85.1 65.65 -83.95 64.7 -83.35 63.75 -82.75 62.55 -83.0 61.4 -83.3 60.8 -84.25 Z" fill="none" stroke="#3f007d" stroke-linecap="round" stroke-linejoin="round" stroke-width="0.05"/>
    <path d="M61.65 -84.8 Q61.25 -85.4 61.4 -86.2 61.6 -86.95 62.2 -87.3 L63.6 -87.55 Q64.35 -87.35 64.7 -86.75 65.1 -86.1 64.95 -85.35 64.75 -84.6 64.15 -84.25 63.55 -83.85 62.8 -84.0 62.05 -84.2 61.65 -84.8 Z" fill="none" stroke="#3f007d" stroke-linecap="round" stroke-linejoin="round" stroke-width="0.05"/>
    <path d="M55.05 -84.65 Q54.55 -84.85 54.6 -85.3 L56.2 -92.3 Q56.4 -92.75 56.9 -92.7 57.35 -92.5 57.3 -92.05 L55.7 -85.1 Q55.5 -84.6 55.05 -84.65" fill="#3f007d" fill-rule="evenodd" stroke="none"/>
    <path d="M55.05 -84.65 Q54.55 -84.85 54.6 -85.3 L56.2 -92.3 Q56.4 -92.75 56.9 -92.7 57.35 -92.5 57.3 -92.05 L55.7 -85.1 Q55.5 -84.6 55.05 -84.65 Z" fill="none" stroke="#3f007d" stroke-linecap="round" stroke-linejoin="round" stroke-width="0.05"/>
    <path d="M56.65 -84.25 Q56.15 -84.45 56.2 -84.9 L57.8 -91.9 Q58.0 -92.35 58.5 -92.3 58.95 -92.1 58.9 -91.65 L57.3 -84.7 Q57.1 -84.2 56.65 -84.25" fill="#3f007d" fill-rule="evenodd" stroke="none"/>
    <path d="M56.65 -84.25 Q56.15 -84.45 56.2 -84.9 L57.8 -91.9 Q58.0 -92.35 58.5 -92.3 58.95 -92.1 58.9 -91.65 L57.3 -84.7 Q57.1 -84.2 56.65 -84.25 Z" fill="none" stroke="#3f007d" stroke-linecap="round" stroke-linejoin="round" stroke-width="0.05"/>
    <path d="M53.45 -85.0 Q52.95 -85.15 53.0 -85.65 L54.05 -90.1 Q54.2 -90.55 54.7 -90.5 55.15 -90.3 55.1 -89.85 L54.1 -85.4 Q53.9 -84.95 53.45 -85.0" fill="#3f007d" fill-rule="evenodd" stroke="none"/>
    <path d="M53.45 -85.0 Q52.95 -85.15 53.0 -85.65 L54.05 -90.1 Q54.2 -90.55 54.7 -90.5 55.15 -90.3 55.1 -89.85 L54.1 -85.4 Q53.9 -84.95 53.45 -85.0 Z" fill="none" stroke="#3f007d" stroke-linecap="round" stroke-linejoin="round" stroke-width="0.05"/>
    <path d="M53.65 -90.85 L52.45 -85.8 Q52.3 -85.3 51.8 -85.35 51.35 -85.5 51.4 -86.0 L52.4 -90.35 49.9 -86.4 Q49.6 -85.9 49.1 -86.0 48.65 -86.15 48.75 -86.65 L49.7 -90.95 45.35 -86.95 44.55 -87.05 Q44.35 -87.4 44.6 -87.75 L49.35 -92.0 Q49.75 -92.5 50.3 -92.4 51.0 -92.2 50.9 -91.5 L50.3 -88.9 51.95 -91.4 Q52.35 -91.9 53.0 -91.75 L53.55 -91.35 53.65 -90.85" fill="#3f007d" fill-rule="evenodd" stroke="none"/>
    <path d="M53.65 -90.85 L52.45 -85.8 Q52.3 -85.3 51.8 -85.35 51.35 -85.5 51.4 -86.0 L52.4 -90.35 49.9 -86.4 Q49.6 -85.9 49.1 -86.0 48.65 -86.15 48.75 -86.65 L49.7 -90.95 45.35 -86.95 44.55 -87.05 Q44.35 -87.4 44.6 -87.75 L49.35 -92.0 Q49.75 -92.5 50.3 -92.4 51.0 -92.2 50.9 -91.5 L50.3 -88.9 51.95 -91.4 Q52.35 -91.9 53.0 -91.75 L53.55 -91.35 53.65 -90.85 Z" fill="none" stroke="#3f007d" stroke-linecap="round" stroke-linejoin="round" stroke-width="0.05"/>
    <path d="M60.7 -83.1 L60.35 -82.45 Q59.9 -82.35 59.65 -82.8 L58.15 -87.05 58.1 -87.4 58.3 -87.7 59.7 -89.15 Q60.1 -89.45 60.5 -89.15 60.8 -88.75 60.55 -88.4 L59.2 -87.15 60.7 -83.1" fill="#3f007d" fill-rule="evenodd" stroke="none"/>
    <path d="M60.7 -83.1 L60.35 -82.45 Q59.9 -82.35 59.65 -82.8 L58.15 -87.05 58.1 -87.4 58.3 -87.7 59.7 -89.15 Q60.1 -89.45 60.5 -89.15 60.8 -88.75 60.55 -88.4 L59.2 -87.15 60.7 -83.1 Z" fill="none" stroke="#3f007d" stroke-linecap="round" stroke-linejoin="round" stroke-width="0.05"/>
    <path d="M39.65 -93.6 L42.35 -93.0 41.9 -91.65 41.45 -90.35 41.25 -89.8 40.85 -89.55 39.5 -89.85 Q39.3 -89.95 39.3 -90.2 L39.65 -93.6" fill="#ffffff" fill-rule="evenodd" stroke="none"/>
    <path d="M42.4 -93.15 L39.7 -93.75 39.75 -94.35 42.6 -93.7 42.4 -93.15" fill="#ffffff" fill-rule="evenodd" stroke="none"/>
    <path d="M77.5 -38.95 Q78.85 -37.25 79.95 -34.8 81.0 -32.35 81.1 -29.3 81.25 -26.25 79.8 -22.7 77.7 -17.75 74.15 -13.9 70.55 -10.0 66.15 -7.1 61.75 -4.15 57.2 -2.1 52.6 -0.1 48.5 1.15 L41.3 2.85 37.0 3.15 37.9 2.6 38.25 1.6 Q38.2 1.15 37.8 1.2 L37.1 1.1 Q35.2 2.15 32.95 2.45 L28.55 2.9 Q25.6 2.2 22.8 0.65 20.0 -0.85 17.8 -3.15 15.65 -5.45 14.55 -8.45 L13.65 -8.85 Q12.95 -8.55 12.95 -7.9 L13.05 -6.8 Q12.3 -7.4 10.25 -9.35 8.25 -11.3 5.65 -14.65 3.1 -17.95 0.8 -22.6 -1.55 -27.25 -2.95 -33.15 -4.3 -39.05 -3.95 -46.2 -3.7 -49.7 -2.05 -52.25 -0.35 -54.8 1.95 -56.5 4.3 -58.2 6.6 -59.15 8.9 -60.15 10.4 -60.55 L12.0 -60.95 13.35 -61.0 16.8 -60.85 21.35 -60.0 Q23.75 -59.25 25.55 -57.7 L28.35 -54.9 29.35 -53.55 27.85 -51.1 Q26.3 -48.75 22.75 -44.45 L24.15 -44.75 27.9 -45.05 33.5 -44.45 Q36.7 -43.7 38.95 -42.2 L42.35 -39.35 43.5 -37.95 45.15 -39.75 48.8 -43.85 52.6 -48.45 55.1 -48.75 62.25 -48.5 Q65.45 -48.05 68.1 -46.65 70.8 -45.2 72.4 -43.9 L74.05 -42.55 75.15 -41.6 77.5 -38.95" fill="#ffffff" fill-rule="evenodd" stroke="none"/>
    <path d="M72.95 -44.3 L74.0 -43.35 Q74.4 -42.85 73.75 -42.15 71.75 -43.0 69.75 -44.1 L65.85 -46.35 Q63.85 -47.45 61.75 -48.15 L58.8 -48.4 55.1 -48.15 52.65 -47.85 52.3 -48.4 Q52.0 -48.85 52.2 -49.4 L52.6 -49.9 53.55 -50.25 55.5 -51.15 58.35 -52.4 61.05 -52.95 Q63.4 -52.75 65.35 -51.6 67.35 -50.4 69.0 -48.7 L72.05 -45.15 Q72.25 -44.7 72.95 -44.3" fill="#000000" fill-rule="evenodd" stroke="none"/>
    <path d="M22.3 -63.4 Q24.8 -62.75 26.65 -61.05 27.75 -60.0 28.25 -58.7 L29.0 -56.15 Q29.25 -54.95 29.6 -54.25 29.8 -53.6 29.55 -53.5 L28.8 -53.15 Q27.95 -53.45 27.4 -54.3 L26.25 -55.7 Q23.5 -58.75 19.8 -60.15 16.15 -61.55 12.1 -60.25 11.65 -60.15 11.7 -60.6 L11.75 -61.2 Q13.05 -62.1 14.5 -62.45 L17.4 -63.35 Q19.85 -64.1 22.3 -63.4" fill="#000000" fill-rule="evenodd" stroke="none"/>
    <path d="M56.15 -28.75 L54.9 -29.8 Q54.25 -30.3 53.4 -30.2 53.15 -30.75 53.5 -30.95 L54.25 -31.5 56.2 -31.85 Q57.3 -31.75 57.9 -31.05 58.75 -30.4 59.1 -29.45 L59.4 -27.35 Q59.3 -26.05 58.8 -24.8 58.25 -23.5 57.15 -22.85 56.9 -22.9 56.9 -23.3 L57.15 -24.9 Q57.35 -25.7 56.85 -26.4 55.7 -25.35 54.25 -24.55 L51.35 -23.05 Q47.3 -21.15 44.2 -19.0 L38.4 -14.65 32.55 -10.35 Q31.0 -9.6 29.25 -9.6 27.45 -9.65 26.05 -10.5 24.55 -11.9 24.3 -13.6 24.05 -15.3 24.5 -17.1 L25.4 -20.55 Q20.25 -24.0 16.45 -28.45 12.65 -32.85 10.15 -38.55 9.6 -38.35 9.6 -37.65 L9.65 -36.3 Q9.7 -35.6 9.35 -35.4 L8.6 -35.8 8.15 -37.7 Q7.9 -38.75 8.0 -39.75 8.1 -40.75 9.05 -41.4 L11.9 -41.75 Q13.4 -41.5 14.4 -40.65 L13.45 -40.4 12.15 -40.3 Q11.55 -40.2 11.35 -39.9 13.8 -33.45 18.55 -28.45 23.3 -23.45 30.15 -20.95 29.65 -23.6 29.6 -26.4 L29.4 -31.85 Q25.65 -35.95 23.8 -38.8 21.9 -41.65 22.55 -44.1 23.05 -46.1 25.85 -46.5 28.65 -46.9 34.6 -45.4 38.0 -44.55 40.15 -43.05 42.3 -41.6 43.25 -40.15 44.2 -38.7 44.05 -37.85 43.7 -36.25 41.8 -35.0 39.95 -33.8 37.3 -32.9 L31.95 -31.25 31.9 -27.7 31.75 -23.85 Q31.75 -21.95 32.35 -20.45 L33.75 -20.3 35.45 -20.3 36.25 -20.3 Q40.8 -20.85 45.3 -22.05 49.85 -23.25 53.55 -25.9 L55.15 -27.15 Q56.05 -27.8 56.15 -28.75" fill="#000000" fill-rule="evenodd" stroke="none"/>
    <path d="M36.25 -18.6 L39.55 -18.9 36.15 -16.0 Q34.5 -14.4 32.6 -13.3 30.7 -12.2 28.3 -12.4 27.3 -12.85 26.65 -13.7 25.95 -14.55 26.1 -15.8 L27.3 -17.75 Q28.1 -18.65 29.2 -18.95 L31.6 -18.7 31.2 -18.15 30.75 -17.35 30.55 -16.5 Q30.55 -16.05 31.15 -15.75 32.0 -17.6 33.3 -18.1 34.65 -18.65 36.25 -18.6" fill="#ff0000" fill-rule="evenodd" stroke="none"/>
    <path d="M86.45 21.65 Q85.05 18.15 84.55 14.15 84.05 10.1 85.25 6.15 L93.8 4.85 Q93.1 11.25 94.55 16.85 96.0 22.45 99.5 27.15 L91.25 29.9 Q89.6 28.45 88.55 26.35 87.45 24.25 86.45 21.65" fill="#9e9390" fill-rule="evenodd" stroke="none"/>
    <path d="M143.7 -46.0 Q145.0 -45.25 145.8 -43.75 146.8 -40.75 146.4 -37.7 146.0 -34.6 144.45 -31.95 143.5 -29.45 141.75 -27.6 140.05 -25.8 137.85 -24.55 135.7 -23.3 133.4 -22.55 131.0 -21.0 130.1 -18.45 129.15 -15.95 129.0 -13.3 L126.9 -13.2 124.9 -12.65 126.2 -20.15 Q126.65 -22.75 125.9 -24.9 L124.2 -29.2 Q123.25 -31.3 123.15 -33.75 123.65 -41.5 129.5 -47.65 130.6 -49.1 132.05 -49.25 L135.05 -48.85 137.95 -48.0 140.85 -47.1 143.7 -46.0" fill="#f1ce92" fill-rule="evenodd" stroke="none"/>
    <path d="M116.9 -15.3 Q118.2 -14.5 119.15 -13.15 L121.0 -10.7 121.8 -8.8 Q122.3 -7.8 122.4 -6.8 122.5 -5.75 121.7 -4.85 120.5 -3.3 118.65 -2.9 116.75 -2.65 115.5 -3.5 114.25 -4.35 113.35 -5.7 L111.65 -8.4 111.1 -8.3 110.65 -8.05 111.2 -5.25 Q111.65 -3.8 112.85 -2.85 113.85 -1.2 115.6 -0.65 L119.3 -0.25 119.0 1.05 Q118.95 1.75 118.45 2.2 117.65 1.55 116.7 1.4 L114.75 1.3 Q113.75 1.55 112.9 2.15 112.05 2.75 111.55 3.65 110.9 5.1 111.05 6.8 111.2 8.45 111.65 9.95 L113.15 11.8 Q114.0 12.7 115.2 12.85 L112.7 21.45 112.2 21.2 109.2 17.35 106.15 13.55 Q105.0 10.85 104.25 7.95 103.55 5.1 103.85 2.0 104.85 1.35 105.2 0.25 105.55 -0.9 105.4 -2.0 104.95 -3.45 104.85 -5.1 104.7 -6.75 105.05 -8.2 105.55 -10.15 106.9 -11.65 108.2 -13.15 110.05 -14.15 111.85 -15.15 113.8 -15.55 L116.9 -15.3" fill="#ffffff" fill-rule="evenodd" stroke="none"/>
    <path d="M138.7 -31.3 Q140.7 -33.5 141.75 -36.25 142.8 -38.95 142.65 -41.8 L142.95 -42.2 Q143.1 -42.45 143.4 -42.35 143.85 -41.7 143.8 -40.85 L143.8 -39.2 Q143.4 -36.45 142.15 -33.55 140.95 -30.65 138.85 -28.45 136.8 -26.25 133.85 -25.5 131.95 -25.25 130.35 -26.4 128.75 -27.55 127.65 -29.0 127.05 -30.25 126.85 -31.65 126.65 -33.0 126.75 -34.35 L127.0 -35.2 Q127.15 -35.6 127.75 -35.35 127.75 -34.15 128.1 -33.05 L128.85 -30.85 Q129.7 -29.55 131.1 -28.6 132.5 -27.65 134.15 -27.9 136.75 -29.15 138.7 -31.3" fill="#000000" fill-rule="evenodd" stroke="none"/>
    <path d="M137.3 -7.3 Q139.15 -5.65 139.9 -3.2 139.85 -2.0 139.45 -0.9 139.0 0.2 137.95 1.0 L137.1 1.2 136.25 1.05 Q134.45 -0.85 132.3 -2.4 130.1 -4.0 127.7 -4.55 L126.15 -4.55 124.85 -4.9 125.0 -5.1 Q125.35 -6.0 125.25 -7.0 L124.8 -8.85 126.35 -10.3 Q127.2 -10.9 128.3 -10.95 130.6 -10.7 133.0 -9.8 135.4 -8.9 137.3 -7.3" fill="#ffffff" fill-rule="evenodd" stroke="none"/>
    <path d="M113.75 5.6 Q114.25 3.85 116.0 3.2 L117.2 3.35 118.15 3.95 117.05 7.5 115.7 10.85 114.0 9.1 Q113.25 7.35 113.75 5.6" fill="#fcb286" fill-rule="evenodd" stroke="none"/>
    <path d="M132.75 1.35 L135.0 4.1 Q136.05 5.55 136.0 7.45 135.5 8.8 134.35 9.95 133.2 11.1 131.6 11.25 129.05 10.95 126.7 9.5 124.35 8.1 122.65 5.95 121.4 4.2 121.45 2.15 121.5 0.1 123.05 -1.45 124.75 -2.65 126.45 -2.25 128.15 -1.9 129.75 -0.75 L132.75 1.35" fill="#ffffff" fill-rule="evenodd" stroke="none"/>
    <path d="M117.4 13.75 L119.95 5.2 122.0 7.85 124.2 10.45 122.85 19.2 122.1 22.05 Q121.75 23.6 120.95 24.8 120.2 26.05 118.5 26.45 L117.3 26.3 116.3 25.7 Q115.45 24.65 115.4 23.6 L115.45 22.5 Q116.1 18.05 117.4 13.75" fill="#f1ce92" fill-rule="evenodd" stroke="none"/>
    <path d="M119.8 18.55 Q120.55 18.75 120.8 19.45 121.1 20.15 120.95 20.8 L120.35 22.0 Q119.85 22.6 119.15 22.6 118.55 22.45 117.95 22.0 117.35 21.55 117.25 20.9 L117.45 19.85 Q117.55 19.35 118.05 18.9 L118.9 18.55 Q119.3 18.3 119.8 18.55" fill="#000000" fill-rule="evenodd" stroke="none"/>
    <path d="M136.6 17.7 Q138.45 19.75 138.85 22.35 L138.25 24.0 137.0 25.4 Q135.25 26.25 133.6 25.95 131.95 25.7 130.45 24.8 L127.45 22.9 Q126.0 21.85 124.6 21.1 L126.45 11.95 127.3 12.5 Q129.7 13.0 132.25 14.35 134.75 15.65 136.6 17.7" fill="#ffffff" fill-rule="evenodd" stroke="none"/>
    <path d="M68.45 36.45 Q67.8 35.8 67.3 33.4 66.75 31.0 66.45 27.6 66.1 24.2 66.15 20.45 66.15 16.75 66.65 13.45 67.15 10.15 68.2 7.95 L74.7 7.45 Q74.0 11.75 74.2 16.55 74.45 21.4 75.65 25.85 76.8 30.35 78.95 33.7 L68.45 36.45" fill="#9e9390" fill-rule="evenodd" stroke="none"/>
    <path d="M-39.0 42.45 L-148.5 19.2 -82.75 7.7 0.3 17.05 -39.0 42.45" fill="#000000" fill-rule="evenodd" stroke="none"/>
    <path d="M-22.0 19.35 Q-21.9 20.3 -22.2 21.35 -22.55 22.8 -23.55 24.3 -24.5 25.8 -26.95 27.15 -29.4 28.5 -34.3 29.5 L-47.35 30.85 Q-55.55 31.3 -68.0 30.9 -83.5 30.35 -93.5 27.9 -103.45 25.5 -108.9 22.15 -114.35 18.85 -116.3 15.6 -118.25 12.4 -117.75 10.2 -117.4 8.6 -116.5 7.5 -115.65 6.4 -114.6 5.65 -113.65 5.0 -112.15 4.35 L-109.25 2.7 -109.0 2.5 -108.85 2.2 -108.2 0.9 -107.55 -0.75 -106.25 -4.35 -104.85 -8.45 -102.6 -14.15 Q-101.3 -17.1 -99.55 -19.65 -97.8 -22.15 -95.45 -23.75 -91.25 -26.45 -87.3 -27.8 -83.35 -29.1 -79.3 -29.4 -75.3 -29.75 -70.9 -29.45 L-62.8 -28.75 Q-59.0 -28.3 -55.1 -27.3 -51.15 -26.35 -46.4 -24.6 -42.05 -22.95 -38.95 -19.85 -35.9 -16.75 -33.85 -12.9 -31.85 -9.1 -30.6 -5.25 -29.4 -1.5 -28.65 1.9 L-27.55 7.75 -26.85 11.2 -25.85 13.0 -24.2 15.05 Q-23.25 16.15 -22.5 17.6 -22.1 18.4 -22.0 19.35" fill="#000000" fill-rule="evenodd" stroke="none"/>
    <path d="M-31.35 -0.25 Q-30.4 4.15 -29.9 7.45 L-29.1 11.95 -27.5 15.1 -25.9 17.7 Q-25.25 18.95 -25.65 20.35 L-26.35 22.4 Q-26.9 23.6 -28.8 24.85 -30.75 26.1 -35.15 27.1 L-47.45 28.5 Q-55.4 28.95 -67.95 28.6 -80.5 28.15 -88.9 26.5 -97.35 24.9 -102.45 22.6 -107.55 20.35 -110.05 18.0 -112.6 15.65 -113.35 13.75 -114.1 11.85 -113.85 11.0 -113.55 9.65 -112.85 8.7 -112.1 7.75 -110.85 6.85 L-107.85 4.65 Q-106.8 3.8 -105.85 1.4 -104.85 -1.0 -103.75 -4.3 L-101.35 -11.0 Q-100.0 -14.4 -98.25 -17.3 -96.5 -20.15 -94.15 -21.75 -88.3 -25.5 -82.4 -26.8 -76.55 -28.15 -70.15 -27.7 L-62.3 -27.0 -55.0 -25.55 Q-51.25 -24.6 -46.65 -22.9 -42.1 -21.15 -39.05 -17.45 -36.0 -13.8 -34.2 -9.25 -32.35 -4.7 -31.35 -0.25" fill="#eabf75" fill-rule="evenodd" stroke="none"/>
    <path d="M-46.65 -22.9 Q-45.0 -21.75 -44.75 -20.15 -44.55 -18.55 -46.55 -17.05 -48.55 -15.6 -53.45 -14.8 -58.35 -14.0 -66.95 -14.5 -74.45 -14.95 -79.1 -15.95 -83.75 -16.95 -86.1 -18.25 -88.5 -19.5 -89.25 -20.8 -89.95 -22.1 -89.6 -23.15 -89.25 -24.25 -88.4 -24.85 -84.0 -26.75 -79.5 -27.35 L-70.15 -27.7 -62.3 -27.0 -55.0 -25.55 Q-51.25 -24.6 -46.65 -22.9" fill="#fee094" fill-rule="evenodd" stroke="none"/>
    <path d="M-56.35 -20.65 Q-56.45 -19.6 -58.0 -18.85 -59.55 -18.15 -62.05 -17.85 -64.55 -17.55 -67.6 -17.8 L-73.05 -18.8 Q-75.5 -19.55 -76.9 -20.5 -78.25 -21.5 -78.2 -22.6 -78.05 -23.65 -76.55 -24.4 -75.0 -25.1 -72.5 -25.4 -70.0 -25.7 -66.95 -25.45 L-61.45 -24.45 Q-59.05 -23.7 -57.65 -22.75 -56.3 -21.75 -56.35 -20.65" fill="#bc9463" fill-rule="evenodd" stroke="none"/>
    <path d="M-57.9 -18.25 Q-58.9 -17.65 -61.05 -17.35 -63.2 -17.1 -66.95 -17.4 L-73.45 -18.4 Q-75.7 -19.0 -76.55 -19.7 -77.4 -20.4 -77.6 -21.1 L-78.05 -22.35 Q-78.65 -23.55 -78.3 -23.8 -77.95 -24.05 -77.05 -23.25 L-76.45 -22.25 Q-76.25 -21.75 -75.5 -21.15 -74.7 -20.6 -72.8 -20.1 L-67.2 -19.3 Q-62.95 -19.0 -60.8 -19.45 -58.6 -19.9 -57.75 -20.55 L-56.65 -21.65 -55.95 -21.8 -55.5 -21.1 Q-55.4 -20.65 -55.8 -20.3 L-56.5 -19.45 -57.9 -18.25" fill="#000000" fill-rule="evenodd" stroke="none"/>
    <path d="M-57.05 4.0 Q-59.1 5.2 -61.7 6.2 L-62.0 6.3 -62.9 6.05 -64.3 4.45 Q-64.75 3.55 -64.45 3.0 L-64.05 2.45 Q-65.1 0.05 -66.0 -0.9 -66.85 -1.85 -67.45 -1.9 -68.0 -2.0 -68.1 -1.75 -68.15 -1.55 -68.45 -1.9 L-69.15 -2.4 Q-69.55 -2.6 -69.95 -2.1 L-71.05 -0.35 -71.9 0.9 -71.95 0.95 -72.35 1.3 Q-74.0 2.7 -75.4 3.7 L-78.3 6.2 -80.75 8.95 -83.25 11.1 Q-84.6 12.05 -86.55 12.5 L-90.4 13.4 -91.85 13.75 -92.05 13.8 -95.8 10.0 -98.15 6.75 Q-98.95 5.3 -98.6 4.75 L-96.85 4.65 -93.6 6.4 -89.45 9.65 -89.25 9.6 -87.8 9.3 -83.95 8.4 Q-82.05 7.95 -80.7 7.0 L-78.2 4.8 -75.7 2.1 -73.05 -0.25 -70.35 -2.35 -70.05 -3.65 -70.0 -3.85 Q-69.9 -4.55 -70.2 -5.25 L-70.55 -6.55 Q-70.65 -7.15 -70.1 -7.75 -69.5 -8.35 -67.7 -8.85 L-66.15 -9.25 Q-65.3 -9.45 -64.15 -8.65 -63.0 -7.85 -61.55 -5.3 L-61.55 -4.35 -61.35 -2.35 Q-61.15 -1.2 -60.75 -0.5 L-59.35 1.75 -59.15 2.05 Q-56.55 1.1 -55.2 1.05 -53.85 1.0 -54.35 1.85 -54.95 2.75 -57.05 4.0" fill="#815e37" fill-rule="evenodd" stroke="none"/>
    <path d="M-77.85 -13.3 L-75.6 -13.25 -73.4 -13.15 -70.95 -13.7 -70.6 -13.8 -68.65 -15.6 Q-68.05 -16.0 -68.55 -15.15 L-70.45 -12.7 -73.2 -9.65 -73.5 -9.6 -75.95 -9.05 -78.2 -9.1 -80.4 -9.2 -81.3 -8.95 -81.45 -8.95 Q-82.05 -8.55 -81.75 -7.65 -81.5 -6.75 -81.05 -6.2 -80.65 -5.75 -80.7 -4.85 -80.8 -4.0 -81.35 -3.1 -81.95 -2.2 -83.3 -1.3 -84.65 -0.35 -86.15 0.15 L-86.4 0.35 -86.75 0.7 -87.5 2.15 -88.5 3.4 -89.2 3.55 -89.2 3.5 -89.3 3.15 -89.35 2.95 -88.9 2.1 -88.0 0.65 -87.95 0.55 -87.05 -0.8 -86.75 -1.15 -86.75 -1.1 -85.7 -2.15 -85.65 -2.2 -85.3 -2.45 -85.05 -2.7 Q-84.9 -2.9 -85.25 -3.5 L-86.0 -4.4 -86.3 -5.75 -86.3 -8.1 -85.85 -9.95 Q-85.5 -10.5 -84.65 -10.75 L-82.75 -11.35 Q-81.7 -11.75 -80.7 -12.65 L-80.35 -12.75 -77.85 -13.3" fill="#815e37" fill-rule="evenodd" stroke="none"/>
    <path d="M-92.1 6.15 L-92.0 6.6 -92.0 6.65 -92.6 7.8 -93.55 9.45 -95.1 11.3 -97.0 12.85 -97.2 12.9 -98.55 13.25 -99.5 13.45 -99.1 14.9 -99.05 15.1 Q-98.3 16.3 -98.2 17.7 -98.1 19.1 -98.6 20.0 -99.2 20.85 -100.1 20.45 -101.0 20.05 -101.85 18.6 L-101.95 18.3 -102.45 16.2 -102.55 15.75 -102.55 15.7 -102.0 14.55 -101.0 12.9 -99.45 11.05 -97.55 9.5 -97.35 9.45 -96.0 9.1 -95.75 9.05 -96.7 8.5 -96.85 8.4 Q-97.5 8.3 -97.55 7.65 -97.65 7.0 -97.1 6.15 -96.55 5.25 -95.2 4.8 L-92.5 4.55 -92.45 4.75 -92.1 6.15" fill="#815e37" fill-rule="evenodd" stroke="none"/>
    <path d="M-41.3 -17.85 L-41.25 -17.8 -41.85 -16.75 -42.15 -16.25 -42.85 -15.1 -43.6 -13.9 -43.35 -12.9 -43.3 -12.7 Q-42.45 -12.05 -42.2 -11.05 -42.0 -10.1 -42.45 -9.25 L-42.5 -9.15 Q-42.8 -8.55 -42.6 -8.2 L-42.1 -7.65 -41.8 -7.4 -42.05 -6.25 -42.3 -4.5 -42.9 -4.5 -44.0 -4.35 Q-44.55 -4.15 -44.45 -3.7 L-43.9 -1.2 -43.3 1.35 -42.85 3.35 -42.8 3.65 -44.0 6.85 -45.25 9.4 Q-45.65 10.0 -46.7 10.25 L-48.9 10.6 -50.55 10.65 -51.2 10.35 -52.05 11.75 -53.3 13.6 -54.4 15.05 -54.55 15.1 -55.35 15.3 -56.0 15.15 -56.1 15.1 -56.6 15.0 Q-56.6 16.05 -57.05 16.85 -57.6 17.65 -57.75 17.45 L-57.8 17.25 -58.25 17.25 -59.85 16.7 -61.05 15.9 Q-61.7 15.45 -62.1 15.5 -62.5 15.5 -62.5 15.75 L-62.85 16.75 -63.75 18.4 Q-64.35 19.25 -66.2 19.0 -68.1 18.75 -70.35 17.55 L-70.45 17.6 -71.35 17.8 -73.75 18.35 -74.95 18.6 -75.1 18.65 -76.75 19.95 -77.45 20.85 -78.3 21.35 -79.65 22.05 -79.7 22.0 -80.15 20.55 Q-80.3 19.8 -80.0 19.2 L-78.35 17.9 -75.75 16.4 -73.45 14.75 -73.15 14.65 -71.15 14.2 -68.9 13.7 -68.6 13.65 Q-67.0 14.45 -65.85 14.65 L-64.6 14.5 -64.15 13.45 -63.2 11.8 Q-62.8 11.25 -61.6 11.3 L-59.15 11.75 Q-57.9 12.15 -57.4 12.75 -56.85 13.4 -56.65 14.25 L-56.3 13.6 -56.25 13.5 -55.25 11.95 -54.5 10.95 -54.45 10.95 -54.05 10.85 -53.4 11.0 -52.8 11.15 -52.65 11.1 -52.5 10.9 -52.4 10.65 -52.0 9.9 -51.1 8.4 -50.55 7.9 -49.85 7.4 -48.15 6.8 -46.9 6.65 -46.05 6.55 Q-45.7 6.35 -45.75 5.95 L-45.8 5.9 -45.9 5.45 -46.45 2.95 -47.05 0.45 -47.45 -1.2 -47.5 -1.4 -46.2 -4.2 -44.95 -6.55 Q-44.65 -7.1 -45.05 -7.1 L-45.9 -7.0 Q-46.35 -6.9 -46.15 -7.1 L-44.8 -8.1 -45.9 -8.55 -45.95 -8.75 -46.25 -10.05 -46.3 -10.4 -46.35 -10.45 -45.75 -11.5 -45.15 -12.45 -44.8 -13.0 -44.8 -13.05 -44.75 -13.15 -44.0 -14.3 -44.4 -15.95 -44.45 -16.25 Q-46.15 -16.75 -46.95 -17.7 -47.75 -18.6 -47.25 -19.5 -46.65 -20.35 -45.15 -20.6 L-41.85 -20.35 -41.8 -20.1 -41.35 -18.2 -41.3 -17.85" fill="#815e37" fill-rule="evenodd" stroke="none"/>
    <path d="M-35.85 11.95 Q-36.45 12.8 -37.4 13.25 L-37.65 13.4 -37.55 13.6 Q-37.2 14.3 -36.45 14.45 L-34.6 14.7 -33.6 14.95 -34.15 15.95 -35.2 17.65 -36.4 19.45 -37.55 20.9 -37.65 20.9 -38.45 21.1 -39.6 21.35 -39.75 21.4 -40.95 21.8 Q-41.25 22.0 -40.85 22.15 -40.45 22.3 -40.2 23.25 -39.95 24.15 -40.45 25.1 -41.05 25.95 -42.55 26.3 -44.05 26.65 -45.75 26.3 L-45.8 26.05 -46.2 24.35 -46.35 23.8 -46.35 23.75 -45.95 22.35 -45.0 20.55 Q-44.45 19.7 -43.5 19.0 -42.55 18.35 -41.65 18.2 L-41.55 18.2 -40.8 18.05 -40.65 17.3 -40.65 17.2 -39.75 15.7 -39.45 15.2 -39.55 15.3 -38.65 13.85 -37.9 12.7 -37.9 12.65 -38.75 12.1 Q-39.75 11.6 -41.5 11.35 L-41.75 11.2 -43.4 9.9 -45.2 8.45 -45.45 8.25 -45.5 4.25 Q-45.3 2.35 -44.75 1.4 L-43.65 1.35 Q-43.15 2.1 -42.85 4.1 L-42.6 4.3 -40.8 5.75 -39.15 7.05 -38.9 7.25 -36.6 7.7 Q-36.0 7.95 -36.1 8.2 L-35.95 9.1 -35.65 10.55 Q-35.5 11.4 -35.85 11.95" fill="#815e37" fill-rule="evenodd" stroke="none"/>
    <path d="M-91.85 -18.4 L-91.85 -16.75 Q-91.7 -15.55 -92.0 -14.2 -92.25 -12.8 -92.8 -11.9 -93.4 -11.05 -94.75 -10.25 -96.15 -9.45 -97.7 -9.15 L-97.9 -9.05 -99.3 -8.5 -98.95 -7.95 -98.9 -7.85 Q-98.35 -7.5 -98.3 -6.65 -98.3 -5.85 -98.8 -4.95 -99.4 -4.1 -100.2 -3.75 L-101.8 -3.8 -101.8 -3.95 -102.0 -4.8 -102.2 -5.5 -102.2 -5.6 -101.5 -7.05 -100.45 -8.85 -99.35 -10.3 -97.8 -11.85 -96.45 -12.75 Q-95.9 -12.95 -95.4 -13.6 L-94.5 -15.05 -93.95 -16.2 -93.2 -17.8 -92.1 -19.65 -92.05 -19.65 -92.05 -19.7 Q-91.8 -20.1 -91.8 -19.75 L-91.85 -18.4 M-90.05 -22.5 L-90.8 -21.2 -91.5 -20.6 -90.9 -21.5 -90.0 -22.75 Q-89.8 -22.95 -90.05 -22.5" fill="#815e37" fill-rule="evenodd" stroke="none"/>
    <path d="M-48.2 -18.55 Q-48.35 -17.95 -48.85 -17.45 L-49.85 -15.6 -50.65 -12.4 Q-51.0 -10.6 -50.95 -8.7 L-51.0 -5.05 -51.2 0.6 -51.5 6.8 -51.85 12.15 Q-52.05 14.45 -52.3 15.2 L-53.5 17.9 -55.5 21.65 -57.7 25.25 -59.4 27.4 Q-60.7 28.35 -61.2 28.0 -61.7 27.65 -60.95 26.7 L-59.85 24.65 -58.35 21.05 -56.7 17.05 -55.2 13.7 Q-54.65 12.55 -54.5 9.95 -54.35 7.4 -54.35 4.05 L-54.5 -2.75 -54.55 -8.9 -54.3 -13.1 Q-53.85 -15.3 -52.85 -16.45 L-50.8 -18.1 Q-49.7 -18.6 -49.1 -19.1 -48.55 -19.6 -48.3 -19.35 -48.05 -19.15 -48.2 -18.55" fill="#fee094" fill-rule="evenodd" stroke="none"/>
    <path d="M-80.75 -21.55 Q-79.9 -21.6 -79.8 -21.3 -79.7 -20.95 -80.15 -20.55 -80.6 -20.15 -81.4 -20.05 L-82.65 -19.55 -83.65 -18.2 -85.25 -15.75 -87.4 -12.75 -90.9 -8.25 -94.8 -3.3 -98.25 0.85 -100.45 3.1 -103.8 5.4 Q-105.6 6.55 -107.45 6.7 -109.25 6.75 -109.5 6.3 -109.75 5.8 -108.5 5.25 -106.2 4.2 -104.9 2.8 L-102.35 0.2 -99.75 -2.8 -96.15 -7.65 -92.25 -13.15 -88.65 -18.1 -85.9 -21.3 Q-84.25 -22.8 -83.4 -22.75 -82.6 -22.65 -82.1 -22.1 -81.55 -21.55 -80.75 -21.55" fill="#fee094" fill-rule="evenodd" stroke="none"/>
    <path d="M-37.05 -12.5 L-35.95 -9.0 -34.35 -3.55 -32.7 2.45 -31.45 7.65 Q-30.9 9.85 -30.9 10.65 L-31.2 13.6 -31.95 17.8 -32.9 21.85 Q-33.45 23.7 -33.9 24.45 -34.85 25.75 -35.4 25.6 -36.0 25.4 -35.55 24.25 L-35.15 22.05 -34.85 18.3 -34.55 14.1 -34.15 10.5 Q-33.95 8.95 -34.7 6.15 L-36.5 0.15 -38.55 -6.0 -39.75 -10.7 Q-40.05 -12.45 -41.25 -13.8 -42.4 -15.2 -43.8 -16.25 L-46.1 -18.1 Q-47.05 -18.9 -46.8 -19.4 -46.5 -20.1 -46.9 -20.65 L-47.35 -21.35 -46.05 -21.1 -42.75 -19.25 Q-40.85 -17.85 -39.3 -16.05 -37.7 -14.3 -37.05 -12.5" fill="#fee094" fill-rule="evenodd" stroke="none"/>
    <path d="M-64.95 -15.85 Q-64.8 -15.55 -65.2 -15.05 L-66.3 -14.3 Q-67.5 -13.85 -69.25 -11.8 -71.0 -9.75 -72.2 -7.1 L-73.75 -3.75 -76.3 1.35 -79.2 6.95 -81.8 11.7 -83.5 14.3 -85.9 16.35 -89.6 19.0 -93.4 21.5 Q-95.15 22.55 -96.1 22.8 L-98.25 22.65 Q-98.6 22.15 -97.4 21.55 L-94.5 19.3 -90.05 15.3 -85.95 11.8 Q-84.95 11.0 -83.7 8.7 L-81.05 3.3 -78.4 -2.95 -75.9 -8.65 -73.9 -12.4 Q-72.5 -14.25 -70.95 -14.9 L-68.1 -15.6 -65.9 -15.9 -64.95 -15.85" fill="#fee094" fill-rule="evenodd" stroke="none"/>
  </g>
</svg>
