<?xml version="1.0" encoding="UTF-8" standalone="no"?>
<svg xmlns:xlink="http://www.w3.org/1999/xlink" height="307.95px" width="158.0px" xmlns="http://www.w3.org/2000/svg">
  <g transform="matrix(1.0, 0.0, 0.0, 1.0, 87.05, 100.05)">
    <path d="M59.1 -72.0 L59.1 194.35 Q59.05 197.6 57.75 200.2 56.45 202.8 54.25 204.35 52.05 205.9 49.3 205.9 L-66.2 205.9 Q-68.95 205.85 -71.2 204.35 -73.4 202.8 -74.7 200.2 -76.0 197.55 -76.05 194.35 L-76.05 -72.0 Q-76.0 -75.25 -74.7 -77.85 -73.4 -80.5 -71.2 -82.0 -68.95 -83.55 -66.2 -83.6 L49.3 -83.6 Q52.05 -83.55 54.25 -82.0 56.45 -80.5 57.75 -77.85 59.1 -75.25 59.1 -72.0 Z" fill="none" stroke="#000000" stroke-linecap="round" stroke-linejoin="round" stroke-width="4.0"/>
    <path d="M68.95 -86.45 Q68.95 -83.25 67.6 -80.6 66.3 -78.0 64.1 -76.45 61.9 -74.95 59.15 -74.9 L-75.2 -74.9 Q-77.95 -74.95 -80.15 -76.5 -82.4 -78.0 -83.7 -80.65 -85.0 -83.25 -85.05 -86.45 -85.0 -89.7 -83.7 -92.3 -82.4 -94.95 -80.15 -96.45 -77.95 -98.0 -75.2 -98.05 L59.15 -98.05 Q61.9 -98.0 64.1 -96.45 66.3 -94.95 67.65 -92.3 68.95 -89.7 68.95 -86.45 Z" fill="none" stroke="#000000" stroke-linecap="round" stroke-linejoin="round" stroke-width="4.0"/>
    <path d="M68.95 -86.45 Q68.95 -83.25 67.6 -80.6 66.3 -78.0 64.1 -76.45 61.9 -74.95 59.15 -74.9 L-75.2 -74.9 Q-77.95 -74.95 -80.15 -76.5 -82.4 -78.0 -83.7 -80.65 -85.0 -83.25 -85.05 -86.45 -85.0 -89.7 -83.7 -92.3 -82.4 -94.95 -80.15 -96.45 -77.95 -98.0 -75.2 -98.05 L59.15 -98.05 Q61.9 -98.0 64.1 -96.45 66.3 -94.95 67.65 -92.3 68.95 -89.7 68.95 -86.45 Z" fill="none" stroke="#000000" stroke-linecap="round" stroke-linejoin="round" stroke-width="4.0"/>
    <path d="M68.95 -86.45 Q68.95 -83.25 67.6 -80.6 66.3 -78.0 64.1 -76.45 61.9 -74.95 59.15 -74.9 L-75.2 -74.9 Q-77.95 -74.95 -80.15 -76.5 -82.4 -78.0 -83.7 -80.65 -85.0 -83.25 -85.05 -86.45 -85.0 -89.7 -83.7 -92.3 -82.4 -94.95 -80.15 -96.45 -77.95 -98.0 -75.2 -98.05 L59.15 -98.05 Q61.9 -98.0 64.1 -96.45 66.3 -94.95 67.65 -92.3 68.95 -89.7 68.95 -86.45 Z" fill="none" stroke="#000000" stroke-linecap="round" stroke-linejoin="round" stroke-width="4.0"/>
    <path d="M68.95 -86.45 Q68.95 -83.25 67.6 -80.6 66.3 -78.0 64.1 -76.45 61.9 -74.95 59.15 -74.9 L-75.2 -74.9 Q-77.95 -74.95 -80.15 -76.5 -82.4 -78.0 -83.7 -80.65 -85.0 -83.25 -85.05 -86.45 -85.0 -89.7 -83.7 -92.3 -82.4 -94.95 -80.15 -96.45 -77.95 -98.0 -75.2 -98.05 L59.15 -98.05 Q61.9 -98.0 64.1 -96.45 66.3 -94.95 67.65 -92.3 68.95 -89.7 68.95 -86.45 Z" fill="none" stroke="#000000" stroke-linecap="round" stroke-linejoin="round" stroke-width="4.0"/>
    <path d="M68.95 -86.45 Q68.95 -83.25 67.6 -80.6 66.3 -78.0 64.1 -76.45 61.9 -74.95 59.15 -74.9 L-75.2 -74.9 Q-77.95 -74.95 -80.15 -76.5 -82.4 -78.0 -83.7 -80.65 -85.0 -83.25 -85.05 -86.45 -85.0 -89.7 -83.7 -92.3 -82.4 -94.95 -80.15 -96.45 -77.95 -98.0 -75.2 -98.05 L59.15 -98.05 Q61.9 -98.0 64.1 -96.45 66.3 -94.95 67.65 -92.3 68.95 -89.7 68.95 -86.45 Z" fill="none" stroke="#000000" stroke-linecap="round" stroke-linejoin="round" stroke-width="4.0"/>
    <path d="M68.95 -86.45 Q68.95 -83.25 67.6 -80.6 66.3 -78.0 64.1 -76.45 61.9 -74.95 59.15 -74.9 L-75.2 -74.9 Q-77.95 -74.95 -80.15 -76.5 -82.4 -78.0 -83.7 -80.65 -85.0 -83.25 -85.05 -86.45 -85.0 -89.7 -83.7 -92.3 -82.4 -94.95 -80.15 -96.45 -77.95 -98.0 -75.2 -98.05 L59.15 -98.05 Q61.9 -98.0 64.1 -96.45 66.3 -94.95 67.65 -92.3 68.95 -89.7 68.95 -86.45 Z" fill="none" stroke="#000000" stroke-linecap="round" stroke-linejoin="round" stroke-width="4.0"/>
    <path d="M68.95 -86.45 Q68.95 -83.25 67.6 -80.6 66.3 -78.0 64.1 -76.45 61.9 -74.95 59.15 -74.9 L-75.2 -74.9 Q-77.95 -74.95 -80.15 -76.5 -82.4 -78.0 -83.7 -80.65 -85.0 -83.25 -85.05 -86.45 -85.0 -89.7 -83.7 -92.3 -82.4 -94.95 -80.15 -96.45 -77.95 -98.0 -75.2 -98.05 L59.15 -98.05 Q61.9 -98.0 64.1 -96.45 66.3 -94.95 67.65 -92.3 68.95 -89.7 68.95 -86.45 Z" fill="none" stroke="#000000" stroke-linecap="round" stroke-linejoin="round" stroke-width="4.0"/>
    <path d="M68.95 -86.45 Q68.95 -83.25 67.6 -80.6 66.3 -78.0 64.1 -76.45 61.9 -74.95 59.15 -74.9 L-75.2 -74.9 Q-77.95 -74.95 -80.15 -76.5 -82.4 -78.0 -83.7 -80.65 -85.0 -83.25 -85.05 -86.45 -85.0 -89.7 -83.7 -92.3 -82.4 -94.95 -80.15 -96.45 -77.95 -98.0 -75.2 -98.05 L59.15 -98.05 Q61.9 -98.0 64.1 -96.45 66.3 -94.95 67.65 -92.3 68.95 -89.7 68.95 -86.45 Z" fill="none" stroke="#000000" stroke-linecap="round" stroke-linejoin="round" stroke-width="4.0"/>
    <path d="M60.55 -76.0 Q60.5 -73.45 59.35 -71.4 58.15 -69.4 56.2 -68.15 54.25 -66.95 51.8 -66.95 L-67.85 -66.95 Q-70.3 -66.95 -72.25 -68.2 -74.25 -69.4 -75.4 -71.45 -76.55 -73.5 -76.6 -76.0 -76.55 -78.55 -75.4 -80.6 -74.25 -82.65 -72.25 -83.85 -70.3 -85.05 -67.85 -85.1 L51.8 -85.1 Q54.25 -85.05 56.2 -83.85 58.15 -82.65 59.35 -80.6 60.5 -78.55 60.55 -76.0 Z" fill="none" stroke="#000000" stroke-linecap="round" stroke-linejoin="round" stroke-width="4.0"/>
    <path d="M68.15 -84.35 Q68.1 -81.7 66.85 -79.6 65.55 -77.45 63.35 -76.2 61.15 -74.95 58.45 -74.9 L-74.45 -74.9 Q-77.2 -74.95 -79.35 -76.2 -81.55 -77.45 -82.85 -79.6 -84.15 -81.7 -84.2 -84.35 -84.15 -87.0 -82.85 -89.1 -81.55 -91.25 -79.4 -92.5 -77.2 -93.75 -74.45 -93.8 L58.45 -93.8 Q61.15 -93.75 63.35 -92.5 65.55 -91.25 66.85 -89.1 68.15 -87.0 68.15 -84.35 Z" fill="none" stroke="#000000" stroke-linecap="round" stroke-linejoin="round" stroke-width="4.0"/>
    <path d="M67.0 -82.05 Q67.0 -80.05 65.7 -78.45 64.45 -76.8 62.25 -75.85 60.1 -74.9 57.4 -74.9 L-74.1 -74.9 Q-76.8 -74.9 -78.95 -75.85 -81.1 -76.8 -82.4 -78.45 -83.7 -80.05 -83.7 -82.05 -83.7 -84.05 -82.4 -85.65 -81.1 -87.25 -78.95 -88.2 -76.8 -89.15 -74.1 -89.15 L57.4 -89.15 Q60.1 -89.15 62.25 -88.2 64.45 -87.25 65.7 -85.65 67.0 -84.05 67.0 -82.05 Z" fill="none" stroke="#000000" stroke-linecap="round" stroke-linejoin="round" stroke-width="4.0"/>
    <path d="M59.1 -72.0 L59.1 194.35 Q59.05 197.6 57.75 200.2 56.45 202.8 54.25 204.35 52.05 205.9 49.3 205.9 L-66.2 205.9 Q-68.95 205.85 -71.2 204.35 -73.4 202.8 -74.7 200.2 -76.0 197.6 -76.05 194.35 L-76.05 -72.0 Q-76.0 -75.25 -74.7 -77.85 -73.4 -80.45 -71.2 -82.0 -68.95 -83.55 -66.2 -83.6 L49.3 -83.6 Q52.05 -83.55 54.25 -82.0 56.45 -80.45 57.75 -77.85 59.1 -75.25 59.1 -72.0" fill="#9fa00e" fill-rule="evenodd" stroke="none"/>
    <path d="M68.95 -86.5 Q68.9 -83.25 67.6 -80.65 66.3 -78.05 64.1 -76.5 61.85 -74.95 59.1 -74.95 L-75.2 -74.95 Q-77.95 -75.0 -80.2 -76.5 -82.4 -78.05 -83.7 -80.65 -85.0 -83.3 -85.05 -86.5 -85.0 -89.75 -83.7 -92.35 -82.4 -94.95 -80.2 -96.5 -77.95 -98.05 -75.2 -98.1 L59.1 -98.1 Q61.85 -98.05 64.1 -96.5 66.3 -94.95 67.6 -92.35 68.9 -89.75 68.95 -86.5" fill="#99d47f" fill-rule="evenodd" stroke="none"/>
    <path d="M68.95 -86.5 Q68.9 -83.25 67.6 -80.65 66.3 -78.05 64.1 -76.5 61.85 -74.95 59.1 -74.95 L-75.2 -74.95 Q-77.95 -75.0 -80.2 -76.5 -82.4 -78.05 -83.7 -80.65 -85.0 -83.3 -85.05 -86.5 -85.0 -89.75 -83.7 -92.35 -82.4 -94.95 -80.2 -96.5 -77.95 -98.05 -75.2 -98.1 L59.1 -98.1 Q61.85 -98.05 64.1 -96.5 66.3 -94.95 67.6 -92.35 68.9 -89.75 68.95 -86.5" fill="#99d47f" fill-rule="evenodd" stroke="none"/>
    <path d="M68.95 -86.5 Q68.9 -83.25 67.6 -80.65 66.3 -78.05 64.1 -76.5 61.85 -74.95 59.1 -74.95 L-75.2 -74.95 Q-77.95 -75.0 -80.2 -76.5 -82.4 -78.05 -83.7 -80.65 -85.0 -83.3 -85.05 -86.5 -85.0 -89.75 -83.7 -92.35 -82.4 -94.95 -80.2 -96.5 -77.95 -98.05 -75.2 -98.1 L59.1 -98.1 Q61.85 -98.05 64.1 -96.5 66.3 -94.95 67.6 -92.35 68.9 -89.75 68.95 -86.5" fill="#99d47f" fill-rule="evenodd" stroke="none"/>
    <path d="M68.95 -86.5 Q68.9 -83.25 67.6 -80.65 66.3 -78.05 64.1 -76.5 61.85 -74.95 59.1 -74.95 L-75.2 -74.95 Q-77.95 -75.0 -80.2 -76.5 -82.4 -78.05 -83.7 -80.65 -85.0 -83.3 -85.05 -86.5 -85.0 -89.75 -83.7 -92.35 -82.4 -94.95 -80.2 -96.5 -77.95 -98.05 -75.2 -98.1 L59.1 -98.1 Q61.85 -98.05 64.1 -96.5 66.3 -94.95 67.6 -92.35 68.9 -89.75 68.95 -86.5" fill="#99d47f" fill-rule="evenodd" stroke="none"/>
    <path d="M68.95 -86.5 Q68.9 -83.25 67.6 -80.65 66.3 -78.05 64.1 -76.5 61.85 -74.95 59.1 -74.95 L-75.2 -74.95 Q-77.95 -75.0 -80.2 -76.5 -82.4 -78.05 -83.7 -80.65 -85.0 -83.3 -85.05 -86.5 -85.0 -89.75 -83.7 -92.35 -82.4 -94.95 -80.2 -96.5 -77.95 -98.05 -75.2 -98.1 L59.1 -98.1 Q61.85 -98.05 64.1 -96.5 66.3 -94.95 67.6 -92.35 68.9 -89.75 68.95 -86.5" fill="#99d47f" fill-rule="evenodd" stroke="none"/>
    <path d="M68.95 -86.5 Q68.9 -83.25 67.6 -80.65 66.3 -78.05 64.1 -76.5 61.85 -74.95 59.1 -74.95 L-75.2 -74.95 Q-77.95 -75.0 -80.2 -76.5 -82.4 -78.05 -83.7 -80.65 -85.0 -83.3 -85.05 -86.5 -85.0 -89.75 -83.7 -92.35 -82.4 -94.95 -80.2 -96.5 -77.95 -98.05 -75.2 -98.1 L59.1 -98.1 Q61.85 -98.05 64.1 -96.5 66.3 -94.95 67.6 -92.35 68.9 -89.75 68.95 -86.5" fill="#99d47f" fill-rule="evenodd" stroke="none"/>
    <path d="M68.95 -86.5 Q68.9 -83.25 67.6 -80.65 66.3 -78.05 64.1 -76.5 61.85 -74.95 59.1 -74.95 L-75.2 -74.95 Q-77.95 -75.0 -80.2 -76.5 -82.4 -78.05 -83.7 -80.65 -85.0 -83.3 -85.05 -86.5 -85.0 -89.75 -83.7 -92.35 -82.4 -94.95 -80.2 -96.5 -77.95 -98.05 -75.2 -98.1 L59.1 -98.1 Q61.85 -98.05 64.1 -96.5 66.3 -94.95 67.6 -92.35 68.9 -89.75 68.95 -86.5" fill="#99d47f" fill-rule="evenodd" stroke="none"/>
    <path d="M68.95 -86.5 Q68.9 -83.25 67.6 -80.65 66.3 -78.05 64.1 -76.5 61.85 -74.95 59.1 -74.95 L-75.2 -74.95 Q-77.95 -75.0 -80.2 -76.5 -82.4 -78.05 -83.7 -80.65 -85.0 -83.3 -85.05 -86.5 -85.0 -89.75 -83.7 -92.35 -82.4 -94.95 -80.2 -96.5 -77.95 -98.05 -75.2 -98.1 L59.1 -98.1 Q61.85 -98.05 64.1 -96.5 66.3 -94.95 67.6 -92.35 68.9 -89.75 68.95 -86.5" fill="#99d47f" fill-rule="evenodd" stroke="none"/>
    <path d="M60.5 -76.0 Q60.5 -73.45 59.3 -71.45 58.15 -69.4 56.2 -68.2 54.2 -66.95 51.75 -66.95 L-67.85 -66.95 Q-70.3 -66.95 -72.25 -68.2 -74.25 -69.4 -75.4 -71.45 -76.55 -73.5 -76.6 -76.0 -76.55 -78.55 -75.4 -80.6 -74.25 -82.65 -72.25 -83.85 -70.3 -85.05 -67.85 -85.1 L51.75 -85.1 Q54.2 -85.05 56.2 -83.85 58.15 -82.65 59.3 -80.6 60.5 -78.55 60.5 -76.0" fill="#90910d" fill-rule="evenodd" stroke="none"/>
    <path d="M68.15 -84.35 Q68.1 -81.7 66.8 -79.6 65.5 -77.5 63.35 -76.2 61.15 -74.95 58.4 -74.95 L-74.5 -74.95 Q-77.2 -74.95 -79.4 -76.25 -81.6 -77.5 -82.85 -79.6 -84.15 -81.75 -84.2 -84.35 -84.15 -87.0 -82.85 -89.1 -81.6 -91.25 -79.4 -92.5 -77.2 -93.75 -74.5 -93.8 L58.4 -93.8 Q61.15 -93.75 63.3 -92.5 65.5 -91.25 66.8 -89.15 68.1 -87.0 68.15 -84.35" fill="#66bb50" fill-rule="evenodd" stroke="none"/>
    <path d="M67.0 -82.05 Q66.95 -80.05 65.7 -78.45 64.4 -76.85 62.25 -75.9 60.05 -74.95 57.35 -74.9 L-74.15 -74.9 Q-76.85 -74.95 -79.0 -75.9 -81.15 -76.85 -82.45 -78.45 -83.7 -80.05 -83.75 -82.05 -83.7 -84.05 -82.45 -85.65 -81.15 -87.25 -79.0 -88.2 -76.8 -89.2 -74.15 -89.2 L57.35 -89.2 Q60.05 -89.2 62.2 -88.25 64.4 -87.25 65.7 -85.65 66.95 -84.05 67.0 -82.05" fill="#33a02c" fill-rule="evenodd" stroke="none"/>
  </g>
</svg>
