<?xml version="1.0" encoding="UTF-8" standalone="no"?>
<svg xmlns:xlink="http://www.w3.org/1999/xlink" height="49.95px" width="188.95px" xmlns="http://www.w3.org/2000/svg">
  <g transform="matrix(1.0, 0.0, 0.0, 1.0, 132.1, 29.9)">
    <path d="M55.85 -23.9 L49.85 7.05 Q49.85 12.0 46.3 15.5 42.8 19.05 37.85 19.05 L-112.1 19.05 Q-117.05 19.05 -120.6 15.5 -124.1 12.0 -124.1 7.05 L-131.1 -23.9 55.85 -23.9" fill="#cccccc" fill-rule="evenodd" stroke="none"/>
    <path d="M-131.1 -23.9 L-124.1 7.05 Q-124.1 12.0 -120.6 15.5 -117.05 19.05 -112.1 19.05 L37.85 19.05 Q42.8 19.05 46.3 15.5 49.85 12.0 49.85 7.05 L55.85 -23.9" fill="none" stroke="#000000" stroke-linecap="round" stroke-linejoin="round" stroke-width="2.0"/>
    <path d="M-129.05 -29.9 L52.85 -29.9 47.0 1.8 Q47.0 6.85 43.55 10.45 40.15 14.05 35.35 14.05 L-110.6 14.05 Q-115.4 14.05 -118.85 10.45 -122.3 6.85 -122.25 1.8 L-129.05 -29.9" fill="#ffffff" fill-rule="evenodd" stroke="none"/>
  </g>
</svg>
